<?xml version="1.0" encoding="UTF-8" standalone="no"?>
<!DOCTYPE svg PUBLIC "-//W3C//DTD SVG 1.1//EN"
 "http://www.w3.org/Graphics/SVG/1.1/DTD/svg11.dtd">
<!-- Generated by graphviz version 2.43.0 (0)
 -->
<!-- Title: timeline_1324_09 Pages: 1 -->
<svg width="633pt" height="478pt"
 viewBox="0.00 0.00 632.80 477.87" xmlns="http://www.w3.org/2000/svg" xmlns:xlink="http://www.w3.org/1999/xlink">
<g id="graph0" class="graph" transform="scale(1 1) rotate(0) translate(4 473.87)">
<title>timeline_1324_09</title>
<polygon fill="#ffffff" stroke="transparent" points="-4,4 -4,-473.87 628.8,-473.87 628.8,4 -4,4"/>
<!-- godaigo_tenno -->
<g id="node1" class="node">
<title>godaigo_tenno</title>
<g id="a_node1"><a xlink:href="https://ja.wikipedia.org/wiki/後醍醐天皇" xlink:title="大覚寺統の天皇。密かに討幕を計画。" target="_blank">
<polygon fill="#fcfcfc" stroke="#fcfcfc" stroke-width="0.1" points="189.06,-469.87 88.06,-469.87 88.06,-447.87 189.06,-447.87 189.06,-469.87"/>
<text text-anchor="middle" x="138.56" y="-455.07" font-family="sans-serif" font-size="16.00" fill="#cc0000">後醍醐天皇</text>
</a>
</g>
</g>
<!-- muso_soseki -->
<g id="node21" class="node">
<title>muso_soseki</title>
<g id="a_node21"><a xlink:href="https://ja.wikipedia.org/wiki/夢窓疎石" xlink:title="高徳の禅僧。後醍醐天皇や幕府から帰依を受ける。" target="_blank">
<polygon fill="#fcfcfc" stroke="#fcfcfc" stroke-width="0.1" points="624.8,-84.19 523.8,-84.19 523.8,-62.19 624.8,-62.19 624.8,-84.19"/>
<text text-anchor="middle" x="574.3" y="-70.09" font-family="sans-serif" font-size="12.00" fill="#444444">夢窓疎石</text>
</a>
</g>
</g>
<!-- godaigo_tenno&#45;&gt;muso_soseki -->
<g id="edge13" class="edge">
<title>godaigo_tenno&#45;&gt;muso_soseki</title>
<g id="a_edge13"><a xlink:title="優れた禅僧として宮廷に召し出すなど深く信頼（帰依・召聘）">
<path fill="none" stroke="#8844aa" stroke-width="2.5" d="M176.24,-447.8C183.04,-446.17 190.11,-444.72 196.83,-443.76 199.64,-443.35 245.91,-444.13 247.93,-442.13 251.29,-438.79 248.04,-403.93 249.62,-399.45 276.09,-324.29 285.89,-292.57 356.38,-255.41 369.38,-248.56 409.23,-259.36 422.43,-252.93 493.72,-218.2 544.21,-132.8 564.46,-93.54"/>
<polygon fill="#8844aa" stroke="#8844aa" stroke-width="2.5" points="567.7,-94.9 569.06,-84.4 561.44,-91.76 567.7,-94.9"/>
</a>
</g>
</g>
<!-- hino_suketomo -->
<g id="node2" class="node">
<title>hino_suketomo</title>
<g id="a_node2"><a xlink:href="https://ja.wikipedia.org/wiki/日野資朝" xlink:title="天皇の側近。無礼講を主宰し討幕を謀る。" target="_blank">
<polygon fill="#fcfcfc" stroke="#fcfcfc" stroke-width="0.1" points="101,-408.9 0,-408.9 0,-386.9 101,-386.9 101,-408.9"/>
<text text-anchor="middle" x="50.5" y="-394.5" font-family="sans-serif" font-size="13.00" fill="#cc0000">日野資朝</text>
</a>
</g>
</g>
<!-- hino_suketomo&#45;&gt;godaigo_tenno -->
<g id="edge4" class="edge">
<title>hino_suketomo&#45;&gt;godaigo_tenno</title>
<g id="a_edge4"><a xlink:title="無礼講などを通じて天皇の討幕意志に同心（討幕密議）">
<path fill="none" stroke="#ff4444" stroke-width="3.2" d="M101.25,-404.43C119.4,-407.28 136.09,-410.72 138.84,-414.01 140.31,-415.78 140.36,-425.47 140,-435.39"/>
<polygon fill="#ff4444" stroke="#ff4444" stroke-width="3.2" points="135.79,-435.3 139.38,-447.5 144.18,-435.73 135.79,-435.3"/>
</a>
</g>
</g>
<!-- hino_toshimoto -->
<g id="node3" class="node">
<title>hino_toshimoto</title>
<g id="a_node3"><a xlink:href="https://ja.wikipedia.org/wiki/日野俊基" xlink:title="天皇の側近。資朝とともに討幕運動を推進。" target="_blank">
<polygon fill="#fcfcfc" stroke="#fcfcfc" stroke-width="0.1" points="135.64,-439.21 34.64,-439.21 34.64,-417.21 135.64,-417.21 135.64,-439.21"/>
<text text-anchor="middle" x="85.14" y="-424.81" font-family="sans-serif" font-size="13.00" fill="#cc0000">日野俊基</text>
</a>
</g>
</g>
<!-- hino_toshimoto&#45;&gt;godaigo_tenno -->
<g id="edge5" class="edge">
<title>hino_toshimoto&#45;&gt;godaigo_tenno</title>
<g id="a_edge5"><a xlink:title="資朝とともに討幕のネットワークを画策（討幕密議）">
<path fill="none" stroke="#ff4444" stroke-width="3.2" d="M104.42,-439.28C105.77,-440.05 107.14,-440.84 108.52,-441.63"/>
<polygon fill="#ff4444" stroke="#ff4444" stroke-width="3.2" points="106.62,-445.39 119.12,-447.72 110.8,-438.1 106.62,-445.39"/>
</a>
</g>
</g>
<!-- monbun_kenshin -->
<g id="node4" class="node">
<title>monbun_kenshin</title>
<g id="a_node4"><a xlink:href="https://ja.wikipedia.org/wiki/文観" xlink:title="醍醐寺の僧。真言密教を以て後醍醐を祈祷・調伏で支える。" target="_blank">
<polygon fill="#fcfcfc" stroke="#fcfcfc" stroke-width="0.1" points="591.65,-54.17 490.65,-54.17 490.65,-32.17 591.65,-32.17 591.65,-54.17"/>
<text text-anchor="middle" x="541.15" y="-39.77" font-family="sans-serif" font-size="13.00" fill="#cc0000">文観</text>
</a>
</g>
</g>
<!-- monbun_kenshin&#45;&gt;godaigo_tenno -->
<g id="edge7" class="edge">
<title>monbun_kenshin&#45;&gt;godaigo_tenno</title>
<g id="a_edge7"><a xlink:title="真言密教による調伏・祈祷で後醍醐を精神的・謀略的に支援（討幕祈祷）">
<path fill="none" stroke="#ff4444" stroke-width="3.2" d="M506.99,-54.23C448.53,-74.48 327.9,-122.21 248.17,-194.52 175.05,-260.84 155.47,-286.32 127.51,-381 123.93,-393.1 120.47,-398.92 127.51,-409.4 130.54,-413.91 135.8,-409.5 138.84,-414.01 141.23,-417.57 140.4,-426.5 139.58,-435.5"/>
<polygon fill="#ff4444" stroke="#ff4444" stroke-width="3.2" points="135.37,-435.47 138.77,-447.72 143.75,-436.02 135.37,-435.47"/>
</a>
</g>
</g>
<!-- gofushimi_in -->
<g id="node5" class="node">
<title>gofushimi_in</title>
<g id="a_node5"><a xlink:href="https://ja.wikipedia.org/wiki/後伏見天皇" xlink:title="持明院統の院。大覚寺統の動きを警戒。" target="_blank">
<polygon fill="#fcfcfc" stroke="#fcfcfc" stroke-width="0.1" points="301.03,-468.96 200.03,-468.96 200.03,-446.96 301.03,-446.96 301.03,-468.96"/>
<text text-anchor="middle" x="250.53" y="-454.26" font-family="sans-serif" font-size="14.00" fill="#0000cc">後伏見院</text>
</a>
</g>
</g>
<!-- gofushimi_in&#45;&gt;godaigo_tenno -->
<g id="edge9" class="edge">
<title>gofushimi_in&#45;&gt;godaigo_tenno</title>
<g id="a_edge9"><a xlink:title="皇位継承を巡り、大覚寺統の後醍醐天皇の動向を激しく警戒（持明院統による警戒）">
<path fill="none" stroke="#0000aa" stroke-width="3.2" d="M199.79,-458.37C199.68,-458.37 199.57,-458.37 199.46,-458.37"/>
<polygon fill="#0000aa" stroke="#0000aa" stroke-width="3.2" points="201.31,-454.16 189.34,-458.46 201.38,-462.56 201.31,-454.16"/>
</a>
</g>
</g>
<!-- hanazono_in -->
<g id="node6" class="node">
<title>hanazono_in</title>
<g id="a_node6"><a xlink:href="https://ja.wikipedia.org/wiki/花園天皇" xlink:title="持明院統の院。政情不安を深く憂慮。" target="_blank">
<polygon fill="#fcfcfc" stroke="#fcfcfc" stroke-width="0.1" points="244.73,-438.93 143.73,-438.93 143.73,-416.93 244.73,-416.93 244.73,-438.93"/>
<text text-anchor="middle" x="194.23" y="-424.23" font-family="sans-serif" font-size="14.00" fill="#0000cc">花園院</text>
</a>
</g>
</g>
<!-- gofukakusa_in -->
<g id="node7" class="node">
<title>gofukakusa_in</title>
<g id="a_node7"><a xlink:href="https://ja.wikipedia.org/wiki/後深草天皇" xlink:title="持明院統の源流（この月で退場）。" target="_blank">
<polygon fill="#fcfcfc" stroke="#fcfcfc" stroke-width="0.1" points="353.82,-424.65 252.82,-424.65 252.82,-402.65 353.82,-402.65 353.82,-424.65"/>
<text text-anchor="middle" x="303.32" y="-410.85" font-family="sans-serif" font-size="11.00" fill="#0000cc">後深草院</text>
</a>
</g>
</g>
<!-- hojo_takatoki -->
<g id="node8" class="node">
<title>hojo_takatoki</title>
<g id="a_node8"><a xlink:href="https://ja.wikipedia.org/wiki/北条高時" xlink:title="鎌倉幕府第14代執権。得宗。" target="_blank">
<polygon fill="#fcfcfc" stroke="#fcfcfc" stroke-width="0.1" points="515.62,-382.11 414.62,-382.11 414.62,-360.11 515.62,-360.11 515.62,-382.11"/>
<text text-anchor="middle" x="465.12" y="-367.61" font-family="sans-serif" font-size="15.00" fill="#004400">北条高時</text>
</a>
</g>
</g>
<!-- hojo_takatoki&#45;&gt;hino_suketomo -->
<g id="edge2" class="edge">
<title>hojo_takatoki&#45;&gt;hino_suketomo</title>
<g id="a_edge2"><a xlink:title="討幕の計画を察知し、六波羅探題を動かして日野資朝らを検挙・連行（捕縛・検挙）">
<path fill="none" stroke="#cc0000" stroke-width="4" d="M414.57,-369.66C348.35,-368.43 228.77,-368.51 127.51,-381 121.23,-381.77 114.7,-382.82 108.22,-384.01"/>
<polygon fill="#cc0000" stroke="#cc0000" stroke-width="4" points="107,-379.26 94.24,-386.82 108.93,-388.87 107,-379.26"/>
</a>
</g>
</g>
<!-- hojo_takatoki&#45;&gt;hino_toshimoto -->
<g id="edge3" class="edge">
<title>hojo_takatoki&#45;&gt;hino_toshimoto</title>
<g id="a_edge3"><a xlink:title="資朝とともに俊基も鎌倉へ連行（捕縛・検挙）">
<path fill="none" stroke="#cc0000" stroke-width="4" d="M414.31,-371.25C369.6,-372.88 303.42,-379.03 249.62,-399.45 242.24,-402.25 242.4,-406.91 234.91,-409.4 214.98,-416.01 161.28,-410.58 140.53,-413.73 139.37,-413.91 138.2,-414.1 137.02,-414.3"/>
<polygon fill="#cc0000" stroke="#cc0000" stroke-width="4" points="135.78,-409.55 123.06,-417.18 137.76,-419.15 135.78,-409.55"/>
</a>
</g>
</g>
<!-- hojo_sadatoki -->
<g id="node9" class="node">
<title>hojo_sadatoki</title>
<g id="a_node9"><a xlink:href="https://ja.wikipedia.org/wiki/北条貞時" xlink:title="先代得宗（この月で退場）。" target="_blank">
<polygon fill="#fcfcfc" stroke="#fcfcfc" stroke-width="0.1" points="462.82,-412.14 361.82,-412.14 361.82,-390.14 462.82,-390.14 462.82,-412.14"/>
<text text-anchor="middle" x="412.32" y="-398.34" font-family="sans-serif" font-size="11.00" fill="#004400">北条貞時</text>
</a>
</g>
</g>
<!-- nagasaki_enki -->
<g id="node10" class="node">
<title>nagasaki_enki</title>
<g id="a_node10"><a xlink:href="https://ja.wikipedia.org/wiki/長崎円喜" xlink:title="得宗家内管領。実質的な幕政の最高権力者。" target="_blank">
<polygon fill="#fcfcfc" stroke="#fcfcfc" stroke-width="0.1" points="352.37,-219.72 251.37,-219.72 251.37,-197.72 352.37,-197.72 352.37,-219.72"/>
<text text-anchor="middle" x="301.87" y="-205.32" font-family="sans-serif" font-size="13.00" fill="#004400">長崎円喜</text>
</a>
</g>
</g>
<!-- nagasaki_enki&#45;&gt;hojo_takatoki -->
<g id="edge1" class="edge">
<title>nagasaki_enki&#45;&gt;hojo_takatoki</title>
<g id="a_edge1"><a xlink:title="内管領として得宗高時を圧倒的に主導（後見・主導）">
<path fill="none" stroke="#005500" stroke-width="4" d="M303.3,-220.07C304.92,-229.52 308.28,-242.99 315.03,-252.93 345.13,-297.26 397.01,-332.7 431.2,-352.82"/>
<polygon fill="#005500" stroke="#005500" stroke-width="4" points="429.2,-357.32 443.79,-360.01 434.06,-348.81 429.2,-357.32"/>
</a>
</g>
</g>
<!-- nagasaki_takasuke -->
<g id="node11" class="node">
<title>nagasaki_takasuke</title>
<g id="a_node11"><a xlink:href="https://ja.wikipedia.org/wiki/長崎高資" xlink:title="円喜の子。内管領として権勢を振るう。" target="_blank">
<polygon fill="#fcfcfc" stroke="#fcfcfc" stroke-width="0.1" points="419.23,-249.73 318.23,-249.73 318.23,-227.73 419.23,-227.73 419.23,-249.73"/>
<text text-anchor="middle" x="368.73" y="-235.33" font-family="sans-serif" font-size="13.00" fill="#004400">長崎高資</text>
</a>
</g>
</g>
<!-- nagasaki_takasuke&#45;&gt;nagasaki_enki -->
<g id="edge8" class="edge">
<title>nagasaki_takasuke&#45;&gt;nagasaki_enki</title>
<g id="a_edge8"><a xlink:title="父子で得宗家および幕府の実権を掌握（共同幕政）">
<path fill="none" stroke="#005500" stroke-width="3.2" d="M344.21,-227.73C342.03,-226.75 339.8,-225.75 337.55,-224.74"/>
<polygon fill="#005500" stroke="#005500" stroke-width="3.2" points="339.05,-220.81 326.38,-219.72 335.61,-228.47 339.05,-220.81"/>
</a>
</g>
</g>
<!-- ando_suehisa -->
<g id="node16" class="node">
<title>ando_suehisa</title>
<g id="a_node16"><a xlink:href="https://ja.wikipedia.org/wiki/安東季久" xlink:title="津軽安藤氏の当主。蝦夷沙汰職を巡り内紛中。" target="_blank">
<polygon fill="#fcfcfc" stroke="#fcfcfc" stroke-width="0.1" points="546.32,-314.83 445.32,-314.83 445.32,-292.83 546.32,-292.83 546.32,-314.83"/>
<text text-anchor="middle" x="495.82" y="-300.73" font-family="sans-serif" font-size="12.00" fill="#444444">安東季久</text>
</a>
</g>
</g>
<!-- nagasaki_takasuke&#45;&gt;ando_suehisa -->
<g id="edge10" class="edge">
<title>nagasaki_takasuke&#45;&gt;ando_suehisa</title>
<g id="a_edge10"><a xlink:title="安藤氏の内紛において双方から賄賂を受け取り、混乱を拡大させる（汚職・不公正裁定）">
<path fill="none" stroke="#666666" stroke-width="2.5" d="M419.72,-235.84C436.08,-237.68 452.79,-242.99 463.78,-255.41 465.53,-257.38 464.61,-272.08 466.24,-282.91"/>
<polygon fill="#666666" stroke="#666666" stroke-width="2.5" points="462.98,-284.2 469.43,-292.6 469.62,-282.01 462.98,-284.2"/>
</a>
</g>
</g>
<!-- ando_suesada -->
<g id="node17" class="node">
<title>ando_suesada</title>
<g id="a_node17"><a xlink:href="https://ja.wikipedia.org/wiki/安東氏の乱" xlink:title="季久の従兄弟。得宗御内人として季久と係争。" target="_blank">
<polygon fill="#fcfcfc" stroke="#fcfcfc" stroke-width="0.1" points="569.7,-284.81 468.7,-284.81 468.7,-262.81 569.7,-262.81 569.7,-284.81"/>
<text text-anchor="middle" x="519.2" y="-270.71" font-family="sans-serif" font-size="12.00" fill="#444444">安東季貞</text>
</a>
</g>
</g>
<!-- nagasaki_takasuke&#45;&gt;ando_suesada -->
<g id="edge11" class="edge">
<title>nagasaki_takasuke&#45;&gt;ando_suesada</title>
<g id="a_edge11"><a xlink:title="季久と同様に、高資の汚職工作の対象となる（汚職・不公正裁定）">
<path fill="none" stroke="#666666" stroke-width="2.5" d="M419.34,-246.19C433.79,-248.7 449.49,-251.8 463.78,-255.41 468.76,-256.66 473.93,-258.14 479.02,-259.7"/>
<polygon fill="#666666" stroke="#666666" stroke-width="2.5" points="478.07,-263.07 488.66,-262.77 480.2,-256.4 478.07,-263.07"/>
</a>
</g>
</g>
<!-- madenokoji_nobufusa -->
<g id="node12" class="node">
<title>madenokoji_nobufusa</title>
<g id="a_node12"><a xlink:href="https://ja.wikipedia.org/wiki/万里小路宣房" xlink:title="後醍醐天皇の側近。実務派公卿。" target="_blank">
<polygon fill="#fcfcfc" stroke="#fcfcfc" stroke-width="0.1" points="231.71,-406.2 130.71,-406.2 130.71,-384.2 231.71,-384.2 231.71,-406.2"/>
<text text-anchor="middle" x="181.21" y="-392.1" font-family="sans-serif" font-size="12.00" fill="#000000">万里小路宣房</text>
</a>
</g>
</g>
<!-- madenokoji_nobufusa&#45;&gt;godaigo_tenno -->
<g id="edge6" class="edge">
<title>madenokoji_nobufusa&#45;&gt;godaigo_tenno</title>
<g id="a_edge6"><a xlink:title="側近（後醍醐の「後の三房」の一人）として実務面から朝政を支える（君臣・側近）">
<path fill="none" stroke="#ff4444" stroke-width="3.2" d="M147.65,-406.45C144.89,-408.49 142.44,-410.9 140.53,-413.73 139.86,-414.71 139.39,-424.83 139.07,-435.23"/>
<polygon fill="#ff4444" stroke="#ff4444" stroke-width="3.2" points="134.86,-435.38 138.76,-447.48 143.26,-435.59 134.86,-435.38"/>
</a>
</g>
</g>
<!-- ashikaga_takauji -->
<g id="node13" class="node">
<title>ashikaga_takauji</title>
<g id="a_node13"><a xlink:href="https://ja.wikipedia.org/wiki/足利尊氏" xlink:title="足利宗家嫡男。後の足利尊氏。動向を注視。" target="_blank">
<polygon fill="#fcfcfc" stroke="#fcfcfc" stroke-width="0.1" points="427,-189.71 326,-189.71 326,-167.71 427,-167.71 427,-189.71"/>
<text text-anchor="middle" x="376.5" y="-175.31" font-family="sans-serif" font-size="13.00" fill="#000000">足利高氏</text>
</a>
</g>
</g>
<!-- sasaki_doyo -->
<g id="node14" class="node">
<title>sasaki_doyo</title>
<g id="a_node14"><a xlink:href="https://ja.wikipedia.org/wiki/佐々木道誉" xlink:title="近江の有力御家人。ばさら大名の片鱗。" target="_blank">
<polygon fill="#fcfcfc" stroke="#fcfcfc" stroke-width="0.1" points="394.21,-82.56 293.21,-82.56 293.21,-60.56 394.21,-60.56 394.21,-82.56"/>
<text text-anchor="middle" x="343.71" y="-68.46" font-family="sans-serif" font-size="12.00" fill="#000000">佐々木道誉</text>
</a>
</g>
</g>
<!-- horikawa_tomochika -->
<g id="node15" class="node">
<title>horikawa_tomochika</title>
<g id="a_node15"><a xlink:href="https://ja.wikipedia.org/wiki/堀川具親" xlink:title="公卿。正中の変に関与し処分される。" target="_blank">
<polygon fill="#fcfcfc" stroke="#fcfcfc" stroke-width="0.1" points="107.15,-375.67 6.15,-375.67 6.15,-353.67 107.15,-353.67 107.15,-375.67"/>
<text text-anchor="middle" x="56.65" y="-361.57" font-family="sans-serif" font-size="12.00" fill="#444444">堀川具親</text>
</a>
</g>
</g>
<!-- ando_suehisa&#45;&gt;ando_suesada -->
<g id="edge12" class="edge">
<title>ando_suehisa&#45;&gt;ando_suesada</title>
<g id="a_edge12"><a xlink:title="蝦夷沙汰職を巡る津軽の激しい内紛。幕府の権威失墜の遠因（安東氏の乱）">
<path fill="none" stroke="#aa0000" stroke-width="2.5" d="M504.53,-292.65C504.65,-292.49 504.78,-292.33 504.9,-292.17"/>
<polygon fill="#aa0000" stroke="#aa0000" stroke-width="2.5" points="507.18,-294.93 510.57,-284.89 501.66,-290.63 507.18,-294.93"/>
</a>
</g>
</g>
<!-- toki_yorisada -->
<g id="node18" class="node">
<title>toki_yorisada</title>
<g id="a_node18"><a xlink:href="https://ja.wikipedia.org/wiki/土岐頼貞" xlink:title="美濃守護。一族が正中の変に関与。" target="_blank">
<polygon fill="#fcfcfc" stroke="#fcfcfc" stroke-width="0.1" points="460.58,-280.61 359.58,-280.61 359.58,-258.61 460.58,-258.61 460.58,-280.61"/>
<text text-anchor="middle" x="410.08" y="-266.51" font-family="sans-serif" font-size="12.00" fill="#444444">土岐頼貞</text>
</a>
</g>
</g>
<!-- shimazu_sadahisa -->
<g id="node19" class="node">
<title>shimazu_sadahisa</title>
<g id="a_node19"><a xlink:href="https://ja.wikipedia.org/wiki/島津貞久" xlink:title="薩摩の有力御家人。" target="_blank">
<polygon fill="#fcfcfc" stroke="#fcfcfc" stroke-width="0.1" points="135.94,-22 34.94,-22 34.94,0 135.94,0 135.94,-22"/>
<text text-anchor="middle" x="85.44" y="-8.2" font-family="sans-serif" font-size="11.00" fill="#444444">島津貞久</text>
</a>
</g>
</g>
<!-- ouchi_nagahiro -->
<g id="node20" class="node">
<title>ouchi_nagahiro</title>
<g id="a_node20"><a xlink:href="https://ja.wikipedia.org/wiki/大内長弘" xlink:title="周防の武士。" target="_blank">
<polygon fill="#fcfcfc" stroke="#fcfcfc" stroke-width="0.1" points="223.04,-132.08 122.04,-132.08 122.04,-110.08 223.04,-110.08 223.04,-132.08"/>
<text text-anchor="middle" x="172.54" y="-118.28" font-family="sans-serif" font-size="11.00" fill="#444444">大内長弘</text>
</a>
</g>
</g>
<!-- uesugi_shigefusa -->
<g id="node22" class="node">
<title>uesugi_shigefusa</title>
<g id="a_node22"><a xlink:href="https://ja.wikipedia.org/wiki/上杉重房" xlink:title="足利氏に仕える宿老。" target="_blank">
<polygon fill="#fcfcfc" stroke="#fcfcfc" stroke-width="0.1" points="624.71,-395.34 523.71,-395.34 523.71,-373.34 624.71,-373.34 624.71,-395.34"/>
<text text-anchor="middle" x="574.21" y="-381.54" font-family="sans-serif" font-size="11.00" fill="#444444">上杉重房</text>
</a>
</g>
</g>
<!-- uesugi_shigefusa&#45;&gt;ashikaga_takauji -->
<g id="edge14" class="edge">
<title>uesugi_shigefusa&#45;&gt;ashikaga_takauji</title>
<g id="a_edge14"><a xlink:title="足利宗家に仕え、一族を支える土台となる（内臣・宿老）">
<path fill="none" stroke="#555555" stroke-width="2.5" d="M575.16,-373.33C576.22,-353 575.15,-309.82 549.52,-289.63 545.85,-286.74 468.86,-291.25 465.5,-288.01 462.9,-285.49 465.37,-258.67 463.78,-255.41 451.22,-229.47 425.49,-208.6 405.21,-195.21"/>
<polygon fill="#555555" stroke="#555555" stroke-width="2.5" points="406.95,-192.17 396.63,-189.77 403.2,-198.08 406.95,-192.17"/>
</a>
</g>
</g>
</g>
</svg>
