<?xml version="1.0" encoding="UTF-8" standalone="no"?>
<!DOCTYPE svg PUBLIC "-//W3C//DTD SVG 1.1//EN"
 "http://www.w3.org/Graphics/SVG/1.1/DTD/svg11.dtd">
<!-- Generated by graphviz version 2.43.0 (0)
 -->
<!-- Title: timeline_1331_08 Pages: 1 -->
<svg width="828pt" height="624pt"
 viewBox="0.00 0.00 828.48 624.38" xmlns="http://www.w3.org/2000/svg" xmlns:xlink="http://www.w3.org/1999/xlink">
<g id="graph0" class="graph" transform="scale(1 1) rotate(0) translate(4 620.38)">
<title>timeline_1331_08</title>
<polygon fill="#ffffff" stroke="transparent" points="-4,4 -4,-620.38 824.48,-620.38 824.48,4 -4,4"/>
<!-- godaigo_tenno -->
<g id="node1" class="node">
<title>godaigo_tenno</title>
<g id="a_node1"><a xlink:href="https://ja.wikipedia.org/wiki/後醍醐天皇" xlink:title="大覚寺統の天皇。挙兵計画が漏洩し、急遽京都を脱出して笠置山へ拠る。" target="_blank">
<polygon fill="#fcfcfc" stroke="#fcfcfc" stroke-width="0.1" points="275.67,-586.32 174.67,-586.32 174.67,-564.32 275.67,-564.32 275.67,-586.32"/>
<text text-anchor="middle" x="225.17" y="-571.52" font-family="sans-serif" font-size="16.00" fill="#cc0000">後醍醐天皇</text>
</a>
</g>
</g>
<!-- moriyoshi_shinnou -->
<g id="node2" class="node">
<title>moriyoshi_shinnou</title>
<g id="a_node2"><a xlink:href="https://ja.wikipedia.org/wiki/護良親王" xlink:title="後醍醐天皇の皇子。天台座主から還俗し、挙兵して吉野山などでゲリラ戦を展開。" target="_blank">
<polygon fill="#fcfcfc" stroke="#fcfcfc" stroke-width="0.1" points="257.41,-525.88 156.41,-525.88 156.41,-503.88 257.41,-503.88 257.41,-525.88"/>
<text text-anchor="middle" x="206.91" y="-511.18" font-family="sans-serif" font-size="14.00" fill="#cc0000">護良親王</text>
</a>
</g>
</g>
<!-- moriyoshi_shinnou&#45;&gt;godaigo_tenno -->
<g id="edge5" class="edge">
<title>moriyoshi_shinnou&#45;&gt;godaigo_tenno</title>
<g id="a_edge5"><a xlink:title="父の危機に連動して還俗。令旨を発して吉野山などで強力なゲリラ戦を開始（親子共闘・挙兵）">
<path fill="none" stroke="#ff4444" stroke-width="3.2" d="M210.26,-525.96C212.53,-533.46 215.6,-543.63 218.36,-552.79"/>
<polygon fill="#ff4444" stroke="#ff4444" stroke-width="3.2" points="214.35,-554.03 221.84,-564.31 222.39,-551.61 214.35,-554.03"/>
</a>
</g>
</g>
<!-- munenaga_shinnou -->
<g id="node3" class="node">
<title>munenaga_shinnou</title>
<g id="a_node3"><a xlink:href="https://ja.wikipedia.org/wiki/宗良親王" xlink:title="後醍醐天皇の皇子。比叡山妙法院に入り、父の討幕運動を連動して支える。" target="_blank">
<polygon fill="#fcfcfc" stroke="#fcfcfc" stroke-width="0.1" points="325.22,-616.38 224.22,-616.38 224.22,-594.38 325.22,-594.38 325.22,-616.38"/>
<text text-anchor="middle" x="274.72" y="-601.98" font-family="sans-serif" font-size="13.00" fill="#cc0000">宗良親王</text>
</a>
</g>
</g>
<!-- munenaga_shinnou&#45;&gt;godaigo_tenno -->
<g id="edge6" class="edge">
<title>munenaga_shinnou&#45;&gt;godaigo_tenno</title>
<g id="a_edge6"><a xlink:title="比叡山の勢力を宮方に引き込むべく、父と緊密に連携（宗教勢力工作）">
<path fill="none" stroke="#ff4444" stroke-width="3.2" d="M256.55,-594.36C255.61,-593.79 254.65,-593.21 253.69,-592.62"/>
<polygon fill="#ff4444" stroke="#ff4444" stroke-width="3.2" points="255.77,-588.98 243.34,-586.34 251.42,-596.16 255.77,-588.98"/>
</a>
</g>
</g>
<!-- tsuneyoshi_shinnou -->
<g id="node4" class="node">
<title>tsuneyoshi_shinnou</title>
<g id="a_node4"><a xlink:href="https://ja.wikipedia.org/wiki/恒良親王" xlink:title="後醍醐天皇の皇子。宮方の象徴として行動を共にする。" target="_blank">
<polygon fill="#fcfcfc" stroke="#fcfcfc" stroke-width="0.1" points="326.36,-556.3 225.36,-556.3 225.36,-534.3 326.36,-534.3 326.36,-556.3"/>
<text text-anchor="middle" x="275.86" y="-542.2" font-family="sans-serif" font-size="12.00" fill="#cc0000">恒良親王</text>
</a>
</g>
</g>
<!-- hino_suketomo -->
<g id="node5" class="node">
<title>hino_suketomo</title>
<g id="a_node5"><a xlink:href="https://ja.wikipedia.org/wiki/日野資朝" xlink:title="正中の変ののち佐渡に流刑中。遠国から討幕の行く末を注視。" target="_blank">
<polygon fill="#fcfcfc" stroke="#fcfcfc" stroke-width="0.1" points="127.46,-505.81 26.46,-505.81 26.46,-483.81 127.46,-483.81 127.46,-505.81"/>
<text text-anchor="middle" x="76.96" y="-491.71" font-family="sans-serif" font-size="12.00" fill="#cc0000">日野資朝</text>
</a>
</g>
</g>
<!-- hino_toshimoto -->
<g id="node6" class="node">
<title>hino_toshimoto</title>
<g id="a_node6"><a xlink:href="https://ja.wikipedia.org/wiki/日野俊基" xlink:title="再度討幕を謀ったとして、すでに幕府に捕縛され鎌倉へ護送されている。" target="_blank">
<polygon fill="#fcfcfc" stroke="#fcfcfc" stroke-width="0.1" points="203.34,-555.88 102.34,-555.88 102.34,-533.88 203.34,-533.88 203.34,-555.88"/>
<text text-anchor="middle" x="152.84" y="-541.78" font-family="sans-serif" font-size="12.00" fill="#cc0000">日野俊基</text>
</a>
</g>
</g>
<!-- madenokoji_nobufusa -->
<g id="node7" class="node">
<title>madenokoji_nobufusa</title>
<g id="a_node7"><a xlink:href="https://ja.wikipedia.org/wiki/万里小路宣房" xlink:title="後醍醐天皇の側近。実務派公卿として緊迫する局面の朝政を支える。" target="_blank">
<polygon fill="#fcfcfc" stroke="#fcfcfc" stroke-width="0.1" points="366.51,-525.72 265.51,-525.72 265.51,-503.72 366.51,-503.72 366.51,-525.72"/>
<text text-anchor="middle" x="316.01" y="-511.32" font-family="sans-serif" font-size="13.00" fill="#cc0000">万里小路宣房</text>
</a>
</g>
</g>
<!-- kitabatake_chikafusa -->
<g id="node8" class="node">
<title>kitabatake_chikafusa</title>
<g id="a_node8"><a xlink:href="https://ja.wikipedia.org/wiki/北畠親房" xlink:title="大覚寺統を支える重鎮。後醍醐天皇の思想・行動に深く共鳴。" target="_blank">
<polygon fill="#fcfcfc" stroke="#fcfcfc" stroke-width="0.1" points="319,-431.73 218,-431.73 218,-409.73 319,-409.73 319,-431.73"/>
<text text-anchor="middle" x="268.5" y="-417.03" font-family="sans-serif" font-size="14.00" fill="#cc0000">北畠親房</text>
</a>
</g>
</g>
<!-- kusunoki_masashige -->
<g id="node9" class="node">
<title>kusunoki_masashige</title>
<g id="a_node9"><a xlink:href="https://ja.wikipedia.org/wiki/楠木正成" xlink:title="河内の新興武士。後醍醐天皇の召しに応じて赤坂城で挙兵、悪党戦術で幕府を翻弄。" target="_blank">
<polygon fill="#fcfcfc" stroke="#fcfcfc" stroke-width="0.1" points="288.86,-226.15 187.86,-226.15 187.86,-204.15 288.86,-204.15 288.86,-226.15"/>
<text text-anchor="middle" x="238.36" y="-211.65" font-family="sans-serif" font-size="15.00" fill="#cc0000">楠木正成</text>
</a>
</g>
</g>
<!-- kusunoki_masashige&#45;&gt;godaigo_tenno -->
<g id="edge9" class="edge">
<title>kusunoki_masashige&#45;&gt;godaigo_tenno</title>
<g id="a_edge9"><a xlink:title="後醍醐天皇の密勅に応じ、河内赤坂城で挙兵。卓越した戦術で幕府軍を惹きつける（綸旨拝受・挙兵）">
<path fill="none" stroke="#ff4444" stroke-width="3.2" d="M236.37,-226.36C229.74,-262.51 206.74,-378.89 170.39,-469.42 164.48,-484.13 157.15,-485.32 153.21,-500.68 150.08,-512.9 144.42,-520.02 153.21,-529.08 157.34,-533.33 201.66,-527.32 206.54,-530.68 210.58,-533.46 214.81,-542.98 218.21,-552.53"/>
<polygon fill="#ff4444" stroke="#ff4444" stroke-width="3.2" points="214.28,-554.02 222.01,-564.12 222.26,-551.4 214.28,-554.02"/>
</a>
</g>
</g>
<!-- kusunoki_masasue -->
<g id="node10" class="node">
<title>kusunoki_masasue</title>
<g id="a_node10"><a xlink:href="https://ja.wikipedia.org/wiki/楠木正季" xlink:title="楠木正成の弟。兄とともに赤坂城に籠城し、宮方として奮戦。" target="_blank">
<polygon fill="#fcfcfc" stroke="#fcfcfc" stroke-width="0.1" points="258.65,-196.13 157.65,-196.13 157.65,-174.13 258.65,-174.13 258.65,-196.13"/>
<text text-anchor="middle" x="208.15" y="-182.03" font-family="sans-serif" font-size="12.00" fill="#cc0000">楠木正季</text>
</a>
</g>
</g>
<!-- kusunoki_masasue&#45;&gt;kusunoki_masashige -->
<g id="edge15" class="edge">
<title>kusunoki_masasue&#45;&gt;kusunoki_masashige</title>
<g id="a_edge15"><a xlink:title="兄に全面的に同意し、一族の命運を賭けて赤坂城の籠城戦を戦う（一族共闘）">
<path fill="none" stroke="#ff4444" stroke-width="2.5" d="M219.4,-196.31C219.56,-196.47 219.72,-196.63 219.88,-196.79"/>
<polygon fill="#ff4444" stroke="#ff4444" stroke-width="2.5" points="217.64,-199.5 227.21,-204.06 222.58,-194.53 217.64,-199.5"/>
</a>
</g>
</g>
<!-- horikawa_tomochika -->
<g id="node11" class="node">
<title>horikawa_tomochika</title>
<g id="a_node11"><a xlink:href="https://ja.wikipedia.org/wiki/堀川具親" xlink:title="宮方の公卿。後醍醐天皇の討幕運動に関与。" target="_blank">
<polygon fill="#fcfcfc" stroke="#fcfcfc" stroke-width="0.1" points="167.19,-466.22 66.19,-466.22 66.19,-444.22 167.19,-444.22 167.19,-466.22"/>
<text text-anchor="middle" x="116.69" y="-452.12" font-family="sans-serif" font-size="12.00" fill="#cc0000">堀川具親</text>
</a>
</g>
</g>
<!-- shijo_takadata -->
<g id="node12" class="node">
<title>shijo_takadata</title>
<g id="a_node12"><a xlink:href="https://ja.wikipedia.org/wiki/四条隆資" xlink:title="後醍醐天皇の側近。笠置山潜幸に同行し、徹底抗戦を主張。" target="_blank">
<polygon fill="#fcfcfc" stroke="#fcfcfc" stroke-width="0.1" points="276.24,-495.7 175.24,-495.7 175.24,-473.7 276.24,-473.7 276.24,-495.7"/>
<text text-anchor="middle" x="225.74" y="-481.6" font-family="sans-serif" font-size="12.00" fill="#cc0000">四条隆資</text>
</a>
</g>
</g>
<!-- shijo_takadata&#45;&gt;godaigo_tenno -->
<g id="edge8" class="edge">
<title>shijo_takadata&#45;&gt;godaigo_tenno</title>
<g id="a_edge8"><a xlink:title="公卿でありながら笠置山に同行し、側近として徹底抗戦を支える（側近・籠城）">
<path fill="none" stroke="#ff4444" stroke-width="3.2" d="M256.47,-495.87C258.06,-497.29 259.46,-498.88 260.61,-500.68 262.32,-503.33 262.79,-526.79 260.61,-529.08 257.67,-532.18 225.11,-528 222.16,-531.1 216.87,-536.68 216.17,-544.63 217.28,-552.26"/>
<polygon fill="#ff4444" stroke="#ff4444" stroke-width="3.2" points="213.22,-553.35 220.23,-563.95 221.36,-551.29 213.22,-553.35"/>
</a>
</g>
</g>
<!-- chigusa_tadaaki -->
<g id="node13" class="node">
<title>chigusa_tadaaki</title>
<g id="a_node13"><a xlink:href="https://ja.wikipedia.org/wiki/千種忠顕" xlink:title="後醍醐天皇の近臣。笠置山への同行、挙兵の実務などアクティブに活動。" target="_blank">
<polygon fill="#fcfcfc" stroke="#fcfcfc" stroke-width="0.1" points="101,-436.2 0,-436.2 0,-414.2 101,-414.2 101,-436.2"/>
<text text-anchor="middle" x="50.5" y="-421.8" font-family="sans-serif" font-size="13.00" fill="#cc0000">千種忠顕</text>
</a>
</g>
</g>
<!-- chigusa_tadaaki&#45;&gt;godaigo_tenno -->
<g id="edge7" class="edge">
<title>chigusa_tadaaki&#45;&gt;godaigo_tenno</title>
<g id="a_edge7"><a xlink:title="近臣として笠置山潜幸に同行。軍事指揮や連絡調整に奔走（側近・近侍）">
<path fill="none" stroke="#ff4444" stroke-width="3.2" d="M50.48,-436.37C51.1,-446.52 53.71,-461.12 62.99,-469.42 85.71,-489.74 106.38,-462.17 130.66,-480.61 149.58,-494.98 133.37,-516 153.21,-529.08 158.16,-532.34 201.66,-527.32 206.54,-530.68 210.58,-533.46 214.81,-542.98 218.21,-552.53"/>
<polygon fill="#ff4444" stroke="#ff4444" stroke-width="3.2" points="214.28,-554.02 222.01,-564.12 222.26,-551.4 214.28,-554.02"/>
</a>
</g>
</g>
<!-- monbun_kenshin -->
<g id="node14" class="node">
<title>monbun_kenshin</title>
<g id="a_node14"><a xlink:href="https://ja.wikipedia.org/wiki/文観" xlink:title="真言密教の怪僧。引き続き呪術・調伏の面から後醍醐の討幕を過激に支援。" target="_blank">
<polygon fill="#fcfcfc" stroke="#fcfcfc" stroke-width="0.1" points="786.62,-61.21 685.62,-61.21 685.62,-39.21 786.62,-39.21 786.62,-61.21"/>
<text text-anchor="middle" x="736.12" y="-46.81" font-family="sans-serif" font-size="13.00" fill="#cc0000">文観</text>
</a>
</g>
</g>
<!-- monbun_kenshin&#45;&gt;godaigo_tenno -->
<g id="edge18" class="edge">
<title>monbun_kenshin&#45;&gt;godaigo_tenno</title>
<g id="a_edge18"><a xlink:title="笠置山での勝利を信じ、異形の密教呪術を用いて幕府調伏の祈祷を継続（呪術支援）">
<path fill="none" stroke="#ff4444" stroke-width="2.5" d="M721.36,-61.24C719.58,-62.82 717.83,-64.48 716.28,-66.17 628.24,-161.98 653.29,-226.46 552.67,-308.94 540.12,-319.23 533.66,-316.08 518.99,-323.01 493.06,-335.24 485.93,-337.44 461.95,-353.16 375.12,-410.05 375.68,-460.01 279.44,-498.9 275.89,-500.33 264.97,-497.77 262.31,-500.52 257.9,-505.09 265.13,-524.6 260.61,-529.08 257.58,-532.09 225.11,-528 222.16,-531.1 216.43,-537.15 216.08,-545.99 217.59,-554.18"/>
<polygon fill="#ff4444" stroke="#ff4444" stroke-width="2.5" points="214.24,-555.21 220.23,-563.95 221,-553.39 214.24,-555.21"/>
</a>
</g>
</g>
<!-- gofushimi_in -->
<g id="node15" class="node">
<title>gofushimi_in</title>
<g id="a_node15"><a xlink:href="https://ja.wikipedia.org/wiki/後伏見天皇" xlink:title="持明院統の院。後醍醐の挙兵失脚に乗じて光厳天皇の即位を画策。" target="_blank">
<polygon fill="#fcfcfc" stroke="#fcfcfc" stroke-width="0.1" points="481.04,-585.74 380.04,-585.74 380.04,-563.74 481.04,-563.74 481.04,-585.74"/>
<text text-anchor="middle" x="430.54" y="-571.04" font-family="sans-serif" font-size="14.00" fill="#0000cc">後伏見院</text>
</a>
</g>
</g>
<!-- gofushimi_in&#45;&gt;godaigo_tenno -->
<g id="edge11" class="edge">
<title>gofushimi_in&#45;&gt;godaigo_tenno</title>
<g id="a_edge11"><a xlink:title="討幕挙兵を「謀反」と断じ、大覚寺統過激派の息の根を止めるべく激しく敵対（王朝分裂・宿敵）">
<path fill="none" stroke="#222222" stroke-width="3.2" d="M380.04,-574.89C352.29,-574.97 317.62,-575.06 288.12,-575.15"/>
<polygon fill="#222222" stroke="#222222" stroke-width="3.2" points="287.82,-570.95 275.83,-575.18 287.84,-579.35 287.82,-570.95"/>
</a>
</g>
</g>
<!-- kogen_tenno -->
<g id="node17" class="node">
<title>kogen_tenno</title>
<g id="a_node17"><a xlink:href="https://ja.wikipedia.org/wiki/光厳天皇" xlink:title="持明院統の新たなる天皇。幕府の後押しを受けて神器なき即位へ。" target="_blank">
<polygon fill="#fcfcfc" stroke="#fcfcfc" stroke-width="0.1" points="499.66,-615.76 398.66,-615.76 398.66,-593.76 499.66,-593.76 499.66,-615.76"/>
<text text-anchor="middle" x="449.16" y="-601.26" font-family="sans-serif" font-size="15.00" fill="#0000cc">光厳天皇</text>
</a>
</g>
</g>
<!-- gofushimi_in&#45;&gt;kogen_tenno -->
<g id="edge10" class="edge">
<title>gofushimi_in&#45;&gt;kogen_tenno</title>
<g id="a_edge10"><a xlink:title="後醍醐の廃位と、持明院統の光厳天皇への皇位継承を強力に後押し（院政・正統性確保）">
<path fill="none" stroke="#0000aa" stroke-width="3.2" d="M437.47,-585.92C437.57,-586.08 437.67,-586.24 437.77,-586.4"/>
<polygon fill="#0000aa" stroke="#0000aa" stroke-width="3.2" points="432.39,-585.69 442.28,-593.67 439.53,-581.26 432.39,-585.69"/>
</a>
</g>
</g>
<!-- hanazono_in -->
<g id="node16" class="node">
<title>hanazono_in</title>
<g id="a_node16"><a xlink:href="https://ja.wikipedia.org/wiki/花園天皇" xlink:title="持明院統の院。後醍醐の過激な行動を非難し、皇位の正統性を主張。" target="_blank">
<polygon fill="#fcfcfc" stroke="#fcfcfc" stroke-width="0.1" points="435.72,-555.74 334.72,-555.74 334.72,-533.74 435.72,-533.74 435.72,-555.74"/>
<text text-anchor="middle" x="385.22" y="-541.04" font-family="sans-serif" font-size="14.00" fill="#0000cc">花園院</text>
</a>
</g>
</g>
<!-- hojo_takatoki -->
<g id="node18" class="node">
<title>hojo_takatoki</title>
<g id="a_node18"><a xlink:href="https://ja.wikipedia.org/wiki/北条高時" xlink:title="鎌倉幕府第14代執権・得宗。元弘の変に際し、大規模な軍勢を京へ派遣。" target="_blank">
<polygon fill="#fcfcfc" stroke="#fcfcfc" stroke-width="0.1" points="627.37,-509.29 526.37,-509.29 526.37,-487.29 627.37,-487.29 627.37,-509.29"/>
<text text-anchor="middle" x="576.87" y="-494.79" font-family="sans-serif" font-size="15.00" fill="#004400">北条高時</text>
</a>
</g>
</g>
<!-- ashikaga_takauji -->
<g id="node23" class="node">
<title>ashikaga_takauji</title>
<g id="a_node23"><a xlink:href="https://ja.wikipedia.org/wiki/足利尊氏" xlink:title="足利宗家当主。幕府の命により、本意ならずも宮方追討軍の大将として上洛。" target="_blank">
<polygon fill="#fcfcfc" stroke="#fcfcfc" stroke-width="0.1" points="557.73,-243.72 456.73,-243.72 456.73,-221.72 557.73,-221.72 557.73,-243.72"/>
<text text-anchor="middle" x="507.23" y="-229.02" font-family="sans-serif" font-size="14.00" fill="#000000">足利高氏</text>
</a>
</g>
</g>
<!-- hojo_takatoki&#45;&gt;ashikaga_takauji -->
<g id="edge2" class="edge">
<title>hojo_takatoki&#45;&gt;ashikaga_takauji</title>
<g id="a_edge2"><a xlink:title="執権・得宗の命として、足利宗家に大規模な宮方追討軍の軍大将を命じる（追討軍下命）">
<path fill="none" stroke="#005500" stroke-width="4" d="M546.16,-487.25C542.99,-485.64 539.9,-483.85 537.07,-481.89 491.37,-450.03 484.14,-432.65 461.95,-381.56 443.81,-339.82 413.76,-313.37 445.27,-280.54 448.32,-277.36 481.2,-281.33 484.89,-278.92 492.43,-273.97 497.5,-265.71 500.87,-257.53"/>
<polygon fill="#005500" stroke="#005500" stroke-width="4" points="505.59,-258.86 505.19,-244.04 496.26,-255.88 505.59,-258.86"/>
</a>
</g>
</g>
<!-- hojo_moritoki -->
<g id="node19" class="node">
<title>hojo_moritoki</title>
<g id="a_node19"><a xlink:href="https://ja.wikipedia.org/wiki/北条守時" xlink:title="第16代執権。赤橋流北条氏。緊迫する政局の舵取りに奔走。" target="_blank">
<polygon fill="#fcfcfc" stroke="#fcfcfc" stroke-width="0.1" points="641.27,-478.69 540.27,-478.69 540.27,-456.69 641.27,-456.69 641.27,-478.69"/>
<text text-anchor="middle" x="590.77" y="-464.29" font-family="sans-serif" font-size="13.00" fill="#004400">北条守時</text>
</a>
</g>
</g>
<!-- hojo_nakatoki -->
<g id="node20" class="node">
<title>hojo_nakatoki</title>
<g id="a_node20"><a xlink:href="https://ja.wikipedia.org/wiki/北条仲時" xlink:title="六波羅探題北方。京都の治安維持と、笠置山に拠る後醍醐の追討を指揮。" target="_blank">
<polygon fill="#fcfcfc" stroke="#fcfcfc" stroke-width="0.1" points="613.62,-448.67 512.62,-448.67 512.62,-426.67 613.62,-426.67 613.62,-448.67"/>
<text text-anchor="middle" x="563.12" y="-434.27" font-family="sans-serif" font-size="13.00" fill="#004400">北条仲時</text>
</a>
</g>
</g>
<!-- hojo_nakatoki&#45;&gt;godaigo_tenno -->
<g id="edge3" class="edge">
<title>hojo_nakatoki&#45;&gt;godaigo_tenno</title>
<g id="a_edge3"><a xlink:title="六波羅探題軍を率いて、後醍醐天皇が立て籠もる笠置山を包囲・猛攻（笠置山蜂起追討）">
<path fill="none" stroke="#004400" stroke-width="4" d="M542.37,-448.75C500.13,-471.1 405.13,-520.19 369.71,-528.92 365.59,-529.94 334.56,-527.57 331.52,-530.54 326.9,-535.04 333.93,-554.76 329.56,-559.5 319.36,-570.59 304.94,-576.19 290.06,-578.68"/>
<polygon fill="#004400" stroke="#004400" stroke-width="4" points="289.19,-573.85 275.79,-580.19 290.23,-583.59 289.19,-573.85"/>
</a>
</g>
</g>
<!-- hojo_nakatoki&#45;&gt;kusunoki_masashige -->
<g id="edge4" class="edge">
<title>hojo_nakatoki&#45;&gt;kusunoki_masashige</title>
<g id="a_edge4"><a xlink:title="大和・河内守護勢を動員し、赤坂城で挙兵した楠木軍の討伐を開始（赤坂城攻防）">
<path fill="none" stroke="#004400" stroke-width="4" d="M541.32,-426.65C520.49,-415.89 488.44,-398.66 461.95,-381.56 386.78,-333.05 303.58,-267.82 263.14,-235.32"/>
<polygon fill="#004400" stroke="#004400" stroke-width="4" points="265.99,-231.32 252.02,-226.33 259.84,-238.94 265.99,-231.32"/>
</a>
</g>
</g>
<!-- nagasaki_enki -->
<g id="node21" class="node">
<title>nagasaki_enki</title>
<g id="a_node21"><a xlink:href="https://ja.wikipedia.org/wiki/長崎円喜" xlink:title="得宗家内管領の宿老。得宗高時を背後から操り、強硬な軍事弾圧を主導。" target="_blank">
<polygon fill="#fcfcfc" stroke="#fcfcfc" stroke-width="0.1" points="481.69,-275.72 380.69,-275.72 380.69,-253.72 481.69,-253.72 481.69,-275.72"/>
<text text-anchor="middle" x="431.19" y="-261.32" font-family="sans-serif" font-size="13.00" fill="#004400">&#45;0.12,0.32!</text>
</a>
</g>
</g>
<!-- nagasaki_enki&#45;&gt;hojo_takatoki -->
<g id="edge1" class="edge">
<title>nagasaki_enki&#45;&gt;hojo_takatoki</title>
<g id="a_edge1"><a xlink:title="内管領として得宗高時を主導し、反乱軍の徹底全滅を指示（幕政主導）">
<path fill="none" stroke="#005500" stroke-width="4" d="M432.82,-275.76C436.23,-297 445.23,-344.69 461.95,-381.56 477.52,-415.9 486.03,-422.29 509.42,-451.87 518.48,-463.32 521.23,-469.06 534.45,-479.07"/>
<polygon fill="#005500" stroke="#005500" stroke-width="4" points="531.88,-483.25 546.16,-487.25 537.49,-475.22 531.88,-483.25"/>
</a>
</g>
</g>
<!-- nagasaki_takasuke -->
<g id="node22" class="node">
<title>nagasaki_takasuke</title>
<g id="a_node22"><a xlink:href="https://ja.wikipedia.org/wiki/長崎高資" xlink:title="内管領。円喜とともに、討幕派の徹底的な検挙と抹殺を推進。" target="_blank">
<polygon fill="#fcfcfc" stroke="#fcfcfc" stroke-width="0.1" points="549.47,-305.74 448.47,-305.74 448.47,-283.74 549.47,-283.74 549.47,-305.74"/>
<text text-anchor="middle" x="498.97" y="-291.34" font-family="sans-serif" font-size="13.00" fill="#004400">長崎高資</text>
</a>
</g>
</g>
<!-- nagasaki_takasuke&#45;&gt;nagasaki_enki -->
<g id="edge14" class="edge">
<title>nagasaki_takasuke&#45;&gt;nagasaki_enki</title>
<g id="a_edge14"><a xlink:title="父子で連携し、北条得宗家を実質的に専制（独裁幕政）">
<path fill="none" stroke="#005500" stroke-width="2.5" d="M474.11,-283.73C471.26,-282.47 468.31,-281.16 465.36,-279.86"/>
<polygon fill="#005500" stroke="#005500" stroke-width="2.5" points="466.6,-276.58 456.04,-275.73 463.76,-282.98 466.6,-276.58"/>
</a>
</g>
</g>
<!-- ashikaga_tadayoshi -->
<g id="node24" class="node">
<title>ashikaga_tadayoshi</title>
<g id="a_node24"><a xlink:href="https://ja.wikipedia.org/wiki/足利直義" xlink:title="高氏の弟。兄と行動を共にし、足利一族の軍勢を率いて上洛。" target="_blank">
<polygon fill="#fcfcfc" stroke="#fcfcfc" stroke-width="0.1" points="583.35,-213.71 482.35,-213.71 482.35,-191.71 583.35,-191.71 583.35,-213.71"/>
<text text-anchor="middle" x="532.85" y="-199.31" font-family="sans-serif" font-size="13.00" fill="#000000">足利直義</text>
</a>
</g>
</g>
<!-- ashikaga_tadayoshi&#45;&gt;ashikaga_takauji -->
<g id="edge12" class="edge">
<title>ashikaga_tadayoshi&#45;&gt;ashikaga_takauji</title>
<g id="a_edge12"><a xlink:title="兄の出陣に従い、足利軍の主力としてともに上洛（兄弟共闘）">
<path fill="none" stroke="#000000" stroke-width="3.2" d="M523.31,-213.89C523.17,-214.04 523.04,-214.2 522.9,-214.36"/>
<polygon fill="#000000" stroke="#000000" stroke-width="3.2" points="521.29,-209.78 516.69,-221.64 527.68,-215.24 521.29,-209.78"/>
</a>
</g>
</g>
<!-- ko_no_moronao -->
<g id="node25" class="node">
<title>ko_no_moronao</title>
<g id="a_node25"><a xlink:href="https://ja.wikipedia.org/wiki/高師直" xlink:title="足利家の執事。高氏の側近として軍事・実務を統率。" target="_blank">
<polygon fill="#fcfcfc" stroke="#fcfcfc" stroke-width="0.1" points="610.14,-183.67 509.14,-183.67 509.14,-161.67 610.14,-161.67 610.14,-183.67"/>
<text text-anchor="middle" x="559.64" y="-169.27" font-family="sans-serif" font-size="13.00" fill="#000000">高師直</text>
</a>
</g>
</g>
<!-- ko_no_moronao&#45;&gt;ashikaga_takauji -->
<g id="edge13" class="edge">
<title>ko_no_moronao&#45;&gt;ashikaga_takauji</title>
<g id="a_edge13"><a xlink:title="執事として足利軍の軍政と実務を取り仕切り、高氏を絶対的に補佐（主従・軍事中枢）">
<path fill="none" stroke="#000000" stroke-width="3.2" d="M582.95,-183.91C584.35,-185.29 585.58,-186.82 586.55,-188.51 592.81,-199.47 594.55,-207.16 586.55,-216.91 581.98,-222.48 576.07,-226.45 569.52,-229.24"/>
<polygon fill="#000000" stroke="#000000" stroke-width="3.2" points="568.2,-225.25 558.05,-232.89 570.75,-233.25 568.2,-225.25"/>
</a>
</g>
</g>
<!-- sasaki_doyo -->
<g id="node26" class="node">
<title>sasaki_doyo</title>
<g id="a_node26"><a xlink:href="https://ja.wikipedia.org/wiki/佐々木道誉" xlink:title="近江守護家。幕府軍の一員として宮方制圧に参加しつつ、情勢を洞察。" target="_blank">
<polygon fill="#fcfcfc" stroke="#fcfcfc" stroke-width="0.1" points="542.66,-100.74 441.66,-100.74 441.66,-78.74 542.66,-78.74 542.66,-100.74"/>
<text text-anchor="middle" x="492.16" y="-86.34" font-family="sans-serif" font-size="13.00" fill="#000000">佐々木道誉</text>
</a>
</g>
</g>
<!-- sasaki_doyo&#45;&gt;hojo_nakatoki -->
<g id="edge17" class="edge">
<title>sasaki_doyo&#45;&gt;hojo_nakatoki</title>
<g id="a_edge17"><a xlink:title="幕府側の御家人として追討軍に加わるが、戦況の推移を冷徹に値踏み（追討参戦）">
<path fill="none" stroke="#555555" stroke-width="2.5" d="M530.71,-100.82C558.63,-111.02 594.64,-129.09 613.34,-158.47 659.5,-230.97 653.13,-269.73 626.39,-351.41 617.7,-377.95 597.38,-403.08 582.1,-419.29"/>
<polygon fill="#555555" stroke="#555555" stroke-width="2.5" points="579.55,-416.89 575.08,-426.5 584.56,-421.78 579.55,-416.89"/>
</a>
</g>
</g>
<!-- toki_yorisada -->
<g id="node27" class="node">
<title>toki_yorisada</title>
<g id="a_node27"><a xlink:href="https://ja.wikipedia.org/wiki/土岐頼貞" xlink:title="美濃守護。美濃の軍勢を率いて幕府方の追討軍に加わる。" target="_blank">
<polygon fill="#fcfcfc" stroke="#fcfcfc" stroke-width="0.1" points="623.19,-348.21 522.19,-348.21 522.19,-326.21 623.19,-326.21 623.19,-348.21"/>
<text text-anchor="middle" x="572.69" y="-334.11" font-family="sans-serif" font-size="12.00" fill="#000000">土岐頼貞</text>
</a>
</g>
</g>
<!-- toki_yorisada&#45;&gt;hojo_nakatoki -->
<g id="edge16" class="edge">
<title>toki_yorisada&#45;&gt;hojo_nakatoki</title>
<g id="a_edge16"><a xlink:title="美濃守護として六波羅探題の軍勢に合流、宮方追討の先鋒を担う（軍事的参集）">
<path fill="none" stroke="#555555" stroke-width="2.5" d="M571.95,-348.52C571.33,-357.49 570.39,-370.33 569.35,-381.56 568.28,-393.03 566.88,-405.79 565.68,-416.24"/>
<polygon fill="#555555" stroke="#555555" stroke-width="2.5" points="562.16,-416.16 564.48,-426.5 569.12,-416.97 562.16,-416.16"/>
</a>
</g>
</g>
<!-- kikuchi_taketoki -->
<g id="node28" class="node">
<title>kikuchi_taketoki</title>
<g id="a_node28"><a xlink:href="https://ja.wikipedia.org/wiki/菊池武時" xlink:title="肥後の有力武士。鎮西探題の監視下にありつつも、心中では宮方に共鳴。" target="_blank">
<polygon fill="#fcfcfc" stroke="#fcfcfc" stroke-width="0.1" points="219.36,-83.89 118.36,-83.89 118.36,-61.89 219.36,-61.89 219.36,-83.89"/>
<text text-anchor="middle" x="168.86" y="-69.79" font-family="sans-serif" font-size="12.00" fill="#444444">菊池武時</text>
</a>
</g>
</g>
<!-- kira_sadamitsu -->
<g id="node29" class="node">
<title>kira_sadamitsu</title>
<g id="a_node29"><a xlink:href="https://ja.wikipedia.org/wiki/吉良貞満" xlink:title="足利一門の有力武士。東国における足利の影響力を支える。" target="_blank">
<polygon fill="#fcfcfc" stroke="#fcfcfc" stroke-width="0.1" points="566.15,-378.36 465.15,-378.36 465.15,-356.36 566.15,-356.36 566.15,-378.36"/>
<text text-anchor="middle" x="515.65" y="-364.56" font-family="sans-serif" font-size="11.00" fill="#444444">吉良貞満</text>
</a>
</g>
</g>
<!-- shimazu_sadahisa -->
<g id="node30" class="node">
<title>shimazu_sadahisa</title>
<g id="a_node30"><a xlink:href="https://ja.wikipedia.org/wiki/島津貞久" xlink:title="薩摩守護。九州における幕府足場を固めつつ、中央の政情を注視。" target="_blank">
<polygon fill="#fcfcfc" stroke="#fcfcfc" stroke-width="0.1" points="233.26,-22 132.26,-22 132.26,0 233.26,0 233.26,-22"/>
<text text-anchor="middle" x="182.76" y="-8.2" font-family="sans-serif" font-size="11.00" fill="#444444">島津貞久</text>
</a>
</g>
</g>
<!-- ouchi_nagahiro -->
<g id="node31" class="node">
<title>ouchi_nagahiro</title>
<g id="a_node31"><a xlink:href="https://ja.wikipedia.org/wiki/大内長弘" xlink:title="周防の有力武士。西国における軍事的動向を窺う。" target="_blank">
<polygon fill="#fcfcfc" stroke="#fcfcfc" stroke-width="0.1" points="360.31,-166.13 259.31,-166.13 259.31,-144.13 360.31,-144.13 360.31,-166.13"/>
<text text-anchor="middle" x="309.81" y="-152.33" font-family="sans-serif" font-size="11.00" fill="#444444">大内長弘</text>
</a>
</g>
</g>
<!-- muso_soseki -->
<g id="node32" class="node">
<title>muso_soseki</title>
<g id="a_node32"><a xlink:href="https://ja.wikipedia.org/wiki/夢窓疎石" xlink:title="天下の衆望を集める禅僧。政治的激動から一定の距離を保ちつつ法を説く。" target="_blank">
<polygon fill="#fcfcfc" stroke="#fcfcfc" stroke-width="0.1" points="820.48,-91.37 719.48,-91.37 719.48,-69.37 820.48,-69.37 820.48,-91.37"/>
<text text-anchor="middle" x="769.98" y="-77.27" font-family="sans-serif" font-size="12.00" fill="#444444">夢窓疎石</text>
</a>
</g>
</g>
<!-- uesugi_shigefusa -->
<g id="node33" class="node">
<title>uesugi_shigefusa</title>
<g id="a_node33"><a xlink:href="https://ja.wikipedia.org/wiki/上杉重房" xlink:title="足利氏の姻戚・宿老として鎌倉の足利基盤を維持。" target="_blank">
<polygon fill="#fcfcfc" stroke="#fcfcfc" stroke-width="0.1" points="776.22,-515.55 675.22,-515.55 675.22,-493.55 776.22,-493.55 776.22,-515.55"/>
<text text-anchor="middle" x="725.72" y="-501.75" font-family="sans-serif" font-size="11.00" fill="#444444">上杉重房</text>
</a>
</g>
</g>
</g>
</svg>
