<?xml version="1.0" encoding="UTF-8" standalone="no"?>
<!DOCTYPE svg PUBLIC "-//W3C//DTD SVG 1.1//EN"
 "http://www.w3.org/Graphics/SVG/1.1/DTD/svg11.dtd">
<!-- Generated by graphviz version 2.43.0 (0)
 -->
<!-- Title: timeline_1331_10 Pages: 1 -->
<svg width="816pt" height="620pt"
 viewBox="0.00 0.00 816.03 620.02" xmlns="http://www.w3.org/2000/svg" xmlns:xlink="http://www.w3.org/1999/xlink">
<g id="graph0" class="graph" transform="scale(1 1) rotate(0) translate(4 616.02)">
<title>timeline_1331_10</title>
<polygon fill="#ffffff" stroke="transparent" points="-4,4 -4,-616.02 812.03,-616.02 812.03,4 -4,4"/>
<!-- godaigo_tenno -->
<g id="node1" class="node">
<title>godaigo_tenno</title>
<g id="a_node1"><a xlink:href="https://ja.wikipedia.org/wiki/後醍醐天皇" xlink:title="笠置山落城により捕縛される。討幕計画は頓挫し、京へ護送中。" target="_blank">
<polygon fill="#fcfcfc" stroke="#fcfcfc" stroke-width="0.1" points="247.29,-582 146.29,-582 146.29,-560 247.29,-560 247.29,-582"/>
<text text-anchor="middle" x="196.79" y="-567.2" font-family="sans-serif" font-size="16.00" fill="#cc0000">後醍醐天皇</text>
</a>
</g>
</g>
<!-- moriyoshi_shinnou -->
<g id="node2" class="node">
<title>moriyoshi_shinnou</title>
<g id="a_node2"><a xlink:href="https://ja.wikipedia.org/wiki/護良親王" xlink:title="父の危機に連動して還俗。令旨を発して吉野山などで強力なゲリラ戦を開始（親子共闘・挙兵）" target="_blank">
<polygon fill="#fcfcfc" stroke="#fcfcfc" stroke-width="0.1" points="240.99,-521.97 139.99,-521.97 139.99,-499.97 240.99,-499.97 240.99,-521.97"/>
<text text-anchor="middle" x="190.49" y="-507.27" font-family="sans-serif" font-size="14.00" fill="#cc0000">護良親王</text>
</a>
</g>
</g>
<!-- moriyoshi_shinnou&#45;&gt;godaigo_tenno -->
<g id="edge4" class="edge">
<title>moriyoshi_shinnou&#45;&gt;godaigo_tenno</title>
<g id="a_edge4"><a xlink:title="父の危機に連動して還俗。令旨を発して吉野山などで強力なゲリラ戦を開始（親子共闘・挙兵）">
<path fill="none" stroke="#ff4444" stroke-width="3.2" d="M191.65,-521.98C192.4,-529.17 193.41,-538.83 194.34,-547.67"/>
<polygon fill="#ff4444" stroke="#ff4444" stroke-width="3.2" points="190.17,-548.16 195.6,-559.66 198.52,-547.28 190.17,-548.16"/>
</a>
</g>
</g>
<!-- munenaga_shinnou -->
<g id="node3" class="node">
<title>munenaga_shinnou</title>
<g id="a_node3"><a xlink:href="https://ja.wikipedia.org/wiki/宗良親王" xlink:title="後醍醐天皇の皇子。比叡山妙法院に入り、父の討幕運動を連動して支える。" target="_blank">
<polygon fill="#fcfcfc" stroke="#fcfcfc" stroke-width="0.1" points="316.68,-612.02 215.68,-612.02 215.68,-590.02 316.68,-590.02 316.68,-612.02"/>
<text text-anchor="middle" x="266.18" y="-597.62" font-family="sans-serif" font-size="13.00" fill="#cc0000">宗良親王</text>
</a>
</g>
</g>
<!-- munenaga_shinnou&#45;&gt;moriyoshi_shinnou -->
<g id="edge19" class="edge">
<title>munenaga_shinnou&#45;&gt;moriyoshi_shinnou</title>
<g id="a_edge19"><a xlink:title="兄弟で比叡山・吉野と拠点を分け、幕府に対する呼応・攪乱を企図">
<path fill="none" stroke="#ff4444" stroke-width="2.5" d="M265.6,-589.91C264.4,-579.5 260.84,-564.45 250.49,-556.8 247.11,-554.3 216.21,-557.48 212.68,-555.2 204.49,-549.9 199.2,-540.6 195.85,-531.89"/>
<polygon fill="#ff4444" stroke="#ff4444" stroke-width="2.5" points="199.13,-530.67 192.75,-522.21 192.46,-532.8 199.13,-530.67"/>
</a>
</g>
</g>
<!-- tsuneyoshi_shinnou -->
<g id="node4" class="node">
<title>tsuneyoshi_shinnou</title>
<g id="a_node4"><a xlink:href="https://ja.wikipedia.org/wiki/恒良親王" xlink:title="後醍醐天皇の皇子。宮方の象徴として行動を共にする。" target="_blank">
<polygon fill="#fcfcfc" stroke="#fcfcfc" stroke-width="0.1" points="316.88,-552 215.88,-552 215.88,-530 316.88,-530 316.88,-552"/>
<text text-anchor="middle" x="266.38" y="-537.9" font-family="sans-serif" font-size="12.00" fill="#cc0000">恒良親王</text>
</a>
</g>
</g>
<!-- hino_suketomo -->
<g id="node5" class="node">
<title>hino_suketomo</title>
<g id="a_node5"><a xlink:href="https://ja.wikipedia.org/wiki/日野資朝" xlink:title="正中の変ののち佐渡に流刑中。遠国から討幕の行く末を注視。" target="_blank">
<polygon fill="#fcfcfc" stroke="#fcfcfc" stroke-width="0.1" points="124.8,-496.37 23.8,-496.37 23.8,-474.37 124.8,-474.37 124.8,-496.37"/>
<text text-anchor="middle" x="74.3" y="-482.27" font-family="sans-serif" font-size="12.00" fill="#cc0000">日野資朝</text>
</a>
</g>
</g>
<!-- hino_toshimoto -->
<g id="node6" class="node">
<title>hino_toshimoto</title>
<g id="a_node6"><a xlink:href="https://ja.wikipedia.org/wiki/日野俊基" xlink:title="再度討幕を謀ったとして、すでに幕府に捕縛され鎌倉へ護送されている。" target="_blank">
<polygon fill="#fcfcfc" stroke="#fcfcfc" stroke-width="0.1" points="180.44,-551.99 79.44,-551.99 79.44,-529.99 180.44,-529.99 180.44,-551.99"/>
<text text-anchor="middle" x="129.94" y="-537.89" font-family="sans-serif" font-size="12.00" fill="#cc0000">日野俊基</text>
</a>
</g>
</g>
<!-- madenokoji_nobufusa -->
<g id="node7" class="node">
<title>madenokoji_nobufusa</title>
<g id="a_node7"><a xlink:href="https://ja.wikipedia.org/wiki/万里小路宣房" xlink:title="後醍醐天皇の側近。実務派公卿として緊迫する局面の朝政を支える。" target="_blank">
<polygon fill="#fcfcfc" stroke="#fcfcfc" stroke-width="0.1" points="361.24,-511.45 260.24,-511.45 260.24,-489.45 361.24,-489.45 361.24,-511.45"/>
<text text-anchor="middle" x="310.74" y="-497.05" font-family="sans-serif" font-size="13.00" fill="#cc0000">万里小路宣房</text>
</a>
</g>
</g>
<!-- madenokoji_nobufusa&#45;&gt;godaigo_tenno -->
<g id="edge15" class="edge">
<title>madenokoji_nobufusa&#45;&gt;godaigo_tenno</title>
<g id="a_edge15"><a xlink:title="側近として朝廷の実務を切り盛りし、後醍醐の討幕計画を支える">
<path fill="none" stroke="#ff4444" stroke-width="2.5" d="M286.3,-511.57C273.95,-516.66 258.56,-522.21 244.19,-525.17 240.76,-525.88 215.49,-524.71 212.68,-526.8 205.32,-532.26 201.36,-541.44 199.23,-550.02"/>
<polygon fill="#ff4444" stroke="#ff4444" stroke-width="2.5" points="195.78,-549.44 197.44,-559.9 202.67,-550.69 195.78,-549.44"/>
</a>
</g>
</g>
<!-- kitabatake_chikafusa -->
<g id="node8" class="node">
<title>kitabatake_chikafusa</title>
<g id="a_node8"><a xlink:href="https://ja.wikipedia.org/wiki/北畠親房" xlink:title="大覚寺統を支える重鎮。後醍醐天皇の思想・行動に深く共鳴。" target="_blank">
<polygon fill="#fcfcfc" stroke="#fcfcfc" stroke-width="0.1" points="313.59,-418.2 212.59,-418.2 212.59,-396.2 313.59,-396.2 313.59,-418.2"/>
<text text-anchor="middle" x="263.09" y="-403.5" font-family="sans-serif" font-size="14.00" fill="#cc0000">北畠親房</text>
</a>
</g>
</g>
<!-- kitabatake_chikafusa&#45;&gt;godaigo_tenno -->
<g id="edge18" class="edge">
<title>kitabatake_chikafusa&#45;&gt;godaigo_tenno</title>
<g id="a_edge18"><a xlink:title="重臣として後醍醐の政略を補佐し、大覚寺統の正当性を理論的に支える">
<path fill="none" stroke="#ff4444" stroke-width="2.5" d="M270.44,-418.29C280.47,-434.93 295.38,-466.36 278.41,-484.65 275.17,-488.14 260.79,-483.32 257.04,-486.25 242.69,-497.47 258.68,-514.13 244.19,-525.17 238.62,-529.43 218.31,-522.62 212.68,-526.8 205.32,-532.26 201.36,-541.44 199.23,-550.02"/>
<polygon fill="#ff4444" stroke="#ff4444" stroke-width="2.5" points="195.78,-549.44 197.44,-559.9 202.67,-550.69 195.78,-549.44"/>
</a>
</g>
</g>
<!-- kusunoki_masashige -->
<g id="node9" class="node">
<title>kusunoki_masashige</title>
<g id="a_node9"><a xlink:href="https://ja.wikipedia.org/wiki/楠木正成" xlink:title="河内の新興武士。後醍醐天皇の召しに応じて赤坂城で挙兵、悪党戦術で幕府を翻弄。" target="_blank">
<polygon fill="#fcfcfc" stroke="#fcfcfc" stroke-width="0.1" points="287.75,-223.45 186.75,-223.45 186.75,-201.45 287.75,-201.45 287.75,-223.45"/>
<text text-anchor="middle" x="237.25" y="-208.95" font-family="sans-serif" font-size="15.00" fill="#cc0000">楠木正成</text>
</a>
</g>
</g>
<!-- kusunoki_masashige&#45;&gt;godaigo_tenno -->
<g id="edge9" class="edge">
<title>kusunoki_masashige&#45;&gt;godaigo_tenno</title>
<g id="a_edge9"><a xlink:title="後醍醐天皇の密勅に応じて赤坂城で挙兵。宮方の主力として幕府軍を翻弄">
<path fill="none" stroke="#cc0000" stroke-width="3.2" d="M235.77,-223.65C230.76,-259.15 212.31,-371.79 170.21,-454.63 159.38,-475.94 144.66,-474.2 136.79,-496.77 132.64,-508.69 128.02,-516.1 136.79,-525.17 140.41,-528.92 179.52,-523.61 183.64,-526.79 190.13,-531.81 193.53,-539.89 195.28,-547.78"/>
<polygon fill="#cc0000" stroke="#cc0000" stroke-width="3.2" points="191.15,-548.59 196.88,-559.93 199.47,-547.48 191.15,-548.59"/>
</a>
</g>
</g>
<!-- kusunoki_masasue -->
<g id="node10" class="node">
<title>kusunoki_masasue</title>
<g id="a_node10"><a xlink:href="https://ja.wikipedia.org/wiki/楠木正季" xlink:title="楠木正成の弟。兄とともに赤坂城に籠城し、宮方として奮戦。" target="_blank">
<polygon fill="#fcfcfc" stroke="#fcfcfc" stroke-width="0.1" points="257.81,-193.43 156.81,-193.43 156.81,-171.43 257.81,-171.43 257.81,-193.43"/>
<text text-anchor="middle" x="207.31" y="-179.33" font-family="sans-serif" font-size="12.00" fill="#cc0000">楠木正季</text>
</a>
</g>
</g>
<!-- kusunoki_masasue&#45;&gt;kusunoki_masashige -->
<g id="edge10" class="edge">
<title>kusunoki_masasue&#45;&gt;kusunoki_masashige</title>
<g id="a_edge10"><a xlink:title="兄・正成の挙兵に呼応し、赤坂城の籠城戦を共に戦う一族の結束">
<path fill="none" stroke="#cc0000" stroke-width="3.2" d="M218.46,-193.61C218.62,-193.77 218.77,-193.93 218.93,-194.09"/>
<polygon fill="#cc0000" stroke="#cc0000" stroke-width="3.2" points="214.74,-195.83 226.19,-201.36 220.69,-189.9 214.74,-195.83"/>
</a>
</g>
</g>
<!-- horikawa_tomochika -->
<g id="node11" class="node">
<title>horikawa_tomochika</title>
<g id="a_node11"><a xlink:href="https://ja.wikipedia.org/wiki/堀川具親" xlink:title="宮方の公卿。後醍醐天皇の討幕運動に関与。" target="_blank">
<polygon fill="#fcfcfc" stroke="#fcfcfc" stroke-width="0.1" points="167.01,-451.43 66.01,-451.43 66.01,-429.43 167.01,-429.43 167.01,-451.43"/>
<text text-anchor="middle" x="116.51" y="-437.33" font-family="sans-serif" font-size="12.00" fill="#cc0000">堀川具親</text>
</a>
</g>
</g>
<!-- shijo_takadata -->
<g id="node12" class="node">
<title>shijo_takadata</title>
<g id="a_node12"><a xlink:href="https://ja.wikipedia.org/wiki/四条隆資" xlink:title="後醍醐天皇の側近。笠置山潜幸に同行し、徹底抗戦を主張。" target="_blank">
<polygon fill="#fcfcfc" stroke="#fcfcfc" stroke-width="0.1" points="275.21,-481.45 174.21,-481.45 174.21,-459.45 275.21,-459.45 275.21,-481.45"/>
<text text-anchor="middle" x="224.71" y="-467.35" font-family="sans-serif" font-size="12.00" fill="#cc0000">四条隆資</text>
</a>
</g>
</g>
<!-- shijo_takadata&#45;&gt;godaigo_tenno -->
<g id="edge16" class="edge">
<title>shijo_takadata&#45;&gt;godaigo_tenno</title>
<g id="a_edge16"><a xlink:title="笠置山潜幸に随行した側近として、後醍醐の意志を体現する">
<path fill="none" stroke="#ff4444" stroke-width="2.5" d="M234.52,-481.48C244.11,-493.63 255.72,-513.04 244.19,-525.17 241.78,-527.72 215.49,-524.71 212.68,-526.8 205.32,-532.26 201.36,-541.44 199.23,-550.02"/>
<polygon fill="#ff4444" stroke="#ff4444" stroke-width="2.5" points="195.78,-549.44 197.44,-559.9 202.67,-550.69 195.78,-549.44"/>
</a>
</g>
</g>
<!-- chigusa_tadaaki -->
<g id="node13" class="node">
<title>chigusa_tadaaki</title>
<g id="a_node13"><a xlink:href="https://ja.wikipedia.org/wiki/千種忠顕" xlink:title="後醍醐天皇の近臣。笠置山への同行、挙兵の実務などアクティブに活動。" target="_blank">
<polygon fill="#fcfcfc" stroke="#fcfcfc" stroke-width="0.1" points="101,-421.42 0,-421.42 0,-399.42 101,-399.42 101,-421.42"/>
<text text-anchor="middle" x="50.5" y="-407.02" font-family="sans-serif" font-size="13.00" fill="#cc0000">千種忠顕</text>
</a>
</g>
</g>
<!-- chigusa_tadaaki&#45;&gt;godaigo_tenno -->
<g id="edge17" class="edge">
<title>chigusa_tadaaki&#45;&gt;godaigo_tenno</title>
<g id="a_edge17"><a xlink:title="近臣として挙兵の実務を担い、常に後醍醐と行動を共にする">
<path fill="none" stroke="#ff4444" stroke-width="2.5" d="M50.63,-421.8C51.36,-431.8 54.04,-446.05 62.81,-454.63 84.19,-475.52 107.8,-449.14 128,-471.17 144.43,-489.1 118.54,-509.1 136.79,-525.17 140.7,-528.62 179.52,-523.61 183.64,-526.79 190.67,-532.24 194.08,-541.28 195.68,-549.77"/>
<polygon fill="#ff4444" stroke="#ff4444" stroke-width="2.5" points="192.23,-550.41 196.88,-559.93 199.19,-549.59 192.23,-550.41"/>
</a>
</g>
</g>
<!-- kikuchi_taketoki -->
<g id="node14" class="node">
<title>kikuchi_taketoki</title>
<g id="a_node14"><a xlink:href="https://ja.wikipedia.org/wiki/菊池武時" xlink:title="肥後の有力武士。鎮西探題の監視下にありつつも、心中では宮方に共鳴。" target="_blank">
<polygon fill="#fcfcfc" stroke="#fcfcfc" stroke-width="0.1" points="206.42,-82.43 105.42,-82.43 105.42,-60.43 206.42,-60.43 206.42,-82.43"/>
<text text-anchor="middle" x="155.92" y="-68.33" font-family="sans-serif" font-size="12.00" fill="#cc0000">菊池武時</text>
</a>
</g>
</g>
<!-- hojo_takatoki -->
<g id="node19" class="node">
<title>hojo_takatoki</title>
<g id="a_node19"><a xlink:href="https://ja.wikipedia.org/wiki/北条高時" xlink:title="鎌倉幕府第14代執権・得宗。元弘の変に際し、大規模な軍勢を京へ派遣。" target="_blank">
<polygon fill="#fcfcfc" stroke="#fcfcfc" stroke-width="0.1" points="617.13,-500.7 516.13,-500.7 516.13,-478.7 617.13,-478.7 617.13,-500.7"/>
<text text-anchor="middle" x="566.63" y="-486.2" font-family="sans-serif" font-size="15.00" fill="#004400">北条高時</text>
</a>
</g>
</g>
<!-- kikuchi_taketoki&#45;&gt;hojo_takatoki -->
<g id="edge20" class="edge">
<title>kikuchi_taketoki&#45;&gt;hojo_takatoki</title>
<g id="a_edge20"><a xlink:title="九州の有力武士として、幕府の権威を牽制しつつ情勢を伺う（潜在的な敵対）">
<path fill="none" stroke="#444444" stroke-width="2.5" d="M161.7,-82.45C173.27,-103.2 201.44,-147.7 239.41,-166.63 248.02,-170.92 252.26,-164.21 261.01,-168.23 278.14,-176.09 278.18,-184.39 290.95,-198.25 388.02,-303.62 404.78,-336.57 499.82,-443.77 510.18,-455.46 512.18,-461.6 527.17,-472.72"/>
<polygon fill="#444444" stroke="#444444" stroke-width="2.5" points="525.46,-475.79 535.67,-478.62 529.45,-470.04 525.46,-475.79"/>
</a>
</g>
</g>
<!-- monbun_kenshin -->
<g id="node15" class="node">
<title>monbun_kenshin</title>
<g id="a_node15"><a xlink:href="https://ja.wikipedia.org/wiki/文観" xlink:title="真言密教の怪僧。引き続き呪術・調伏の面から後醍醐の討幕を過激に支援。" target="_blank">
<polygon fill="#fcfcfc" stroke="#fcfcfc" stroke-width="0.1" points="773.49,-60.36 672.49,-60.36 672.49,-38.36 773.49,-38.36 773.49,-60.36"/>
<text text-anchor="middle" x="722.99" y="-45.96" font-family="sans-serif" font-size="13.00" fill="#cc0000">文観</text>
</a>
</g>
</g>
<!-- monbun_kenshin&#45;&gt;godaigo_tenno -->
<g id="edge21" class="edge">
<title>monbun_kenshin&#45;&gt;godaigo_tenno</title>
<g id="a_edge21"><a xlink:title="密教僧として後醍醐を呪術的に守護し、幕府を調伏する祈祷を捧げる">
<path fill="none" stroke="#ff4444" stroke-width="2.5" d="M708.74,-60.42C707.01,-62 705.33,-63.65 703.83,-65.33 618.74,-160.22 646.88,-227.29 545.33,-304.32 531.77,-314.61 524.61,-309.58 508.89,-316.1 481.9,-327.3 474.9,-330.19 450.39,-346.11 368.08,-399.57 369.69,-448.56 278.41,-484.65 273.98,-486.4 260.79,-483.32 257.04,-486.25 242.69,-497.47 258.68,-514.13 244.19,-525.17 238.62,-529.43 218.31,-522.62 212.68,-526.8 205.32,-532.26 201.36,-541.44 199.23,-550.02"/>
<polygon fill="#ff4444" stroke="#ff4444" stroke-width="2.5" points="195.78,-549.44 197.44,-559.9 202.67,-550.69 195.78,-549.44"/>
</a>
</g>
</g>
<!-- gofushimi_in -->
<g id="node16" class="node">
<title>gofushimi_in</title>
<g id="a_node16"><a xlink:href="https://ja.wikipedia.org/wiki/後伏見天皇" xlink:title="持明院統の院。後醍醐の挙兵失脚に乗じて光厳天皇の即位を画策。" target="_blank">
<polygon fill="#fcfcfc" stroke="#fcfcfc" stroke-width="0.1" points="468.97,-571.48 367.97,-571.48 367.97,-549.48 468.97,-549.48 468.97,-571.48"/>
<text text-anchor="middle" x="418.47" y="-556.78" font-family="sans-serif" font-size="14.00" fill="#0000cc">後伏見院</text>
</a>
</g>
</g>
<!-- kogen_tenno -->
<g id="node18" class="node">
<title>kogen_tenno</title>
<g id="a_node18"><a xlink:href="https://ja.wikipedia.org/wiki/光厳天皇" xlink:title="幕府の後押しを受け、10月に即位を強行。北朝の端緒。" target="_blank">
<polygon fill="#fcfcfc" stroke="#fcfcfc" stroke-width="0.1" points="488.55,-601.53 387.55,-601.53 387.55,-579.53 488.55,-579.53 488.55,-601.53"/>
<text text-anchor="middle" x="438.05" y="-587.03" font-family="sans-serif" font-size="15.00" fill="#0000cc">光厳天皇</text>
</a>
</g>
</g>
<!-- gofushimi_in&#45;&gt;kogen_tenno -->
<g id="edge5" class="edge">
<title>gofushimi_in&#45;&gt;kogen_tenno</title>
<g id="a_edge5"><a xlink:title="後醍醐の廃位と、持明院統の光厳天皇への皇位継承を強力に後押し（院政・正統性確保）">
<path fill="none" stroke="#0000aa" stroke-width="3.2" d="M425.76,-571.67C425.86,-571.83 425.97,-571.99 426.07,-572.15"/>
<polygon fill="#0000aa" stroke="#0000aa" stroke-width="3.2" points="420.75,-571.67 430.82,-579.43 427.78,-567.09 420.75,-571.67"/>
</a>
</g>
</g>
<!-- hanazono_in -->
<g id="node17" class="node">
<title>hanazono_in</title>
<g id="a_node17"><a xlink:href="https://ja.wikipedia.org/wiki/花園天皇" xlink:title="持明院統の院。後醍醐の過激な行動を非難し、皇位の正統性を主張。" target="_blank">
<polygon fill="#fcfcfc" stroke="#fcfcfc" stroke-width="0.1" points="426.51,-541.46 325.51,-541.46 325.51,-519.46 426.51,-519.46 426.51,-541.46"/>
<text text-anchor="middle" x="376.01" y="-526.76" font-family="sans-serif" font-size="14.00" fill="#0000cc">花園院</text>
</a>
</g>
</g>
<!-- ashikaga_takauji -->
<g id="node24" class="node">
<title>ashikaga_takauji</title>
<g id="a_node24"><a xlink:href="https://ja.wikipedia.org/wiki/足利尊氏" xlink:title="幕府追討軍の大将として京へ上洛中。今後の動向が注視される。" target="_blank">
<polygon fill="#fcfcfc" stroke="#fcfcfc" stroke-width="0.1" points="549.21,-240.57 448.21,-240.57 448.21,-218.57 549.21,-218.57 549.21,-240.57"/>
<text text-anchor="middle" x="498.71" y="-225.87" font-family="sans-serif" font-size="14.00" fill="#000000">足利高氏</text>
</a>
</g>
</g>
<!-- hojo_takatoki&#45;&gt;ashikaga_takauji -->
<g id="edge2" class="edge">
<title>hojo_takatoki&#45;&gt;ashikaga_takauji</title>
<g id="a_edge2"><a xlink:title="執権・得宗の命として、足利宗家に大規模な宮方追討軍の軍大将を命じる（追討軍下命）">
<path fill="none" stroke="#005500" stroke-width="4" d="M535.67,-478.62C532.83,-477.16 530.08,-475.56 527.55,-473.8 481.61,-441.98 472.04,-426.04 450.39,-374.51 433.28,-333.79 407.38,-307.82 437.93,-275.92 440.92,-272.8 473.18,-276.62 476.8,-274.25 483.85,-269.64 488.71,-262.06 492.02,-254.44"/>
<polygon fill="#005500" stroke="#005500" stroke-width="4" points="496.75,-255.75 496.56,-240.91 487.46,-252.63 496.75,-255.75"/>
</a>
</g>
</g>
<!-- hojo_moritoki -->
<g id="node20" class="node">
<title>hojo_moritoki</title>
<g id="a_node20"><a xlink:href="https://ja.wikipedia.org/wiki/北条守時" xlink:title="第16代執権。赤橋流北条氏。緊迫する政局の舵取りに奔走。" target="_blank">
<polygon fill="#fcfcfc" stroke="#fcfcfc" stroke-width="0.1" points="631.75,-470.6 530.75,-470.6 530.75,-448.6 631.75,-448.6 631.75,-470.6"/>
<text text-anchor="middle" x="581.25" y="-456.2" font-family="sans-serif" font-size="13.00" fill="#004400">北条守時</text>
</a>
</g>
</g>
<!-- hojo_nakatoki -->
<g id="node21" class="node">
<title>hojo_nakatoki</title>
<g id="a_node21"><a xlink:href="https://ja.wikipedia.org/wiki/北条仲時" xlink:title="六波羅探題北方。後醍醐天皇を捕縛し、京都の治安維持を強固に推進。" target="_blank">
<polygon fill="#fcfcfc" stroke="#fcfcfc" stroke-width="0.1" points="604.02,-440.57 503.02,-440.57 503.02,-418.57 604.02,-418.57 604.02,-440.57"/>
<text text-anchor="middle" x="553.52" y="-426.17" font-family="sans-serif" font-size="13.00" fill="#004400">北条仲時</text>
</a>
</g>
</g>
<!-- hojo_moritoki&#45;&gt;hojo_nakatoki -->
<g id="edge14" class="edge">
<title>hojo_moritoki&#45;&gt;hojo_nakatoki</title>
<g id="a_edge14"><a xlink:title="執権が京都の治安責任者である六波羅探題の動向を統括">
<path fill="none" stroke="#005500" stroke-width="2.5" d="M570.93,-448.42C570.78,-448.26 570.63,-448.1 570.49,-447.94"/>
<polygon fill="#005500" stroke="#005500" stroke-width="2.5" points="573.12,-445.64 563.76,-440.66 567.98,-450.39 573.12,-445.64"/>
</a>
</g>
</g>
<!-- hojo_nakatoki&#45;&gt;godaigo_tenno -->
<g id="edge3" class="edge">
<title>hojo_nakatoki&#45;&gt;godaigo_tenno</title>
<g id="a_edge3"><a xlink:title="六波羅探題軍を率いて、後醍醐天皇を捕縛（笠置山蜂起追討）">
<path fill="none" stroke="#004400" stroke-width="4" d="M534.16,-440.64C531.87,-442.16 529.62,-443.76 527.55,-445.4 479,-483.87 486.55,-520.04 429.71,-544.66 423.09,-547.53 371.94,-545.49 364.77,-546.28 344.64,-548.53 340.06,-551.93 320.08,-555.2 301.15,-558.29 280.52,-561.14 261.63,-563.55"/>
<polygon fill="#004400" stroke="#004400" stroke-width="4" points="260.88,-558.7 247.59,-565.29 262.09,-568.43 260.88,-558.7"/>
</a>
</g>
</g>
<!-- hojo_nakatoki&#45;&gt;kusunoki_masashige -->
<g id="edge8" class="edge">
<title>hojo_nakatoki&#45;&gt;kusunoki_masashige</title>
<g id="a_edge8"><a xlink:title="六波羅探題の軍勢を派遣し、河内の赤坂城で挙兵した楠木軍の討伐を強行">
<path fill="none" stroke="#004400" stroke-width="4" d="M530.39,-418.55C509.09,-408.1 476.87,-391.49 450.39,-374.51 378.21,-328.22 299.38,-264.49 260.96,-232.49"/>
<polygon fill="#004400" stroke="#004400" stroke-width="4" points="264.06,-228.7 250.18,-223.46 257.76,-236.21 264.06,-228.7"/>
</a>
</g>
</g>
<!-- sasaki_doyo -->
<g id="node28" class="node">
<title>sasaki_doyo</title>
<g id="a_node28"><a xlink:href="https://ja.wikipedia.org/wiki/佐々木道誉" xlink:title="幕府軍の一員として宮方制圧に参加しつつ、戦況を注視。" target="_blank">
<polygon fill="#fcfcfc" stroke="#fcfcfc" stroke-width="0.1" points="535.36,-98.38 434.36,-98.38 434.36,-76.38 535.36,-76.38 535.36,-98.38"/>
<text text-anchor="middle" x="484.86" y="-83.98" font-family="sans-serif" font-size="13.00" fill="#000000">佐々木道誉</text>
</a>
</g>
</g>
<!-- hojo_nakatoki&#45;&gt;sasaki_doyo -->
<g id="edge11" class="edge">
<title>hojo_nakatoki&#45;&gt;sasaki_doyo</title>
<g id="a_edge11"><a xlink:title="六波羅探題が近江守護である佐々木道誉に対し、追討軍への協力と兵站を指示">
<path fill="none" stroke="#555555" stroke-width="2.5" d="M565.64,-418.32C580.9,-403.24 606.31,-374.84 616.29,-344.5 632.3,-295.84 679.66,-273.71 604.89,-155.31 588.68,-129.64 559.08,-112.74 533.33,-102.21"/>
<polygon fill="#555555" stroke="#555555" stroke-width="2.5" points="534.27,-98.82 523.68,-98.48 531.75,-105.35 534.27,-98.82"/>
</a>
</g>
</g>
<!-- toki_yorisada -->
<g id="node29" class="node">
<title>toki_yorisada</title>
<g id="a_node29"><a xlink:href="https://ja.wikipedia.org/wiki/土岐頼貞" xlink:title="美濃の軍勢を率いて幕府方の追討軍に加わる。" target="_blank">
<polygon fill="#fcfcfc" stroke="#fcfcfc" stroke-width="0.1" points="613.09,-341.3 512.09,-341.3 512.09,-319.3 613.09,-319.3 613.09,-341.3"/>
<text text-anchor="middle" x="562.59" y="-327.2" font-family="sans-serif" font-size="12.00" fill="#000000">土岐頼貞</text>
</a>
</g>
</g>
<!-- hojo_nakatoki&#45;&gt;toki_yorisada -->
<g id="edge12" class="edge">
<title>hojo_nakatoki&#45;&gt;toki_yorisada</title>
<g id="a_edge12"><a xlink:title="六波羅探題が美濃守護の土岐頼貞に対し、軍勢を率いての参戦を命じる">
<path fill="none" stroke="#555555" stroke-width="2.5" d="M554.52,-418.57C556,-402.4 558.79,-371.9 560.67,-351.34"/>
<polygon fill="#555555" stroke="#555555" stroke-width="2.5" points="564.16,-351.63 561.58,-341.36 557.19,-351 564.16,-351.63"/>
</a>
</g>
</g>
<!-- nagasaki_enki -->
<g id="node22" class="node">
<title>nagasaki_enki</title>
<g id="a_node22"><a xlink:href="https://ja.wikipedia.org/wiki/長崎円喜" xlink:title="得宗家内管領の宿老。得宗高時を背後から操り、強硬な軍事弾圧を主導。" target="_blank">
<polygon fill="#fcfcfc" stroke="#fcfcfc" stroke-width="0.1" points="473.6,-271.05 372.6,-271.05 372.6,-249.05 473.6,-249.05 473.6,-271.05"/>
<text text-anchor="middle" x="423.1" y="-256.65" font-family="sans-serif" font-size="13.00" fill="#004400">長崎円喜</text>
</a>
</g>
</g>
<!-- nagasaki_enki&#45;&gt;hojo_takatoki -->
<g id="edge1" class="edge">
<title>nagasaki_enki&#45;&gt;hojo_takatoki</title>
<g id="a_edge1"><a xlink:title="内管領として得宗高時を主導し、反乱軍の徹底全滅を指示（幕政主導）">
<path fill="none" stroke="#005500" stroke-width="4" d="M424.31,-271.24C426.92,-292.28 434.15,-338.81 450.39,-374.51 471.77,-421.51 480.29,-439.25 524.09,-470.57"/>
<polygon fill="#005500" stroke="#005500" stroke-width="4" points="521.37,-474.65 535.67,-478.62 526.97,-466.61 521.37,-474.65"/>
</a>
</g>
</g>
<!-- nagasaki_takasuke -->
<g id="node23" class="node">
<title>nagasaki_takasuke</title>
<g id="a_node23"><a xlink:href="https://ja.wikipedia.org/wiki/長崎高資" xlink:title="内管領。円喜とともに、討幕派の徹底的な検挙と抹殺を推進。" target="_blank">
<polygon fill="#fcfcfc" stroke="#fcfcfc" stroke-width="0.1" points="542.13,-301.12 441.13,-301.12 441.13,-279.12 542.13,-279.12 542.13,-301.12"/>
<text text-anchor="middle" x="491.63" y="-286.72" font-family="sans-serif" font-size="13.00" fill="#004400">長崎高資</text>
</a>
</g>
</g>
<!-- nagasaki_takasuke&#45;&gt;hojo_nakatoki -->
<g id="edge13" class="edge">
<title>nagasaki_takasuke&#45;&gt;hojo_nakatoki</title>
<g id="a_edge13"><a xlink:title="幕府内管領が京都の六波羅探題へ軍事状況の監察と強硬策を指示">
<path fill="none" stroke="#005500" stroke-width="3.2" d="M491.65,-301.42C492.34,-314.18 495.63,-334.46 508.89,-344.5 513.23,-347.79 554.01,-342.2 557.79,-346.11 573.03,-361.86 568.8,-388.08 562.77,-406.93"/>
<polygon fill="#005500" stroke="#005500" stroke-width="3.2" points="558.78,-405.61 558.63,-418.33 566.67,-408.48 558.78,-405.61"/>
</a>
</g>
</g>
<!-- ashikaga_tadayoshi -->
<g id="node25" class="node">
<title>ashikaga_tadayoshi</title>
<g id="a_node25"><a xlink:href="https://ja.wikipedia.org/wiki/足利直義" xlink:title="兄の高氏と共に幕府軍の主力として上洛。" target="_blank">
<polygon fill="#fcfcfc" stroke="#fcfcfc" stroke-width="0.1" points="574.96,-210.56 473.96,-210.56 473.96,-188.56 574.96,-188.56 574.96,-210.56"/>
<text text-anchor="middle" x="524.46" y="-196.16" font-family="sans-serif" font-size="13.00" fill="#000000">足利直義</text>
</a>
</g>
</g>
<!-- ashikaga_tadayoshi&#45;&gt;ashikaga_takauji -->
<g id="edge6" class="edge">
<title>ashikaga_tadayoshi&#45;&gt;ashikaga_takauji</title>
<g id="a_edge6"><a xlink:title="兄の出陣に従い、足利軍の主力としてともに上洛（兄弟共闘）">
<path fill="none" stroke="#000000" stroke-width="3.2" d="M514.87,-210.73C514.74,-210.89 514.6,-211.05 514.46,-211.21"/>
<polygon fill="#000000" stroke="#000000" stroke-width="3.2" points="512.85,-206.64 508.22,-218.48 519.22,-212.11 512.85,-206.64"/>
</a>
</g>
</g>
<!-- ko_no_moronao -->
<g id="node26" class="node">
<title>ko_no_moronao</title>
<g id="a_node26"><a xlink:href="https://ja.wikipedia.org/wiki/高師直" xlink:title="足利家の執事。高氏の側近として軍事・実務を統率。" target="_blank">
<polygon fill="#fcfcfc" stroke="#fcfcfc" stroke-width="0.1" points="601.69,-180.51 500.69,-180.51 500.69,-158.51 601.69,-158.51 601.69,-180.51"/>
<text text-anchor="middle" x="551.19" y="-166.11" font-family="sans-serif" font-size="13.00" fill="#000000">高師直</text>
</a>
</g>
</g>
<!-- ko_no_moronao&#45;&gt;ashikaga_takauji -->
<g id="edge7" class="edge">
<title>ko_no_moronao&#45;&gt;ashikaga_takauji</title>
<g id="a_edge7"><a xlink:title="執事として足利軍の軍政と実務を取り仕切り、高氏を絶対的に補佐（主従・軍事中枢）">
<path fill="none" stroke="#000000" stroke-width="3.2" d="M574.56,-180.75C575.96,-182.13 577.19,-183.66 578.16,-185.36 584.43,-196.31 586.17,-204 578.16,-213.76 573.59,-219.33 567.66,-223.3 561.11,-226.1"/>
<polygon fill="#000000" stroke="#000000" stroke-width="3.2" points="559.77,-222.11 549.61,-229.76 562.32,-230.12 559.77,-222.11"/>
</a>
</g>
</g>
<!-- kira_sadamitsu -->
<g id="node27" class="node">
<title>kira_sadamitsu</title>
<g id="a_node27"><a xlink:href="https://ja.wikipedia.org/wiki/吉良貞満" xlink:title="足利一門。追討軍の軍勢を支える。" target="_blank">
<polygon fill="#fcfcfc" stroke="#fcfcfc" stroke-width="0.1" points="554.59,-371.31 453.59,-371.31 453.59,-349.31 554.59,-349.31 554.59,-371.31"/>
<text text-anchor="middle" x="504.09" y="-357.51" font-family="sans-serif" font-size="11.00" fill="#000000">吉良貞満</text>
</a>
</g>
</g>
<!-- shimazu_sadahisa -->
<g id="node30" class="node">
<title>shimazu_sadahisa</title>
<g id="a_node30"><a xlink:href="https://ja.wikipedia.org/wiki/島津貞久" xlink:title="薩摩守護。九州の情勢を維持しつつ中央を注視。" target="_blank">
<polygon fill="#fcfcfc" stroke="#fcfcfc" stroke-width="0.1" points="221.18,-22 120.18,-22 120.18,0 221.18,0 221.18,-22"/>
<text text-anchor="middle" x="170.68" y="-8.2" font-family="sans-serif" font-size="11.00" fill="#444444">島津貞久</text>
</a>
</g>
</g>
<!-- ouchi_nagahiro -->
<g id="node31" class="node">
<title>ouchi_nagahiro</title>
<g id="a_node31"><a xlink:href="https://ja.wikipedia.org/wiki/大内長弘" xlink:title="西国における軍事的動向を窺う。" target="_blank">
<polygon fill="#fcfcfc" stroke="#fcfcfc" stroke-width="0.1" points="343.61,-163.43 242.61,-163.43 242.61,-141.43 343.61,-141.43 343.61,-163.43"/>
<text text-anchor="middle" x="293.11" y="-149.63" font-family="sans-serif" font-size="11.00" fill="#444444">大内長弘</text>
</a>
</g>
</g>
<!-- muso_soseki -->
<g id="node32" class="node">
<title>muso_soseki</title>
<g id="a_node32"><a xlink:href="https://ja.wikipedia.org/wiki/夢窓疎石" xlink:title="政治的激動から距離を保ちつつ法を説く。" target="_blank">
<polygon fill="#fcfcfc" stroke="#fcfcfc" stroke-width="0.1" points="808.03,-90.53 707.03,-90.53 707.03,-68.53 808.03,-68.53 808.03,-90.53"/>
<text text-anchor="middle" x="757.53" y="-76.43" font-family="sans-serif" font-size="12.00" fill="#444444">夢窓疎石</text>
</a>
</g>
</g>
</g>
</svg>
