<?xml version="1.0" encoding="UTF-8" standalone="no"?>
<!DOCTYPE svg PUBLIC "-//W3C//DTD SVG 1.1//EN"
 "http://www.w3.org/Graphics/SVG/1.1/DTD/svg11.dtd">
<!-- Generated by graphviz version 2.43.0 (0)
 -->
<!-- Title: timeline_1331_10 Pages: 1 -->
<svg width="848pt" height="654pt"
 viewBox="0.00 0.00 847.89 653.99" xmlns="http://www.w3.org/2000/svg" xmlns:xlink="http://www.w3.org/1999/xlink">
<g id="graph0" class="graph" transform="scale(1 1) rotate(0) translate(4 649.99)">
<title>timeline_1331_10</title>
<polygon fill="#ffffff" stroke="transparent" points="-4,4 -4,-649.99 843.89,-649.99 843.89,4 -4,4"/>
<!-- godaigo_tenno -->
<g id="node1" class="node">
<title>godaigo_tenno</title>
<g id="a_node1"><a xlink:href="https://ja.wikipedia.org/wiki/後醍醐天皇" xlink:title="元弘の変で敗北し、隠岐へ配流される。" target="_blank">
<polygon fill="#fcfcfc" stroke="#fcfcfc" stroke-width="0.1" points="251.85,-615.98 150.85,-615.98 150.85,-593.98 251.85,-593.98 251.85,-615.98"/>
<text text-anchor="middle" x="201.35" y="-601.28" font-family="sans-serif" font-size="14.00" fill="#cc0000">後醍醐天皇</text>
</a>
</g>
</g>
<!-- moriyoshi_shinnou -->
<g id="node2" class="node">
<title>moriyoshi_shinnou</title>
<g id="a_node2"><a xlink:href="https://ja.wikipedia.org/wiki/護良親王" xlink:title="後醍醐天皇の皇子。討幕運動を推進。" target="_blank">
<polygon fill="#fcfcfc" stroke="#fcfcfc" stroke-width="0.1" points="241.79,-555.92 140.79,-555.92 140.79,-533.92 241.79,-533.92 241.79,-555.92"/>
<text text-anchor="middle" x="191.29" y="-541.22" font-family="sans-serif" font-size="14.00" fill="#cc0000">護良親王</text>
</a>
</g>
</g>
<!-- godaigo_tenno&#45;&gt;moriyoshi_shinnou -->
<g id="edge7" class="edge">
<title>godaigo_tenno&#45;&gt;moriyoshi_shinnou</title>
<g id="a_edge7"><a xlink:title="討幕の挙兵を命じる。">
<path fill="none" stroke="#cc0000" stroke-width="2.8" d="M199.5,-593.97C198.22,-586.27 196.45,-575.76 194.89,-566.43"/>
<polygon fill="#cc0000" stroke="#cc0000" stroke-width="2.8" points="198.3,-565.56 193.19,-556.28 191.39,-566.72 198.3,-565.56"/>
</a>
</g>
</g>
<!-- munenaga_shinnou -->
<g id="node3" class="node">
<title>munenaga_shinnou</title>
<g id="a_node3"><a xlink:href="https://ja.wikipedia.org/wiki/宗良親王" xlink:title="後醍醐天皇の皇子。討幕運動に関与。" target="_blank">
<polygon fill="#fcfcfc" stroke="#fcfcfc" stroke-width="0.1" points="296.67,-645.99 195.67,-645.99 195.67,-623.99 296.67,-623.99 296.67,-645.99"/>
<text text-anchor="middle" x="246.17" y="-631.29" font-family="sans-serif" font-size="14.00" fill="#cc0000">宗良親王</text>
</a>
</g>
</g>
<!-- godaigo_tenno&#45;&gt;munenaga_shinnou -->
<g id="edge10" class="edge">
<title>godaigo_tenno&#45;&gt;munenaga_shinnou</title>
<g id="a_edge10"><a xlink:title="皇子として討幕に関与。">
<path fill="none" stroke="#cc0000" stroke-width="2.8" d="M217.78,-615.98C218.88,-616.72 220,-617.47 221.12,-618.22"/>
<polygon fill="#cc0000" stroke="#cc0000" stroke-width="2.8" points="219.48,-621.33 229.74,-623.99 223.37,-615.51 219.48,-621.33"/>
</a>
</g>
</g>
<!-- tsuneyoshi_shinnou -->
<g id="node4" class="node">
<title>tsuneyoshi_shinnou</title>
<g id="a_node4"><a xlink:href="https://ja.wikipedia.org/wiki/恒良親王" xlink:title="後醍醐天皇の皇子。" target="_blank">
<polygon fill="#fcfcfc" stroke="#fcfcfc" stroke-width="0.1" points="312.14,-585.97 211.14,-585.97 211.14,-563.97 312.14,-563.97 312.14,-585.97"/>
<text text-anchor="middle" x="261.64" y="-571.27" font-family="sans-serif" font-size="14.00" fill="#cc0000">恒良親王</text>
</a>
</g>
</g>
<!-- godaigo_tenno&#45;&gt;tsuneyoshi_shinnou -->
<g id="edge9" class="edge">
<title>godaigo_tenno&#45;&gt;tsuneyoshi_shinnou</title>
<g id="a_edge9"><a xlink:title="皇子として討幕に関与。">
<path fill="none" stroke="#cc0000" stroke-width="2.8" d="M223.46,-593.98C225.75,-592.84 228.11,-591.66 230.48,-590.48"/>
<polygon fill="#cc0000" stroke="#cc0000" stroke-width="2.8" points="232.14,-593.56 239.54,-585.97 229.02,-587.3 232.14,-593.56"/>
</a>
</g>
</g>
<!-- hino_suketomo -->
<g id="node5" class="node">
<title>hino_suketomo</title>
<g id="a_node5"><a xlink:href="https://ja.wikipedia.org/wiki/日野資朝" xlink:title="討幕計画の主要人物。" target="_blank">
<polygon fill="#fcfcfc" stroke="#fcfcfc" stroke-width="0.1" points="131.37,-542.77 30.37,-542.77 30.37,-520.77 131.37,-520.77 131.37,-542.77"/>
<text text-anchor="middle" x="80.87" y="-528.07" font-family="sans-serif" font-size="14.00" fill="#cc0000">日野資朝</text>
</a>
</g>
</g>
<!-- godaigo_tenno&#45;&gt;hino_suketomo -->
<g id="edge1" class="edge">
<title>godaigo_tenno&#45;&gt;hino_suketomo</title>
<g id="a_edge1"><a xlink:title="討幕計画の指令。">
<path fill="none" stroke="#cc0000" stroke-width="2.8" d="M201.75,-593.92C201.45,-583.56 199.18,-568.53 189.31,-560.74 187.05,-558.96 140.38,-559.81 137.59,-559.12 127.5,-556.65 117.09,-552.25 107.99,-547.68"/>
<polygon fill="#cc0000" stroke="#cc0000" stroke-width="2.8" points="109.51,-544.53 99.04,-542.95 106.24,-550.72 109.51,-544.53"/>
</a>
</g>
</g>
<!-- hino_toshimoto -->
<g id="node6" class="node">
<title>hino_toshimoto</title>
<g id="a_node6"><a xlink:href="https://ja.wikipedia.org/wiki/日野俊基" xlink:title="討幕計画の主要人物。" target="_blank">
<polygon fill="#fcfcfc" stroke="#fcfcfc" stroke-width="0.1" points="186.11,-585.94 85.11,-585.94 85.11,-563.94 186.11,-563.94 186.11,-585.94"/>
<text text-anchor="middle" x="135.61" y="-571.24" font-family="sans-serif" font-size="14.00" fill="#cc0000">日野俊基</text>
</a>
</g>
</g>
<!-- godaigo_tenno&#45;&gt;hino_toshimoto -->
<g id="edge2" class="edge">
<title>godaigo_tenno&#45;&gt;hino_toshimoto</title>
<g id="a_edge2"><a xlink:title="討幕計画の指令。">
<path fill="none" stroke="#cc0000" stroke-width="2.8" d="M177.24,-593.97C174.56,-592.74 171.8,-591.48 169.03,-590.21"/>
<polygon fill="#cc0000" stroke="#cc0000" stroke-width="2.8" points="170.26,-586.93 159.71,-585.95 167.35,-593.29 170.26,-586.93"/>
</a>
</g>
</g>
<!-- madenokoji_nobufusa -->
<g id="node7" class="node">
<title>madenokoji_nobufusa</title>
<g id="a_node7"><a xlink:href="https://ja.wikipedia.org/wiki/万里小路宣房" xlink:title="後醍醐の側近。" target="_blank">
<polygon fill="#fcfcfc" stroke="#fcfcfc" stroke-width="0.1" points="356.07,-554.59 255.07,-554.59 255.07,-532.59 356.07,-532.59 356.07,-554.59"/>
<text text-anchor="middle" x="305.57" y="-539.89" font-family="sans-serif" font-size="14.00" fill="#000000">万里小路宣房</text>
</a>
</g>
</g>
<!-- godaigo_tenno&#45;&gt;madenokoji_nobufusa -->
<g id="edge3" class="edge">
<title>godaigo_tenno&#45;&gt;madenokoji_nobufusa</title>
<g id="a_edge3"><a xlink:title="後醍醐の側近。">
<path fill="none" stroke="#cc0000" stroke-width="2.8" d="M199.46,-593.73C198.47,-583.52 198.95,-568.88 207.94,-560.77 211,-558.01 240.92,-559.73 244.99,-559.12 249.1,-558.51 253.33,-557.73 257.56,-556.86"/>
<polygon fill="#cc0000" stroke="#cc0000" stroke-width="2.8" points="258.37,-560.26 267.36,-554.66 256.84,-553.43 258.37,-560.26"/>
</a>
</g>
</g>
<!-- horikawa_tomochika -->
<g id="node8" class="node">
<title>horikawa_tomochika</title>
<g id="a_node8"><a xlink:href="https://ja.wikipedia.org/wiki/堀川具親" xlink:title="公卿。" target="_blank">
<polygon fill="#fcfcfc" stroke="#fcfcfc" stroke-width="0.1" points="170.89,-494.56 69.89,-494.56 69.89,-472.56 170.89,-472.56 170.89,-494.56"/>
<text text-anchor="middle" x="120.39" y="-479.86" font-family="sans-serif" font-size="14.00" fill="#000000">堀川具親</text>
</a>
</g>
</g>
<!-- godaigo_tenno&#45;&gt;horikawa_tomochika -->
<g id="edge4" class="edge">
<title>godaigo_tenno&#45;&gt;horikawa_tomochika</title>
<g id="a_edge4"><a xlink:title="宮方の公卿。">
<path fill="none" stroke="#cc0000" stroke-width="2.8" d="M201.75,-593.92C201.45,-583.56 199.18,-568.53 189.31,-560.74 184.79,-557.18 141.74,-563.1 137.59,-559.12 134.25,-555.92 135.64,-522.07 134.57,-517.57 133.5,-513.09 131.92,-508.44 130.18,-504.07"/>
<polygon fill="#cc0000" stroke="#cc0000" stroke-width="2.8" points="133.26,-502.36 126.06,-494.59 126.84,-505.16 133.26,-502.36"/>
</a>
</g>
</g>
<!-- shijo_takadata -->
<g id="node9" class="node">
<title>shijo_takadata</title>
<g id="a_node9"><a xlink:href="https://ja.wikipedia.org/wiki/四条隆資" xlink:title="後醍醐天皇の側近。討幕運動に関与。" target="_blank">
<polygon fill="#fcfcfc" stroke="#fcfcfc" stroke-width="0.1" points="273.49,-524.58 172.49,-524.58 172.49,-502.58 273.49,-502.58 273.49,-524.58"/>
<text text-anchor="middle" x="222.99" y="-509.88" font-family="sans-serif" font-size="14.00" fill="#000000">四条隆資</text>
</a>
</g>
</g>
<!-- godaigo_tenno&#45;&gt;shijo_takadata -->
<g id="edge5" class="edge">
<title>godaigo_tenno&#45;&gt;shijo_takadata</title>
<g id="a_edge5"><a xlink:title="討幕計画に関与。">
<path fill="none" stroke="#cc0000" stroke-width="2.8" d="M199.46,-593.73C198.47,-583.52 198.95,-568.88 207.94,-560.77 211,-558.01 242.14,-562.1 244.99,-559.12 252.01,-551.78 251.32,-545.21 245.79,-534.03"/>
<polygon fill="#cc0000" stroke="#cc0000" stroke-width="2.8" points="248.75,-532.16 240.94,-525 242.59,-535.47 248.75,-532.16"/>
</a>
</g>
</g>
<!-- chigusa_tadaaki -->
<g id="node10" class="node">
<title>chigusa_tadaaki</title>
<g id="a_node10"><a xlink:href="https://ja.wikipedia.org/wiki/千種忠顕" xlink:title="公卿。討幕運動に関与。" target="_blank">
<polygon fill="#fcfcfc" stroke="#fcfcfc" stroke-width="0.1" points="101,-464.55 0,-464.55 0,-442.55 101,-442.55 101,-464.55"/>
<text text-anchor="middle" x="50.5" y="-449.85" font-family="sans-serif" font-size="14.00" fill="#000000">千種忠顕</text>
</a>
</g>
</g>
<!-- godaigo_tenno&#45;&gt;chigusa_tadaaki -->
<g id="edge6" class="edge">
<title>godaigo_tenno&#45;&gt;chigusa_tadaaki</title>
<g id="a_edge6"><a xlink:title="討幕計画に関与。">
<path fill="none" stroke="#cc0000" stroke-width="2.8" d="M201.75,-593.92C201.45,-583.56 199.18,-568.53 189.31,-560.74 184.79,-557.18 141.74,-563.1 137.59,-559.12 130.91,-552.71 140.39,-524.77 134.57,-517.57 114.82,-493.12 89.64,-519.23 66.69,-497.76 60.22,-491.72 56.33,-482.88 53.99,-474.69"/>
<polygon fill="#cc0000" stroke="#cc0000" stroke-width="2.8" points="57.4,-473.9 51.78,-464.92 50.57,-475.44 57.4,-473.9"/>
</a>
</g>
</g>
<!-- kusunoki_masashige -->
<g id="node12" class="node">
<title>kusunoki_masashige</title>
<g id="a_node12"><a xlink:href="https://ja.wikipedia.org/wiki/楠木正成" xlink:title="河内の悪党。挙兵する。" target="_blank">
<polygon fill="#fcfcfc" stroke="#fcfcfc" stroke-width="0.1" points="278.69,-235.9 177.69,-235.9 177.69,-213.9 278.69,-213.9 278.69,-235.9"/>
<text text-anchor="middle" x="228.19" y="-221.2" font-family="sans-serif" font-size="14.00" fill="#cc0000">楠木正成</text>
</a>
</g>
</g>
<!-- godaigo_tenno&#45;&gt;kusunoki_masashige -->
<g id="edge8" class="edge">
<title>godaigo_tenno&#45;&gt;kusunoki_masashige</title>
<g id="a_edge8"><a xlink:title="討幕の挙兵を命じる。">
<path fill="none" stroke="#cc0000" stroke-width="2.8" d="M201.75,-593.92C201.45,-583.56 199.18,-568.53 189.31,-560.74 184.79,-557.18 141.59,-563.25 137.59,-559.12 133.2,-554.59 135.16,-536.54 137.59,-530.72 145.23,-512.44 152.43,-509.78 169.29,-499.38 171.21,-498.2 172.6,-499.45 174.09,-497.76 238.67,-424.22 234.9,-296.1 230.53,-245.91"/>
<polygon fill="#cc0000" stroke="#cc0000" stroke-width="2.8" points="234.01,-245.53 229.56,-235.92 227.04,-246.21 234.01,-245.53"/>
</a>
</g>
</g>
<!-- kitabatake_chikafusa -->
<g id="node11" class="node">
<title>kitabatake_chikafusa</title>
<g id="a_node11"><a xlink:href="https://ja.wikipedia.org/wiki/北畠親房" xlink:title="公卿。後醍醐を補佐する。" target="_blank">
<polygon fill="#fcfcfc" stroke="#fcfcfc" stroke-width="0.1" points="318.97,-457.79 217.97,-457.79 217.97,-435.79 318.97,-435.79 318.97,-457.79"/>
<text text-anchor="middle" x="268.47" y="-443.09" font-family="sans-serif" font-size="14.00" fill="#000000">北畠親房</text>
</a>
</g>
</g>
<!-- kitabatake_chikafusa&#45;&gt;godaigo_tenno -->
<g id="edge28" class="edge">
<title>kitabatake_chikafusa&#45;&gt;godaigo_tenno</title>
<g id="a_edge28"><a xlink:title="後醍醐天皇を補佐。">
<path fill="none" stroke="#666666" stroke-width="1.5" d="M274.28,-457.9C282.45,-475.27 294.48,-508.81 276.69,-527.78 272.91,-531.81 256.09,-525.81 251.87,-529.39 241.54,-538.17 255.42,-550.45 244.99,-559.12 241.82,-561.76 211,-558.01 207.94,-560.77 200.64,-567.36 198.95,-578.26 199.11,-587.59"/>
<polygon fill="#666666" stroke="#666666" stroke-width="1.5" points="197.02,-587.86 199.46,-593.73 201.21,-587.61 197.02,-587.86"/>
</a>
</g>
</g>
<!-- kusunoki_masasue -->
<g id="node13" class="node">
<title>kusunoki_masasue</title>
<g id="a_node13"><a xlink:href="https://ja.wikipedia.org/wiki/楠木正季" xlink:title="正成の弟。" target="_blank">
<polygon fill="#fcfcfc" stroke="#fcfcfc" stroke-width="0.1" points="248.16,-205.89 147.16,-205.89 147.16,-183.89 248.16,-183.89 248.16,-205.89"/>
<text text-anchor="middle" x="197.66" y="-191.19" font-family="sans-serif" font-size="14.00" fill="#cc0000">楠木正季</text>
</a>
</g>
</g>
<!-- kusunoki_masashige&#45;&gt;kusunoki_masasue -->
<g id="edge22" class="edge">
<title>kusunoki_masashige&#45;&gt;kusunoki_masasue</title>
<g id="a_edge22"><a xlink:title="兄弟の協力関係。">
<path fill="none" stroke="#555555" stroke-width="2" d="M216.82,-213.73C216.17,-213.09 215.52,-212.45 214.86,-211.8"/>
<polygon fill="#555555" stroke="#555555" stroke-width="2" points="216.6,-209.59 208.93,-205.98 212.68,-213.58 216.6,-209.59"/>
</a>
</g>
</g>
<!-- kikuchi_taketoki -->
<g id="node14" class="node">
<title>kikuchi_taketoki</title>
<g id="a_node14"><a xlink:href="https://ja.wikipedia.org/wiki/菊池武時" xlink:title="九州の有力武士。討幕に呼応。" target="_blank">
<polygon fill="#fcfcfc" stroke="#fcfcfc" stroke-width="0.1" points="202.9,-87.39 101.9,-87.39 101.9,-65.39 202.9,-65.39 202.9,-87.39"/>
<text text-anchor="middle" x="152.4" y="-72.69" font-family="sans-serif" font-size="14.00" fill="#444444">菊池武時</text>
</a>
</g>
</g>
<!-- kikuchi_taketoki&#45;&gt;godaigo_tenno -->
<g id="edge11" class="edge">
<title>kikuchi_taketoki&#45;&gt;godaigo_tenno</title>
<g id="a_edge11"><a xlink:title="討幕の綸旨を受け呼応。">
<path fill="none" stroke="#cc0000" stroke-width="2.8" d="M150.79,-87.4C147.68,-110.13 141.35,-163.92 143.96,-209.09 150.66,-325.35 167.38,-353.11 174.09,-469.36 174.81,-481.97 181.45,-487.51 174.09,-497.76 172.78,-499.59 171.21,-498.2 169.29,-499.38 152.43,-509.78 145.23,-512.44 137.59,-530.72 135.16,-536.54 133.2,-554.59 137.59,-559.12 141.59,-563.25 184.79,-557.18 189.31,-560.74 196.25,-566.22 199.43,-575.27 200.81,-583.77"/>
<polygon fill="#cc0000" stroke="#cc0000" stroke-width="2.8" points="197.35,-584.28 201.75,-593.92 204.32,-583.64 197.35,-584.28"/>
</a>
</g>
</g>
<!-- gofushimi_in -->
<g id="node15" class="node">
<title>gofushimi_in</title>
<g id="a_node15"><a xlink:href="https://ja.wikipedia.org/wiki/後伏見天皇" xlink:title="持明院統。幕府の支持を受ける。" target="_blank">
<polygon fill="#fcfcfc" stroke="#fcfcfc" stroke-width="0.1" points="465.36,-614.61 364.36,-614.61 364.36,-592.61 465.36,-592.61 465.36,-614.61"/>
<text text-anchor="middle" x="414.86" y="-599.91" font-family="sans-serif" font-size="14.00" fill="#0000cc">後伏見院</text>
</a>
</g>
</g>
<!-- hanazono_in -->
<g id="node16" class="node">
<title>hanazono_in</title>
<g id="a_node16"><a xlink:href="https://ja.wikipedia.org/wiki/花園天皇" xlink:title="持明院統。" target="_blank">
<polygon fill="#fcfcfc" stroke="#fcfcfc" stroke-width="0.1" points="421.26,-584.6 320.26,-584.6 320.26,-562.6 421.26,-562.6 421.26,-584.6"/>
<text text-anchor="middle" x="370.76" y="-569.9" font-family="sans-serif" font-size="14.00" fill="#0000cc">花園院</text>
</a>
</g>
</g>
<!-- gofushimi_in&#45;&gt;hanazono_in -->
<g id="edge25" class="edge">
<title>gofushimi_in&#45;&gt;hanazono_in</title>
<g id="a_edge25"><a xlink:title="持明院統の連携。">
<path fill="none" stroke="#0000aa" stroke-width="2" d="M398.69,-592.61C397.01,-591.46 395.28,-590.29 393.55,-589.11"/>
<polygon fill="#0000aa" stroke="#0000aa" stroke-width="2" points="395.12,-586.79 386.93,-584.6 391.97,-591.42 395.12,-586.79"/>
</a>
</g>
</g>
<!-- kogen_tenno -->
<g id="node17" class="node">
<title>kogen_tenno</title>
<g id="a_node17"><a xlink:href="https://ja.wikipedia.org/wiki/光厳天皇" xlink:title="持明院統。皇位継承者。" target="_blank">
<polygon fill="#fcfcfc" stroke="#fcfcfc" stroke-width="0.1" points="485.13,-644.62 384.13,-644.62 384.13,-622.62 485.13,-622.62 485.13,-644.62"/>
<text text-anchor="middle" x="434.63" y="-629.92" font-family="sans-serif" font-size="14.00" fill="#0000cc">光厳天皇</text>
</a>
</g>
</g>
<!-- gofushimi_in&#45;&gt;kogen_tenno -->
<g id="edge26" class="edge">
<title>gofushimi_in&#45;&gt;kogen_tenno</title>
<g id="a_edge26"><a xlink:title="皇位継承に関与。">
<path fill="none" stroke="#0000aa" stroke-width="2" d="M422.22,-614.78C422.43,-615.1 422.64,-615.42 422.85,-615.74"/>
<polygon fill="#0000aa" stroke="#0000aa" stroke-width="2" points="420.59,-617.4 427.33,-622.53 425.26,-614.31 420.59,-617.4"/>
</a>
</g>
</g>
<!-- hojo_takatoki -->
<g id="node18" class="node">
<title>hojo_takatoki</title>
<g id="a_node18"><a xlink:href="https://ja.wikipedia.org/wiki/北条高時" xlink:title="鎌倉幕府得宗。" target="_blank">
<polygon fill="#fcfcfc" stroke="#fcfcfc" stroke-width="0.1" points="635.93,-534.86 534.93,-534.86 534.93,-512.86 635.93,-512.86 635.93,-534.86"/>
<text text-anchor="middle" x="585.43" y="-520.16" font-family="sans-serif" font-size="14.00" fill="#004400">北条高時</text>
</a>
</g>
</g>
<!-- hojo_moritoki -->
<g id="node19" class="node">
<title>hojo_moritoki</title>
<g id="a_node19"><a xlink:href="https://ja.wikipedia.org/wiki/北条守時" xlink:title="鎌倉幕府執権。" target="_blank">
<polygon fill="#fcfcfc" stroke="#fcfcfc" stroke-width="0.1" points="650.97,-504.79 549.97,-504.79 549.97,-482.79 650.97,-482.79 650.97,-504.79"/>
<text text-anchor="middle" x="600.47" y="-490.09" font-family="sans-serif" font-size="14.00" fill="#004400">北条守時</text>
</a>
</g>
</g>
<!-- hojo_takatoki&#45;&gt;hojo_moritoki -->
<g id="edge14" class="edge">
<title>hojo_takatoki&#45;&gt;hojo_moritoki</title>
<g id="a_edge14"><a xlink:title="幕府体制の維持。">
<path fill="none" stroke="#005500" stroke-width="2.8" d="M591.03,-512.66C591.11,-512.51 591.19,-512.35 591.27,-512.19"/>
<polygon fill="#005500" stroke="#005500" stroke-width="2.8" points="593.57,-515.41 594.92,-504.9 587.31,-512.28 593.57,-515.41"/>
</a>
</g>
</g>
<!-- nagasaki_takasuke -->
<g id="node21" class="node">
<title>nagasaki_takasuke</title>
<g id="a_node21"><a xlink:href="https://ja.wikipedia.org/wiki/長崎高資" xlink:title="鎌倉幕府内管領。" target="_blank">
<polygon fill="#fcfcfc" stroke="#fcfcfc" stroke-width="0.1" points="552.45,-320.5 451.45,-320.5 451.45,-298.5 552.45,-298.5 552.45,-320.5"/>
<text text-anchor="middle" x="501.95" y="-305.8" font-family="sans-serif" font-size="14.00" fill="#004400">長崎高資</text>
</a>
</g>
</g>
<!-- hojo_takatoki&#45;&gt;nagasaki_takasuke -->
<g id="edge12" class="edge">
<title>hojo_takatoki&#45;&gt;nagasaki_takasuke</title>
<g id="a_edge12"><a xlink:title="幕府の支配体制。">
<path fill="none" stroke="#005500" stroke-width="2.8" d="M554.8,-512.78C551.99,-511.33 549.27,-509.73 546.77,-507.99 498.19,-474.25 485.4,-456.99 468.61,-400.28 461.22,-375.33 475,-347.31 487.02,-329.09"/>
<polygon fill="#005500" stroke="#005500" stroke-width="2.8" points="490.15,-330.72 493.03,-320.53 484.42,-326.71 490.15,-330.72"/>
</a>
</g>
</g>
<!-- nagasaki_enki -->
<g id="node22" class="node">
<title>nagasaki_enki</title>
<g id="a_node22"><a xlink:href="https://ja.wikipedia.org/wiki/長崎円喜" xlink:title="鎌倉幕府内管領。" target="_blank">
<polygon fill="#fcfcfc" stroke="#fcfcfc" stroke-width="0.1" points="485.13,-290.29 384.13,-290.29 384.13,-268.29 485.13,-268.29 485.13,-290.29"/>
<text text-anchor="middle" x="434.63" y="-275.59" font-family="sans-serif" font-size="14.00" fill="#004400">長崎円喜</text>
</a>
</g>
</g>
<!-- hojo_takatoki&#45;&gt;nagasaki_enki -->
<g id="edge13" class="edge">
<title>hojo_takatoki&#45;&gt;nagasaki_enki</title>
<g id="a_edge13"><a xlink:title="幕府の支配体制。">
<path fill="none" stroke="#005500" stroke-width="2.8" d="M554.8,-512.78C551.99,-511.33 549.27,-509.73 546.77,-507.99 531.86,-497.64 530.19,-492.32 519.05,-477.99 493.78,-445.48 485.58,-437.79 468.61,-400.28 453.48,-366.83 443.56,-325.1 438.54,-300.41"/>
<polygon fill="#005500" stroke="#005500" stroke-width="2.8" points="441.93,-299.5 436.57,-290.36 435.06,-300.85 441.93,-299.5"/>
</a>
</g>
</g>
<!-- hojo_nakatoki -->
<g id="node20" class="node">
<title>hojo_nakatoki</title>
<g id="a_node20"><a xlink:href="https://ja.wikipedia.org/wiki/北条仲時" xlink:title="六波羅探題北方。" target="_blank">
<polygon fill="#fcfcfc" stroke="#fcfcfc" stroke-width="0.1" points="623.25,-474.79 522.25,-474.79 522.25,-452.79 623.25,-452.79 623.25,-474.79"/>
<text text-anchor="middle" x="572.75" y="-460.09" font-family="sans-serif" font-size="14.00" fill="#004400">北条仲時</text>
</a>
</g>
</g>
<!-- hojo_moritoki&#45;&gt;hojo_nakatoki -->
<g id="edge15" class="edge">
<title>hojo_moritoki&#45;&gt;hojo_nakatoki</title>
<g id="a_edge15"><a xlink:title="六波羅探題への指示。">
<path fill="none" stroke="#005500" stroke-width="2.8" d="M590.15,-482.62C590,-482.46 589.85,-482.3 589.71,-482.14"/>
<polygon fill="#005500" stroke="#005500" stroke-width="2.8" points="592.34,-479.84 582.99,-474.87 587.2,-484.59 592.34,-479.84"/>
</a>
</g>
</g>
<!-- uesugi_shigefusa -->
<g id="node23" class="node">
<title>uesugi_shigefusa</title>
<g id="a_node23"><a xlink:href="https://ja.wikipedia.org/wiki/上杉重房" xlink:title="有力御家人。幕府の重臣。" target="_blank">
<polygon fill="#fcfcfc" stroke="#fcfcfc" stroke-width="0.1" points="792.93,-543.09 691.93,-543.09 691.93,-521.09 792.93,-521.09 792.93,-543.09"/>
<text text-anchor="middle" x="742.43" y="-528.39" font-family="sans-serif" font-size="14.00" fill="#444444">上杉重房</text>
</a>
</g>
</g>
<!-- uesugi_shigefusa&#45;&gt;hojo_takatoki -->
<g id="edge16" class="edge">
<title>uesugi_shigefusa&#45;&gt;hojo_takatoki</title>
<g id="a_edge16"><a xlink:title="北条氏を支える重臣。">
<path fill="none" stroke="#005500" stroke-width="2.8" d="M691.89,-529.44C677.4,-528.68 661.44,-527.84 646.39,-527.05"/>
<polygon fill="#005500" stroke="#005500" stroke-width="2.8" points="646.32,-523.54 636.15,-526.52 645.95,-530.53 646.32,-523.54"/>
</a>
</g>
</g>
<!-- ashikaga_takauji -->
<g id="node24" class="node">
<title>ashikaga_takauji</title>
<g id="a_node24"><a xlink:href="https://ja.wikipedia.org/wiki/足利尊氏" xlink:title="鎌倉幕府の有力御家人。後の尊氏。" target="_blank">
<polygon fill="#fcfcfc" stroke="#fcfcfc" stroke-width="0.1" points="564.75,-253.76 463.75,-253.76 463.75,-231.76 564.75,-231.76 564.75,-253.76"/>
<text text-anchor="middle" x="514.25" y="-239.06" font-family="sans-serif" font-size="14.00" fill="#000000">足利高氏</text>
</a>
</g>
</g>
<!-- ashikaga_takauji&#45;&gt;hojo_takatoki -->
<g id="edge18" class="edge">
<title>ashikaga_takauji&#45;&gt;hojo_takatoki</title>
<g id="a_edge18"><a xlink:title="将軍への忠誠。">
<path fill="none" stroke="#555555" stroke-width="2" d="M512.01,-253.87C508.94,-265.91 502.14,-284.61 488.33,-293.49 484.58,-295.91 451.33,-292.08 448.25,-295.3 431.07,-313.26 451.08,-360.8 468.61,-400.28 492.61,-454.34 498.19,-474.25 546.77,-507.99 547.08,-508.21 547.4,-508.43 547.72,-508.64"/>
<polygon fill="#555555" stroke="#555555" stroke-width="2" points="546.48,-511.16 554.8,-512.78 549.31,-506.32 546.48,-511.16"/>
</a>
</g>
</g>
<!-- ashikaga_tadayoshi -->
<g id="node25" class="node">
<title>ashikaga_tadayoshi</title>
<g id="a_node25"><a xlink:href="https://ja.wikipedia.org/wiki/足利直義" xlink:title="高氏の弟。後の直義。" target="_blank">
<polygon fill="#fcfcfc" stroke="#fcfcfc" stroke-width="0.1" points="590.34,-223.75 489.34,-223.75 489.34,-201.75 590.34,-201.75 590.34,-223.75"/>
<text text-anchor="middle" x="539.84" y="-209.05" font-family="sans-serif" font-size="14.00" fill="#000000">足利忠義</text>
</a>
</g>
</g>
<!-- ashikaga_takauji&#45;&gt;ashikaga_tadayoshi -->
<g id="edge23" class="edge">
<title>ashikaga_takauji&#45;&gt;ashikaga_tadayoshi</title>
<g id="a_edge23"><a xlink:title="兄弟の連携。">
<path fill="none" stroke="#555555" stroke-width="2" d="M523.78,-231.58C524.19,-231.11 524.6,-230.63 525.01,-230.14"/>
<polygon fill="#555555" stroke="#555555" stroke-width="2" points="527.33,-231.73 530.39,-223.83 523.07,-228.1 527.33,-231.73"/>
</a>
</g>
</g>
<!-- ko_no_moronao -->
<g id="node26" class="node">
<title>ko_no_moronao</title>
<g id="a_node26"><a xlink:href="https://ja.wikipedia.org/wiki/高師直" xlink:title="高氏の家臣。" target="_blank">
<polygon fill="#fcfcfc" stroke="#fcfcfc" stroke-width="0.1" points="617.22,-193.73 516.22,-193.73 516.22,-171.73 617.22,-171.73 617.22,-193.73"/>
<text text-anchor="middle" x="566.72" y="-179.03" font-family="sans-serif" font-size="14.00" fill="#000000">高師直</text>
</a>
</g>
</g>
<!-- ashikaga_tadayoshi&#45;&gt;ko_no_moronao -->
<g id="edge24" class="edge">
<title>ashikaga_tadayoshi&#45;&gt;ko_no_moronao</title>
<g id="a_edge24"><a xlink:title="足利家の家臣団。">
<path fill="none" stroke="#555555" stroke-width="2" d="M549.85,-201.57C550.28,-201.09 550.71,-200.61 551.14,-200.13"/>
<polygon fill="#555555" stroke="#555555" stroke-width="2" points="553.55,-201.64 556.8,-193.82 549.37,-197.91 553.55,-201.64"/>
</a>
</g>
</g>
<!-- kira_sadamitsu -->
<g id="node27" class="node">
<title>kira_sadamitsu</title>
<g id="a_node27"><a xlink:href="https://ja.wikipedia.org/wiki/吉良貞義" xlink:title="足利一門。" target="_blank">
<polygon fill="#fcfcfc" stroke="#fcfcfc" stroke-width="0.1" points="572.81,-397.08 471.81,-397.08 471.81,-375.08 572.81,-375.08 572.81,-397.08"/>
<text text-anchor="middle" x="522.31" y="-382.38" font-family="sans-serif" font-size="14.00" fill="#000000">吉良貞義</text>
</a>
</g>
</g>
<!-- kira_sadamitsu&#45;&gt;ashikaga_takauji -->
<g id="edge29" class="edge">
<title>kira_sadamitsu&#45;&gt;ashikaga_takauji</title>
<g id="a_edge29"><a xlink:title="足利一門。">
<path fill="none" stroke="#666666" stroke-width="1.5" d="M520.7,-375.03C519.89,-365.51 520.14,-351.78 526.32,-341.8 534.38,-328.77 548.18,-337.08 555.65,-323.7 561.8,-312.68 559.78,-307.23 555.65,-295.3 550.74,-281.16 540.28,-267.93 531.1,-258.29"/>
<polygon fill="#666666" stroke="#666666" stroke-width="1.5" points="532.44,-256.65 526.73,-253.86 529.45,-259.6 532.44,-256.65"/>
</a>
</g>
</g>
<!-- sasaki_doyo -->
<g id="node28" class="node">
<title>sasaki_doyo</title>
<g id="a_node28"><a xlink:href="https://ja.wikipedia.org/wiki/佐々木道誉" xlink:title="幕府の命により後醍醐を護送。" target="_blank">
<polygon fill="#fcfcfc" stroke="#fcfcfc" stroke-width="0.1" points="547.83,-103.28 446.83,-103.28 446.83,-81.28 547.83,-81.28 547.83,-103.28"/>
<text text-anchor="middle" x="497.33" y="-88.58" font-family="sans-serif" font-size="14.00" fill="#000000">佐々木道誉</text>
</a>
</g>
</g>
<!-- sasaki_doyo&#45;&gt;godaigo_tenno -->
<g id="edge20" class="edge">
<title>sasaki_doyo&#45;&gt;godaigo_tenno</title>
<g id="a_edge20"><a xlink:title="幕府の命により後醍醐天皇を隠岐へ護送。">
<path fill="none" stroke="#555555" stroke-width="2" d="M488.15,-103.29C466.59,-129.63 412.19,-199.05 380.93,-265.09 342.04,-347.25 361.27,-378.93 322.17,-460.99 306.73,-493.41 307.88,-509.97 276.69,-527.78 271.89,-530.52 256.09,-525.81 251.87,-529.39 241.54,-538.17 255.42,-550.45 244.99,-559.12 241.82,-561.76 211,-558.01 207.94,-560.77 201.13,-566.91 199.2,-576.81 199.1,-585.69"/>
<polygon fill="#555555" stroke="#555555" stroke-width="2" points="196.31,-585.86 199.46,-593.73 201.9,-585.61 196.31,-585.86"/>
</a>
</g>
</g>
<!-- sasaki_doyo&#45;&gt;hojo_takatoki -->
<g id="edge19" class="edge">
<title>sasaki_doyo&#45;&gt;hojo_takatoki</title>
<g id="a_edge19"><a xlink:title="幕府御家人。">
<path fill="none" stroke="#555555" stroke-width="2" d="M482.74,-103.28C446.05,-132.39 354.67,-214.61 380.93,-293.49 413.28,-390.68 453.51,-399.27 519.05,-477.99 530.66,-491.94 531.86,-497.64 546.77,-507.99 547.08,-508.21 547.4,-508.43 547.72,-508.64"/>
<polygon fill="#555555" stroke="#555555" stroke-width="2" points="546.48,-511.16 554.8,-512.78 549.31,-506.32 546.48,-511.16"/>
</a>
</g>
</g>
<!-- toki_yorisada -->
<g id="node29" class="node">
<title>toki_yorisada</title>
<g id="a_node29"><a xlink:href="https://ja.wikipedia.org/wiki/土岐頼貞" xlink:title="有力武士。" target="_blank">
<polygon fill="#fcfcfc" stroke="#fcfcfc" stroke-width="0.1" points="630.52,-367 529.52,-367 529.52,-345 630.52,-345 630.52,-367"/>
<text text-anchor="middle" x="580.02" y="-352.3" font-family="sans-serif" font-size="14.00" fill="#444444">土岐頼貞</text>
</a>
</g>
</g>
<!-- toki_yorisada&#45;&gt;hojo_takatoki -->
<g id="edge21" class="edge">
<title>toki_yorisada&#45;&gt;hojo_takatoki</title>
<g id="a_edge21"><a xlink:title="有力武士。">
<path fill="none" stroke="#555555" stroke-width="2" d="M581.24,-367.19C581.76,-376.54 581.29,-389.97 576.01,-400.28 560.73,-430.07 532.96,-419.13 519.05,-449.59 513.8,-461.07 514.45,-466.23 519.05,-477.99 525.66,-494.9 531.86,-497.64 546.77,-507.99 547.08,-508.21 547.4,-508.43 547.72,-508.64"/>
<polygon fill="#555555" stroke="#555555" stroke-width="2" points="546.48,-511.16 554.8,-512.78 549.31,-506.32 546.48,-511.16"/>
</a>
</g>
</g>
<!-- shimazu_sadahisa -->
<g id="node30" class="node">
<title>shimazu_sadahisa</title>
<g id="a_node30"><a xlink:href="https://ja.wikipedia.org/wiki/島津貞久" xlink:title="有力武士。" target="_blank">
<polygon fill="#fcfcfc" stroke="#fcfcfc" stroke-width="0.1" points="218.5,-22 117.5,-22 117.5,0 218.5,0 218.5,-22"/>
<text text-anchor="middle" x="168" y="-7.3" font-family="sans-serif" font-size="14.00" fill="#444444">島津貞久</text>
</a>
</g>
</g>
<!-- ouchi_nagahiro -->
<g id="node31" class="node">
<title>ouchi_nagahiro</title>
<g id="a_node31"><a xlink:href="https://ja.wikipedia.org/wiki/大内長弘" xlink:title="有力武士。" target="_blank">
<polygon fill="#fcfcfc" stroke="#fcfcfc" stroke-width="0.1" points="349.17,-175.88 248.17,-175.88 248.17,-153.88 349.17,-153.88 349.17,-175.88"/>
<text text-anchor="middle" x="298.67" y="-161.18" font-family="sans-serif" font-size="14.00" fill="#444444">大内長弘</text>
</a>
</g>
</g>
<!-- shimazu_sadahisa&#45;&gt;ouchi_nagahiro -->
<g id="edge17" class="edge">
<title>shimazu_sadahisa&#45;&gt;ouchi_nagahiro</title>
<g id="a_edge17"><a xlink:title="諸国の有力武士の連携。">
<path fill="none" stroke="#005500" stroke-width="2.8" d="M177.39,-22.07C199.42,-48 254.6,-112.98 282.28,-145.58"/>
<polygon fill="#005500" stroke="#005500" stroke-width="2.8" points="279.86,-148.14 289.01,-153.49 285.2,-143.61 279.86,-148.14"/>
</a>
</g>
</g>
<!-- muso_soseki -->
<g id="node32" class="node">
<title>muso_soseki</title>
<g id="a_node32"><a xlink:href="https://ja.wikipedia.org/wiki/夢窓疎石" xlink:title="禅僧。" target="_blank">
<polygon fill="#fcfcfc" stroke="#fcfcfc" stroke-width="0.1" points="839.89,-93.7 738.89,-93.7 738.89,-71.7 839.89,-71.7 839.89,-93.7"/>
<text text-anchor="middle" x="789.39" y="-79" font-family="sans-serif" font-size="14.00" fill="#444444">夢窓疎石</text>
</a>
</g>
</g>
<!-- monbun_kenshin -->
<g id="node33" class="node">
<title>monbun_kenshin</title>
<g id="a_node33"><a xlink:href="https://ja.wikipedia.org/wiki/聞文謙信" xlink:title="僧侶。" target="_blank">
<polygon fill="#fcfcfc" stroke="#fcfcfc" stroke-width="0.1" points="806.26,-63.58 705.26,-63.58 705.26,-41.58 806.26,-41.58 806.26,-63.58"/>
<text text-anchor="middle" x="755.76" y="-48.88" font-family="sans-serif" font-size="14.00" fill="#444444">聞文謙信</text>
</a>
</g>
</g>
<!-- muso_soseki&#45;&gt;monbun_kenshin -->
<g id="edge27" class="edge">
<title>muso_soseki&#45;&gt;monbun_kenshin</title>
<g id="a_edge27"><a xlink:title="禅僧と僧侶。">
<path fill="none" stroke="#666666" stroke-width="1.5" d="M776.87,-71.48C775.54,-70.29 774.17,-69.07 772.8,-67.84"/>
<polygon fill="#666666" stroke="#666666" stroke-width="1.5" points="774.05,-66.14 768.18,-63.7 771.25,-69.27 774.05,-66.14"/>
</a>
</g>
</g>
</g>
</svg>
