<?xml version="1.0" encoding="UTF-8" standalone="no"?>
<!DOCTYPE svg PUBLIC "-//W3C//DTD SVG 1.1//EN"
 "http://www.w3.org/Graphics/SVG/1.1/DTD/svg11.dtd">
<!-- Generated by graphviz version 2.43.0 (0)
 -->
<!-- Title: timeline_1331_08 Pages: 1 -->
<svg width="845pt" height="651pt"
 viewBox="0.00 0.00 845.02 651.15" xmlns="http://www.w3.org/2000/svg" xmlns:xlink="http://www.w3.org/1999/xlink">
<g id="graph0" class="graph" transform="scale(1 1) rotate(0) translate(4 647.15)">
<title>timeline_1331_08</title>
<polygon fill="#ffffff" stroke="transparent" points="-4,4 -4,-647.15 841.02,-647.15 841.02,4 -4,4"/>
<!-- godaigo_tenno -->
<g id="node1" class="node">
<title>godaigo_tenno</title>
<g id="a_node1"><a xlink:href="https://ja.wikipedia.org/wiki/後醍醐天皇" xlink:title="大覚寺統。討幕を画策する。" target="_blank">
<polygon fill="#fcfcfc" stroke="#fcfcfc" stroke-width="0.1" points="251.98,-613.14 150.98,-613.14 150.98,-591.14 251.98,-591.14 251.98,-613.14"/>
<text text-anchor="middle" x="201.48" y="-598.44" font-family="sans-serif" font-size="14.00" fill="#cc0000">後醍醐天皇</text>
</a>
</g>
</g>
<!-- moriyoshi_shinnou -->
<g id="node2" class="node">
<title>moriyoshi_shinnou</title>
<g id="a_node2"><a xlink:href="https://ja.wikipedia.org/wiki/護良親王" xlink:title="後醍醐天皇の皇子。討幕運動を推進。" target="_blank">
<polygon fill="#fcfcfc" stroke="#fcfcfc" stroke-width="0.1" points="242.12,-553.07 141.12,-553.07 141.12,-531.07 242.12,-531.07 242.12,-553.07"/>
<text text-anchor="middle" x="191.62" y="-538.37" font-family="sans-serif" font-size="14.00" fill="#cc0000">護良親王</text>
</a>
</g>
</g>
<!-- godaigo_tenno&#45;&gt;moriyoshi_shinnou -->
<g id="edge7" class="edge">
<title>godaigo_tenno&#45;&gt;moriyoshi_shinnou</title>
<g id="a_edge7"><a xlink:title="討幕の挙兵を命じる。">
<path fill="none" stroke="#cc0000" stroke-width="2.8" d="M199.67,-591.12C198.41,-583.43 196.68,-572.91 195.15,-563.59"/>
<polygon fill="#cc0000" stroke="#cc0000" stroke-width="2.8" points="198.56,-562.73 193.49,-553.43 191.65,-563.86 198.56,-562.73"/>
</a>
</g>
</g>
<!-- munenaga_shinnou -->
<g id="node3" class="node">
<title>munenaga_shinnou</title>
<g id="a_node3"><a xlink:href="https://ja.wikipedia.org/wiki/宗良親王" xlink:title="後醍醐天皇の皇子。討幕運動に関与。" target="_blank">
<polygon fill="#fcfcfc" stroke="#fcfcfc" stroke-width="0.1" points="296.64,-643.15 195.64,-643.15 195.64,-621.15 296.64,-621.15 296.64,-643.15"/>
<text text-anchor="middle" x="246.14" y="-628.45" font-family="sans-serif" font-size="14.00" fill="#cc0000">宗良親王</text>
</a>
</g>
</g>
<!-- godaigo_tenno&#45;&gt;munenaga_shinnou -->
<g id="edge10" class="edge">
<title>godaigo_tenno&#45;&gt;munenaga_shinnou</title>
<g id="a_edge10"><a xlink:title="皇子として討幕に関与。">
<path fill="none" stroke="#cc0000" stroke-width="2.8" d="M217.86,-613.14C218.95,-613.88 220.06,-614.63 221.19,-615.38"/>
<polygon fill="#cc0000" stroke="#cc0000" stroke-width="2.8" points="219.52,-618.47 229.77,-621.15 223.42,-612.66 219.52,-618.47"/>
</a>
</g>
</g>
<!-- tsuneyoshi_shinnou -->
<g id="node4" class="node">
<title>tsuneyoshi_shinnou</title>
<g id="a_node4"><a xlink:href="https://ja.wikipedia.org/wiki/恒良親王" xlink:title="後醍醐天皇の皇子。" target="_blank">
<polygon fill="#fcfcfc" stroke="#fcfcfc" stroke-width="0.1" points="312.54,-583.13 211.54,-583.13 211.54,-561.13 312.54,-561.13 312.54,-583.13"/>
<text text-anchor="middle" x="262.04" y="-568.43" font-family="sans-serif" font-size="14.00" fill="#cc0000">恒良親王</text>
</a>
</g>
</g>
<!-- godaigo_tenno&#45;&gt;tsuneyoshi_shinnou -->
<g id="edge9" class="edge">
<title>godaigo_tenno&#45;&gt;tsuneyoshi_shinnou</title>
<g id="a_edge9"><a xlink:title="皇子として討幕に関与。">
<path fill="none" stroke="#cc0000" stroke-width="2.8" d="M223.69,-591.13C225.99,-589.99 228.36,-588.82 230.74,-587.64"/>
<polygon fill="#cc0000" stroke="#cc0000" stroke-width="2.8" points="232.43,-590.71 239.84,-583.13 229.32,-584.44 232.43,-590.71"/>
</a>
</g>
</g>
<!-- hino_suketomo -->
<g id="node5" class="node">
<title>hino_suketomo</title>
<g id="a_node5"><a xlink:href="https://ja.wikipedia.org/wiki/日野資朝" xlink:title="討幕計画の主要人物。" target="_blank">
<polygon fill="#fcfcfc" stroke="#fcfcfc" stroke-width="0.1" points="131.17,-539.72 30.17,-539.72 30.17,-517.72 131.17,-517.72 131.17,-539.72"/>
<text text-anchor="middle" x="80.67" y="-525.02" font-family="sans-serif" font-size="14.00" fill="#cc0000">日野資朝</text>
</a>
</g>
</g>
<!-- godaigo_tenno&#45;&gt;hino_suketomo -->
<g id="edge1" class="edge">
<title>godaigo_tenno&#45;&gt;hino_suketomo</title>
<g id="a_edge1"><a xlink:title="討幕計画の指令。">
<path fill="none" stroke="#cc0000" stroke-width="2.8" d="M201.91,-591.08C201.64,-580.72 199.4,-565.69 189.54,-557.89 187.29,-556.11 140.71,-556.96 137.92,-556.27 127.66,-553.76 117.07,-549.28 107.83,-544.64"/>
<polygon fill="#cc0000" stroke="#cc0000" stroke-width="2.8" points="109.23,-541.43 98.76,-539.84 105.96,-547.61 109.23,-541.43"/>
</a>
</g>
</g>
<!-- hino_toshimoto -->
<g id="node6" class="node">
<title>hino_toshimoto</title>
<g id="a_node6"><a xlink:href="https://ja.wikipedia.org/wiki/日野俊基" xlink:title="討幕計画の主要人物。" target="_blank">
<polygon fill="#fcfcfc" stroke="#fcfcfc" stroke-width="0.1" points="186.34,-583.09 85.34,-583.09 85.34,-561.09 186.34,-561.09 186.34,-583.09"/>
<text text-anchor="middle" x="135.84" y="-568.39" font-family="sans-serif" font-size="14.00" fill="#cc0000">日野俊基</text>
</a>
</g>
</g>
<!-- godaigo_tenno&#45;&gt;hino_toshimoto -->
<g id="edge2" class="edge">
<title>godaigo_tenno&#45;&gt;hino_toshimoto</title>
<g id="a_edge2"><a xlink:title="討幕計画の指令。">
<path fill="none" stroke="#cc0000" stroke-width="2.8" d="M177.41,-591.12C174.74,-589.9 171.98,-588.63 169.22,-587.37"/>
<polygon fill="#cc0000" stroke="#cc0000" stroke-width="2.8" points="170.46,-584.09 159.91,-583.11 167.55,-590.45 170.46,-584.09"/>
</a>
</g>
</g>
<!-- madenokoji_nobufusa -->
<g id="node7" class="node">
<title>madenokoji_nobufusa</title>
<g id="a_node7"><a xlink:href="https://ja.wikipedia.org/wiki/万里小路宣房" xlink:title="後醍醐の側近。" target="_blank">
<polygon fill="#fcfcfc" stroke="#fcfcfc" stroke-width="0.1" points="356,-551.85 255,-551.85 255,-529.85 356,-529.85 356,-551.85"/>
<text text-anchor="middle" x="305.5" y="-537.15" font-family="sans-serif" font-size="14.00" fill="#000000">万里小路宣房</text>
</a>
</g>
</g>
<!-- godaigo_tenno&#45;&gt;madenokoji_nobufusa -->
<g id="edge3" class="edge">
<title>godaigo_tenno&#45;&gt;madenokoji_nobufusa</title>
<g id="a_edge3"><a xlink:title="後醍醐の側近。">
<path fill="none" stroke="#cc0000" stroke-width="2.8" d="M199.67,-590.87C198.74,-580.66 199.31,-566.01 208.34,-557.93 211.4,-555.18 241.25,-556.88 245.32,-556.27 249.23,-555.69 253.25,-554.96 257.28,-554.13"/>
<polygon fill="#cc0000" stroke="#cc0000" stroke-width="2.8" points="258.22,-557.51 267.22,-551.92 256.69,-550.68 258.22,-557.51"/>
</a>
</g>
</g>
<!-- horikawa_tomochika -->
<g id="node8" class="node">
<title>horikawa_tomochika</title>
<g id="a_node8"><a xlink:href="https://ja.wikipedia.org/wiki/堀川具親" xlink:title="公卿。" target="_blank">
<polygon fill="#fcfcfc" stroke="#fcfcfc" stroke-width="0.1" points="170.81,-491.82 69.81,-491.82 69.81,-469.82 170.81,-469.82 170.81,-491.82"/>
<text text-anchor="middle" x="120.31" y="-477.12" font-family="sans-serif" font-size="14.00" fill="#000000">堀川具親</text>
</a>
</g>
</g>
<!-- godaigo_tenno&#45;&gt;horikawa_tomochika -->
<g id="edge4" class="edge">
<title>godaigo_tenno&#45;&gt;horikawa_tomochika</title>
<g id="a_edge4"><a xlink:title="宮方の公卿。">
<path fill="none" stroke="#cc0000" stroke-width="2.8" d="M201.91,-591.08C201.64,-580.72 199.4,-565.69 189.54,-557.89 185.04,-554.33 142.09,-560.22 137.92,-556.27 131.16,-549.87 136.59,-523.56 134.37,-514.52 133.31,-510.15 131.75,-505.62 130.06,-501.35"/>
<polygon fill="#cc0000" stroke="#cc0000" stroke-width="2.8" points="133.22,-499.84 126.04,-492.06 126.8,-502.63 133.22,-499.84"/>
</a>
</g>
</g>
<!-- shijo_takadata -->
<g id="node9" class="node">
<title>shijo_takadata</title>
<g id="a_node9"><a xlink:href="https://ja.wikipedia.org/wiki/四条隆資" xlink:title="後醍醐天皇の側近。討幕運動に関与。" target="_blank">
<polygon fill="#fcfcfc" stroke="#fcfcfc" stroke-width="0.1" points="273.25,-521.84 172.25,-521.84 172.25,-499.84 273.25,-499.84 273.25,-521.84"/>
<text text-anchor="middle" x="222.75" y="-507.14" font-family="sans-serif" font-size="14.00" fill="#000000">四条隆資</text>
</a>
</g>
</g>
<!-- godaigo_tenno&#45;&gt;shijo_takadata -->
<g id="edge5" class="edge">
<title>godaigo_tenno&#45;&gt;shijo_takadata</title>
<g id="a_edge5"><a xlink:title="討幕計画に関与。">
<path fill="none" stroke="#cc0000" stroke-width="2.8" d="M199.67,-590.87C198.74,-580.66 199.31,-566.01 208.34,-557.93 211.4,-555.18 242.48,-559.25 245.32,-556.27 252.34,-548.93 251.71,-542.33 246.09,-531.15"/>
<polygon fill="#cc0000" stroke="#cc0000" stroke-width="2.8" points="249.02,-529.22 241.16,-522.12 242.88,-532.58 249.02,-529.22"/>
</a>
</g>
</g>
<!-- chigusa_tadaaki -->
<g id="node10" class="node">
<title>chigusa_tadaaki</title>
<g id="a_node10"><a xlink:href="https://ja.wikipedia.org/wiki/千種忠顕" xlink:title="公卿。討幕計画に関与。" target="_blank">
<polygon fill="#fcfcfc" stroke="#fcfcfc" stroke-width="0.1" points="101,-461.8 0,-461.8 0,-439.8 101,-439.8 101,-461.8"/>
<text text-anchor="middle" x="50.5" y="-447.1" font-family="sans-serif" font-size="14.00" fill="#000000">千種忠顕</text>
</a>
</g>
</g>
<!-- godaigo_tenno&#45;&gt;chigusa_tadaaki -->
<g id="edge6" class="edge">
<title>godaigo_tenno&#45;&gt;chigusa_tadaaki</title>
<g id="a_edge6"><a xlink:title="討幕計画に関与。">
<path fill="none" stroke="#cc0000" stroke-width="2.8" d="M201.91,-591.08C201.64,-580.72 199.4,-565.69 189.54,-557.89 185.04,-554.33 142.09,-560.22 137.92,-556.27 131.16,-549.87 140.28,-521.71 134.37,-514.52 114.48,-490.3 89.52,-516.4 66.61,-495.02 60.14,-488.98 56.26,-480.14 53.94,-471.94"/>
<polygon fill="#cc0000" stroke="#cc0000" stroke-width="2.8" points="57.35,-471.17 51.75,-462.17 50.52,-472.7 57.35,-471.17"/>
</a>
</g>
</g>
<!-- kusunoki_masashige -->
<g id="node12" class="node">
<title>kusunoki_masashige</title>
<g id="a_node12"><a xlink:href="https://ja.wikipedia.org/wiki/楠木正成" xlink:title="河内の悪党。挙兵する。" target="_blank">
<polygon fill="#fcfcfc" stroke="#fcfcfc" stroke-width="0.1" points="278.82,-235.08 177.82,-235.08 177.82,-213.08 278.82,-213.08 278.82,-235.08"/>
<text text-anchor="middle" x="228.32" y="-220.38" font-family="sans-serif" font-size="14.00" fill="#cc0000">楠木正成</text>
</a>
</g>
</g>
<!-- godaigo_tenno&#45;&gt;kusunoki_masashige -->
<g id="edge8" class="edge">
<title>godaigo_tenno&#45;&gt;kusunoki_masashige</title>
<g id="a_edge8"><a xlink:title="討幕の挙兵を命じる。">
<path fill="none" stroke="#cc0000" stroke-width="2.8" d="M201.91,-591.08C201.64,-580.72 199.4,-565.69 189.54,-557.89 185.04,-554.33 141.92,-560.39 137.92,-556.27 133.53,-551.74 135.51,-533.71 137.92,-527.87 145.41,-509.76 152.36,-506.91 169.05,-496.64 171.02,-495.42 172.47,-496.75 174.01,-495.02 238.42,-422.48 234.96,-295.5 230.66,-245.33"/>
<polygon fill="#cc0000" stroke="#cc0000" stroke-width="2.8" points="234.14,-244.95 229.7,-235.33 227.17,-245.62 234.14,-244.95"/>
</a>
</g>
</g>
<!-- kitabatake_chikafusa -->
<g id="node11" class="node">
<title>kitabatake_chikafusa</title>
<g id="a_node11"><a xlink:href="https://ja.wikipedia.org/wiki/北畠親房" xlink:title="公卿。後醍醐を補佐する。" target="_blank">
<polygon fill="#fcfcfc" stroke="#fcfcfc" stroke-width="0.1" points="318.76,-455.52 217.76,-455.52 217.76,-433.52 318.76,-433.52 318.76,-455.52"/>
<text text-anchor="middle" x="268.26" y="-440.82" font-family="sans-serif" font-size="14.00" fill="#000000">北畠親房</text>
</a>
</g>
</g>
<!-- kitabatake_chikafusa&#45;&gt;godaigo_tenno -->
<g id="edge27" class="edge">
<title>kitabatake_chikafusa&#45;&gt;godaigo_tenno</title>
<g id="a_edge27"><a xlink:title="後醍醐天皇を補佐。">
<path fill="none" stroke="#666666" stroke-width="1.5" d="M274.04,-455.57C282.16,-472.83 294.12,-506.17 276.45,-525.04 272.7,-529.04 255.96,-523.07 251.8,-526.65 241.58,-535.44 255.63,-547.59 245.32,-556.27 242.18,-558.92 211.4,-555.18 208.34,-557.93 201.01,-564.5 199.25,-575.4 199.35,-584.74"/>
<polygon fill="#666666" stroke="#666666" stroke-width="1.5" points="197.27,-584.99 199.67,-590.87 201.46,-584.77 197.27,-584.99"/>
</a>
</g>
</g>
<!-- kusunoki_masasue -->
<g id="node13" class="node">
<title>kusunoki_masasue</title>
<g id="a_node13"><a xlink:href="https://ja.wikipedia.org/wiki/楠木正季" xlink:title="正成の弟。" target="_blank">
<polygon fill="#fcfcfc" stroke="#fcfcfc" stroke-width="0.1" points="248.26,-205.07 147.26,-205.07 147.26,-183.07 248.26,-183.07 248.26,-205.07"/>
<text text-anchor="middle" x="197.76" y="-190.37" font-family="sans-serif" font-size="14.00" fill="#cc0000">楠木正季</text>
</a>
</g>
</g>
<!-- kusunoki_masashige&#45;&gt;kusunoki_masasue -->
<g id="edge20" class="edge">
<title>kusunoki_masashige&#45;&gt;kusunoki_masasue</title>
<g id="a_edge20"><a xlink:title="兄弟の協力関係。">
<path fill="none" stroke="#555555" stroke-width="2" d="M216.94,-212.91C216.29,-212.27 215.64,-211.63 214.98,-210.98"/>
<polygon fill="#555555" stroke="#555555" stroke-width="2" points="216.72,-208.76 209.05,-205.16 212.79,-212.76 216.72,-208.76"/>
</a>
</g>
</g>
<!-- kikuchi_taketoki -->
<g id="node14" class="node">
<title>kikuchi_taketoki</title>
<g id="a_node14"><a xlink:href="https://ja.wikipedia.org/wiki/菊池武時" xlink:title="九州の有力武士。討幕に呼応。" target="_blank">
<polygon fill="#fcfcfc" stroke="#fcfcfc" stroke-width="0.1" points="203.6,-87.05 102.6,-87.05 102.6,-65.05 203.6,-65.05 203.6,-87.05"/>
<text text-anchor="middle" x="153.1" y="-72.35" font-family="sans-serif" font-size="14.00" fill="#444444">菊池武時</text>
</a>
</g>
</g>
<!-- kikuchi_taketoki&#45;&gt;godaigo_tenno -->
<g id="edge11" class="edge">
<title>kikuchi_taketoki&#45;&gt;godaigo_tenno</title>
<g id="a_edge11"><a xlink:title="討幕の綸旨を受け呼応。">
<path fill="none" stroke="#cc0000" stroke-width="2.8" d="M151.37,-87.37C148.08,-110.21 141.48,-163.48 144.06,-208.27 150.73,-323.67 167.34,-351.22 174.01,-466.62 174.73,-479.22 181.42,-484.8 174.01,-495.02 172.65,-496.89 171.02,-495.42 169.05,-496.64 152.36,-506.91 145.41,-509.76 137.92,-527.87 135.51,-533.71 133.53,-551.74 137.92,-556.27 141.92,-560.39 185.04,-554.33 189.54,-557.89 196.48,-563.38 199.64,-572.43 201,-580.93"/>
<polygon fill="#cc0000" stroke="#cc0000" stroke-width="2.8" points="197.53,-581.43 201.91,-591.08 204.5,-580.81 197.53,-581.43"/>
</a>
</g>
</g>
<!-- gofushimi_in -->
<g id="node15" class="node">
<title>gofushimi_in</title>
<g id="a_node15"><a xlink:href="https://ja.wikipedia.org/wiki/後伏見天皇" xlink:title="持明院統。幕府の支持を受ける。" target="_blank">
<polygon fill="#fcfcfc" stroke="#fcfcfc" stroke-width="0.1" points="465.91,-611.87 364.91,-611.87 364.91,-589.87 465.91,-589.87 465.91,-611.87"/>
<text text-anchor="middle" x="415.41" y="-597.17" font-family="sans-serif" font-size="14.00" fill="#0000cc">後伏見院</text>
</a>
</g>
</g>
<!-- hanazono_in -->
<g id="node16" class="node">
<title>hanazono_in</title>
<g id="a_node16"><a xlink:href="https://ja.wikipedia.org/wiki/花園天皇" xlink:title="持明院統。" target="_blank">
<polygon fill="#fcfcfc" stroke="#fcfcfc" stroke-width="0.1" points="421.67,-581.86 320.67,-581.86 320.67,-559.86 421.67,-559.86 421.67,-581.86"/>
<text text-anchor="middle" x="371.17" y="-567.16" font-family="sans-serif" font-size="14.00" fill="#0000cc">花園院</text>
</a>
</g>
</g>
<!-- gofushimi_in&#45;&gt;hanazono_in -->
<g id="edge23" class="edge">
<title>gofushimi_in&#45;&gt;hanazono_in</title>
<g id="a_edge23"><a xlink:title="持明院統の連携。">
<path fill="none" stroke="#0000aa" stroke-width="2" d="M399.19,-589.87C397.5,-588.73 395.77,-587.55 394.03,-586.37"/>
<polygon fill="#0000aa" stroke="#0000aa" stroke-width="2" points="395.58,-584.04 387.39,-581.87 392.44,-588.68 395.58,-584.04"/>
</a>
</g>
</g>
<!-- kogen_tenno -->
<g id="node17" class="node">
<title>kogen_tenno</title>
<g id="a_node17"><a xlink:href="https://ja.wikipedia.org/wiki/光厳天皇" xlink:title="持明院統。皇位継承者。" target="_blank">
<polygon fill="#fcfcfc" stroke="#fcfcfc" stroke-width="0.1" points="485.64,-641.89 384.64,-641.89 384.64,-619.89 485.64,-619.89 485.64,-641.89"/>
<text text-anchor="middle" x="435.14" y="-627.19" font-family="sans-serif" font-size="14.00" fill="#0000cc">光厳天皇</text>
</a>
</g>
</g>
<!-- gofushimi_in&#45;&gt;kogen_tenno -->
<g id="edge24" class="edge">
<title>gofushimi_in&#45;&gt;kogen_tenno</title>
<g id="a_edge24"><a xlink:title="皇位継承に関与。">
<path fill="none" stroke="#0000aa" stroke-width="2" d="M422.76,-612.05C422.97,-612.37 423.18,-612.69 423.39,-613.01"/>
<polygon fill="#0000aa" stroke="#0000aa" stroke-width="2" points="421.12,-614.66 427.85,-619.8 425.8,-611.58 421.12,-614.66"/>
</a>
</g>
</g>
<!-- hojo_takatoki -->
<g id="node18" class="node">
<title>hojo_takatoki</title>
<g id="a_node18"><a xlink:href="https://ja.wikipedia.org/wiki/北条高時" xlink:title="鎌倉幕府得宗。" target="_blank">
<polygon fill="#fcfcfc" stroke="#fcfcfc" stroke-width="0.1" points="634.16,-532.43 533.16,-532.43 533.16,-510.43 634.16,-510.43 634.16,-532.43"/>
<text text-anchor="middle" x="583.66" y="-517.73" font-family="sans-serif" font-size="14.00" fill="#004400">北条高時</text>
</a>
</g>
</g>
<!-- hojo_moritoki -->
<g id="node19" class="node">
<title>hojo_moritoki</title>
<g id="a_node19"><a xlink:href="https://ja.wikipedia.org/wiki/北条守時" xlink:title="鎌倉幕府執権。" target="_blank">
<polygon fill="#fcfcfc" stroke="#fcfcfc" stroke-width="0.1" points="649.23,-502.37 548.23,-502.37 548.23,-480.37 649.23,-480.37 649.23,-502.37"/>
<text text-anchor="middle" x="598.73" y="-487.67" font-family="sans-serif" font-size="14.00" fill="#004400">北条守時</text>
</a>
</g>
</g>
<!-- hojo_takatoki&#45;&gt;hojo_moritoki -->
<g id="edge14" class="edge">
<title>hojo_takatoki&#45;&gt;hojo_moritoki</title>
<g id="a_edge14"><a xlink:title="幕府体制の維持。">
<path fill="none" stroke="#005500" stroke-width="2.8" d="M589.27,-510.24C589.35,-510.08 589.43,-509.92 589.51,-509.76"/>
<polygon fill="#005500" stroke="#005500" stroke-width="2.8" points="591.81,-512.98 593.17,-502.47 585.56,-509.85 591.81,-512.98"/>
</a>
</g>
</g>
<!-- nagasaki_takasuke -->
<g id="node21" class="node">
<title>nagasaki_takasuke</title>
<g id="a_node21"><a xlink:href="https://ja.wikipedia.org/wiki/長崎高資" xlink:title="鎌倉幕府内管領。" target="_blank">
<polygon fill="#fcfcfc" stroke="#fcfcfc" stroke-width="0.1" points="551.19,-319.19 450.19,-319.19 450.19,-297.19 551.19,-297.19 551.19,-319.19"/>
<text text-anchor="middle" x="500.69" y="-304.49" font-family="sans-serif" font-size="14.00" fill="#004400">長崎高資</text>
</a>
</g>
</g>
<!-- hojo_takatoki&#45;&gt;nagasaki_takasuke -->
<g id="edge12" class="edge">
<title>hojo_takatoki&#45;&gt;nagasaki_takasuke</title>
<g id="a_edge12"><a xlink:title="幕府の支配体制。">
<path fill="none" stroke="#005500" stroke-width="2.8" d="M553.05,-510.36C550.25,-508.91 547.53,-507.31 545.03,-505.57 496.69,-471.93 483.73,-454.98 466.88,-398.55 459.49,-373.81 473.25,-346.11 485.38,-327.97"/>
<polygon fill="#005500" stroke="#005500" stroke-width="2.8" points="488.51,-329.61 491.45,-319.43 482.81,-325.55 488.51,-329.61"/>
</a>
</g>
</g>
<!-- nagasaki_enki -->
<g id="node22" class="node">
<title>nagasaki_enki</title>
<g id="a_node22"><a xlink:href="https://ja.wikipedia.org/wiki/長崎円喜" xlink:title="鎌倉幕府内管領。" target="_blank">
<polygon fill="#fcfcfc" stroke="#fcfcfc" stroke-width="0.1" points="483.81,-288.97 382.81,-288.97 382.81,-266.97 483.81,-266.97 483.81,-288.97"/>
<text text-anchor="middle" x="433.31" y="-274.27" font-family="sans-serif" font-size="14.00" fill="#004400">長崎円喜</text>
</a>
</g>
</g>
<!-- hojo_takatoki&#45;&gt;nagasaki_enki -->
<g id="edge13" class="edge">
<title>hojo_takatoki&#45;&gt;nagasaki_enki</title>
<g id="a_edge13"><a xlink:title="幕府の支配体制。">
<path fill="none" stroke="#005500" stroke-width="2.8" d="M553.05,-510.36C550.25,-508.91 547.53,-507.31 545.03,-505.57 530.15,-495.22 528.55,-489.86 517.4,-475.57 492.22,-443.29 483.79,-435.83 466.88,-398.55 451.77,-365.26 442.02,-323.65 437.12,-299.03"/>
<polygon fill="#005500" stroke="#005500" stroke-width="2.8" points="440.52,-298.17 435.2,-289.01 433.64,-299.49 440.52,-298.17"/>
</a>
</g>
</g>
<!-- hojo_nakatoki -->
<g id="node20" class="node">
<title>hojo_nakatoki</title>
<g id="a_node20"><a xlink:href="https://ja.wikipedia.org/wiki/北条仲時" xlink:title="六波羅探題北方。" target="_blank">
<polygon fill="#fcfcfc" stroke="#fcfcfc" stroke-width="0.1" points="621.6,-472.37 520.6,-472.37 520.6,-450.37 621.6,-450.37 621.6,-472.37"/>
<text text-anchor="middle" x="571.1" y="-457.67" font-family="sans-serif" font-size="14.00" fill="#004400">北条仲時</text>
</a>
</g>
</g>
<!-- hojo_moritoki&#45;&gt;hojo_nakatoki -->
<g id="edge15" class="edge">
<title>hojo_moritoki&#45;&gt;hojo_nakatoki</title>
<g id="a_edge15"><a xlink:title="六波羅探題への指示。">
<path fill="none" stroke="#005500" stroke-width="2.8" d="M588.44,-480.2C588.3,-480.04 588.15,-479.88 588,-479.72"/>
<polygon fill="#005500" stroke="#005500" stroke-width="2.8" points="590.65,-477.43 581.3,-472.45 585.5,-482.18 590.65,-477.43"/>
</a>
</g>
</g>
<!-- uesugi_shigefusa -->
<g id="node23" class="node">
<title>uesugi_shigefusa</title>
<g id="a_node23"><a xlink:href="https://ja.wikipedia.org/wiki/上杉重房" xlink:title="有力御家人。幕府の重臣。" target="_blank">
<polygon fill="#fcfcfc" stroke="#fcfcfc" stroke-width="0.1" points="790.34,-540.49 689.34,-540.49 689.34,-518.49 790.34,-518.49 790.34,-540.49"/>
<text text-anchor="middle" x="739.84" y="-525.79" font-family="sans-serif" font-size="14.00" fill="#444444">上杉重房</text>
</a>
</g>
</g>
<!-- uesugi_shigefusa&#45;&gt;hojo_takatoki -->
<g id="edge16" class="edge">
<title>uesugi_shigefusa&#45;&gt;hojo_takatoki</title>
<g id="a_edge16"><a xlink:title="北条氏を支える重臣。">
<path fill="none" stroke="#005500" stroke-width="2.8" d="M689.14,-526.87C674.88,-526.14 659.23,-525.33 644.45,-524.57"/>
<polygon fill="#005500" stroke="#005500" stroke-width="2.8" points="644.55,-521.07 634.38,-524.05 644.19,-528.06 644.55,-521.07"/>
</a>
</g>
</g>
<!-- ashikaga_takauji -->
<g id="node24" class="node">
<title>ashikaga_takauji</title>
<g id="a_node24"><a xlink:href="https://ja.wikipedia.org/wiki/足利尊氏" xlink:title="鎌倉幕府の有力御家人。後の尊氏。" target="_blank">
<polygon fill="#fcfcfc" stroke="#fcfcfc" stroke-width="0.1" points="563.08,-252.89 462.08,-252.89 462.08,-230.89 563.08,-230.89 563.08,-252.89"/>
<text text-anchor="middle" x="512.58" y="-238.19" font-family="sans-serif" font-size="14.00" fill="#000000">足利高氏</text>
</a>
</g>
</g>
<!-- ashikaga_takauji&#45;&gt;hojo_takatoki -->
<g id="edge17" class="edge">
<title>ashikaga_takauji&#45;&gt;hojo_takatoki</title>
<g id="a_edge17"><a xlink:title="将軍への忠誠。">
<path fill="none" stroke="#555555" stroke-width="2" d="M510.39,-252.9C507.37,-264.84 500.68,-283.36 487.01,-292.17 483.27,-294.58 450.07,-290.77 446.99,-293.99 430.04,-311.73 449.57,-359.58 466.88,-398.55 490.78,-452.38 496.69,-471.93 545.03,-505.57 545.34,-505.79 545.66,-506 545.98,-506.22"/>
<polygon fill="#555555" stroke="#555555" stroke-width="2" points="544.73,-508.73 553.05,-510.36 547.56,-503.9 544.73,-508.73"/>
</a>
</g>
</g>
<!-- ashikaga_tadayoshi -->
<g id="node25" class="node">
<title>ashikaga_tadayoshi</title>
<g id="a_node25"><a xlink:href="https://ja.wikipedia.org/wiki/足利直義" xlink:title="高氏の弟。後の直義。" target="_blank">
<polygon fill="#fcfcfc" stroke="#fcfcfc" stroke-width="0.1" points="588.69,-222.88 487.69,-222.88 487.69,-200.88 588.69,-200.88 588.69,-222.88"/>
<text text-anchor="middle" x="538.19" y="-208.18" font-family="sans-serif" font-size="14.00" fill="#000000">足利忠義</text>
</a>
</g>
</g>
<!-- ashikaga_takauji&#45;&gt;ashikaga_tadayoshi -->
<g id="edge21" class="edge">
<title>ashikaga_takauji&#45;&gt;ashikaga_tadayoshi</title>
<g id="a_edge21"><a xlink:title="兄弟の連携。">
<path fill="none" stroke="#555555" stroke-width="2" d="M522.12,-230.72C522.52,-230.24 522.93,-229.76 523.35,-229.28"/>
<polygon fill="#555555" stroke="#555555" stroke-width="2" points="525.67,-230.87 528.73,-222.97 521.41,-227.24 525.67,-230.87"/>
</a>
</g>
</g>
<!-- ko_no_moronao -->
<g id="node26" class="node">
<title>ko_no_moronao</title>
<g id="a_node26"><a xlink:href="https://ja.wikipedia.org/wiki/高師直" xlink:title="高氏の家臣。" target="_blank">
<polygon fill="#fcfcfc" stroke="#fcfcfc" stroke-width="0.1" points="615.58,-192.86 514.58,-192.86 514.58,-170.86 615.58,-170.86 615.58,-192.86"/>
<text text-anchor="middle" x="565.08" y="-178.16" font-family="sans-serif" font-size="14.00" fill="#000000">高師直</text>
</a>
</g>
</g>
<!-- ashikaga_tadayoshi&#45;&gt;ko_no_moronao -->
<g id="edge22" class="edge">
<title>ashikaga_tadayoshi&#45;&gt;ko_no_moronao</title>
<g id="a_edge22"><a xlink:title="足利家の家臣団。">
<path fill="none" stroke="#555555" stroke-width="2" d="M548.2,-200.7C548.63,-200.23 549.06,-199.75 549.49,-199.26"/>
<polygon fill="#555555" stroke="#555555" stroke-width="2" points="551.89,-200.78 555.15,-192.95 547.72,-197.04 551.89,-200.78"/>
</a>
</g>
</g>
<!-- kira_sadamitsu -->
<g id="node27" class="node">
<title>kira_sadamitsu</title>
<g id="a_node27"><a xlink:href="https://ja.wikipedia.org/wiki/吉良貞義" xlink:title="足利一門。" target="_blank">
<polygon fill="#fcfcfc" stroke="#fcfcfc" stroke-width="0.1" points="571.08,-395.35 470.08,-395.35 470.08,-373.35 571.08,-373.35 571.08,-395.35"/>
<text text-anchor="middle" x="520.58" y="-380.65" font-family="sans-serif" font-size="14.00" fill="#000000">吉良貞義</text>
</a>
</g>
</g>
<!-- sasaki_doyo -->
<g id="node28" class="node">
<title>sasaki_doyo</title>
<g id="a_node28"><a xlink:href="https://ja.wikipedia.org/wiki/佐々木道誉" xlink:title="幕府の有力御家人。" target="_blank">
<polygon fill="#fcfcfc" stroke="#fcfcfc" stroke-width="0.1" points="546.39,-103.1 445.39,-103.1 445.39,-81.1 546.39,-81.1 546.39,-103.1"/>
<text text-anchor="middle" x="495.89" y="-88.4" font-family="sans-serif" font-size="14.00" fill="#000000">佐々木道誉</text>
</a>
</g>
</g>
<!-- sasaki_doyo&#45;&gt;hojo_takatoki -->
<g id="edge18" class="edge">
<title>sasaki_doyo&#45;&gt;hojo_takatoki</title>
<g id="a_edge18"><a xlink:title="幕府御家人としての関係。">
<path fill="none" stroke="#555555" stroke-width="2" d="M481.05,-103.24C444.23,-132.35 353.48,-213.86 379.61,-292.17 411.89,-388.88 452.16,-397.22 517.4,-475.57 529,-489.5 530.15,-495.22 545.03,-505.57 545.34,-505.79 545.66,-506 545.98,-506.22"/>
<polygon fill="#555555" stroke="#555555" stroke-width="2" points="544.73,-508.73 553.05,-510.36 547.56,-503.9 544.73,-508.73"/>
</a>
</g>
</g>
<!-- toki_yorisada -->
<g id="node29" class="node">
<title>toki_yorisada</title>
<g id="a_node29"><a xlink:href="https://ja.wikipedia.org/wiki/土岐頼貞" xlink:title="有力武士。" target="_blank">
<polygon fill="#fcfcfc" stroke="#fcfcfc" stroke-width="0.1" points="628.84,-365.27 527.84,-365.27 527.84,-343.27 628.84,-343.27 628.84,-365.27"/>
<text text-anchor="middle" x="578.34" y="-350.57" font-family="sans-serif" font-size="14.00" fill="#444444">土岐頼貞</text>
</a>
</g>
</g>
<!-- toki_yorisada&#45;&gt;hojo_takatoki -->
<g id="edge19" class="edge">
<title>toki_yorisada&#45;&gt;hojo_takatoki</title>
<g id="a_edge19"><a xlink:title="有力武士。">
<path fill="none" stroke="#555555" stroke-width="2" d="M579.56,-365.47C580.08,-374.83 579.6,-388.27 574.28,-398.55 558.99,-428.09 531.31,-416.96 517.4,-447.17 512.12,-458.63 512.81,-463.81 517.4,-475.57 523.99,-492.46 530.15,-495.22 545.03,-505.57 545.34,-505.79 545.66,-506 545.98,-506.22"/>
<polygon fill="#555555" stroke="#555555" stroke-width="2" points="544.73,-508.73 553.05,-510.36 547.56,-503.9 544.73,-508.73"/>
</a>
</g>
</g>
<!-- shimazu_sadahisa -->
<g id="node30" class="node">
<title>shimazu_sadahisa</title>
<g id="a_node30"><a xlink:href="https://ja.wikipedia.org/wiki/島津貞久" xlink:title="有力武士。" target="_blank">
<polygon fill="#fcfcfc" stroke="#fcfcfc" stroke-width="0.1" points="219.12,-22 118.12,-22 118.12,0 219.12,0 219.12,-22"/>
<text text-anchor="middle" x="168.62" y="-7.3" font-family="sans-serif" font-size="14.00" fill="#444444">島津貞久</text>
</a>
</g>
</g>
<!-- ouchi_nagahiro -->
<g id="node31" class="node">
<title>ouchi_nagahiro</title>
<g id="a_node31"><a xlink:href="https://ja.wikipedia.org/wiki/大内長弘" xlink:title="有力武士。" target="_blank">
<polygon fill="#fcfcfc" stroke="#fcfcfc" stroke-width="0.1" points="349.35,-175.05 248.35,-175.05 248.35,-153.05 349.35,-153.05 349.35,-175.05"/>
<text text-anchor="middle" x="298.85" y="-160.35" font-family="sans-serif" font-size="14.00" fill="#444444">大内長弘</text>
</a>
</g>
</g>
<!-- shimazu_sadahisa&#45;&gt;ouchi_nagahiro -->
<g id="edge26" class="edge">
<title>shimazu_sadahisa&#45;&gt;ouchi_nagahiro</title>
<g id="a_edge26"><a xlink:title="諸国の有力武士。">
<path fill="none" stroke="#666666" stroke-width="1.5" d="M177.98,-22.01C200.68,-48.68 258.7,-116.88 285.24,-148.06"/>
<polygon fill="#666666" stroke="#666666" stroke-width="1.5" points="283.73,-149.52 289.21,-152.73 286.92,-146.8 283.73,-149.52"/>
</a>
</g>
</g>
<!-- muso_soseki -->
<g id="node32" class="node">
<title>muso_soseki</title>
<g id="a_node32"><a xlink:href="https://ja.wikipedia.org/wiki/夢窓疎石" xlink:title="禅僧。" target="_blank">
<polygon fill="#fcfcfc" stroke="#fcfcfc" stroke-width="0.1" points="837.02,-93.58 736.02,-93.58 736.02,-71.58 837.02,-71.58 837.02,-93.58"/>
<text text-anchor="middle" x="786.52" y="-78.88" font-family="sans-serif" font-size="14.00" fill="#444444">夢窓疎石</text>
</a>
</g>
</g>
<!-- monbun_kenshin -->
<g id="node33" class="node">
<title>monbun_kenshin</title>
<g id="a_node33"><a xlink:href="https://ja.wikipedia.org/wiki/聞文謙信" xlink:title="僧侶。" target="_blank">
<polygon fill="#fcfcfc" stroke="#fcfcfc" stroke-width="0.1" points="803.36,-63.45 702.36,-63.45 702.36,-41.45 803.36,-41.45 803.36,-63.45"/>
<text text-anchor="middle" x="752.86" y="-48.75" font-family="sans-serif" font-size="14.00" fill="#444444">聞文謙信</text>
</a>
</g>
</g>
<!-- muso_soseki&#45;&gt;monbun_kenshin -->
<g id="edge25" class="edge">
<title>muso_soseki&#45;&gt;monbun_kenshin</title>
<g id="a_edge25"><a xlink:title="禅僧と僧侶。">
<path fill="none" stroke="#666666" stroke-width="1.5" d="M773.99,-71.36C772.65,-70.17 771.28,-68.94 769.91,-67.72"/>
<polygon fill="#666666" stroke="#666666" stroke-width="1.5" points="771.16,-66.02 765.29,-63.58 768.36,-69.15 771.16,-66.02"/>
</a>
</g>
</g>
</g>
</svg>
