<?xml version="1.0" encoding="UTF-8" standalone="no"?>
<!DOCTYPE svg PUBLIC "-//W3C//DTD SVG 1.1//EN"
 "http://www.w3.org/Graphics/SVG/1.1/DTD/svg11.dtd">
<!-- Generated by graphviz version 2.43.0 (0)
 -->
<!-- Title: timeline_1333_05 Pages: 1 -->
<svg width="858pt" height="666pt"
 viewBox="0.00 0.00 857.83 666.39" xmlns="http://www.w3.org/2000/svg" xmlns:xlink="http://www.w3.org/1999/xlink">
<g id="graph0" class="graph" transform="scale(1 1) rotate(0) translate(4 662.39)">
<title>timeline_1333_05</title>
<polygon fill="#ffffff" stroke="transparent" points="-4,4 -4,-662.39 853.83,-662.39 853.83,4 -4,4"/>
<!-- godaigo_tenno -->
<g id="node1" class="node">
<title>godaigo_tenno</title>
<g id="a_node1"><a xlink:href="https://ja.wikipedia.org/wiki/後醍醐天皇" xlink:title="元弘の変で敗北し、隠岐へ配流される。" target="_blank">
<polygon fill="#fcfcfc" stroke="#fcfcfc" stroke-width="0.1" points="268.42,-628.37 167.42,-628.37 167.42,-606.37 268.42,-606.37 268.42,-628.37"/>
<text text-anchor="middle" x="217.92" y="-613.67" font-family="sans-serif" font-size="14.00" fill="#cc0000">後醍醐天皇</text>
</a>
</g>
</g>
<!-- moriyoshi_shinnou -->
<g id="node2" class="node">
<title>moriyoshi_shinnou</title>
<g id="a_node2"><a xlink:href="https://ja.wikipedia.org/wiki/護良親王" xlink:title="後醍醐天皇の皇子。討幕運動を推進。" target="_blank">
<polygon fill="#fcfcfc" stroke="#fcfcfc" stroke-width="0.1" points="196.04,-568.31 95.04,-568.31 95.04,-546.31 196.04,-546.31 196.04,-568.31"/>
<text text-anchor="middle" x="145.54" y="-553.61" font-family="sans-serif" font-size="14.00" fill="#cc0000">護良親王</text>
</a>
</g>
</g>
<!-- godaigo_tenno&#45;&gt;moriyoshi_shinnou -->
<g id="edge1" class="edge">
<title>godaigo_tenno&#45;&gt;moriyoshi_shinnou</title>
<g id="a_edge1"><a xlink:title="討幕の挙兵を命じる。">
<path fill="none" stroke="#cc0000" stroke-width="2.8" d="M182.88,-606.25C180.34,-604.85 177.91,-603.29 175.69,-601.55 167.51,-595.13 160.72,-585.87 155.67,-577.48"/>
<polygon fill="#cc0000" stroke="#cc0000" stroke-width="2.8" points="158.64,-575.61 150.72,-568.57 152.52,-579.01 158.64,-575.61"/>
</a>
</g>
</g>
<!-- munenaga_shinnou -->
<g id="node3" class="node">
<title>munenaga_shinnou</title>
<g id="a_node3"><a xlink:href="https://ja.wikipedia.org/wiki/宗良親王" xlink:title="後醍醐天皇の皇子。討幕運動に関与。" target="_blank">
<polygon fill="#fcfcfc" stroke="#fcfcfc" stroke-width="0.1" points="312.7,-658.39 211.7,-658.39 211.7,-636.39 312.7,-636.39 312.7,-658.39"/>
<text text-anchor="middle" x="262.2" y="-643.69" font-family="sans-serif" font-size="14.00" fill="#cc0000">宗良親王</text>
</a>
</g>
</g>
<!-- godaigo_tenno&#45;&gt;munenaga_shinnou -->
<g id="edge5" class="edge">
<title>godaigo_tenno&#45;&gt;munenaga_shinnou</title>
<g id="a_edge5"><a xlink:title="皇子として討幕に関与。">
<path fill="none" stroke="#cc0000" stroke-width="2.8" d="M234.16,-628.37C235.24,-629.11 236.35,-629.86 237.46,-630.61"/>
<polygon fill="#cc0000" stroke="#cc0000" stroke-width="2.8" points="235.73,-633.67 245.97,-636.38 239.66,-627.87 235.73,-633.67"/>
</a>
</g>
</g>
<!-- narinaga_shinnou -->
<g id="node4" class="node">
<title>narinaga_shinnou</title>
<g id="a_node4"><a xlink:href="https://ja.wikipedia.org/wiki/成良親王" xlink:title="後醍醐天皇の皇子。" target="_blank">
<polygon fill="#fcfcfc" stroke="#fcfcfc" stroke-width="0.1" points="167.94,-535.4 66.94,-535.4 66.94,-513.4 167.94,-513.4 167.94,-535.4"/>
<text text-anchor="middle" x="117.44" y="-520.7" font-family="sans-serif" font-size="14.00" fill="#cc0000">成良親王</text>
</a>
</g>
</g>
<!-- godaigo_tenno&#45;&gt;narinaga_shinnou -->
<g id="edge6" class="edge">
<title>godaigo_tenno&#45;&gt;narinaga_shinnou</title>
<g id="a_edge6"><a xlink:title="皇子として討幕に関与。">
<path fill="none" stroke="#cc0000" stroke-width="2.8" d="M167.39,-612.69C140.22,-607.3 108.87,-595.83 91.84,-571.51 85.9,-563.03 85.85,-556.92 92.33,-544.74"/>
<polygon fill="#cc0000" stroke="#cc0000" stroke-width="2.8" points="95.54,-546.19 97.53,-535.78 89.49,-542.67 95.54,-546.19"/>
</a>
</g>
</g>
<!-- tsuneyoshi_shinnou -->
<g id="node5" class="node">
<title>tsuneyoshi_shinnou</title>
<g id="a_node5"><a xlink:href="https://ja.wikipedia.org/wiki/恒良親王" xlink:title="後醍醐天皇の皇子。" target="_blank">
<polygon fill="#fcfcfc" stroke="#fcfcfc" stroke-width="0.1" points="279.89,-598.35 178.89,-598.35 178.89,-576.35 279.89,-576.35 279.89,-598.35"/>
<text text-anchor="middle" x="229.39" y="-583.65" font-family="sans-serif" font-size="14.00" fill="#cc0000">恒良親王</text>
</a>
</g>
</g>
<!-- godaigo_tenno&#45;&gt;tsuneyoshi_shinnou -->
<g id="edge4" class="edge">
<title>godaigo_tenno&#45;&gt;tsuneyoshi_shinnou</title>
<g id="a_edge4"><a xlink:title="皇子として討幕に関与。">
<path fill="none" stroke="#cc0000" stroke-width="2.8" d="M222.19,-606.19C222.25,-606.03 222.32,-605.87 222.38,-605.71"/>
<polygon fill="#cc0000" stroke="#cc0000" stroke-width="2.8" points="224.86,-609.03 225.16,-598.43 218.32,-606.53 224.86,-609.03"/>
</a>
</g>
</g>
<!-- kusunoki_masashige -->
<g id="node17" class="node">
<title>kusunoki_masashige</title>
<g id="a_node17"><a xlink:href="https://ja.wikipedia.org/wiki/楠木正成" xlink:title="河内の悪党。挙兵する。" target="_blank">
<polygon fill="#fcfcfc" stroke="#fcfcfc" stroke-width="0.1" points="265.56,-219.25 164.56,-219.25 164.56,-197.25 265.56,-197.25 265.56,-219.25"/>
<text text-anchor="middle" x="215.06" y="-204.55" font-family="sans-serif" font-size="14.00" fill="#cc0000">楠木正成</text>
</a>
</g>
</g>
<!-- godaigo_tenno&#45;&gt;kusunoki_masashige -->
<g id="edge2" class="edge">
<title>godaigo_tenno&#45;&gt;kusunoki_masashige</title>
<g id="a_edge2"><a xlink:title="討幕の挙兵を命じる。">
<path fill="none" stroke="#cc0000" stroke-width="2.8" d="M180.07,-606.36C178.42,-604.95 176.94,-603.35 175.69,-601.55 168.5,-591.17 167.09,-582.38 175.69,-573.15 179.27,-569.31 195.66,-575.34 199.24,-571.51 207.84,-562.28 205.8,-553.89 199.24,-543.11 192.87,-532.65 181.14,-540.91 174.78,-530.45 171.5,-525.06 170.87,-507.01 174.78,-502.05 176.69,-499.62 179.5,-502.75 181.53,-500.42 191.99,-488.45 185.83,-444.88 188.83,-429.27 201.64,-362.64 221.3,-349.65 230.69,-282.46 232.44,-269.96 232.76,-266.51 230.69,-254.06 229.28,-245.53 226.47,-236.45 223.63,-228.65"/>
<polygon fill="#cc0000" stroke="#cc0000" stroke-width="2.8" points="226.86,-227.32 219.97,-219.28 220.34,-229.86 226.86,-227.32"/>
</a>
</g>
</g>
<!-- nawa_nagatoshi -->
<g id="node24" class="node">
<title>nawa_nagatoshi</title>
<g id="a_node24"><a xlink:href="https://ja.wikipedia.org/wiki/名和長年" xlink:title="伯耆の豪族。後醍醐天皇を支援。" target="_blank">
<polygon fill="#fcfcfc" stroke="#fcfcfc" stroke-width="0.1" points="394.33,-196.19 293.33,-196.19 293.33,-174.19 394.33,-174.19 394.33,-196.19"/>
<text text-anchor="middle" x="343.83" y="-181.49" font-family="sans-serif" font-size="14.00" fill="#cc0000">名和長年</text>
</a>
</g>
</g>
<!-- godaigo_tenno&#45;&gt;nawa_nagatoshi -->
<g id="edge3" class="edge">
<title>godaigo_tenno&#45;&gt;nawa_nagatoshi</title>
<g id="a_edge3"><a xlink:title="隠岐脱出を支援。">
<path fill="none" stroke="#cc0000" stroke-width="2.8" d="M180.07,-606.36C178.42,-604.95 176.94,-603.35 175.69,-601.55 168.5,-591.17 167.09,-582.38 175.69,-573.15 179.27,-569.31 195.66,-575.34 199.24,-571.51 207.84,-562.28 205.8,-553.89 199.24,-543.11 192.87,-532.65 181.14,-540.91 174.78,-530.45 171.5,-525.06 170.87,-507.01 174.78,-502.05 176.69,-499.62 179.5,-502.75 181.53,-500.42 202.45,-476.49 180.34,-459.9 188.83,-429.27 213.86,-338.88 220.57,-312.03 278.39,-238.18 289.41,-224.11 304.82,-211.4 317.92,-201.95"/>
<polygon fill="#cc0000" stroke="#cc0000" stroke-width="2.8" points="319.92,-204.82 326.13,-196.24 315.92,-199.08 319.92,-204.82"/>
</a>
</g>
</g>
<!-- gofushimi_in -->
<g id="node6" class="node">
<title>gofushimi_in</title>
<g id="a_node6"><a xlink:href="https://ja.wikipedia.org/wiki/後伏見天皇" xlink:title="持明院統。幕府の支持を受ける。" target="_blank">
<polygon fill="#fcfcfc" stroke="#fcfcfc" stroke-width="0.1" points="436.61,-617.3 335.61,-617.3 335.61,-595.3 436.61,-595.3 436.61,-617.3"/>
<text text-anchor="middle" x="386.11" y="-602.6" font-family="sans-serif" font-size="14.00" fill="#0000cc">後伏見院</text>
</a>
</g>
</g>
<!-- hanazono_in -->
<g id="node7" class="node">
<title>hanazono_in</title>
<g id="a_node7"><a xlink:href="https://ja.wikipedia.org/wiki/花園天皇" xlink:title="持明院統。" target="_blank">
<polygon fill="#fcfcfc" stroke="#fcfcfc" stroke-width="0.1" points="389.04,-587.28 288.04,-587.28 288.04,-565.28 389.04,-565.28 389.04,-587.28"/>
<text text-anchor="middle" x="338.54" y="-572.58" font-family="sans-serif" font-size="14.00" fill="#0000cc">花園院</text>
</a>
</g>
</g>
<!-- gofushimi_in&#45;&gt;hanazono_in -->
<g id="edge30" class="edge">
<title>gofushimi_in&#45;&gt;hanazono_in</title>
<g id="a_edge30"><a xlink:title="持明院統の連携。">
<path fill="none" stroke="#0000aa" stroke-width="2" d="M368.66,-595.29C366.85,-594.15 364.99,-592.97 363.12,-591.79"/>
<polygon fill="#0000aa" stroke="#0000aa" stroke-width="2" points="364.24,-589.19 355.98,-587.29 361.25,-593.92 364.24,-589.19"/>
</a>
</g>
</g>
<!-- kogen_tenno -->
<g id="node8" class="node">
<title>kogen_tenno</title>
<g id="a_node8"><a xlink:href="https://ja.wikipedia.org/wiki/光厳天皇" xlink:title="持明院統。皇位継承者。" target="_blank">
<polygon fill="#fcfcfc" stroke="#fcfcfc" stroke-width="0.1" points="453.5,-647.32 352.5,-647.32 352.5,-625.32 453.5,-625.32 453.5,-647.32"/>
<text text-anchor="middle" x="403" y="-632.62" font-family="sans-serif" font-size="14.00" fill="#0000cc">光厳天皇</text>
</a>
</g>
</g>
<!-- gofushimi_in&#45;&gt;kogen_tenno -->
<g id="edge31" class="edge">
<title>gofushimi_in&#45;&gt;kogen_tenno</title>
<g id="a_edge31"><a xlink:title="皇位継承に関与。">
<path fill="none" stroke="#0000aa" stroke-width="2" d="M392.4,-617.48C392.49,-617.63 392.58,-617.79 392.67,-617.95"/>
<polygon fill="#0000aa" stroke="#0000aa" stroke-width="2" points="390.4,-619.63 396.76,-625.23 395.28,-616.88 390.4,-619.63"/>
</a>
</g>
</g>
<!-- hojo_takatoki -->
<g id="node9" class="node">
<title>hojo_takatoki</title>
<g id="a_node9"><a xlink:href="https://ja.wikipedia.org/wiki/北条高時" xlink:title="鎌倉幕府得宗。" target="_blank">
<polygon fill="#fcfcfc" stroke="#fcfcfc" stroke-width="0.1" points="636.18,-539.11 535.18,-539.11 535.18,-517.11 636.18,-517.11 636.18,-539.11"/>
<text text-anchor="middle" x="585.68" y="-524.41" font-family="sans-serif" font-size="14.00" fill="#004400">北条高時</text>
</a>
</g>
</g>
<!-- hojo_moritoki -->
<g id="node10" class="node">
<title>hojo_moritoki</title>
<g id="a_node10"><a xlink:href="https://ja.wikipedia.org/wiki/北条守時" xlink:title="鎌倉幕府執権。" target="_blank">
<polygon fill="#fcfcfc" stroke="#fcfcfc" stroke-width="0.1" points="651.28,-508.98 550.28,-508.98 550.28,-486.98 651.28,-486.98 651.28,-508.98"/>
<text text-anchor="middle" x="600.78" y="-494.28" font-family="sans-serif" font-size="14.00" fill="#004400">北条守時</text>
</a>
</g>
</g>
<!-- hojo_takatoki&#45;&gt;hojo_moritoki -->
<g id="edge14" class="edge">
<title>hojo_takatoki&#45;&gt;hojo_moritoki</title>
<g id="a_edge14"><a xlink:title="幕府体制の維持。">
<path fill="none" stroke="#005500" stroke-width="2.8" d="M591.3,-516.89C591.38,-516.73 591.46,-516.57 591.54,-516.41"/>
<polygon fill="#005500" stroke="#005500" stroke-width="2.8" points="593.85,-519.62 595.2,-509.11 587.59,-516.48 593.85,-519.62"/>
</a>
</g>
</g>
<!-- nagasaki_takasuke -->
<g id="node12" class="node">
<title>nagasaki_takasuke</title>
<g id="a_node12"><a xlink:href="https://ja.wikipedia.org/wiki/長崎高資" xlink:title="鎌倉幕府内管領。" target="_blank">
<polygon fill="#fcfcfc" stroke="#fcfcfc" stroke-width="0.1" points="560.36,-320.98 459.36,-320.98 459.36,-298.98 560.36,-298.98 560.36,-320.98"/>
<text text-anchor="middle" x="509.86" y="-306.28" font-family="sans-serif" font-size="14.00" fill="#004400">長崎高資</text>
</a>
</g>
</g>
<!-- hojo_takatoki&#45;&gt;nagasaki_takasuke -->
<g id="edge12" class="edge">
<title>hojo_takatoki&#45;&gt;nagasaki_takasuke</title>
<g id="a_edge12"><a xlink:title="幕府の支配体制。">
<path fill="none" stroke="#005500" stroke-width="2.8" d="M555.08,-516.98C552.29,-515.53 549.57,-513.92 547.08,-512.18 497.53,-477.52 485.76,-458.75 469.26,-400.58 465.82,-388.44 465.66,-384.28 469.26,-372.18 473.95,-356.42 484.04,-340.93 492.98,-329.35"/>
<polygon fill="#005500" stroke="#005500" stroke-width="2.8" points="495.92,-331.29 499.49,-321.32 490.48,-326.89 495.92,-331.29"/>
</a>
</g>
</g>
<!-- nagasaki_enki -->
<g id="node13" class="node">
<title>nagasaki_enki</title>
<g id="a_node13"><a xlink:href="https://ja.wikipedia.org/wiki/長崎円喜" xlink:title="鎌倉幕府内管領。" target="_blank">
<polygon fill="#fcfcfc" stroke="#fcfcfc" stroke-width="0.1" points="493.28,-290.98 392.28,-290.98 392.28,-268.98 493.28,-268.98 493.28,-290.98"/>
<text text-anchor="middle" x="442.78" y="-276.28" font-family="sans-serif" font-size="14.00" fill="#004400">長崎円喜</text>
</a>
</g>
</g>
<!-- hojo_takatoki&#45;&gt;nagasaki_enki -->
<g id="edge13" class="edge">
<title>hojo_takatoki&#45;&gt;nagasaki_enki</title>
<g id="a_edge13"><a xlink:title="幕府の支配体制。">
<path fill="none" stroke="#005500" stroke-width="2.8" d="M555.08,-516.98C552.29,-515.53 549.57,-513.92 547.08,-512.18 532.25,-501.81 530.48,-496.59 519.57,-482.15 493.89,-448.17 485.23,-440.07 469.26,-400.58 455.74,-367.15 448.55,-325.58 445.22,-301"/>
<polygon fill="#005500" stroke="#005500" stroke-width="2.8" points="448.68,-300.47 443.94,-290.99 441.73,-301.36 448.68,-300.47"/>
</a>
</g>
</g>
<!-- hojo_nakatoki -->
<g id="node11" class="node">
<title>hojo_nakatoki</title>
<g id="a_node11"><a xlink:href="https://ja.wikipedia.org/wiki/北条仲時" xlink:title="六波羅探題北方。" target="_blank">
<polygon fill="#fcfcfc" stroke="#fcfcfc" stroke-width="0.1" points="623.77,-478.95 522.77,-478.95 522.77,-456.95 623.77,-456.95 623.77,-478.95"/>
<text text-anchor="middle" x="573.27" y="-464.25" font-family="sans-serif" font-size="14.00" fill="#004400">北条仲時</text>
</a>
</g>
</g>
<!-- hojo_moritoki&#45;&gt;hojo_nakatoki -->
<g id="edge15" class="edge">
<title>hojo_moritoki&#45;&gt;hojo_nakatoki</title>
<g id="a_edge15"><a xlink:title="六波羅探題への指示。">
<path fill="none" stroke="#005500" stroke-width="2.8" d="M590.54,-486.8C590.39,-486.64 590.24,-486.48 590.1,-486.32"/>
<polygon fill="#005500" stroke="#005500" stroke-width="2.8" points="592.77,-484.05 583.43,-479.04 587.61,-488.78 592.77,-484.05"/>
</a>
</g>
</g>
<!-- madenokoji_nobufusa -->
<g id="node14" class="node">
<title>madenokoji_nobufusa</title>
<g id="a_node14"><a xlink:href="https://ja.wikipedia.org/wiki/万里小路宣房" xlink:title="後醍醐の側近。" target="_blank">
<polygon fill="#fcfcfc" stroke="#fcfcfc" stroke-width="0.1" points="358.91,-557.26 257.91,-557.26 257.91,-535.26 358.91,-535.26 358.91,-557.26"/>
<text text-anchor="middle" x="308.41" y="-542.56" font-family="sans-serif" font-size="14.00" fill="#000000">万里小路宣房</text>
</a>
</g>
</g>
<!-- madenokoji_nobufusa&#45;&gt;godaigo_tenno -->
<g id="edge38" class="edge">
<title>madenokoji_nobufusa&#45;&gt;godaigo_tenno</title>
<g id="a_edge38"><a xlink:title="側近として補佐。">
<path fill="none" stroke="#666666" stroke-width="1.5" d="M288.45,-557.37C287.04,-558.8 285.8,-560.36 284.84,-562.08 282.69,-565.91 285.88,-598.16 283.09,-601.55 280.52,-604.67 277.45,-607.24 274.05,-609.35"/>
<polygon fill="#666666" stroke="#666666" stroke-width="1.5" points="272.8,-607.63 268.48,-612.29 274.76,-611.35 272.8,-607.63"/>
</a>
</g>
</g>
<!-- kitabatake_chikafusa -->
<g id="node15" class="node">
<title>kitabatake_chikafusa</title>
<g id="a_node15"><a xlink:href="https://ja.wikipedia.org/wiki/北畠親房" xlink:title="公卿。後醍醐を補佐する。" target="_blank">
<polygon fill="#fcfcfc" stroke="#fcfcfc" stroke-width="0.1" points="293.03,-454.47 192.03,-454.47 192.03,-432.47 293.03,-432.47 293.03,-454.47"/>
<text text-anchor="middle" x="242.53" y="-439.77" font-family="sans-serif" font-size="14.00" fill="#000000">北畠親房</text>
</a>
</g>
</g>
<!-- kitabatake_chikafusa&#45;&gt;godaigo_tenno -->
<g id="edge33" class="edge">
<title>kitabatake_chikafusa&#45;&gt;godaigo_tenno</title>
<g id="a_edge33"><a xlink:title="後醍醐天皇を補佐。">
<path fill="none" stroke="#666666" stroke-width="1.5" d="M233.84,-454.48C223,-467.46 203.22,-488.75 181.53,-500.42 178.81,-501.88 176.69,-499.62 174.78,-502.05 170.87,-507.01 171.5,-525.06 174.78,-530.45 181.14,-540.91 192.87,-532.65 199.24,-543.11 205.8,-553.89 207.84,-562.28 199.24,-571.51 195.66,-575.34 179.27,-569.31 175.69,-573.15 167.09,-582.38 168.5,-591.17 175.69,-601.55 175.77,-601.66 175.85,-601.77 175.93,-601.88"/>
<polygon fill="#666666" stroke="#666666" stroke-width="1.5" points="174.46,-603.38 180.07,-606.36 177.54,-600.53 174.46,-603.38"/>
</a>
</g>
</g>
<!-- kitabatake_akiie -->
<g id="node16" class="node">
<title>kitabatake_akiie</title>
<g id="a_node16"><a xlink:href="https://ja.wikipedia.org/wiki/北畠顕家" xlink:title="親房の子。討幕軍を統率。" target="_blank">
<polygon fill="#fcfcfc" stroke="#fcfcfc" stroke-width="0.1" points="344.66,-488.63 243.66,-488.63 243.66,-466.63 344.66,-466.63 344.66,-488.63"/>
<text text-anchor="middle" x="294.16" y="-473.93" font-family="sans-serif" font-size="14.00" fill="#000000">北畠顕家</text>
</a>
</g>
</g>
<!-- kitabatake_chikafusa&#45;&gt;kitabatake_akiie -->
<g id="edge34" class="edge">
<title>kitabatake_chikafusa&#45;&gt;kitabatake_akiie</title>
<g id="a_edge34"><a xlink:title="親子の連携。">
<path fill="none" stroke="#666666" stroke-width="1.5" d="M259.43,-454.65C263.49,-457.34 267.87,-460.24 272.12,-463.05"/>
<polygon fill="#666666" stroke="#666666" stroke-width="1.5" points="271.23,-464.98 277.39,-466.54 273.55,-461.48 271.23,-464.98"/>
</a>
</g>
</g>
<!-- kusunoki_masasue -->
<g id="node18" class="node">
<title>kusunoki_masasue</title>
<g id="a_node18"><a xlink:href="https://ja.wikipedia.org/wiki/楠木正季" xlink:title="正成の弟。" target="_blank">
<polygon fill="#fcfcfc" stroke="#fcfcfc" stroke-width="0.1" points="200.08,-187.73 99.08,-187.73 99.08,-165.73 200.08,-165.73 200.08,-187.73"/>
<text text-anchor="middle" x="149.58" y="-173.03" font-family="sans-serif" font-size="14.00" fill="#cc0000">楠木正季</text>
</a>
</g>
</g>
<!-- kusunoki_masashige&#45;&gt;kusunoki_masasue -->
<g id="edge21" class="edge">
<title>kusunoki_masashige&#45;&gt;kusunoki_masasue</title>
<g id="a_edge21"><a xlink:title="兄弟の協力関係。">
<path fill="none" stroke="#555555" stroke-width="2" d="M192.16,-197.22C188.19,-195.32 184.01,-193.3 179.89,-191.32"/>
<polygon fill="#555555" stroke="#555555" stroke-width="2" points="181,-188.75 172.58,-187.8 178.57,-193.79 181,-188.75"/>
</a>
</g>
</g>
<!-- nitta_yoshisada -->
<g id="node19" class="node">
<title>nitta_yoshisada</title>
<g id="a_node19"><a xlink:href="https://ja.wikipedia.org/wiki/新田義貞" xlink:title="上野で挙兵。" target="_blank">
<polygon fill="#fcfcfc" stroke="#fcfcfc" stroke-width="0.1" points="790.52,-351.98 689.52,-351.98 689.52,-329.98 790.52,-329.98 790.52,-351.98"/>
<text text-anchor="middle" x="740.02" y="-337.28" font-family="sans-serif" font-size="14.00" fill="#000000">新田義貞</text>
</a>
</g>
</g>
<!-- nitta_yoshisada&#45;&gt;godaigo_tenno -->
<g id="edge11" class="edge">
<title>nitta_yoshisada&#45;&gt;godaigo_tenno</title>
<g id="a_edge11"><a xlink:title="討幕の綸旨を受け挙兵。">
<path fill="none" stroke="#cc0000" stroke-width="2.8" d="M710.7,-352.13C666.62,-369.7 581.83,-406.72 519.57,-453.75 453.31,-503.8 467.93,-556.32 392.24,-590.48 386.18,-593.22 339.01,-591.29 332.41,-592.1 320.83,-593.52 296.67,-598.73 273.51,-604.06"/>
<polygon fill="#cc0000" stroke="#cc0000" stroke-width="2.8" points="272.64,-600.67 263.69,-606.34 274.22,-607.49 272.64,-600.67"/>
</a>
</g>
</g>
<!-- nitta_yoshiaki -->
<g id="node20" class="node">
<title>nitta_yoshiaki</title>
<g id="a_node20"><a xlink:href="https://ja.wikipedia.org/wiki/新田義顕" xlink:title="義貞の子。" target="_blank">
<polygon fill="#fcfcfc" stroke="#fcfcfc" stroke-width="0.1" points="824.71,-316.67 723.71,-316.67 723.71,-294.67 824.71,-294.67 824.71,-316.67"/>
<text text-anchor="middle" x="774.21" y="-301.97" font-family="sans-serif" font-size="14.00" fill="#000000">新田義顕</text>
</a>
</g>
</g>
<!-- nitta_yoshisada&#45;&gt;nitta_yoshiaki -->
<g id="edge24" class="edge">
<title>nitta_yoshisada&#45;&gt;nitta_yoshiaki</title>
<g id="a_edge24"><a xlink:title="親子・兄弟の連携。">
<path fill="none" stroke="#555555" stroke-width="2" d="M750.84,-329.81C752.92,-327.66 755.14,-325.37 757.36,-323.08"/>
<polygon fill="#555555" stroke="#555555" stroke-width="2" points="759.56,-324.83 763.11,-317.14 755.53,-320.94 759.56,-324.83"/>
</a>
</g>
</g>
<!-- wakiya_yoshisuke -->
<g id="node21" class="node">
<title>wakiya_yoshisuke</title>
<g id="a_node21"><a xlink:href="https://ja.wikipedia.org/wiki/脇屋義助" xlink:title="義貞の弟。" target="_blank">
<polygon fill="#fcfcfc" stroke="#fcfcfc" stroke-width="0.1" points="715.61,-321.91 614.61,-321.91 614.61,-299.91 715.61,-299.91 715.61,-321.91"/>
<text text-anchor="middle" x="665.11" y="-307.21" font-family="sans-serif" font-size="14.00" fill="#000000">脇屋義助</text>
</a>
</g>
</g>
<!-- nitta_yoshisada&#45;&gt;wakiya_yoshisuke -->
<g id="edge25" class="edge">
<title>nitta_yoshisada&#45;&gt;wakiya_yoshisuke</title>
<g id="a_edge25"><a xlink:title="親子・兄弟の連携。">
<path fill="none" stroke="#555555" stroke-width="2" d="M712.55,-329.96C708.48,-328.32 704.24,-326.62 700.04,-324.93"/>
<polygon fill="#555555" stroke="#555555" stroke-width="2" points="701.04,-322.32 692.58,-321.94 698.96,-327.52 701.04,-322.32"/>
</a>
</g>
</g>
<!-- horikawa_tomochika -->
<g id="node22" class="node">
<title>horikawa_tomochika</title>
<g id="a_node22"><a xlink:href="https://ja.wikipedia.org/wiki/堀川具親" xlink:title="公卿。" target="_blank">
<polygon fill="#fcfcfc" stroke="#fcfcfc" stroke-width="0.1" points="178.33,-497.22 77.33,-497.22 77.33,-475.22 178.33,-475.22 178.33,-497.22"/>
<text text-anchor="middle" x="127.83" y="-482.52" font-family="sans-serif" font-size="14.00" fill="#000000">堀川具親</text>
</a>
</g>
</g>
<!-- horikawa_tomochika&#45;&gt;godaigo_tenno -->
<g id="edge39" class="edge">
<title>horikawa_tomochika&#45;&gt;godaigo_tenno</title>
<g id="a_edge39"><a xlink:title="宮方の公卿。">
<path fill="none" stroke="#666666" stroke-width="1.5" d="M156.32,-497.24C161.98,-500.62 167.34,-504.89 171.14,-510.2 176.46,-517.63 169.35,-523.09 174.78,-530.45 182.04,-540.3 192.87,-532.65 199.24,-543.11 205.8,-553.89 207.84,-562.28 199.24,-571.51 195.66,-575.34 179.27,-569.31 175.69,-573.15 167.09,-582.38 168.5,-591.17 175.69,-601.55 175.77,-601.66 175.85,-601.77 175.93,-601.88"/>
<polygon fill="#666666" stroke="#666666" stroke-width="1.5" points="174.46,-603.38 180.07,-606.36 177.54,-600.53 174.46,-603.38"/>
</a>
</g>
</g>
<!-- shijo_takadata -->
<g id="node23" class="node">
<title>shijo_takadata</title>
<g id="a_node23"><a xlink:href="https://ja.wikipedia.org/wiki/四条隆資" xlink:title="後醍醐天皇の側近。討幕運動に関与。" target="_blank">
<polygon fill="#fcfcfc" stroke="#fcfcfc" stroke-width="0.1" points="278.98,-527.25 177.98,-527.25 177.98,-505.25 278.98,-505.25 278.98,-527.25"/>
<text text-anchor="middle" x="228.48" y="-512.55" font-family="sans-serif" font-size="14.00" fill="#000000">四条隆資</text>
</a>
</g>
</g>
<!-- shijo_takadata&#45;&gt;godaigo_tenno -->
<g id="edge36" class="edge">
<title>shijo_takadata&#45;&gt;godaigo_tenno</title>
<g id="a_edge36"><a xlink:title="側近として補佐。">
<path fill="none" stroke="#666666" stroke-width="1.5" d="M226.03,-527.36C222.52,-540.38 214.7,-561.44 199.24,-571.51 194.84,-574.37 179.27,-569.31 175.69,-573.15 167.09,-582.38 168.5,-591.17 175.69,-601.55 175.77,-601.66 175.85,-601.77 175.93,-601.88"/>
<polygon fill="#666666" stroke="#666666" stroke-width="1.5" points="174.46,-603.38 180.07,-606.36 177.54,-600.53 174.46,-603.38"/>
</a>
</g>
</g>
<!-- doi_michitsura -->
<g id="node29" class="node">
<title>doi_michitsura</title>
<g id="a_node29"><a xlink:href="https://ja.wikipedia.org/wiki/土居通遠" xlink:title="伊予の武士。討幕に呼応。" target="_blank">
<polygon fill="#fcfcfc" stroke="#fcfcfc" stroke-width="0.1" points="201.63,-249.26 100.63,-249.26 100.63,-227.26 201.63,-227.26 201.63,-249.26"/>
<text text-anchor="middle" x="151.13" y="-234.56" font-family="sans-serif" font-size="14.00" fill="#000000">土居通遠</text>
</a>
</g>
</g>
<!-- nawa_nagatoshi&#45;&gt;doi_michitsura -->
<g id="edge7" class="edge">
<title>nawa_nagatoshi&#45;&gt;doi_michitsura</title>
<g id="a_edge7"><a xlink:title="挙兵への協力。">
<path fill="none" stroke="#cc0000" stroke-width="2.8" d="M325.72,-196.3C310.93,-204.83 289.21,-216.19 268.76,-222.45 250.64,-227.99 230.36,-231.6 211.8,-233.94"/>
<polygon fill="#cc0000" stroke="#cc0000" stroke-width="2.8" points="211.23,-230.48 201.7,-235.11 212.04,-237.43 211.23,-230.48"/>
</a>
</g>
</g>
<!-- tokunou_michitoki -->
<g id="node30" class="node">
<title>tokunou_michitoki</title>
<g id="a_node30"><a xlink:href="https://ja.wikipedia.org/wiki/徳能通時" xlink:title="名和氏配下の武将。" target="_blank">
<polygon fill="#fcfcfc" stroke="#fcfcfc" stroke-width="0.1" points="227.49,-279.26 126.49,-279.26 126.49,-257.26 227.49,-257.26 227.49,-279.26"/>
<text text-anchor="middle" x="176.99" y="-264.56" font-family="sans-serif" font-size="14.00" fill="#000000">徳能通時</text>
</a>
</g>
</g>
<!-- nawa_nagatoshi&#45;&gt;tokunou_michitoki -->
<g id="edge8" class="edge">
<title>nawa_nagatoshi&#45;&gt;tokunou_michitoki</title>
<g id="a_edge8"><a xlink:title="挙兵への協力。">
<path fill="none" stroke="#cc0000" stroke-width="2.8" d="M321.68,-196.22C292.64,-210.68 241.51,-236.14 208.46,-252.59"/>
<polygon fill="#cc0000" stroke="#cc0000" stroke-width="2.8" points="206.63,-249.59 199.24,-257.18 209.75,-255.86 206.63,-249.59"/>
</a>
</g>
</g>
<!-- chigusa_tadaaki -->
<g id="node25" class="node">
<title>chigusa_tadaaki</title>
<g id="a_node25"><a xlink:href="https://ja.wikipedia.org/wiki/千種忠顕" xlink:title="公卿。討幕運動に関与。" target="_blank">
<polygon fill="#fcfcfc" stroke="#fcfcfc" stroke-width="0.1" points="112.89,-467.21 11.89,-467.21 11.89,-445.21 112.89,-445.21 112.89,-467.21"/>
<text text-anchor="middle" x="62.39" y="-452.51" font-family="sans-serif" font-size="14.00" fill="#000000">千種忠顕</text>
</a>
</g>
</g>
<!-- chigusa_tadaaki&#45;&gt;godaigo_tenno -->
<g id="edge37" class="edge">
<title>chigusa_tadaaki&#45;&gt;godaigo_tenno</title>
<g id="a_edge37"><a xlink:title="側近として補佐。">
<path fill="none" stroke="#666666" stroke-width="1.5" d="M60.27,-467.31C57.67,-483.57 54.63,-514.51 63.74,-538.6 70.54,-556.59 76.03,-560.55 91.84,-571.51 113.54,-586.56 140.75,-597.28 164.34,-604.54"/>
<polygon fill="#666666" stroke="#666666" stroke-width="1.5" points="163.9,-606.6 170.25,-606.32 165.1,-602.58 163.9,-606.6"/>
</a>
</g>
</g>
<!-- yuki_munehiro -->
<g id="node26" class="node">
<title>yuki_munehiro</title>
<g id="a_node26"><a xlink:href="https://ja.wikipedia.org/wiki/結城宗広" xlink:title="東国の豪族。討幕に呼応。" target="_blank">
<polygon fill="#fcfcfc" stroke="#fcfcfc" stroke-width="0.1" points="817.07,-393 716.07,-393 716.07,-371 817.07,-371 817.07,-393"/>
<text text-anchor="middle" x="766.57" y="-378.3" font-family="sans-serif" font-size="14.00" fill="#000000">結城宗広</text>
</a>
</g>
</g>
<!-- yuki_munehiro&#45;&gt;nitta_yoshisada -->
<g id="edge40" class="edge">
<title>yuki_munehiro&#45;&gt;nitta_yoshisada</title>
<g id="a_edge40"><a xlink:title="討幕軍への協力。">
<path fill="none" stroke="#666666" stroke-width="1.5" d="M759.31,-370.79C756.62,-366.63 753.51,-361.82 750.58,-357.3"/>
<polygon fill="#666666" stroke="#666666" stroke-width="1.5" points="752.29,-356.07 747.27,-352.18 748.76,-358.35 752.29,-356.07"/>
</a>
</g>
</g>
<!-- kikuchi_taketoki -->
<g id="node27" class="node">
<title>kikuchi_taketoki</title>
<g id="a_node27"><a xlink:href="https://ja.wikipedia.org/wiki/菊池武時" xlink:title="博多で戦死。" target="_blank">
<polygon fill="#fcfcfc" stroke="#fcfcfc" stroke-width="0.1" points="101,-105.83 0,-105.83 0,-83.83 101,-83.83 101,-105.83"/>
<text text-anchor="middle" x="50.5" y="-91.13" font-family="sans-serif" font-size="14.00" fill="#aaaaaa">菊池武時</text>
</a>
</g>
</g>
<!-- aso_koreyuki -->
<g id="node28" class="node">
<title>aso_koreyuki</title>
<g id="a_node28"><a xlink:href="https://ja.wikipedia.org/wiki/阿蘇惟直" xlink:title="九州の有力武士。" target="_blank">
<polygon fill="#fcfcfc" stroke="#fcfcfc" stroke-width="0.1" points="216.68,-85.95 115.68,-85.95 115.68,-63.95 216.68,-63.95 216.68,-85.95"/>
<text text-anchor="middle" x="166.18" y="-71.25" font-family="sans-serif" font-size="14.00" fill="#444444">阿蘇惟直</text>
</a>
</g>
</g>
<!-- shoni_yorihisa -->
<g id="node44" class="node">
<title>shoni_yorihisa</title>
<g id="a_node44"><a xlink:href="https://ja.wikipedia.org/wiki/少弐頼尚" xlink:title="九州の有力武士。" target="_blank">
<polygon fill="#fcfcfc" stroke="#fcfcfc" stroke-width="0.1" points="275.34,-55.9 174.34,-55.9 174.34,-33.9 275.34,-33.9 275.34,-55.9"/>
<text text-anchor="middle" x="224.84" y="-41.2" font-family="sans-serif" font-size="14.00" fill="#444444">少弐頼尚</text>
</a>
</g>
</g>
<!-- aso_koreyuki&#45;&gt;shoni_yorihisa -->
<g id="edge41" class="edge">
<title>aso_koreyuki&#45;&gt;shoni_yorihisa</title>
<g id="a_edge41"><a xlink:title="九州での武士団連携。">
<path fill="none" stroke="#666666" stroke-width="1.5" d="M187.69,-63.93C191.04,-62.21 194.53,-60.42 197.98,-58.66"/>
<polygon fill="#666666" stroke="#666666" stroke-width="1.5" points="198.95,-60.52 203.33,-55.91 197.03,-56.78 198.95,-60.52"/>
</a>
</g>
</g>
<!-- monobe_nagafusa -->
<g id="node31" class="node">
<title>monobe_nagafusa</title>
<g id="a_node31"><a xlink:href="https://ja.wikipedia.org/wiki/物部永房" xlink:title="朝廷側の実務官僚。" target="_blank">
<polygon fill="#fcfcfc" stroke="#fcfcfc" stroke-width="0.1" points="382.59,-263.38 281.59,-263.38 281.59,-241.38 382.59,-241.38 382.59,-263.38"/>
<text text-anchor="middle" x="332.09" y="-248.68" font-family="sans-serif" font-size="14.00" fill="#000000">物部永房</text>
</a>
</g>
</g>
<!-- monobe_nagafusa&#45;&gt;godaigo_tenno -->
<g id="edge42" class="edge">
<title>monobe_nagafusa&#45;&gt;godaigo_tenno</title>
<g id="a_edge42"><a xlink:title="朝廷実務の補佐。">
<path fill="none" stroke="#666666" stroke-width="1.5" d="M318.85,-263.58C289.46,-289.34 218.98,-356.21 188.83,-429.27 176.7,-458.65 202.45,-476.49 181.53,-500.42 179.5,-502.75 176.69,-499.62 174.78,-502.05 170.87,-507.01 171.5,-525.06 174.78,-530.45 181.14,-540.91 192.87,-532.65 199.24,-543.11 205.8,-553.89 207.84,-562.28 199.24,-571.51 195.66,-575.34 179.27,-569.31 175.69,-573.15 167.09,-582.38 168.5,-591.17 175.69,-601.55 175.77,-601.66 175.85,-601.77 175.93,-601.88"/>
<polygon fill="#666666" stroke="#666666" stroke-width="1.5" points="174.46,-603.38 180.07,-606.36 177.54,-600.53 174.46,-603.38"/>
</a>
</g>
</g>
<!-- ashikaga_takauji -->
<g id="node32" class="node">
<title>ashikaga_takauji</title>
<g id="a_node32"><a xlink:href="https://ja.wikipedia.org/wiki/足利尊氏" xlink:title="鎌倉幕府の有力御家人。後の尊氏。" target="_blank">
<polygon fill="#fcfcfc" stroke="#fcfcfc" stroke-width="0.1" points="571.18,-249.61 470.18,-249.61 470.18,-227.61 571.18,-227.61 571.18,-249.61"/>
<text text-anchor="middle" x="520.68" y="-234.91" font-family="sans-serif" font-size="14.00" fill="#000000">足利高氏</text>
</a>
</g>
</g>
<!-- ashikaga_takauji&#45;&gt;hojo_takatoki -->
<g id="edge18" class="edge">
<title>ashikaga_takauji&#45;&gt;hojo_takatoki</title>
<g id="a_edge18"><a xlink:title="将軍への忠誠。">
<path fill="none" stroke="#555555" stroke-width="2" d="M519.32,-249.79C517.08,-262.89 511.25,-284.08 496.48,-294.18 492.78,-296.71 459.26,-292.55 456.16,-295.78 442.74,-309.74 452.26,-355.59 469.26,-400.58 490.63,-457.14 497.53,-477.52 547.08,-512.18 547.39,-512.4 547.7,-512.61 548.02,-512.83"/>
<polygon fill="#555555" stroke="#555555" stroke-width="2" points="546.77,-515.34 555.08,-516.98 549.61,-510.51 546.77,-515.34"/>
</a>
</g>
</g>
<!-- ashikaga_tadayoshi -->
<g id="node33" class="node">
<title>ashikaga_tadayoshi</title>
<g id="a_node33"><a xlink:href="https://ja.wikipedia.org/wiki/足利直義" xlink:title="高氏の弟。後の直義。" target="_blank">
<polygon fill="#fcfcfc" stroke="#fcfcfc" stroke-width="0.1" points="598.85,-219.12 497.85,-219.12 497.85,-197.12 598.85,-197.12 598.85,-219.12"/>
<text text-anchor="middle" x="548.35" y="-204.42" font-family="sans-serif" font-size="14.00" fill="#000000">足利忠義</text>
</a>
</g>
</g>
<!-- ashikaga_takauji&#45;&gt;ashikaga_tadayoshi -->
<g id="edge22" class="edge">
<title>ashikaga_takauji&#45;&gt;ashikaga_tadayoshi</title>
<g id="a_edge22"><a xlink:title="兄弟の連携。">
<path fill="none" stroke="#555555" stroke-width="2" d="M530.67,-227.6C531.37,-226.84 532.08,-226.05 532.8,-225.26"/>
<polygon fill="#555555" stroke="#555555" stroke-width="2" points="534.98,-227.02 538.29,-219.22 530.84,-223.26 534.98,-227.02"/>
</a>
</g>
</g>
<!-- hosokawa_kazuuji -->
<g id="node36" class="node">
<title>hosokawa_kazuuji</title>
<g id="a_node36"><a xlink:href="https://ja.wikipedia.org/wiki/細川和氏" xlink:title="足利氏重臣。" target="_blank">
<polygon fill="#fcfcfc" stroke="#fcfcfc" stroke-width="0.1" points="508.25,-175.63 407.25,-175.63 407.25,-153.63 508.25,-153.63 508.25,-175.63"/>
<text text-anchor="middle" x="457.75" y="-160.93" font-family="sans-serif" font-size="14.00" fill="#000000">細川和氏</text>
</a>
</g>
</g>
<!-- ashikaga_takauji&#45;&gt;hosokawa_kazuuji -->
<g id="edge26" class="edge">
<title>ashikaga_takauji&#45;&gt;hosokawa_kazuuji</title>
<g id="a_edge26"><a xlink:title="足利家臣団。">
<path fill="none" stroke="#555555" stroke-width="2" d="M500.92,-227.59C498.69,-225.96 496.55,-224.2 494.65,-222.32 483.15,-210.93 473.44,-195.33 466.88,-183.23"/>
<polygon fill="#555555" stroke="#555555" stroke-width="2" points="469.21,-181.65 463.03,-175.86 464.25,-184.24 469.21,-181.65"/>
</a>
</g>
</g>
<!-- shiba_takatsune -->
<g id="node39" class="node">
<title>shiba_takatsune</title>
<g id="a_node39"><a xlink:href="https://ja.wikipedia.org/wiki/斯波高経" xlink:title="足利一門。" target="_blank">
<polygon fill="#fcfcfc" stroke="#fcfcfc" stroke-width="0.1" points="636.36,-117.93 535.36,-117.93 535.36,-95.93 636.36,-95.93 636.36,-117.93"/>
<text text-anchor="middle" x="585.86" y="-103.23" font-family="sans-serif" font-size="14.00" fill="#000000">斯波高経</text>
</a>
</g>
</g>
<!-- ashikaga_takauji&#45;&gt;shiba_takatsune -->
<g id="edge29" class="edge">
<title>ashikaga_takauji&#45;&gt;shiba_takatsune</title>
<g id="a_edge29"><a xlink:title="足利一門。">
<path fill="none" stroke="#555555" stroke-width="2" d="M498.57,-227.38C497.03,-225.87 495.69,-224.19 494.65,-222.32 488.54,-211.28 489.51,-205.45 494.65,-193.92 498.74,-184.75 506.86,-187.75 511.45,-178.83 521.96,-158.39 502.46,-145.09 517.19,-127.45 518.09,-126.38 526.88,-123.51 537.88,-120.25"/>
<polygon fill="#555555" stroke="#555555" stroke-width="2" points="538.89,-122.87 545.79,-117.95 537.32,-117.5 538.89,-122.87"/>
</a>
</g>
</g>
<!-- ko_no_moronao -->
<g id="node34" class="node">
<title>ko_no_moronao</title>
<g id="a_node34"><a xlink:href="https://ja.wikipedia.org/wiki/高師直" xlink:title="高氏の家臣。" target="_blank">
<polygon fill="#fcfcfc" stroke="#fcfcfc" stroke-width="0.1" points="635.12,-188.85 534.12,-188.85 534.12,-166.85 635.12,-166.85 635.12,-188.85"/>
<text text-anchor="middle" x="584.62" y="-174.15" font-family="sans-serif" font-size="14.00" fill="#000000">高師直</text>
</a>
</g>
</g>
<!-- ashikaga_tadayoshi&#45;&gt;ko_no_moronao -->
<g id="edge23" class="edge">
<title>ashikaga_tadayoshi&#45;&gt;ko_no_moronao</title>
<g id="a_edge23"><a xlink:title="足利家の家臣団。">
<path fill="none" stroke="#555555" stroke-width="2" d="M561.86,-196.85C562.91,-195.97 563.98,-195.07 565.07,-194.17"/>
<polygon fill="#555555" stroke="#555555" stroke-width="2" points="566.88,-196.31 571.23,-189.03 563.29,-192.01 566.88,-196.31"/>
</a>
</g>
</g>
<!-- kira_sadamitsu -->
<g id="node35" class="node">
<title>kira_sadamitsu</title>
<g id="a_node35"><a xlink:href="https://ja.wikipedia.org/wiki/吉良貞義" xlink:title="足利一門。" target="_blank">
<polygon fill="#fcfcfc" stroke="#fcfcfc" stroke-width="0.1" points="573.46,-397.38 472.46,-397.38 472.46,-375.38 573.46,-375.38 573.46,-397.38"/>
<text text-anchor="middle" x="522.96" y="-382.68" font-family="sans-serif" font-size="14.00" fill="#000000">吉良貞義</text>
</a>
</g>
</g>
<!-- kira_sadamitsu&#45;&gt;ashikaga_takauji -->
<g id="edge35" class="edge">
<title>kira_sadamitsu&#45;&gt;ashikaga_takauji</title>
<g id="a_edge35"><a xlink:title="足利一門。">
<path fill="none" stroke="#666666" stroke-width="1.5" d="M521.64,-375.1C521.11,-365.41 521.84,-351.53 528.68,-341.85 538.7,-327.65 554.46,-338.99 563.56,-324.18 570.16,-313.43 567.55,-307.76 563.56,-295.78 558.32,-280.07 546.88,-265.19 537.13,-254.55"/>
<polygon fill="#666666" stroke="#666666" stroke-width="1.5" points="538.45,-252.89 532.8,-249.98 535.4,-255.78 538.45,-252.89"/>
</a>
</g>
</g>
<!-- hosokawa_yoriharu -->
<g id="node37" class="node">
<title>hosokawa_yoriharu</title>
<g id="a_node37"><a xlink:href="https://ja.wikipedia.org/wiki/細川頼春" xlink:title="細川氏の一族。" target="_blank">
<polygon fill="#fcfcfc" stroke="#fcfcfc" stroke-width="0.1" points="527.25,-119.02 426.25,-119.02 426.25,-97.02 527.25,-97.02 527.25,-119.02"/>
<text text-anchor="middle" x="476.75" y="-104.32" font-family="sans-serif" font-size="14.00" fill="#000000">細川頼春</text>
</a>
</g>
</g>
<!-- hosokawa_kazuuji&#45;&gt;hosokawa_yoriharu -->
<g id="edge27" class="edge">
<title>hosokawa_kazuuji&#45;&gt;hosokawa_yoriharu</title>
<g id="a_edge27"><a xlink:title="細川一門。">
<path fill="none" stroke="#555555" stroke-width="2" d="M461.51,-153.44C464.06,-145.85 467.49,-135.61 470.46,-126.78"/>
<polygon fill="#555555" stroke="#555555" stroke-width="2" points="473.11,-127.66 473.01,-119.18 467.81,-125.88 473.11,-127.66"/>
</a>
</g>
</g>
<!-- hosokawa_akiuji -->
<g id="node38" class="node">
<title>hosokawa_akiuji</title>
<g id="a_node38"><a xlink:href="https://ja.wikipedia.org/wiki/細川顕氏" xlink:title="細川氏の一族。" target="_blank">
<polygon fill="#fcfcfc" stroke="#fcfcfc" stroke-width="0.1" points="621.39,-152.65 520.39,-152.65 520.39,-130.65 621.39,-130.65 621.39,-152.65"/>
<text text-anchor="middle" x="570.89" y="-137.95" font-family="sans-serif" font-size="14.00" fill="#000000">細川顕氏</text>
</a>
</g>
</g>
<!-- hosokawa_kazuuji&#45;&gt;hosokawa_akiuji -->
<g id="edge28" class="edge">
<title>hosokawa_kazuuji&#45;&gt;hosokawa_akiuji</title>
<g id="a_edge28"><a xlink:title="細川一門。">
<path fill="none" stroke="#555555" stroke-width="2" d="M508.37,-154.35C509.58,-154.1 510.8,-153.86 512.02,-153.61"/>
<polygon fill="#555555" stroke="#555555" stroke-width="2" points="512.77,-156.31 520.05,-151.98 511.66,-150.82 512.77,-156.31"/>
</a>
</g>
</g>
<!-- akamatsu_enshin -->
<g id="node40" class="node">
<title>akamatsu_enshin</title>
<g id="a_node40"><a xlink:href="https://ja.wikipedia.org/wiki/赤松円心" xlink:title="播磨の武士。討幕に呼応。" target="_blank">
<polygon fill="#fcfcfc" stroke="#fcfcfc" stroke-width="0.1" points="345.31,-115.01 244.31,-115.01 244.31,-93.01 345.31,-93.01 345.31,-115.01"/>
<text text-anchor="middle" x="294.81" y="-100.31" font-family="sans-serif" font-size="14.00" fill="#cc0000">赤松円心</text>
</a>
</g>
</g>
<!-- akamatsu_enshin&#45;&gt;godaigo_tenno -->
<g id="edge10" class="edge">
<title>akamatsu_enshin&#45;&gt;godaigo_tenno</title>
<g id="a_edge10"><a xlink:title="討幕に呼応。">
<path fill="none" stroke="#cc0000" stroke-width="2.8" d="M301.72,-115.19C305.69,-122.28 310.29,-131.82 312.35,-140.97 313.74,-147.13 316.65,-164.75 312.35,-169.37 308.98,-173 294.12,-168.06 290.13,-170.99 287.03,-173.28 189.74,-425.52 188.83,-429.27 181.33,-460.16 202.45,-476.49 181.53,-500.42 179.5,-502.75 176.69,-499.62 174.78,-502.05 170.87,-507.01 171.5,-525.06 174.78,-530.45 181.14,-540.91 192.87,-532.65 199.24,-543.11 205.8,-553.89 207.84,-562.28 199.24,-571.51 195.66,-575.34 179.27,-569.31 175.69,-573.15 168.83,-580.5 168.34,-587.58 174.28,-597.84"/>
<polygon fill="#cc0000" stroke="#cc0000" stroke-width="2.8" points="171.55,-600.06 180.07,-606.36 177.34,-596.12 171.55,-600.06"/>
</a>
</g>
</g>
<!-- akamatsu_sadanori -->
<g id="node41" class="node">
<title>akamatsu_sadanori</title>
<g id="a_node41"><a xlink:href="https://ja.wikipedia.org/wiki/赤松貞範" xlink:title="円心の子。討幕に呼応。" target="_blank">
<polygon fill="#fcfcfc" stroke="#fcfcfc" stroke-width="0.1" points="418.19,-145.1 317.19,-145.1 317.19,-123.1 418.19,-123.1 418.19,-145.1"/>
<text text-anchor="middle" x="367.69" y="-130.4" font-family="sans-serif" font-size="14.00" fill="#cc0000">赤松貞範</text>
</a>
</g>
</g>
<!-- akamatsu_enshin&#45;&gt;akamatsu_sadanori -->
<g id="edge9" class="edge">
<title>akamatsu_enshin&#45;&gt;akamatsu_sadanori</title>
<g id="a_edge9"><a xlink:title="一門の連携。">
<path fill="none" stroke="#cc0000" stroke-width="2.8" d="M321.53,-115.05C324.8,-116.4 328.18,-117.79 331.56,-119.19"/>
<polygon fill="#cc0000" stroke="#cc0000" stroke-width="2.8" points="330.39,-122.49 340.97,-123.07 333.06,-116.02 330.39,-122.49"/>
</a>
</g>
</g>
<!-- sasaki_doyo -->
<g id="node42" class="node">
<title>sasaki_doyo</title>
<g id="a_node42"><a xlink:href="https://ja.wikipedia.org/wiki/佐々木道誉" xlink:title="幕府の有力御家人。" target="_blank">
<polygon fill="#fcfcfc" stroke="#fcfcfc" stroke-width="0.1" points="576.59,-87.47 475.59,-87.47 475.59,-65.47 576.59,-65.47 576.59,-87.47"/>
<text text-anchor="middle" x="526.09" y="-72.77" font-family="sans-serif" font-size="14.00" fill="#000000">佐々木道誉</text>
</a>
</g>
</g>
<!-- sasaki_doyo&#45;&gt;hojo_takatoki -->
<g id="edge19" class="edge">
<title>sasaki_doyo&#45;&gt;hojo_takatoki</title>
<g id="a_edge19"><a xlink:title="幕府御家人。">
<path fill="none" stroke="#555555" stroke-width="2" d="M529.36,-87.78C529.81,-89.78 530.21,-91.85 530.45,-93.82 530.84,-96.95 532.23,-119.61 530.45,-122.22 526.89,-127.46 521.04,-122.42 517.19,-127.45 503.23,-145.7 521.96,-158.39 511.45,-178.83 506.86,-187.75 501.77,-186.84 494.65,-193.92 481.68,-206.83 473.58,-207.34 466.98,-224.41 462.44,-236.19 460.09,-242.24 466.98,-252.81 474.81,-264.8 488.65,-253.79 496.48,-265.78 503.38,-276.35 505.23,-285.08 496.48,-294.18 493.37,-297.42 459.26,-292.55 456.16,-295.78 447.41,-304.88 455.08,-311.61 456.16,-324.18 459.08,-358.51 457.08,-368.36 469.26,-400.58 484.32,-440.43 493.89,-448.17 519.57,-482.15 530.48,-496.59 532.25,-501.81 547.08,-512.18 547.39,-512.4 547.7,-512.61 548.02,-512.83"/>
<polygon fill="#555555" stroke="#555555" stroke-width="2" points="546.77,-515.34 555.08,-516.98 549.61,-510.51 546.77,-515.34"/>
</a>
</g>
</g>
<!-- toki_yorisada -->
<g id="node43" class="node">
<title>toki_yorisada</title>
<g id="a_node43"><a xlink:href="https://ja.wikipedia.org/wiki/土岐頼貞" xlink:title="有力武士。" target="_blank">
<polygon fill="#fcfcfc" stroke="#fcfcfc" stroke-width="0.1" points="632.88,-367.05 531.88,-367.05 531.88,-345.05 632.88,-345.05 632.88,-367.05"/>
<text text-anchor="middle" x="582.38" y="-352.35" font-family="sans-serif" font-size="14.00" fill="#444444">土岐頼貞</text>
</a>
</g>
</g>
<!-- toki_yorisada&#45;&gt;hojo_takatoki -->
<g id="edge20" class="edge">
<title>toki_yorisada&#45;&gt;hojo_takatoki</title>
<g id="a_edge20"><a xlink:title="有力武士。">
<path fill="none" stroke="#555555" stroke-width="2" d="M582.99,-367.28C583.05,-376.68 582,-390.18 576.66,-400.58 560.83,-431.43 533.41,-421.96 519.57,-453.75 514.54,-465.32 515,-470.39 519.57,-482.15 526.13,-499.02 532.25,-501.81 547.08,-512.18 547.39,-512.4 547.7,-512.61 548.02,-512.83"/>
<polygon fill="#555555" stroke="#555555" stroke-width="2" points="546.77,-515.34 555.08,-516.98 549.61,-510.51 546.77,-515.34"/>
</a>
</g>
</g>
<!-- shimazu_sadahisa -->
<g id="node45" class="node">
<title>shimazu_sadahisa</title>
<g id="a_node45"><a xlink:href="https://ja.wikipedia.org/wiki/島津貞久" xlink:title="有力武士。" target="_blank">
<polygon fill="#fcfcfc" stroke="#fcfcfc" stroke-width="0.1" points="200.2,-22 99.2,-22 99.2,0 200.2,0 200.2,-22"/>
<text text-anchor="middle" x="149.7" y="-7.3" font-family="sans-serif" font-size="14.00" fill="#444444">島津貞久</text>
</a>
</g>
</g>
<!-- ouchi_nagahiro -->
<g id="node46" class="node">
<title>ouchi_nagahiro</title>
<g id="a_node46"><a xlink:href="https://ja.wikipedia.org/wiki/大内長弘" xlink:title="有力武士。" target="_blank">
<polygon fill="#fcfcfc" stroke="#fcfcfc" stroke-width="0.1" points="309.15,-166.17 208.15,-166.17 208.15,-144.17 309.15,-144.17 309.15,-166.17"/>
<text text-anchor="middle" x="258.65" y="-151.47" font-family="sans-serif" font-size="14.00" fill="#444444">大内長弘</text>
</a>
</g>
</g>
<!-- shimazu_sadahisa&#45;&gt;ouchi_nagahiro -->
<g id="edge17" class="edge">
<title>shimazu_sadahisa&#45;&gt;ouchi_nagahiro</title>
<g id="a_edge17"><a xlink:title="諸国の有力武士の連携。">
<path fill="none" stroke="#005500" stroke-width="2.8" d="M151.28,-22.35C153.53,-33.76 158.85,-50.82 171.14,-59.1 175.63,-62.12 215.49,-57.57 219.88,-60.75 241.96,-76.69 230.54,-93.12 241.11,-118.21 243.42,-123.7 246.09,-129.55 248.65,-134.94"/>
<polygon fill="#005500" stroke="#005500" stroke-width="2.8" points="245.51,-136.49 253.01,-143.97 251.81,-133.44 245.51,-136.49"/>
</a>
</g>
</g>
<!-- muso_soseki -->
<g id="node47" class="node">
<title>muso_soseki</title>
<g id="a_node47"><a xlink:href="https://ja.wikipedia.org/wiki/夢窓疎石" xlink:title="禅僧。" target="_blank">
<polygon fill="#fcfcfc" stroke="#fcfcfc" stroke-width="0.1" points="849.83,-83.68 748.83,-83.68 748.83,-61.68 849.83,-61.68 849.83,-83.68"/>
<text text-anchor="middle" x="799.33" y="-68.98" font-family="sans-serif" font-size="14.00" fill="#444444">夢窓疎石</text>
</a>
</g>
</g>
<!-- monbun_kenshin -->
<g id="node48" class="node">
<title>monbun_kenshin</title>
<g id="a_node48"><a xlink:href="https://ja.wikipedia.org/wiki/聞文謙信" xlink:title="僧侶。" target="_blank">
<polygon fill="#fcfcfc" stroke="#fcfcfc" stroke-width="0.1" points="817.37,-53.63 716.37,-53.63 716.37,-31.63 817.37,-31.63 817.37,-53.63"/>
<text text-anchor="middle" x="766.87" y="-38.93" font-family="sans-serif" font-size="14.00" fill="#444444">聞文謙信</text>
</a>
</g>
</g>
<!-- muso_soseki&#45;&gt;monbun_kenshin -->
<g id="edge32" class="edge">
<title>muso_soseki&#45;&gt;monbun_kenshin</title>
<g id="a_edge32"><a xlink:title="禅僧と僧侶。">
<path fill="none" stroke="#666666" stroke-width="1.5" d="M787.25,-61.49C785.96,-60.3 784.64,-59.08 783.32,-57.85"/>
<polygon fill="#666666" stroke="#666666" stroke-width="1.5" points="784.69,-56.26 778.86,-53.73 781.84,-59.35 784.69,-56.26"/>
</a>
</g>
</g>
<!-- uesugi_shigefusa -->
<g id="node49" class="node">
<title>uesugi_shigefusa</title>
<g id="a_node49"><a xlink:href="https://ja.wikipedia.org/wiki/上杉重房" xlink:title="有力御家人。幕府の重臣。" target="_blank">
<polygon fill="#fcfcfc" stroke="#fcfcfc" stroke-width="0.1" points="799.54,-550.08 698.54,-550.08 698.54,-528.08 799.54,-528.08 799.54,-550.08"/>
<text text-anchor="middle" x="749.04" y="-535.38" font-family="sans-serif" font-size="14.00" fill="#444444">上杉重房</text>
</a>
</g>
</g>
<!-- uesugi_shigefusa&#45;&gt;hojo_takatoki -->
<g id="edge16" class="edge">
<title>uesugi_shigefusa&#45;&gt;hojo_takatoki</title>
<g id="a_edge16"><a xlink:title="北条氏を支える重臣。">
<path fill="none" stroke="#005500" stroke-width="2.8" d="M698.25,-535.67C681.96,-534.58 663.75,-533.35 646.8,-532.22"/>
<polygon fill="#005500" stroke="#005500" stroke-width="2.8" points="646.65,-528.7 636.44,-531.52 646.18,-535.68 646.65,-528.7"/>
</a>
</g>
</g>
</g>
</svg>
