<?xml version="1.0" encoding="UTF-8" standalone="no"?>
<!DOCTYPE svg PUBLIC "-//W3C//DTD SVG 1.1//EN"
 "http://www.w3.org/Graphics/SVG/1.1/DTD/svg11.dtd">
<!-- Generated by graphviz version 2.43.0 (0)
 -->
<!-- Title: timeline_1324_09 Pages: 1 -->
<svg width="711pt" height="573pt"
 viewBox="0.00 0.00 710.80 572.83" xmlns="http://www.w3.org/2000/svg" xmlns:xlink="http://www.w3.org/1999/xlink">
<g id="graph0" class="graph" transform="scale(1 1) rotate(0) translate(4 568.83)">
<title>timeline_1324_09</title>
<polygon fill="#ffffff" stroke="transparent" points="-4,4 -4,-568.83 706.8,-568.83 706.8,4 -4,4"/>
<!-- godaigo_tenno -->
<g id="node1" class="node">
<title>godaigo_tenno</title>
<g id="a_node1"><a xlink:href="https://ja.wikipedia.org/wiki/後醍醐天皇" xlink:title="大覚寺統。討幕を画策する。" target="_blank">
<polygon fill="#fcfcfc" stroke="#fcfcfc" stroke-width="0.1" points="181.85,-564.83 80.85,-564.83 80.85,-542.83 181.85,-542.83 181.85,-564.83"/>
<text text-anchor="middle" x="131.35" y="-550.13" font-family="sans-serif" font-size="14.00" fill="#cc0000">後醍醐天皇</text>
</a>
</g>
</g>
<!-- hino_suketomo -->
<g id="node2" class="node">
<title>hino_suketomo</title>
<g id="a_node2"><a xlink:href="https://ja.wikipedia.org/wiki/日野資朝" xlink:title="討幕計画の主要人物。" target="_blank">
<polygon fill="#fcfcfc" stroke="#fcfcfc" stroke-width="0.1" points="101,-504.47 0,-504.47 0,-482.47 101,-482.47 101,-504.47"/>
<text text-anchor="middle" x="50.5" y="-489.77" font-family="sans-serif" font-size="14.00" fill="#cc0000">日野資朝</text>
</a>
</g>
</g>
<!-- godaigo_tenno&#45;&gt;hino_suketomo -->
<g id="edge1" class="edge">
<title>godaigo_tenno&#45;&gt;hino_suketomo</title>
<g id="a_edge1"><a xlink:title="討幕計画の指令。">
<path fill="none" stroke="#cc0000" stroke-width="2.8" d="M80.42,-556.91C65.09,-555.06 49.71,-549.87 39.73,-538.02 33.32,-530.4 34.75,-524.65 38.48,-514.2"/>
<polygon fill="#cc0000" stroke="#cc0000" stroke-width="2.8" points="41.8,-515.29 41.85,-504.7 35.21,-512.95 41.8,-515.29"/>
</a>
</g>
</g>
<!-- hino_toshimoto -->
<g id="node3" class="node">
<title>hino_toshimoto</title>
<g id="a_node3"><a xlink:href="https://ja.wikipedia.org/wiki/日野俊基" xlink:title="討幕計画の主要人物。" target="_blank">
<polygon fill="#fcfcfc" stroke="#fcfcfc" stroke-width="0.1" points="143.93,-534.82 42.93,-534.82 42.93,-512.82 143.93,-512.82 143.93,-534.82"/>
<text text-anchor="middle" x="93.43" y="-520.12" font-family="sans-serif" font-size="14.00" fill="#cc0000">日野俊基</text>
</a>
</g>
</g>
<!-- godaigo_tenno&#45;&gt;hino_toshimoto -->
<g id="edge2" class="edge">
<title>godaigo_tenno&#45;&gt;hino_toshimoto</title>
<g id="a_edge2"><a xlink:title="討幕計画の指令。">
<path fill="none" stroke="#cc0000" stroke-width="2.8" d="M117.23,-542.66C116.63,-542.18 116.02,-541.7 115.41,-541.22"/>
<polygon fill="#cc0000" stroke="#cc0000" stroke-width="2.8" points="117.45,-538.37 107.44,-534.91 113.11,-543.86 117.45,-538.37"/>
</a>
</g>
</g>
<!-- madenokoji_nobufusa -->
<g id="node4" class="node">
<title>madenokoji_nobufusa</title>
<g id="a_node4"><a xlink:href="https://ja.wikipedia.org/wiki/万里小路宣房" xlink:title="後醍醐の側近。" target="_blank">
<polygon fill="#fcfcfc" stroke="#fcfcfc" stroke-width="0.1" points="226.48,-496.77 125.48,-496.77 125.48,-474.77 226.48,-474.77 226.48,-496.77"/>
<text text-anchor="middle" x="175.98" y="-482.07" font-family="sans-serif" font-size="14.00" fill="#000000">万里小路宣房</text>
</a>
</g>
</g>
<!-- godaigo_tenno&#45;&gt;madenokoji_nobufusa -->
<g id="edge3" class="edge">
<title>godaigo_tenno&#45;&gt;madenokoji_nobufusa</title>
<g id="a_edge3"><a xlink:title="後醍醐の側近。">
<path fill="none" stroke="#cc0000" stroke-width="2.8" d="M144.48,-542.48C145.53,-541.08 146.44,-539.58 147.13,-538.02 149.64,-532.34 146.82,-518.06 148.91,-506.51"/>
<polygon fill="#cc0000" stroke="#cc0000" stroke-width="2.8" points="152.25,-507.6 152.52,-497 145.7,-505.12 152.25,-507.6"/>
</a>
</g>
</g>
<!-- horikawa_tomochika -->
<g id="node5" class="node">
<title>horikawa_tomochika</title>
<g id="a_node5"><a xlink:href="https://ja.wikipedia.org/wiki/堀川具親" xlink:title="公卿。" target="_blank">
<polygon fill="#fcfcfc" stroke="#fcfcfc" stroke-width="0.1" points="133.05,-466.76 32.05,-466.76 32.05,-444.76 133.05,-444.76 133.05,-466.76"/>
<text text-anchor="middle" x="82.55" y="-452.06" font-family="sans-serif" font-size="14.00" fill="#000000">堀川具親</text>
</a>
</g>
</g>
<!-- godaigo_tenno&#45;&gt;horikawa_tomochika -->
<g id="edge4" class="edge">
<title>godaigo_tenno&#45;&gt;horikawa_tomochika</title>
<g id="a_edge4"><a xlink:title="宮方の公卿。">
<path fill="none" stroke="#cc0000" stroke-width="2.8" d="M144.55,-542.51C145.59,-541.1 146.48,-539.6 147.13,-538.02 148.34,-535.11 148.92,-512.23 147.13,-509.62 140.44,-499.85 131.98,-506.77 122.28,-499.97 112.28,-492.96 112.36,-488.37 104.2,-479.27 102.87,-477.79 101.48,-476.25 100.08,-474.71"/>
<polygon fill="#cc0000" stroke="#cc0000" stroke-width="2.8" points="102.52,-472.19 93.18,-467.19 97.36,-476.92 102.52,-472.19"/>
</a>
</g>
</g>
<!-- gofushimi_in -->
<g id="node6" class="node">
<title>gofushimi_in</title>
<g id="a_node6"><a xlink:href="https://ja.wikipedia.org/wiki/後伏見天皇" xlink:title="持明院統。幕府の支持を受ける。" target="_blank">
<polygon fill="#fcfcfc" stroke="#fcfcfc" stroke-width="0.1" points="303.71,-556.86 202.71,-556.86 202.71,-534.86 303.71,-534.86 303.71,-556.86"/>
<text text-anchor="middle" x="253.21" y="-542.16" font-family="sans-serif" font-size="14.00" fill="#0000cc">後伏見院</text>
</a>
</g>
</g>
<!-- hanazono_in -->
<g id="node7" class="node">
<title>hanazono_in</title>
<g id="a_node7"><a xlink:href="https://ja.wikipedia.org/wiki/花園天皇" xlink:title="持明院統。" target="_blank">
<polygon fill="#fcfcfc" stroke="#fcfcfc" stroke-width="0.1" points="253,-526.78 152,-526.78 152,-504.78 253,-504.78 253,-526.78"/>
<text text-anchor="middle" x="202.5" y="-512.08" font-family="sans-serif" font-size="14.00" fill="#0000cc">花園院</text>
</a>
</g>
</g>
<!-- gofushimi_in&#45;&gt;hanazono_in -->
<g id="edge11" class="edge">
<title>gofushimi_in&#45;&gt;hanazono_in</title>
<g id="a_edge11"><a xlink:title="持明院統の連携。">
<path fill="none" stroke="#0000aa" stroke-width="2" d="M234.62,-534.83C232.55,-533.61 230.42,-532.34 228.28,-531.07"/>
<polygon fill="#0000aa" stroke="#0000aa" stroke-width="2" points="229.4,-528.48 221.09,-526.81 226.54,-533.3 229.4,-528.48"/>
</a>
</g>
</g>
<!-- gofukakusa_in -->
<g id="node8" class="node">
<title>gofukakusa_in</title>
<g id="a_node8"><a xlink:href="https://ja.wikipedia.org/wiki/後深草天皇" xlink:title="持明院統。既に故人。" target="_blank">
<polygon fill="#fcfcfc" stroke="#fcfcfc" stroke-width="0.1" points="362.01,-507.1 261.01,-507.1 261.01,-485.1 362.01,-485.1 362.01,-507.1"/>
<text text-anchor="middle" x="311.51" y="-492.4" font-family="sans-serif" font-size="14.00" fill="#aaaaaa">後深草院</text>
</a>
</g>
</g>
<!-- hojo_takatoki -->
<g id="node9" class="node">
<title>hojo_takatoki</title>
<g id="a_node9"><a xlink:href="https://ja.wikipedia.org/wiki/北条高時" xlink:title="鎌倉幕府得宗。" target="_blank">
<polygon fill="#fcfcfc" stroke="#fcfcfc" stroke-width="0.1" points="534.71,-475.78 433.71,-475.78 433.71,-453.78 534.71,-453.78 534.71,-475.78"/>
<text text-anchor="middle" x="484.21" y="-461.08" font-family="sans-serif" font-size="14.00" fill="#004400">北条高時</text>
</a>
</g>
</g>
<!-- nagasaki_takasuke -->
<g id="node11" class="node">
<title>nagasaki_takasuke</title>
<g id="a_node11"><a xlink:href="https://ja.wikipedia.org/wiki/長崎高資" xlink:title="鎌倉幕府内管領。" target="_blank">
<polygon fill="#fcfcfc" stroke="#fcfcfc" stroke-width="0.1" points="442.23,-295.04 341.23,-295.04 341.23,-273.04 442.23,-273.04 442.23,-295.04"/>
<text text-anchor="middle" x="391.73" y="-280.34" font-family="sans-serif" font-size="14.00" fill="#004400">長崎高資</text>
</a>
</g>
</g>
<!-- hojo_takatoki&#45;&gt;nagasaki_takasuke -->
<g id="edge5" class="edge">
<title>hojo_takatoki&#45;&gt;nagasaki_takasuke</title>
<g id="a_edge5"><a xlink:title="幕府の支配体制。">
<path fill="none" stroke="#005500" stroke-width="2.8" d="M475.52,-453.73C459.74,-433.16 426.25,-387.11 407.24,-343.42 401.96,-331.27 398.15,-316.93 395.63,-305.38"/>
<polygon fill="#005500" stroke="#005500" stroke-width="2.8" points="399.01,-304.43 393.6,-295.33 392.14,-305.82 399.01,-304.43"/>
</a>
</g>
</g>
<!-- nagasaki_enki -->
<g id="node12" class="node">
<title>nagasaki_enki</title>
<g id="a_node12"><a xlink:href="https://ja.wikipedia.org/wiki/長崎円喜" xlink:title="鎌倉幕府内管領。" target="_blank">
<polygon fill="#fcfcfc" stroke="#fcfcfc" stroke-width="0.1" points="374.75,-265 273.75,-265 273.75,-243 374.75,-243 374.75,-265"/>
<text text-anchor="middle" x="324.25" y="-250.3" font-family="sans-serif" font-size="14.00" fill="#004400">長崎円喜</text>
</a>
</g>
</g>
<!-- hojo_takatoki&#45;&gt;nagasaki_enki -->
<g id="edge6" class="edge">
<title>hojo_takatoki&#45;&gt;nagasaki_enki</title>
<g id="a_edge6"><a xlink:title="幕府の支配体制。">
<path fill="none" stroke="#005500" stroke-width="2.8" d="M471.26,-453.62C443.04,-428.61 375.48,-365.01 338.03,-298.24 334.02,-291.09 331.01,-282.62 328.85,-275.01"/>
<polygon fill="#005500" stroke="#005500" stroke-width="2.8" points="332.18,-273.9 326.34,-265.06 325.4,-275.61 332.18,-273.9"/>
</a>
</g>
</g>
<!-- uesugi_shigefusa -->
<g id="node13" class="node">
<title>uesugi_shigefusa</title>
<g id="a_node13"><a xlink:href="https://ja.wikipedia.org/wiki/上杉重房" xlink:title="有力御家人。" target="_blank">
<polygon fill="#fcfcfc" stroke="#fcfcfc" stroke-width="0.1" points="656.39,-496.13 555.39,-496.13 555.39,-474.13 656.39,-474.13 656.39,-496.13"/>
<text text-anchor="middle" x="605.89" y="-481.43" font-family="sans-serif" font-size="14.00" fill="#444444">上杉重房</text>
</a>
</g>
</g>
<!-- hojo_takatoki&#45;&gt;uesugi_shigefusa -->
<g id="edge7" class="edge">
<title>hojo_takatoki&#45;&gt;uesugi_shigefusa</title>
<g id="a_edge7"><a xlink:title="鎌倉幕府の有力御家人。">
<path fill="none" stroke="#005500" stroke-width="2.8" d="M534.76,-473.24C538.26,-473.82 541.81,-474.41 545.35,-475.01"/>
<polygon fill="#005500" stroke="#005500" stroke-width="2.8" points="544.87,-478.47 555.31,-476.67 546.02,-471.57 544.87,-478.47"/>
</a>
</g>
</g>
<!-- hojo_sadatoki -->
<g id="node10" class="node">
<title>hojo_sadatoki</title>
<g id="a_node10"><a xlink:href="https://ja.wikipedia.org/wiki/北条貞時" xlink:title="鎌倉幕府得宗。既に故人。" target="_blank">
<polygon fill="#fcfcfc" stroke="#fcfcfc" stroke-width="0.1" points="479.14,-505.78 378.14,-505.78 378.14,-483.78 479.14,-483.78 479.14,-505.78"/>
<text text-anchor="middle" x="428.64" y="-491.08" font-family="sans-serif" font-size="14.00" fill="#aaaaaa">北条貞時</text>
</a>
</g>
</g>
<!-- ando_suehisa -->
<g id="node14" class="node">
<title>ando_suehisa</title>
<g id="a_node14"><a xlink:href="https://ja.wikipedia.org/wiki/安藤氏_(鎌倉時代)" xlink:title="安藤氏の乱当事者。" target="_blank">
<polygon fill="#fcfcfc" stroke="#fcfcfc" stroke-width="0.1" points="609,-376.56 508,-376.56 508,-354.56 609,-354.56 609,-376.56"/>
<text text-anchor="middle" x="558.5" y="-361.86" font-family="sans-serif" font-size="14.00" fill="#000000">安藤季長</text>
</a>
</g>
</g>
<!-- ando_suesada -->
<g id="node15" class="node">
<title>ando_suesada</title>
<g id="a_node15"><a xlink:href="https://ja.wikipedia.org/wiki/安藤氏_(鎌倉時代)" xlink:title="安藤氏の乱当事者。" target="_blank">
<polygon fill="#fcfcfc" stroke="#fcfcfc" stroke-width="0.1" points="632.41,-346.56 531.41,-346.56 531.41,-324.56 632.41,-324.56 632.41,-346.56"/>
<text text-anchor="middle" x="581.91" y="-331.86" font-family="sans-serif" font-size="14.00" fill="#000000">安藤季貞</text>
</a>
</g>
</g>
<!-- ando_suehisa&#45;&gt;ando_suesada -->
<g id="edge12" class="edge">
<title>ando_suehisa&#45;&gt;ando_suesada</title>
<g id="a_edge12"><a xlink:title="安藤氏一門。">
<path fill="none" stroke="#666666" stroke-width="1.5" d="M567.22,-354.39C567.96,-353.44 568.72,-352.47 569.48,-351.49"/>
<polygon fill="#666666" stroke="#666666" stroke-width="1.5" points="571.23,-352.66 573.26,-346.64 567.92,-350.08 571.23,-352.66"/>
</a>
</g>
</g>
<!-- ashikaga_takauji -->
<g id="node16" class="node">
<title>ashikaga_takauji</title>
<g id="a_node16"><a xlink:href="https://ja.wikipedia.org/wiki/足利尊氏" xlink:title="鎌倉幕府の有力御家人。後の尊氏。" target="_blank">
<polygon fill="#fcfcfc" stroke="#fcfcfc" stroke-width="0.1" points="460.93,-223.72 359.93,-223.72 359.93,-201.72 460.93,-201.72 460.93,-223.72"/>
<text text-anchor="middle" x="410.43" y="-209.02" font-family="sans-serif" font-size="14.00" fill="#000000">足利高氏</text>
</a>
</g>
</g>
<!-- ashikaga_takauji&#45;&gt;hojo_takatoki -->
<g id="edge8" class="edge">
<title>ashikaga_takauji&#45;&gt;hojo_takatoki</title>
<g id="a_edge8"><a xlink:title="将軍への忠誠。">
<path fill="none" stroke="#555555" stroke-width="2" d="M428.7,-223.83C453.62,-240.2 497.18,-273.4 514.64,-315.02 519.52,-326.65 520.08,-332.03 514.64,-343.42 512.22,-348.49 507.67,-346.53 504.8,-351.36 487.32,-380.82 484.01,-421.58 483.74,-445.36"/>
<polygon fill="#555555" stroke="#555555" stroke-width="2" points="480.94,-445.6 483.76,-453.59 486.54,-445.58 480.94,-445.6"/>
</a>
</g>
</g>
<!-- sasaki_doyo -->
<g id="node17" class="node">
<title>sasaki_doyo</title>
<g id="a_node17"><a xlink:href="https://ja.wikipedia.org/wiki/佐々木道誉" xlink:title="幕府の有力御家人。" target="_blank">
<polygon fill="#fcfcfc" stroke="#fcfcfc" stroke-width="0.1" points="427.48,-92.14 326.48,-92.14 326.48,-70.14 427.48,-70.14 427.48,-92.14"/>
<text text-anchor="middle" x="376.98" y="-77.44" font-family="sans-serif" font-size="14.00" fill="#000000">佐々木道誉</text>
</a>
</g>
</g>
<!-- sasaki_doyo&#45;&gt;hojo_takatoki -->
<g id="edge9" class="edge">
<title>sasaki_doyo&#45;&gt;hojo_takatoki</title>
<g id="a_edge9"><a xlink:title="幕府御家人としての関係。">
<path fill="none" stroke="#555555" stroke-width="2" d="M387.18,-92.15C415.54,-123.73 494.64,-218.6 514.64,-315.02 517.2,-327.37 520.08,-332.03 514.64,-343.42 512.22,-348.49 507.67,-346.53 504.8,-351.36 487.32,-380.82 484.01,-421.58 483.74,-445.36"/>
<polygon fill="#555555" stroke="#555555" stroke-width="2" points="480.94,-445.6 483.76,-453.59 486.54,-445.58 480.94,-445.6"/>
</a>
</g>
</g>
<!-- toki_yorisada -->
<g id="node18" class="node">
<title>toki_yorisada</title>
<g id="a_node18"><a xlink:href="https://ja.wikipedia.org/wiki/土岐頼貞" xlink:title="有力武士。" target="_blank">
<polygon fill="#fcfcfc" stroke="#fcfcfc" stroke-width="0.1" points="511.44,-340.22 410.44,-340.22 410.44,-318.22 511.44,-318.22 511.44,-340.22"/>
<text text-anchor="middle" x="460.94" y="-325.52" font-family="sans-serif" font-size="14.00" fill="#444444">土岐頼貞</text>
</a>
</g>
</g>
<!-- toki_yorisada&#45;&gt;hojo_takatoki -->
<g id="edge10" class="edge">
<title>toki_yorisada&#45;&gt;hojo_takatoki</title>
<g id="a_edge10"><a xlink:title="有力武士。">
<path fill="none" stroke="#555555" stroke-width="2" d="M462.84,-340.31C466.8,-363.35 475.94,-416.62 480.89,-445.44"/>
<polygon fill="#555555" stroke="#555555" stroke-width="2" points="478.17,-446.12 482.28,-453.53 483.68,-445.17 478.17,-446.12"/>
</a>
</g>
</g>
<!-- shimazu_sadahisa -->
<g id="node19" class="node">
<title>shimazu_sadahisa</title>
<g id="a_node19"><a xlink:href="https://ja.wikipedia.org/wiki/島津貞久" xlink:title="有力武士。" target="_blank">
<polygon fill="#fcfcfc" stroke="#fcfcfc" stroke-width="0.1" points="128.04,-22 27.04,-22 27.04,0 128.04,0 128.04,-22"/>
<text text-anchor="middle" x="77.54" y="-7.3" font-family="sans-serif" font-size="14.00" fill="#444444">島津貞久</text>
</a>
</g>
</g>
<!-- ouchi_nagahiro -->
<g id="node20" class="node">
<title>ouchi_nagahiro</title>
<g id="a_node20"><a xlink:href="https://ja.wikipedia.org/wiki/大内長弘" xlink:title="有力武士。" target="_blank">
<polygon fill="#fcfcfc" stroke="#fcfcfc" stroke-width="0.1" points="229.4,-157.77 128.4,-157.77 128.4,-135.77 229.4,-135.77 229.4,-157.77"/>
<text text-anchor="middle" x="178.9" y="-143.07" font-family="sans-serif" font-size="14.00" fill="#444444">大内長弘</text>
</a>
</g>
</g>
<!-- shimazu_sadahisa&#45;&gt;ouchi_nagahiro -->
<g id="edge14" class="edge">
<title>shimazu_sadahisa&#45;&gt;ouchi_nagahiro</title>
<g id="a_edge14"><a xlink:title="諸国の有力武士。">
<path fill="none" stroke="#666666" stroke-width="1.5" d="M85.83,-22.11C103.73,-46.08 146.02,-102.72 166.86,-130.64"/>
<polygon fill="#666666" stroke="#666666" stroke-width="1.5" points="165.22,-131.96 170.49,-135.51 168.59,-129.44 165.22,-131.96"/>
</a>
</g>
</g>
<!-- muso_soseki -->
<g id="node21" class="node">
<title>muso_soseki</title>
<g id="a_node21"><a xlink:href="https://ja.wikipedia.org/wiki/夢窓疎石" xlink:title="禅僧。" target="_blank">
<polygon fill="#fcfcfc" stroke="#fcfcfc" stroke-width="0.1" points="702.8,-87.62 601.8,-87.62 601.8,-65.62 702.8,-65.62 702.8,-87.62"/>
<text text-anchor="middle" x="652.3" y="-72.92" font-family="sans-serif" font-size="14.00" fill="#444444">夢窓疎石</text>
</a>
</g>
</g>
<!-- monbun_kenshin -->
<g id="node22" class="node">
<title>monbun_kenshin</title>
<g id="a_node22"><a xlink:href="https://ja.wikipedia.org/wiki/聞文謙信" xlink:title="僧侶。" target="_blank">
<polygon fill="#fcfcfc" stroke="#fcfcfc" stroke-width="0.1" points="669.64,-57.61 568.64,-57.61 568.64,-35.61 669.64,-35.61 669.64,-57.61"/>
<text text-anchor="middle" x="619.14" y="-42.91" font-family="sans-serif" font-size="14.00" fill="#444444">聞文謙信</text>
</a>
</g>
</g>
<!-- muso_soseki&#45;&gt;monbun_kenshin -->
<g id="edge13" class="edge">
<title>muso_soseki&#45;&gt;monbun_kenshin</title>
<g id="a_edge13"><a xlink:title="禅僧と僧侶。">
<path fill="none" stroke="#666666" stroke-width="1.5" d="M639.96,-65.45C638.64,-64.26 637.3,-63.04 635.94,-61.82"/>
<polygon fill="#666666" stroke="#666666" stroke-width="1.5" points="637.25,-60.17 631.39,-57.7 634.43,-63.28 637.25,-60.17"/>
</a>
</g>
</g>
</g>
</svg>
