<?xml version="1.0" encoding="UTF-8" standalone="no"?>
<!DOCTYPE svg PUBLIC "-//W3C//DTD SVG 1.1//EN"
 "http://www.w3.org/Graphics/SVG/1.1/DTD/svg11.dtd">
<!-- Generated by graphviz version 2.43.0 (0)
 -->
<!-- Title: timeline_1326_03 Pages: 1 -->
<svg width="706pt" height="572pt"
 viewBox="0.00 0.00 705.54 571.72" xmlns="http://www.w3.org/2000/svg" xmlns:xlink="http://www.w3.org/1999/xlink">
<g id="graph0" class="graph" transform="scale(1 1) rotate(0) translate(4 567.72)">
<title>timeline_1326_03</title>
<polygon fill="#ffffff" stroke="transparent" points="-4,4 -4,-567.72 701.54,-567.72 701.54,4 -4,4"/>
<!-- godaigo_tenno -->
<g id="node1" class="node">
<title>godaigo_tenno</title>
<g id="a_node1"><a xlink:href="https://ja.wikipedia.org/wiki/後醍醐天皇" xlink:title="大覚寺統。討幕を画策する。" target="_blank">
<polygon fill="#fcfcfc" stroke="#fcfcfc" stroke-width="0.1" points="178.8,-563.72 77.8,-563.72 77.8,-541.72 178.8,-541.72 178.8,-563.72"/>
<text text-anchor="middle" x="128.3" y="-549.02" font-family="sans-serif" font-size="14.00" fill="#cc0000">後醍醐天皇</text>
</a>
</g>
</g>
<!-- hino_suketomo -->
<g id="node2" class="node">
<title>hino_suketomo</title>
<g id="a_node2"><a xlink:href="https://ja.wikipedia.org/wiki/日野資朝" xlink:title="討幕計画の主要人物。" target="_blank">
<polygon fill="#fcfcfc" stroke="#fcfcfc" stroke-width="0.1" points="101,-503.64 0,-503.64 0,-481.64 101,-481.64 101,-503.64"/>
<text text-anchor="middle" x="50.5" y="-488.94" font-family="sans-serif" font-size="14.00" fill="#cc0000">日野資朝</text>
</a>
</g>
</g>
<!-- godaigo_tenno&#45;&gt;hino_suketomo -->
<g id="edge1" class="edge">
<title>godaigo_tenno&#45;&gt;hino_suketomo</title>
<g id="a_edge1"><a xlink:title="討幕計画の指令。">
<path fill="none" stroke="#cc0000" stroke-width="2.8" d="M77.35,-555.07C63.21,-553 49.22,-547.87 40.03,-536.88 33.64,-529.24 35.08,-523.5 38.76,-513.11"/>
<polygon fill="#cc0000" stroke="#cc0000" stroke-width="2.8" points="42.07,-514.25 42.09,-503.66 35.47,-511.93 42.07,-514.25"/>
</a>
</g>
</g>
<!-- hino_toshimoto -->
<g id="node3" class="node">
<title>hino_toshimoto</title>
<g id="a_node3"><a xlink:href="https://ja.wikipedia.org/wiki/日野俊基" xlink:title="討幕計画の主要人物。" target="_blank">
<polygon fill="#fcfcfc" stroke="#fcfcfc" stroke-width="0.1" points="144.23,-533.68 43.23,-533.68 43.23,-511.68 144.23,-511.68 144.23,-533.68"/>
<text text-anchor="middle" x="93.73" y="-518.98" font-family="sans-serif" font-size="14.00" fill="#cc0000">日野俊基</text>
</a>
</g>
</g>
<!-- godaigo_tenno&#45;&gt;hino_toshimoto -->
<g id="edge2" class="edge">
<title>godaigo_tenno&#45;&gt;hino_toshimoto</title>
<g id="a_edge2"><a xlink:title="討幕計画の指令。">
<path fill="none" stroke="#cc0000" stroke-width="2.8" d="M115.43,-541.53C114.97,-541.14 114.51,-540.74 114.05,-540.33"/>
<polygon fill="#cc0000" stroke="#cc0000" stroke-width="2.8" points="116.35,-537.69 106.5,-533.78 111.75,-542.98 116.35,-537.69"/>
</a>
</g>
</g>
<!-- madenokoji_nobufusa -->
<g id="node4" class="node">
<title>madenokoji_nobufusa</title>
<g id="a_node4"><a xlink:href="https://ja.wikipedia.org/wiki/万里小路宣房" xlink:title="後醍醐の側近。" target="_blank">
<polygon fill="#fcfcfc" stroke="#fcfcfc" stroke-width="0.1" points="222.8,-500.63 121.8,-500.63 121.8,-478.63 222.8,-478.63 222.8,-500.63"/>
<text text-anchor="middle" x="172.3" y="-485.93" font-family="sans-serif" font-size="14.00" fill="#000000">万里小路宣房</text>
</a>
</g>
</g>
<!-- godaigo_tenno&#45;&gt;madenokoji_nobufusa -->
<g id="edge3" class="edge">
<title>godaigo_tenno&#45;&gt;madenokoji_nobufusa</title>
<g id="a_edge3"><a xlink:title="後醍醐の側近。">
<path fill="none" stroke="#cc0000" stroke-width="2.8" d="M143.13,-541.56C144.68,-540.08 146.15,-538.51 147.43,-536.88 155.28,-526.95 155.7,-521.45 161.01,-509.8"/>
<polygon fill="#cc0000" stroke="#cc0000" stroke-width="2.8" points="164.26,-511.14 165.63,-500.63 158.01,-507.99 164.26,-511.14"/>
</a>
</g>
</g>
<!-- horikawa_tomochika -->
<g id="node5" class="node">
<title>horikawa_tomochika</title>
<g id="a_node5"><a xlink:href="https://ja.wikipedia.org/wiki/堀川具親" xlink:title="公卿。" target="_blank">
<polygon fill="#fcfcfc" stroke="#fcfcfc" stroke-width="0.1" points="135.32,-470.63 34.32,-470.63 34.32,-448.63 135.32,-448.63 135.32,-470.63"/>
<text text-anchor="middle" x="84.82" y="-455.93" font-family="sans-serif" font-size="14.00" fill="#000000">堀川具親</text>
</a>
</g>
</g>
<!-- godaigo_tenno&#45;&gt;horikawa_tomochika -->
<g id="edge4" class="edge">
<title>godaigo_tenno&#45;&gt;horikawa_tomochika</title>
<g id="a_edge4"><a xlink:title="宮方の公卿。">
<path fill="none" stroke="#cc0000" stroke-width="2.8" d="M144.27,-541.66C145.53,-540.19 146.63,-538.6 147.43,-536.88 152.81,-525.46 155.62,-518.09 147.43,-508.48 139.02,-498.6 129.26,-511.24 118.6,-503.83 107.95,-496.42 112.13,-488.7 104.2,-478.44 104.14,-478.36 104.07,-478.28 104.01,-478.19"/>
<polygon fill="#cc0000" stroke="#cc0000" stroke-width="2.8" points="106.54,-475.78 97.26,-470.67 101.33,-480.46 106.54,-475.78"/>
</a>
</g>
</g>
<!-- gofushimi_in -->
<g id="node6" class="node">
<title>gofushimi_in</title>
<g id="a_node6"><a xlink:href="https://ja.wikipedia.org/wiki/後伏見天皇" xlink:title="持明院統。幕府の支持を受ける。" target="_blank">
<polygon fill="#fcfcfc" stroke="#fcfcfc" stroke-width="0.1" points="317.51,-560.67 216.51,-560.67 216.51,-538.67 317.51,-538.67 317.51,-560.67"/>
<text text-anchor="middle" x="267.01" y="-545.97" font-family="sans-serif" font-size="14.00" fill="#0000cc">後伏見院</text>
</a>
</g>
</g>
<!-- hanazono_in -->
<g id="node7" class="node">
<title>hanazono_in</title>
<g id="a_node7"><a xlink:href="https://ja.wikipedia.org/wiki/花園天皇" xlink:title="持明院統。" target="_blank">
<polygon fill="#fcfcfc" stroke="#fcfcfc" stroke-width="0.1" points="267.12,-530.65 166.12,-530.65 166.12,-508.65 267.12,-508.65 267.12,-530.65"/>
<text text-anchor="middle" x="216.62" y="-515.95" font-family="sans-serif" font-size="14.00" fill="#0000cc">花園院</text>
</a>
</g>
</g>
<!-- gofushimi_in&#45;&gt;hanazono_in -->
<g id="edge11" class="edge">
<title>gofushimi_in&#45;&gt;hanazono_in</title>
<g id="a_edge11"><a xlink:title="持明院統の連携。">
<path fill="none" stroke="#0000aa" stroke-width="2" d="M248.53,-538.66C246.47,-537.44 244.36,-536.18 242.23,-534.91"/>
<polygon fill="#0000aa" stroke="#0000aa" stroke-width="2" points="243.4,-532.35 235.09,-530.66 240.53,-537.16 243.4,-532.35"/>
</a>
</g>
</g>
<!-- hojo_takatoki -->
<g id="node8" class="node">
<title>hojo_takatoki</title>
<g id="a_node8"><a xlink:href="https://ja.wikipedia.org/wiki/北条高時" xlink:title="鎌倉幕府得宗。" target="_blank">
<polygon fill="#fcfcfc" stroke="#fcfcfc" stroke-width="0.1" points="521.55,-493.48 420.55,-493.48 420.55,-471.48 521.55,-471.48 521.55,-493.48"/>
<text text-anchor="middle" x="471.05" y="-478.78" font-family="sans-serif" font-size="14.00" fill="#004400">北条高時</text>
</a>
</g>
</g>
<!-- nagasaki_takasuke -->
<g id="node9" class="node">
<title>nagasaki_takasuke</title>
<g id="a_node9"><a xlink:href="https://ja.wikipedia.org/wiki/長崎高資" xlink:title="鎌倉幕府内管領。" target="_blank">
<polygon fill="#fcfcfc" stroke="#fcfcfc" stroke-width="0.1" points="438.39,-297.36 337.39,-297.36 337.39,-275.36 438.39,-275.36 438.39,-297.36"/>
<text text-anchor="middle" x="387.89" y="-282.66" font-family="sans-serif" font-size="14.00" fill="#004400">長崎高資</text>
</a>
</g>
</g>
<!-- hojo_takatoki&#45;&gt;nagasaki_takasuke -->
<g id="edge5" class="edge">
<title>hojo_takatoki&#45;&gt;nagasaki_takasuke</title>
<g id="a_edge5"><a xlink:title="幕府の支配体制。">
<path fill="none" stroke="#005500" stroke-width="2.8" d="M464.4,-471.3C451.17,-448.64 421.28,-395.39 403.43,-347.5 398.57,-334.45 394.71,-319.29 392.05,-307.33"/>
<polygon fill="#005500" stroke="#005500" stroke-width="2.8" points="395.44,-306.46 389.95,-297.4 388.59,-307.91 395.44,-306.46"/>
</a>
</g>
</g>
<!-- nagasaki_enki -->
<g id="node10" class="node">
<title>nagasaki_enki</title>
<g id="a_node10"><a xlink:href="https://ja.wikipedia.org/wiki/長崎円喜" xlink:title="鎌倉幕府内管領。" target="_blank">
<polygon fill="#fcfcfc" stroke="#fcfcfc" stroke-width="0.1" points="370.89,-267.33 269.89,-267.33 269.89,-245.33 370.89,-245.33 370.89,-267.33"/>
<text text-anchor="middle" x="320.39" y="-252.63" font-family="sans-serif" font-size="14.00" fill="#004400">長崎円喜</text>
</a>
</g>
</g>
<!-- hojo_takatoki&#45;&gt;nagasaki_enki -->
<g id="edge6" class="edge">
<title>hojo_takatoki&#45;&gt;nagasaki_enki</title>
<g id="a_edge6"><a xlink:title="幕府の支配体制。">
<path fill="none" stroke="#005500" stroke-width="2.8" d="M460.21,-471.1C434.77,-443.8 370.61,-371.61 334.19,-300.56 330.5,-293.36 327.58,-284.99 325.39,-277.48"/>
<polygon fill="#005500" stroke="#005500" stroke-width="2.8" points="328.73,-276.42 322.79,-267.65 321.97,-278.21 328.73,-276.42"/>
</a>
</g>
</g>
<!-- uesugi_shigefusa -->
<g id="node11" class="node">
<title>uesugi_shigefusa</title>
<g id="a_node11"><a xlink:href="https://ja.wikipedia.org/wiki/上杉重房" xlink:title="有力御家人。" target="_blank">
<polygon fill="#fcfcfc" stroke="#fcfcfc" stroke-width="0.1" points="653.32,-501.41 552.32,-501.41 552.32,-479.41 653.32,-479.41 653.32,-501.41"/>
<text text-anchor="middle" x="602.82" y="-486.71" font-family="sans-serif" font-size="14.00" fill="#444444">上杉重房</text>
</a>
</g>
</g>
<!-- hojo_takatoki&#45;&gt;uesugi_shigefusa -->
<g id="edge7" class="edge">
<title>hojo_takatoki&#45;&gt;uesugi_shigefusa</title>
<g id="a_edge7"><a xlink:title="鎌倉幕府の有力御家人。">
<path fill="none" stroke="#005500" stroke-width="2.8" d="M521.62,-485.52C528.34,-485.93 535.3,-486.35 542.18,-486.76"/>
<polygon fill="#005500" stroke="#005500" stroke-width="2.8" points="541.97,-490.26 552.16,-487.36 542.39,-483.27 541.97,-490.26"/>
</a>
</g>
</g>
<!-- ando_suehisa -->
<g id="node12" class="node">
<title>ando_suehisa</title>
<g id="a_node12"><a xlink:href="https://ja.wikipedia.org/wiki/安藤氏_(鎌倉時代)" xlink:title="安藤氏の乱当事者。" target="_blank">
<polygon fill="#fcfcfc" stroke="#fcfcfc" stroke-width="0.1" points="604.34,-378.5 503.34,-378.5 503.34,-356.5 604.34,-356.5 604.34,-378.5"/>
<text text-anchor="middle" x="553.84" y="-363.8" font-family="sans-serif" font-size="14.00" fill="#000000">安藤季長</text>
</a>
</g>
</g>
<!-- ando_suesada -->
<g id="node13" class="node">
<title>ando_suesada</title>
<g id="a_node13"><a xlink:href="https://ja.wikipedia.org/wiki/安藤氏_(鎌倉時代)" xlink:title="安藤氏の乱当事者。" target="_blank">
<polygon fill="#fcfcfc" stroke="#fcfcfc" stroke-width="0.1" points="627.73,-348.45 526.73,-348.45 526.73,-326.45 627.73,-326.45 627.73,-348.45"/>
<text text-anchor="middle" x="577.23" y="-333.75" font-family="sans-serif" font-size="14.00" fill="#000000">安藤季貞</text>
</a>
</g>
</g>
<!-- ando_suehisa&#45;&gt;ando_suesada -->
<g id="edge12" class="edge">
<title>ando_suehisa&#45;&gt;ando_suesada</title>
<g id="a_edge12"><a xlink:title="安藤氏一門。">
<path fill="none" stroke="#666666" stroke-width="1.5" d="M562.55,-356.31C563.29,-355.36 564.05,-354.38 564.81,-353.41"/>
<polygon fill="#666666" stroke="#666666" stroke-width="1.5" points="566.57,-354.57 568.59,-348.55 563.25,-351.99 566.57,-354.57"/>
</a>
</g>
</g>
<!-- ashikaga_takauji -->
<g id="node14" class="node">
<title>ashikaga_takauji</title>
<g id="a_node14"><a xlink:href="https://ja.wikipedia.org/wiki/足利尊氏" xlink:title="鎌倉幕府の有力御家人。後の尊氏。" target="_blank">
<polygon fill="#fcfcfc" stroke="#fcfcfc" stroke-width="0.1" points="456.96,-226.6 355.96,-226.6 355.96,-204.6 456.96,-204.6 456.96,-226.6"/>
<text text-anchor="middle" x="406.46" y="-211.9" font-family="sans-serif" font-size="14.00" fill="#000000">足利高氏</text>
</a>
</g>
</g>
<!-- ashikaga_takauji&#45;&gt;hojo_takatoki -->
<g id="edge8" class="edge">
<title>ashikaga_takauji&#45;&gt;hojo_takatoki</title>
<g id="a_edge8"><a xlink:title="将軍への忠誠。">
<path fill="none" stroke="#555555" stroke-width="2" d="M417.43,-226.62C432.75,-243.38 457.01,-275.94 441.59,-300.56 431.59,-316.54 413.44,-303.12 403.43,-319.1 396.74,-329.8 400.53,-335.21 403.43,-347.5 414.08,-392.54 442.21,-439.66 458.63,-464.57"/>
<polygon fill="#555555" stroke="#555555" stroke-width="2" points="456.35,-466.19 463.13,-471.27 461,-463.07 456.35,-466.19"/>
</a>
</g>
</g>
<!-- sasaki_doyo -->
<g id="node15" class="node">
<title>sasaki_doyo</title>
<g id="a_node15"><a xlink:href="https://ja.wikipedia.org/wiki/佐々木道誉" xlink:title="幕府の有力御家人。" target="_blank">
<polygon fill="#fcfcfc" stroke="#fcfcfc" stroke-width="0.1" points="422.65,-94.85 321.65,-94.85 321.65,-72.85 422.65,-72.85 422.65,-94.85"/>
<text text-anchor="middle" x="372.15" y="-80.15" font-family="sans-serif" font-size="14.00" fill="#000000">佐々木道誉</text>
</a>
</g>
</g>
<!-- sasaki_doyo&#45;&gt;hojo_takatoki -->
<g id="edge9" class="edge">
<title>sasaki_doyo&#45;&gt;hojo_takatoki</title>
<g id="a_edge9"><a xlink:title="幕府御家人としての関係。">
<path fill="none" stroke="#555555" stroke-width="2" d="M382.44,-94.92C411.05,-126.67 490.83,-222.05 510.83,-319.1 513.38,-331.46 517.29,-336.65 510.83,-347.5 508.07,-352.14 503.41,-348.99 500.14,-353.3 475.48,-385.92 471.04,-435.58 470.63,-462.85"/>
<polygon fill="#555555" stroke="#555555" stroke-width="2" points="467.83,-463.18 470.62,-471.19 473.43,-463.19 467.83,-463.18"/>
</a>
</g>
</g>
<!-- toki_yorisada -->
<g id="node16" class="node">
<title>toki_yorisada</title>
<g id="a_node16"><a xlink:href="https://ja.wikipedia.org/wiki/土岐頼貞" xlink:title="有力武士。" target="_blank">
<polygon fill="#fcfcfc" stroke="#fcfcfc" stroke-width="0.1" points="507.63,-344.3 406.63,-344.3 406.63,-322.3 507.63,-322.3 507.63,-344.3"/>
<text text-anchor="middle" x="457.13" y="-329.6" font-family="sans-serif" font-size="14.00" fill="#444444">土岐頼貞</text>
</a>
</g>
</g>
<!-- toki_yorisada&#45;&gt;hojo_takatoki -->
<g id="edge10" class="edge">
<title>toki_yorisada&#45;&gt;hojo_takatoki</title>
<g id="a_edge10"><a xlink:title="有力武士。">
<path fill="none" stroke="#555555" stroke-width="2" d="M458.18,-344.51C460.54,-369.78 466.29,-431.44 469.24,-463.07"/>
<polygon fill="#555555" stroke="#555555" stroke-width="2" points="466.46,-463.43 469.99,-471.14 472.03,-462.91 466.46,-463.43"/>
</a>
</g>
</g>
<!-- shimazu_sadahisa -->
<g id="node17" class="node">
<title>shimazu_sadahisa</title>
<g id="a_node17"><a xlink:href="https://ja.wikipedia.org/wiki/島津貞久" xlink:title="有力武士。" target="_blank">
<polygon fill="#fcfcfc" stroke="#fcfcfc" stroke-width="0.1" points="118.14,-22 17.14,-22 17.14,0 118.14,0 118.14,-22"/>
<text text-anchor="middle" x="67.64" y="-7.3" font-family="sans-serif" font-size="14.00" fill="#444444">島津貞久</text>
</a>
</g>
</g>
<!-- ouchi_nagahiro -->
<g id="node18" class="node">
<title>ouchi_nagahiro</title>
<g id="a_node18"><a xlink:href="https://ja.wikipedia.org/wiki/大内長弘" xlink:title="有力武士。" target="_blank">
<polygon fill="#fcfcfc" stroke="#fcfcfc" stroke-width="0.1" points="222.21,-158.39 121.21,-158.39 121.21,-136.39 222.21,-136.39 222.21,-158.39"/>
<text text-anchor="middle" x="171.71" y="-143.69" font-family="sans-serif" font-size="14.00" fill="#444444">大内長弘</text>
</a>
</g>
</g>
<!-- shimazu_sadahisa&#45;&gt;ouchi_nagahiro -->
<g id="edge14" class="edge">
<title>shimazu_sadahisa&#45;&gt;ouchi_nagahiro</title>
<g id="a_edge14"><a xlink:title="諸国の有力武士。">
<path fill="none" stroke="#666666" stroke-width="1.5" d="M76.16,-22.16C94.53,-46.24 137.95,-103.14 159.35,-131.19"/>
<polygon fill="#666666" stroke="#666666" stroke-width="1.5" points="157.77,-132.58 163.08,-136.07 161.11,-130.03 157.77,-132.58"/>
</a>
</g>
</g>
<!-- muso_soseki -->
<g id="node19" class="node">
<title>muso_soseki</title>
<g id="a_node19"><a xlink:href="https://ja.wikipedia.org/wiki/夢窓疎石" xlink:title="禅僧。" target="_blank">
<polygon fill="#fcfcfc" stroke="#fcfcfc" stroke-width="0.1" points="697.54,-91.28 596.54,-91.28 596.54,-69.28 697.54,-69.28 697.54,-91.28"/>
<text text-anchor="middle" x="647.04" y="-76.58" font-family="sans-serif" font-size="14.00" fill="#444444">夢窓疎石</text>
</a>
</g>
</g>
<!-- monbun_kenshin -->
<g id="node20" class="node">
<title>monbun_kenshin</title>
<g id="a_node20"><a xlink:href="https://ja.wikipedia.org/wiki/聞文謙信" xlink:title="僧侶。" target="_blank">
<polygon fill="#fcfcfc" stroke="#fcfcfc" stroke-width="0.1" points="664.3,-61.23 563.3,-61.23 563.3,-39.23 664.3,-39.23 664.3,-61.23"/>
<text text-anchor="middle" x="613.8" y="-46.53" font-family="sans-serif" font-size="14.00" fill="#444444">聞文謙信</text>
</a>
</g>
</g>
<!-- muso_soseki&#45;&gt;monbun_kenshin -->
<g id="edge13" class="edge">
<title>muso_soseki&#45;&gt;monbun_kenshin</title>
<g id="a_edge13"><a xlink:title="禅僧と僧侶。">
<path fill="none" stroke="#666666" stroke-width="1.5" d="M634.66,-69.09C633.35,-67.9 631.99,-66.68 630.64,-65.45"/>
<polygon fill="#666666" stroke="#666666" stroke-width="1.5" points="631.94,-63.79 626.08,-61.33 629.12,-66.91 631.94,-63.79"/>
</a>
</g>
</g>
</g>
</svg>
