<svg xmlns="http://www.w3.org/2000/svg" xmlns:xlink="http://www.w3.org/1999/xlink" viewBox="-53.28415367489822 -104.84521359837969 911.8736109470588 836.7591821603421">
<a xlink:title="討幕計画の指令。" >
<g class="edge" stroke="#cc0000" fill="#cc0000"><line x1="149.94" y1="-13.97" x2="11.12" y2="92.01" stroke="#cc0000" stroke-width="2.8"/><polygon points="11.12,92.01 13.99,82.42 21.12,91.77" fill="inherit" stroke="none"/></g>
</a>
<a xlink:title="討幕計画の指令。" >
<g class="edge" stroke="#cc0000" fill="#cc0000"><line x1="145.92" y1="-13.97" x2="95.31" y2="16.22" stroke="#cc0000" stroke-width="2.8"/><polygon points="95.31,16.22 99.25,7.02 105.27,17.12" fill="inherit" stroke="none"/></g>
</a>
<a xlink:title="後醍醐の側近。" >
<g class="edge" stroke="#cc0000" fill="#cc0000"><line x1="171.25" y1="-13.97" x2="261.46" y2="129.81" stroke="#cc0000" stroke-width="2.8"/><polygon points="261.46,129.81 252.18,126.08 262.14,119.83" fill="inherit" stroke="none"/></g>
</a>
<a xlink:title="宮方の公卿。" >
<g class="edge" stroke="#cc0000" fill="#cc0000"><line x1="162.55" y1="-13.97" x2="123.60" y2="223.94" stroke="#cc0000" stroke-width="2.8"/><polygon points="123.60,223.94 119.11,215.00 130.71,216.90" fill="inherit" stroke="none"/></g>
</a>
<a xlink:title="持明院統の連携。" >
<g class="edge" stroke="#0000aa" fill="#0000aa"><line x1="363.47" y1="2.62" x2="330.77" y2="29.63" stroke="#0000aa" stroke-width="2"/><polygon points="330.77,29.63 333.26,19.95 340.75,29.01" fill="inherit" stroke="none"/></g>
</a>
<a xlink:title="幕府の支配体制。" >
<g class="edge" stroke="#005500" fill="#005500"><line x1="555.70" y1="63.24" x2="490.18" y2="324.99" stroke="#005500" stroke-width="2.8"/><polygon points="490.18,324.99 486.44,315.72 497.85,318.57" fill="inherit" stroke="none"/></g>
</a>
<a xlink:title="幕府の支配体制。" >
<g class="edge" stroke="#005500" fill="#005500"><line x1="551.00" y1="63.24" x2="387.73" y2="304.07" stroke="#005500" stroke-width="2.8"/><polygon points="387.73,304.07 387.40,294.08 397.13,300.67" fill="inherit" stroke="none"/></g>
</a>
<a xlink:title="鎌倉幕府の有力御家人。" >
<g class="edge" stroke="#005500" fill="#005500"><line x1="602.66" y1="63.24" x2="694.80" y2="86.17" stroke="#005500" stroke-width="2.8"/><polygon points="694.80,86.17 685.53,89.92 688.37,78.51" fill="inherit" stroke="none"/></g>
</a>
<a xlink:title="安藤氏一門。" >
<g class="edge" stroke="#666666" fill="#666666"><line x1="543.52" y1="169.18" x2="638.59" y2="229.11" stroke="#666666" stroke-width="1.5"/><polygon points="638.59,229.11 628.61,229.77 634.88,219.83" fill="inherit" stroke="none"/></g>
</a>
<a xlink:title="将軍への忠誠。" >
<g class="edge" stroke="#555555" fill="#555555"><line x1="451.67" y1="393.93" x2="555.02" y2="63.24" stroke="#555555" stroke-width="2"/><polygon points="555.02,63.24 558.21,72.72 546.99,69.21" fill="inherit" stroke="none"/></g>
</a>
<a xlink:title="幕府御家人としての関係。" >
<g class="edge" stroke="#555555" fill="#555555"><line x1="460.42" y1="542.22" x2="556.25" y2="63.24" stroke="#555555" stroke-width="2"/><polygon points="556.25,63.24 560.43,72.33 548.90,70.02" fill="inherit" stroke="none"/></g>
</a>
<a xlink:title="有力武士。" >
<g class="edge" stroke="#555555" fill="#555555"><line x1="569.90" y1="297.69" x2="558.97" y2="63.24" stroke="#555555" stroke-width="2"/><polygon points="558.97,63.24 565.21,71.05 553.47,71.60" fill="inherit" stroke="none"/></g>
</a>
<a xlink:title="諸国の有力武士。" >
<g class="edge" stroke="#666666" fill="#666666"><line x1="132.42" y1="656.60" x2="250.45" y2="502.78" stroke="#666666" stroke-width="1.5"/><polygon points="250.45,502.78 250.19,512.78 240.86,505.62" fill="inherit" stroke="none"/></g>
</a>
<a xlink:title="禅僧と僧侶。" >
<g class="edge" stroke="#666666" fill="#666666"><line x1="767.04" y1="530.92" x2="730.78" y2="610.24" stroke="#666666" stroke-width="1.5"/><polygon points="730.78,610.24 728.80,600.43 739.49,605.32" fill="inherit" stroke="none"/></g>
</a>
<g class="node" transform="translate(164.35, -24.97)"><a xlink:href="https://ja.wikipedia.org/wiki/後醍醐天皇" xlink:title="大覚寺統。討幕を画策する。" target="_blank" ><polygon points="-50.50,-11.00 50.50,-11.00 50.50,11.00 -50.50,11.00 -50.50,-11.00" fill="#fcfcfc" stroke="#fcfcfc" stroke-width="0.1"/><text x="0" y="5" text-anchor="middle" font-family="sans-serif" font-size="14.00" fill="#cc0000">後醍醐天皇</text></a></g>
<g class="node" transform="translate(-3.28, 103.01)"><a xlink:href="https://ja.wikipedia.org/wiki/日野資朝" xlink:title="討幕計画の主要人物。" target="_blank" ><polygon points="-50.50,-11.00 50.50,-11.00 50.50,11.00 -50.50,11.00 -50.50,-11.00" fill="#fcfcfc" stroke="#fcfcfc" stroke-width="0.1"/><text x="0" y="5" text-anchor="middle" font-family="sans-serif" font-size="14.00" fill="#cc0000">日野資朝</text></a></g>
<g class="node" transform="translate(76.87, 27.22)"><a xlink:href="https://ja.wikipedia.org/wiki/日野俊基" xlink:title="討幕計画の主要人物。" target="_blank" ><polygon points="-50.50,-11.00 50.50,-11.00 50.50,11.00 -50.50,11.00 -50.50,-11.00" fill="#fcfcfc" stroke="#fcfcfc" stroke-width="0.1"/><text x="0" y="5" text-anchor="middle" font-family="sans-serif" font-size="14.00" fill="#cc0000">日野俊基</text></a></g>
<g class="node" transform="translate(268.36, 140.81)"><a xlink:href="https://ja.wikipedia.org/wiki/万里小路宣房" xlink:title="後醍醐の側近。" target="_blank" ><polygon points="-50.50,-11.00 50.50,-11.00 50.50,11.00 -50.50,11.00 -50.50,-11.00" fill="#fcfcfc" stroke="#fcfcfc" stroke-width="0.1"/><text x="0" y="5" text-anchor="middle" font-family="sans-serif" font-size="14.00" fill="#000000">万里小路宣房</text></a></g>
<g class="node" transform="translate(121.80, 234.94)"><a xlink:href="https://ja.wikipedia.org/wiki/堀川具親" xlink:title="公卿。" target="_blank" ><polygon points="-50.50,-11.00 50.50,-11.00 50.50,11.00 -50.50,11.00 -50.50,-11.00" fill="#fcfcfc" stroke="#fcfcfc" stroke-width="0.1"/><text x="0" y="5" text-anchor="middle" font-family="sans-serif" font-size="14.00" fill="#000000">堀川具親</text></a></g>
<g class="node" transform="translate(376.79, -8.38)"><a xlink:href="https://ja.wikipedia.org/wiki/後伏見天皇" xlink:title="持明院統。幕府の支持を受ける。" target="_blank" ><polygon points="-50.50,-11.00 50.50,-11.00 50.50,11.00 -50.50,11.00 -50.50,-11.00" fill="#fcfcfc" stroke="#fcfcfc" stroke-width="0.1"/><text x="0" y="5" text-anchor="middle" font-family="sans-serif" font-size="14.00" fill="#0000cc">後伏見院</text></a></g>
<g class="node" transform="translate(317.45, 40.63)"><a xlink:href="https://ja.wikipedia.org/wiki/花園天皇" xlink:title="持明院統。" target="_blank" ><polygon points="-50.50,-11.00 50.50,-11.00 50.50,11.00 -50.50,11.00 -50.50,-11.00" fill="#fcfcfc" stroke="#fcfcfc" stroke-width="0.1"/><text x="0" y="5" text-anchor="middle" font-family="sans-serif" font-size="14.00" fill="#0000cc">花園院</text></a></g>
<g class="node" transform="translate(361.21, 101.81)"><a xlink:href="https://ja.wikipedia.org/wiki/後深草天皇" xlink:title="持明院統。既に故人。" target="_blank" ><polygon points="-50.50,-11.00 50.50,-11.00 50.50,11.00 -50.50,11.00 -50.50,-11.00" fill="#fcfcfc" stroke="#fcfcfc" stroke-width="0.1"/><text x="0" y="5" text-anchor="middle" font-family="sans-serif" font-size="14.00" fill="#aaaaaa">後深草院</text></a></g>
<g class="node" transform="translate(558.45, 52.24)"><a xlink:href="https://ja.wikipedia.org/wiki/北条高時" xlink:title="鎌倉幕府得宗。" target="_blank" ><polygon points="-50.50,-11.00 50.50,-11.00 50.50,11.00 -50.50,11.00 -50.50,-11.00" fill="#fcfcfc" stroke="#fcfcfc" stroke-width="0.1"/><text x="0" y="5" text-anchor="middle" font-family="sans-serif" font-size="14.00" fill="#004400">北条高時</text></a></g>
<g class="node" transform="translate(487.43, 335.99)"><a xlink:href="https://ja.wikipedia.org/wiki/長崎高資" xlink:title="鎌倉幕府内管領。" target="_blank" ><polygon points="-50.50,-11.00 50.50,-11.00 50.50,11.00 -50.50,11.00 -50.50,-11.00" fill="#fcfcfc" stroke="#fcfcfc" stroke-width="0.1"/><text x="0" y="5" text-anchor="middle" font-family="sans-serif" font-size="14.00" fill="#004400">長崎高資</text></a></g>
<g class="node" transform="translate(380.27, 315.07)"><a xlink:href="https://ja.wikipedia.org/wiki/長崎円喜" xlink:title="鎌倉幕府内管領。" target="_blank" ><polygon points="-50.50,-11.00 50.50,-11.00 50.50,11.00 -50.50,11.00 -50.50,-11.00" fill="#fcfcfc" stroke="#fcfcfc" stroke-width="0.1"/><text x="0" y="5" text-anchor="middle" font-family="sans-serif" font-size="14.00" fill="#004400">長崎円喜</text></a></g>
<g class="node" transform="translate(739.01, 97.17)"><a xlink:href="https://ja.wikipedia.org/wiki/上杉重房" xlink:title="有力御家人。" target="_blank" ><polygon points="-50.50,-11.00 50.50,-11.00 50.50,11.00 -50.50,11.00 -50.50,-11.00" fill="#fcfcfc" stroke="#fcfcfc" stroke-width="0.1"/><text x="0" y="5" text-anchor="middle" font-family="sans-serif" font-size="14.00" fill="#444444">上杉重房</text></a></g>
<g class="node" transform="translate(448.09, 78.81)"><a xlink:href="https://ja.wikipedia.org/wiki/北条貞時" xlink:title="鎌倉幕府得宗。既に故人。" target="_blank" ><polygon points="-50.50,-11.00 50.50,-11.00 50.50,11.00 -50.50,11.00 -50.50,-11.00" fill="#fcfcfc" stroke="#fcfcfc" stroke-width="0.1"/><text x="0" y="5" text-anchor="middle" font-family="sans-serif" font-size="14.00" fill="#aaaaaa">北条貞時</text></a></g>
<g class="node" transform="translate(526.07, 158.18)"><a xlink:href="https://ja.wikipedia.org/wiki/安藤氏_(鎌倉時代)" xlink:title="安藤氏の乱当事者。" target="_blank" ><polygon points="-50.50,-11.00 50.50,-11.00 50.50,11.00 -50.50,11.00 -50.50,-11.00" fill="#fcfcfc" stroke="#fcfcfc" stroke-width="0.1"/><text x="0" y="5" text-anchor="middle" font-family="sans-serif" font-size="14.00" fill="#000000">安藤季長</text></a></g>
<g class="node" transform="translate(656.04, 240.11)"><a xlink:href="https://ja.wikipedia.org/wiki/安藤氏_(鎌倉時代)" xlink:title="安藤氏の乱当事者。" target="_blank" ><polygon points="-50.50,-11.00 50.50,-11.00 50.50,11.00 -50.50,11.00 -50.50,-11.00" fill="#fcfcfc" stroke="#fcfcfc" stroke-width="0.1"/><text x="0" y="5" text-anchor="middle" font-family="sans-serif" font-size="14.00" fill="#000000">安藤季貞</text></a></g>
<g class="node" transform="translate(448.23, 404.93)"><a xlink:href="https://ja.wikipedia.org/wiki/足利尊氏" xlink:title="鎌倉幕府の有力御家人。後の尊氏。" target="_blank" ><polygon points="-50.50,-11.00 50.50,-11.00 50.50,11.00 -50.50,11.00 -50.50,-11.00" fill="#fcfcfc" stroke="#fcfcfc" stroke-width="0.1"/><text x="0" y="5" text-anchor="middle" font-family="sans-serif" font-size="14.00" fill="#000000">足利高氏</text></a></g>
<g class="node" transform="translate(458.22, 553.22)"><a xlink:href="https://ja.wikipedia.org/wiki/佐々木道誉" xlink:title="幕府の有力御家人。" target="_blank" ><polygon points="-50.50,-11.00 50.50,-11.00 50.50,11.00 -50.50,11.00 -50.50,-11.00" fill="#fcfcfc" stroke="#fcfcfc" stroke-width="0.1"/><text x="0" y="5" text-anchor="middle" font-family="sans-serif" font-size="14.00" fill="#000000">佐々木道誉</text></a></g>
<g class="node" transform="translate(570.41, 308.69)"><a xlink:href="https://ja.wikipedia.org/wiki/土岐頼貞" xlink:title="有力武士。" target="_blank" ><polygon points="-50.50,-11.00 50.50,-11.00 50.50,11.00 -50.50,11.00 -50.50,-11.00" fill="#fcfcfc" stroke="#fcfcfc" stroke-width="0.1"/><text x="0" y="5" text-anchor="middle" font-family="sans-serif" font-size="14.00" fill="#444444">土岐頼貞</text></a></g>
<g class="node" transform="translate(123.98, 667.60)"><a xlink:href="https://ja.wikipedia.org/wiki/島津貞久" xlink:title="有力武士。" target="_blank" ><polygon points="-50.50,-11.00 50.50,-11.00 50.50,11.00 -50.50,11.00 -50.50,-11.00" fill="#fcfcfc" stroke="#fcfcfc" stroke-width="0.1"/><text x="0" y="5" text-anchor="middle" font-family="sans-serif" font-size="14.00" fill="#444444">島津貞久</text></a></g>
<g class="node" transform="translate(258.89, 491.78)"><a xlink:href="https://ja.wikipedia.org/wiki/大内長弘" xlink:title="有力武士。" target="_blank" ><polygon points="-50.50,-11.00 50.50,-11.00 50.50,11.00 -50.50,11.00 -50.50,-11.00" fill="#fcfcfc" stroke="#fcfcfc" stroke-width="0.1"/><text x="0" y="5" text-anchor="middle" font-family="sans-serif" font-size="14.00" fill="#444444">大内長弘</text></a></g>
<g class="node" transform="translate(772.07, 519.92)"><a xlink:href="https://ja.wikipedia.org/wiki/夢窓疎石" xlink:title="禅僧。" target="_blank" ><polygon points="-50.50,-11.00 50.50,-11.00 50.50,11.00 -50.50,11.00 -50.50,-11.00" fill="#fcfcfc" stroke="#fcfcfc" stroke-width="0.1"/><text x="0" y="5" text-anchor="middle" font-family="sans-serif" font-size="14.00" fill="#444444">夢窓疎石</text></a></g>
<g class="node" transform="translate(725.75, 621.24)"><a xlink:href="https://ja.wikipedia.org/wiki/聞文謙信" xlink:title="僧侶。" target="_blank" ><polygon points="-50.50,-11.00 50.50,-11.00 50.50,11.00 -50.50,11.00 -50.50,-11.00" fill="#fcfcfc" stroke="#fcfcfc" stroke-width="0.1"/><text x="0" y="5" text-anchor="middle" font-family="sans-serif" font-size="14.00" fill="#444444">聞文謙信</text></a></g>
</svg>