<?xml version="1.0" encoding="UTF-8" standalone="no"?>
<!DOCTYPE svg PUBLIC "-//W3C//DTD SVG 1.1//EN"
 "http://www.w3.org/Graphics/SVG/1.1/DTD/svg11.dtd">
<!-- Generated by graphviz version 2.43.0 (0)
 -->
<!-- Title: timeline_1324_09 Pages: 1 -->
<svg width="741pt" height="604pt"
 viewBox="0.00 0.00 740.94 603.67" xmlns="http://www.w3.org/2000/svg" xmlns:xlink="http://www.w3.org/1999/xlink">
<g id="graph0" class="graph" transform="scale(1 1) rotate(0) translate(4 599.67)">
<title>timeline_1324_09</title>
<polygon fill="#ffffff" stroke="transparent" points="-4,4 -4,-599.67 736.94,-599.67 736.94,4 -4,4"/>
<!-- godaigo_tenno -->
<g id="node1" class="node">
<title>godaigo_tenno</title>
<g id="a_node1"><a xlink:href="https://ja.wikipedia.org/wiki/後醍醐天皇" xlink:title="大覚寺統。討幕を画策する。" target="_blank">
<polygon fill="#fcfcfc" stroke="#fcfcfc" stroke-width="0.1" points="182.05,-595.67 81.05,-595.67 81.05,-573.67 182.05,-573.67 182.05,-595.67"/>
<text text-anchor="middle" x="131.55" y="-580.97" font-family="sans-serif" font-size="14.00" fill="#cc0000">後醍醐天皇</text>
</a>
</g>
</g>
<!-- hino_suketomo -->
<g id="node2" class="node">
<title>hino_suketomo</title>
<g id="a_node2"><a xlink:href="https://ja.wikipedia.org/wiki/日野資朝" xlink:title="討幕計画の主要人物。" target="_blank">
<polygon fill="#fcfcfc" stroke="#fcfcfc" stroke-width="0.1" points="101,-535.55 0,-535.55 0,-513.55 101,-513.55 101,-535.55"/>
<text text-anchor="middle" x="50.5" y="-520.85" font-family="sans-serif" font-size="14.00" fill="#cc0000">日野資朝</text>
</a>
</g>
</g>
<!-- godaigo_tenno&#45;&gt;hino_suketomo -->
<g id="edge1" class="edge">
<title>godaigo_tenno&#45;&gt;hino_suketomo</title>
<g id="a_edge1"><a xlink:title="討幕計画の指令。">
<path fill="none" stroke="#cc0000" stroke-width="2.8" d="M80.58,-587.76C65.24,-585.91 49.85,-580.72 39.86,-568.86 33.44,-561.24 34.87,-555.48 38.59,-545.07"/>
<polygon fill="#cc0000" stroke="#cc0000" stroke-width="2.8" points="41.9,-546.2 41.96,-535.6 35.31,-543.85 41.9,-546.2"/>
</a>
</g>
</g>
<!-- hino_toshimoto -->
<g id="node3" class="node">
<title>hino_toshimoto</title>
<g id="a_node3"><a xlink:href="https://ja.wikipedia.org/wiki/日野俊基" xlink:title="討幕計画の主要人物。" target="_blank">
<polygon fill="#fcfcfc" stroke="#fcfcfc" stroke-width="0.1" points="144.06,-565.66 43.06,-565.66 43.06,-543.66 144.06,-543.66 144.06,-565.66"/>
<text text-anchor="middle" x="93.56" y="-550.96" font-family="sans-serif" font-size="14.00" fill="#cc0000">日野俊基</text>
</a>
</g>
</g>
<!-- godaigo_tenno&#45;&gt;hino_toshimoto -->
<g id="edge2" class="edge">
<title>godaigo_tenno&#45;&gt;hino_toshimoto</title>
<g id="a_edge2"><a xlink:title="討幕計画の指令。">
<path fill="none" stroke="#cc0000" stroke-width="2.8" d="M117.4,-573.5C116.8,-573.02 116.2,-572.54 115.58,-572.06"/>
<polygon fill="#cc0000" stroke="#cc0000" stroke-width="2.8" points="117.61,-569.2 107.59,-565.74 113.27,-574.69 117.61,-569.2"/>
</a>
</g>
</g>
<!-- madenokoji_nobufusa -->
<g id="node4" class="node">
<title>madenokoji_nobufusa</title>
<g id="a_node4"><a xlink:href="https://ja.wikipedia.org/wiki/万里小路宣房" xlink:title="後醍醐の側近。" target="_blank">
<polygon fill="#fcfcfc" stroke="#fcfcfc" stroke-width="0.1" points="229.53,-526.99 128.53,-526.99 128.53,-504.99 229.53,-504.99 229.53,-526.99"/>
<text text-anchor="middle" x="179.03" y="-512.29" font-family="sans-serif" font-size="14.00" fill="#000000">万里小路宣房</text>
</a>
</g>
</g>
<!-- godaigo_tenno&#45;&gt;madenokoji_nobufusa -->
<g id="edge3" class="edge">
<title>godaigo_tenno&#45;&gt;madenokoji_nobufusa</title>
<g id="a_edge3"><a xlink:title="後醍醐の側近。">
<path fill="none" stroke="#cc0000" stroke-width="2.8" d="M144.62,-573.3C145.66,-571.91 146.58,-570.41 147.26,-568.86 149.8,-563.08 146.81,-548.44 149.37,-536.54"/>
<polygon fill="#cc0000" stroke="#cc0000" stroke-width="2.8" points="152.7,-537.65 153.33,-527.08 146.24,-534.95 152.7,-537.65"/>
</a>
</g>
</g>
<!-- horikawa_tomochika -->
<g id="node5" class="node">
<title>horikawa_tomochika</title>
<g id="a_node5"><a xlink:href="https://ja.wikipedia.org/wiki/堀川具親" xlink:title="公卿。" target="_blank">
<polygon fill="#fcfcfc" stroke="#fcfcfc" stroke-width="0.1" points="137.1,-496.98 36.1,-496.98 36.1,-474.98 137.1,-474.98 137.1,-496.98"/>
<text text-anchor="middle" x="86.6" y="-482.28" font-family="sans-serif" font-size="14.00" fill="#000000">堀川具親</text>
</a>
</g>
</g>
<!-- godaigo_tenno&#45;&gt;horikawa_tomochika -->
<g id="edge4" class="edge">
<title>godaigo_tenno&#45;&gt;horikawa_tomochika</title>
<g id="a_edge4"><a xlink:title="宮方の公卿。">
<path fill="none" stroke="#cc0000" stroke-width="2.8" d="M144.69,-573.34C145.72,-571.93 146.61,-570.43 147.26,-568.86 148.46,-565.94 148.95,-543.12 147.26,-540.46 141.48,-531.38 133.93,-536.66 125.33,-530.19 116.12,-523.28 107.51,-513.87 100.76,-505.51"/>
<polygon fill="#cc0000" stroke="#cc0000" stroke-width="2.8" points="103.32,-503.11 94.44,-497.33 97.78,-507.39 103.32,-503.11"/>
</a>
</g>
</g>
<!-- gofushimi_in -->
<g id="node6" class="node">
<title>gofushimi_in</title>
<g id="a_node6"><a xlink:href="https://ja.wikipedia.org/wiki/後伏見天皇" xlink:title="持明院統。幕府の支持を受ける。" target="_blank">
<polygon fill="#fcfcfc" stroke="#fcfcfc" stroke-width="0.1" points="305.01,-587.48 204.01,-587.48 204.01,-565.48 305.01,-565.48 305.01,-587.48"/>
<text text-anchor="middle" x="254.51" y="-572.78" font-family="sans-serif" font-size="14.00" fill="#0000cc">後伏見院</text>
</a>
</g>
</g>
<!-- hanazono_in -->
<g id="node7" class="node">
<title>hanazono_in</title>
<g id="a_node7"><a xlink:href="https://ja.wikipedia.org/wiki/花園天皇" xlink:title="持明院統。" target="_blank">
<polygon fill="#fcfcfc" stroke="#fcfcfc" stroke-width="0.1" points="253.12,-557.4 152.12,-557.4 152.12,-535.4 253.12,-535.4 253.12,-557.4"/>
<text text-anchor="middle" x="202.62" y="-542.7" font-family="sans-serif" font-size="14.00" fill="#0000cc">花園院</text>
</a>
</g>
</g>
<!-- gofushimi_in&#45;&gt;hanazono_in -->
<g id="edge12" class="edge">
<title>gofushimi_in&#45;&gt;hanazono_in</title>
<g id="a_edge12"><a xlink:title="持明院統の連携。">
<path fill="none" stroke="#0000aa" stroke-width="2" d="M235.49,-565.45C233.37,-564.22 231.19,-562.96 229,-561.69"/>
<polygon fill="#0000aa" stroke="#0000aa" stroke-width="2" points="229.97,-559.02 221.65,-557.43 227.16,-563.86 229.97,-559.02"/>
</a>
</g>
</g>
<!-- gofukakusa_in -->
<g id="node8" class="node">
<title>gofukakusa_in</title>
<g id="a_node8"><a xlink:href="https://ja.wikipedia.org/wiki/後深草天皇" xlink:title="持明院統。" target="_blank">
<polygon fill="#fcfcfc" stroke="#fcfcfc" stroke-width="0.1" points="362.15,-538.94 261.15,-538.94 261.15,-516.94 362.15,-516.94 362.15,-538.94"/>
<text text-anchor="middle" x="311.65" y="-524.24" font-family="sans-serif" font-size="14.00" fill="#aaaaaa">後深草院</text>
</a>
</g>
</g>
<!-- gofushimi_in&#45;&gt;gofukakusa_in -->
<g id="edge13" class="edge">
<title>gofushimi_in&#45;&gt;gofukakusa_in</title>
<g id="a_edge13"><a xlink:title="持明院統の先祖。">
<path fill="none" stroke="#0000aa" stroke-width="2" d="M267.48,-565.47C274.68,-559.35 283.79,-551.61 291.87,-544.75"/>
<polygon fill="#0000aa" stroke="#0000aa" stroke-width="2" points="294.05,-546.56 298.34,-539.25 290.43,-542.3 294.05,-546.56"/>
</a>
</g>
</g>
<!-- hojo_takatoki -->
<g id="node9" class="node">
<title>hojo_takatoki</title>
<g id="a_node9"><a xlink:href="https://ja.wikipedia.org/wiki/北条高時" xlink:title="鎌倉幕府得宗。" target="_blank">
<polygon fill="#fcfcfc" stroke="#fcfcfc" stroke-width="0.1" points="552.89,-504.21 451.89,-504.21 451.89,-482.21 552.89,-482.21 552.89,-504.21"/>
<text text-anchor="middle" x="502.39" y="-489.51" font-family="sans-serif" font-size="14.00" fill="#004400">北条高時</text>
</a>
</g>
</g>
<!-- nagasaki_takasuke -->
<g id="node11" class="node">
<title>nagasaki_takasuke</title>
<g id="a_node11"><a xlink:href="https://ja.wikipedia.org/wiki/長崎高資" xlink:title="鎌倉幕府内管領。" target="_blank">
<polygon fill="#fcfcfc" stroke="#fcfcfc" stroke-width="0.1" points="454.81,-310.3 353.81,-310.3 353.81,-288.3 454.81,-288.3 454.81,-310.3"/>
<text text-anchor="middle" x="404.31" y="-295.6" font-family="sans-serif" font-size="14.00" fill="#004400">長崎高資</text>
</a>
</g>
</g>
<!-- hojo_takatoki&#45;&gt;nagasaki_takasuke -->
<g id="edge5" class="edge">
<title>hojo_takatoki&#45;&gt;nagasaki_takasuke</title>
<g id="a_edge5"><a xlink:title="幕府の支配体制。">
<path fill="none" stroke="#005500" stroke-width="2.8" d="M494.42,-482.11C478.89,-460.08 444.3,-408.86 423.28,-361.61 417.38,-348.34 412.63,-332.71 409.35,-320.42"/>
<polygon fill="#005500" stroke="#005500" stroke-width="2.8" points="412.72,-319.46 406.87,-310.63 405.94,-321.18 412.72,-319.46"/>
</a>
</g>
</g>
<!-- nagasaki_enki -->
<g id="node12" class="node">
<title>nagasaki_enki</title>
<g id="a_node12"><a xlink:href="https://ja.wikipedia.org/wiki/長崎円喜" xlink:title="鎌倉幕府内管領。" target="_blank">
<polygon fill="#fcfcfc" stroke="#fcfcfc" stroke-width="0.1" points="387.43,-280.3 286.43,-280.3 286.43,-258.3 387.43,-258.3 387.43,-280.3"/>
<text text-anchor="middle" x="336.93" y="-265.6" font-family="sans-serif" font-size="14.00" fill="#004400">長崎円喜</text>
</a>
</g>
</g>
<!-- hojo_takatoki&#45;&gt;nagasaki_enki -->
<g id="edge6" class="edge">
<title>hojo_takatoki&#45;&gt;nagasaki_enki</title>
<g id="a_edge6"><a xlink:title="幕府の支配体制。">
<path fill="none" stroke="#005500" stroke-width="2.8" d="M489.84,-481.86C461.11,-455.23 390.01,-385.51 350.61,-313.5 346.68,-306.31 343.71,-297.84 341.56,-290.25"/>
<polygon fill="#005500" stroke="#005500" stroke-width="2.8" points="344.89,-289.16 339.05,-280.32 338.1,-290.87 344.89,-289.16"/>
</a>
</g>
</g>
<!-- uesugi_shigefusa -->
<g id="node13" class="node">
<title>uesugi_shigefusa</title>
<g id="a_node13"><a xlink:href="https://ja.wikipedia.org/wiki/上杉重房" xlink:title="有力御家人。" target="_blank">
<polygon fill="#fcfcfc" stroke="#fcfcfc" stroke-width="0.1" points="683.9,-524.8 582.9,-524.8 582.9,-502.8 683.9,-502.8 683.9,-524.8"/>
<text text-anchor="middle" x="633.4" y="-510.1" font-family="sans-serif" font-size="14.00" fill="#444444">上杉重房</text>
</a>
</g>
</g>
<!-- hojo_takatoki&#45;&gt;uesugi_shigefusa -->
<g id="edge7" class="edge">
<title>hojo_takatoki&#45;&gt;uesugi_shigefusa</title>
<g id="a_edge7"><a xlink:title="鎌倉幕府の有力御家人。">
<path fill="none" stroke="#005500" stroke-width="2.8" d="M553.04,-501.17C559.47,-502.18 566.1,-503.22 572.66,-504.26"/>
<polygon fill="#005500" stroke="#005500" stroke-width="2.8" points="572.46,-507.77 582.88,-505.86 573.55,-500.85 572.46,-507.77"/>
</a>
</g>
</g>
<!-- hojo_sadatoki -->
<g id="node10" class="node">
<title>hojo_sadatoki</title>
<g id="a_node10"><a xlink:href="https://ja.wikipedia.org/wiki/北条貞時" xlink:title="鎌倉幕府得宗。" target="_blank">
<polygon fill="#fcfcfc" stroke="#fcfcfc" stroke-width="0.1" points="497.13,-534.22 396.13,-534.22 396.13,-512.22 497.13,-512.22 497.13,-534.22"/>
<text text-anchor="middle" x="446.63" y="-519.52" font-family="sans-serif" font-size="14.00" fill="#aaaaaa">北条貞時</text>
</a>
</g>
</g>
<!-- hojo_sadatoki&#45;&gt;hojo_takatoki -->
<g id="edge8" class="edge">
<title>hojo_sadatoki&#45;&gt;hojo_takatoki</title>
<g id="a_edge8"><a xlink:title="得宗家嫡流。">
<path fill="none" stroke="#555555" stroke-width="2" d="M467.08,-512.21C469.5,-510.91 472.01,-509.56 474.52,-508.21"/>
<polygon fill="#555555" stroke="#555555" stroke-width="2" points="476.23,-510.47 481.95,-504.21 473.58,-505.54 476.23,-510.47"/>
</a>
</g>
</g>
<!-- ando_suehisa -->
<g id="node14" class="node">
<title>ando_suehisa</title>
<g id="a_node14"><a xlink:href="https://ja.wikipedia.org/wiki/安藤氏_(鎌倉時代)" xlink:title="安藤氏の乱当事者。" target="_blank">
<polygon fill="#fcfcfc" stroke="#fcfcfc" stroke-width="0.1" points="634.89,-396.88 533.89,-396.88 533.89,-374.88 634.89,-374.88 634.89,-396.88"/>
<text text-anchor="middle" x="584.39" y="-382.18" font-family="sans-serif" font-size="14.00" fill="#000000">安藤季長</text>
</a>
</g>
</g>
<!-- ando_suesada -->
<g id="node15" class="node">
<title>ando_suesada</title>
<g id="a_node15"><a xlink:href="https://ja.wikipedia.org/wiki/安藤氏_(鎌倉時代)" xlink:title="安藤氏の乱当事者。" target="_blank">
<polygon fill="#fcfcfc" stroke="#fcfcfc" stroke-width="0.1" points="658.37,-366.86 557.37,-366.86 557.37,-344.86 658.37,-344.86 658.37,-366.86"/>
<text text-anchor="middle" x="607.87" y="-352.16" font-family="sans-serif" font-size="14.00" fill="#000000">安藤季貞</text>
</a>
</g>
</g>
<!-- ando_suehisa&#45;&gt;ando_suesada -->
<g id="edge14" class="edge">
<title>ando_suehisa&#45;&gt;ando_suesada</title>
<g id="a_edge14"><a xlink:title="安藤氏一門。">
<path fill="none" stroke="#666666" stroke-width="1.5" d="M593.13,-374.7C593.87,-373.75 594.63,-372.78 595.4,-371.8"/>
<polygon fill="#666666" stroke="#666666" stroke-width="1.5" points="597.15,-372.97 599.2,-366.95 593.85,-370.38 597.15,-372.97"/>
</a>
</g>
</g>
<!-- ashikaga_takauji -->
<g id="node16" class="node">
<title>ashikaga_takauji</title>
<g id="a_node16"><a xlink:href="https://ja.wikipedia.org/wiki/足利尊氏" xlink:title="鎌倉幕府の有力御家人。" target="_blank">
<polygon fill="#fcfcfc" stroke="#fcfcfc" stroke-width="0.1" points="475.8,-235.06 374.8,-235.06 374.8,-213.06 475.8,-213.06 475.8,-235.06"/>
<text text-anchor="middle" x="425.3" y="-220.36" font-family="sans-serif" font-size="14.00" fill="#000000">足利高氏</text>
</a>
</g>
</g>
<!-- ashikaga_takauji&#45;&gt;hojo_takatoki -->
<g id="edge9" class="edge">
<title>ashikaga_takauji&#45;&gt;hojo_takatoki</title>
<g id="a_edge9"><a xlink:title="将軍への忠誠。">
<path fill="none" stroke="#555555" stroke-width="2" d="M442.54,-235.29C467.54,-252.74 512.83,-289 530.68,-333.21 535.41,-344.91 532.02,-349.06 530.68,-361.61 526.36,-402.32 514.7,-448.95 507.78,-474.32"/>
<polygon fill="#555555" stroke="#555555" stroke-width="2" points="505.07,-473.62 505.63,-482.08 510.46,-475.11 505.07,-473.62"/>
</a>
</g>
</g>
<!-- sasaki_doyo -->
<g id="node17" class="node">
<title>sasaki_doyo</title>
<g id="a_node17"><a xlink:href="https://ja.wikipedia.org/wiki/佐々木道誉" xlink:title="幕府の有力御家人。" target="_blank">
<polygon fill="#fcfcfc" stroke="#fcfcfc" stroke-width="0.1" points="443.51,-96.74 342.51,-96.74 342.51,-74.74 443.51,-74.74 443.51,-96.74"/>
<text text-anchor="middle" x="393.01" y="-82.04" font-family="sans-serif" font-size="14.00" fill="#000000">佐々木道誉</text>
</a>
</g>
</g>
<!-- sasaki_doyo&#45;&gt;hojo_takatoki -->
<g id="edge10" class="edge">
<title>sasaki_doyo&#45;&gt;hojo_takatoki</title>
<g id="a_edge10"><a xlink:title="幕府御家人としての関係。">
<path fill="none" stroke="#555555" stroke-width="2" d="M402.78,-97.03C430.73,-130.31 510.33,-231.99 530.68,-333.21 533.17,-345.58 532.02,-349.06 530.68,-361.61 526.36,-402.32 514.7,-448.95 507.78,-474.32"/>
<polygon fill="#555555" stroke="#555555" stroke-width="2" points="505.07,-473.62 505.63,-482.08 510.46,-475.11 505.07,-473.62"/>
</a>
</g>
</g>
<!-- toki_yorisada -->
<g id="node18" class="node">
<title>toki_yorisada</title>
<g id="a_node18"><a xlink:href="https://ja.wikipedia.org/wiki/土岐頼貞" xlink:title="有力武士。" target="_blank">
<polygon fill="#fcfcfc" stroke="#fcfcfc" stroke-width="0.1" points="527.48,-358.41 426.48,-358.41 426.48,-336.41 527.48,-336.41 527.48,-358.41"/>
<text text-anchor="middle" x="476.98" y="-343.71" font-family="sans-serif" font-size="14.00" fill="#444444">土岐頼貞</text>
</a>
</g>
</g>
<!-- toki_yorisada&#45;&gt;hojo_takatoki -->
<g id="edge11" class="edge">
<title>toki_yorisada&#45;&gt;hojo_takatoki</title>
<g id="a_edge11"><a xlink:title="有力武士。">
<path fill="none" stroke="#555555" stroke-width="2" d="M478.98,-358.85C483.3,-383.66 493.58,-442.64 498.97,-473.55"/>
<polygon fill="#555555" stroke="#555555" stroke-width="2" points="496.28,-474.42 500.41,-481.82 501.79,-473.46 496.28,-474.42"/>
</a>
</g>
</g>
<!-- shimazu_sadahisa -->
<g id="node19" class="node">
<title>shimazu_sadahisa</title>
<g id="a_node19"><a xlink:href="https://ja.wikipedia.org/wiki/島津貞久" xlink:title="有力武士。" target="_blank">
<polygon fill="#fcfcfc" stroke="#fcfcfc" stroke-width="0.1" points="125.41,-22 24.41,-22 24.41,0 125.41,0 125.41,-22"/>
<text text-anchor="middle" x="74.91" y="-7.3" font-family="sans-serif" font-size="14.00" fill="#444444">島津貞久</text>
</a>
</g>
</g>
<!-- ouchi_nagahiro -->
<g id="node20" class="node">
<title>ouchi_nagahiro</title>
<g id="a_node20"><a xlink:href="https://ja.wikipedia.org/wiki/大内長弘" xlink:title="有力武士。" target="_blank">
<polygon fill="#fcfcfc" stroke="#fcfcfc" stroke-width="0.1" points="233.94,-166.76 132.94,-166.76 132.94,-144.76 233.94,-144.76 233.94,-166.76"/>
<text text-anchor="middle" x="183.44" y="-152.06" font-family="sans-serif" font-size="14.00" fill="#444444">大内長弘</text>
</a>
</g>
</g>
<!-- shimazu_sadahisa&#45;&gt;ouchi_nagahiro -->
<g id="edge16" class="edge">
<title>shimazu_sadahisa&#45;&gt;ouchi_nagahiro</title>
<g id="a_edge16"><a xlink:title="諸国の有力武士。">
<path fill="none" stroke="#666666" stroke-width="1.5" d="M83.43,-22.36C102.53,-47.83 148.84,-109.61 171.1,-139.3"/>
<polygon fill="#666666" stroke="#666666" stroke-width="1.5" points="169.68,-140.91 174.96,-144.45 173.04,-138.39 169.68,-140.91"/>
</a>
</g>
</g>
<!-- muso_soseki -->
<g id="node21" class="node">
<title>muso_soseki</title>
<g id="a_node21"><a xlink:href="https://ja.wikipedia.org/wiki/夢窓疎石" xlink:title="禅僧。" target="_blank">
<polygon fill="#fcfcfc" stroke="#fcfcfc" stroke-width="0.1" points="732.94,-89.89 631.94,-89.89 631.94,-67.89 732.94,-67.89 732.94,-89.89"/>
<text text-anchor="middle" x="682.44" y="-75.19" font-family="sans-serif" font-size="14.00" fill="#444444">夢窓疎石</text>
</a>
</g>
</g>
<!-- monbun_kenshin -->
<g id="node22" class="node">
<title>monbun_kenshin</title>
<g id="a_node22"><a xlink:href="https://ja.wikipedia.org/wiki/聞文謙信" xlink:title="僧侶。" target="_blank">
<polygon fill="#fcfcfc" stroke="#fcfcfc" stroke-width="0.1" points="699.77,-59.88 598.77,-59.88 598.77,-37.88 699.77,-37.88 699.77,-59.88"/>
<text text-anchor="middle" x="649.27" y="-45.18" font-family="sans-serif" font-size="14.00" fill="#444444">聞文謙信</text>
</a>
</g>
</g>
<!-- muso_soseki&#45;&gt;monbun_kenshin -->
<g id="edge15" class="edge">
<title>muso_soseki&#45;&gt;monbun_kenshin</title>
<g id="a_edge15"><a xlink:title="禅僧と僧侶。">
<path fill="none" stroke="#666666" stroke-width="1.5" d="M670.09,-67.71C668.78,-66.52 667.43,-65.3 666.08,-64.08"/>
<polygon fill="#666666" stroke="#666666" stroke-width="1.5" points="667.38,-62.43 661.52,-59.96 664.56,-65.54 667.38,-62.43"/>
</a>
</g>
</g>
</g>
</svg>
