<?xml version="1.0" encoding="UTF-8" standalone="no"?>
<!DOCTYPE svg PUBLIC "-//W3C//DTD SVG 1.1//EN"
 "http://www.w3.org/Graphics/SVG/1.1/DTD/svg11.dtd">
<!-- Generated by graphviz version 2.43.0 (0)
 -->
<!-- Title: timeline_1326_03 Pages: 1 -->
<svg width="602pt" height="472pt"
 viewBox="0.00 0.00 601.71 471.92" xmlns="http://www.w3.org/2000/svg" xmlns:xlink="http://www.w3.org/1999/xlink">
<g id="graph0" class="graph" transform="scale(1 1) rotate(0) translate(4 467.92)">
<title>timeline_1326_03</title>
<polygon fill="#ffffff" stroke="transparent" points="-4,4 -4,-467.92 597.71,-467.92 597.71,4 -4,4"/>
<!-- godaigo_tenno -->
<g id="node1" class="node">
<title>godaigo_tenno</title>
<g id="a_node1"><a xlink:href="https://ja.wikipedia.org/wiki/後醍醐天皇" xlink:title="大覚寺統の天皇。密かに討幕を計画。" target="_blank">
<polygon fill="#fcfcfc" stroke="#fcfcfc" stroke-width="0.1" points="176.84,-463.92 75.84,-463.92 75.84,-441.92 176.84,-441.92 176.84,-463.92"/>
<text text-anchor="middle" x="126.34" y="-449.12" font-family="sans-serif" font-size="16.00" fill="#cc0000">後醍醐天皇</text>
</a>
</g>
</g>
<!-- muso_soseki -->
<g id="node17" class="node">
<title>muso_soseki</title>
<g id="a_node17"><a xlink:href="https://ja.wikipedia.org/wiki/夢窓疎石" xlink:title="高徳の禅僧。後醍醐天皇や幕府から帰依を受ける。" target="_blank">
<polygon fill="#fcfcfc" stroke="#fcfcfc" stroke-width="0.1" points="593.71,-81.81 492.71,-81.81 492.71,-59.81 593.71,-59.81 593.71,-81.81"/>
<text text-anchor="middle" x="543.21" y="-67.71" font-family="sans-serif" font-size="12.00" fill="#444444">夢窓疎石</text>
</a>
</g>
</g>
<!-- godaigo_tenno&#45;&gt;muso_soseki -->
<g id="edge8" class="edge">
<title>godaigo_tenno&#45;&gt;muso_soseki</title>
<g id="a_edge8"><a xlink:title="優れた禅僧として宮廷に召し出すなど深く信頼（帰依・召聘）">
<path fill="none" stroke="#8844aa" stroke-width="2.5" d="M145.77,-441.71C147.15,-440.3 148.36,-438.75 149.31,-437.06 151.15,-433.78 148.48,-405.83 151.19,-403.2 153.86,-400.62 214.64,-403.16 218,-401.58 294.29,-365.71 268.87,-299.53 342.51,-258.49 362.5,-247.34 373.44,-261.51 393.32,-250.17 461.27,-211.4 511.88,-129.32 532.73,-91.13"/>
<polygon fill="#8844aa" stroke="#8844aa" stroke-width="2.5" points="535.98,-92.48 537.6,-82.01 529.8,-89.18 535.98,-92.48"/>
</a>
</g>
</g>
<!-- hino_suketomo -->
<g id="node2" class="node">
<title>hino_suketomo</title>
<g id="a_node2"><a xlink:href="https://ja.wikipedia.org/wiki/日野資朝" xlink:title="天皇の側近。無礼講を主宰し討幕を謀る。" target="_blank">
<polygon fill="#fcfcfc" stroke="#fcfcfc" stroke-width="0.1" points="101,-403.69 0,-403.69 0,-381.69 101,-381.69 101,-403.69"/>
<text text-anchor="middle" x="50.5" y="-389.29" font-family="sans-serif" font-size="13.00" fill="#cc0000">日野資朝</text>
</a>
</g>
</g>
<!-- hino_suketomo&#45;&gt;godaigo_tenno -->
<g id="edge2" class="edge">
<title>hino_suketomo&#45;&gt;godaigo_tenno</title>
<g id="a_edge2"><a xlink:title="無礼講などを通じて天皇の討幕意志に同心（討幕密議）">
<path fill="none" stroke="#ff4444" stroke-width="3.2" d="M43.82,-403.78C38.87,-413.6 34.19,-427.76 41.91,-437.06 47.67,-444.01 55.42,-448.55 63.9,-451.45"/>
<polygon fill="#ff4444" stroke="#ff4444" stroke-width="3.2" points="63.14,-455.59 75.81,-454.45 65.19,-447.44 63.14,-455.59"/>
</a>
</g>
</g>
<!-- hino_toshimoto -->
<g id="node3" class="node">
<title>hino_toshimoto</title>
<g id="a_node3"><a xlink:href="https://ja.wikipedia.org/wiki/日野俊基" xlink:title="天皇の側近。資朝とともに討幕運動を推進。" target="_blank">
<polygon fill="#fcfcfc" stroke="#fcfcfc" stroke-width="0.1" points="146.11,-433.86 45.11,-433.86 45.11,-411.86 146.11,-411.86 146.11,-433.86"/>
<text text-anchor="middle" x="95.61" y="-419.46" font-family="sans-serif" font-size="13.00" fill="#cc0000">日野俊基</text>
</a>
</g>
</g>
<!-- hino_toshimoto&#45;&gt;godaigo_tenno -->
<g id="edge3" class="edge">
<title>hino_toshimoto&#45;&gt;godaigo_tenno</title>
<g id="a_edge3"><a xlink:title="資朝とともに討幕のネットワークを画策（討幕密議）">
<path fill="none" stroke="#ff4444" stroke-width="3.2" d="M107.05,-434.06C107.21,-434.21 107.37,-434.37 107.54,-434.53"/>
<polygon fill="#ff4444" stroke="#ff4444" stroke-width="3.2" points="103.47,-436.43 114.99,-441.82 109.35,-430.43 103.47,-436.43"/>
</a>
</g>
</g>
<!-- monbun_kenshin -->
<g id="node4" class="node">
<title>monbun_kenshin</title>
<g id="a_node4"><a xlink:href="https://ja.wikipedia.org/wiki/文観" xlink:title="醍醐寺の僧。真言密教を以て後醍醐を祈祷・調伏で支える。" target="_blank">
<polygon fill="#fcfcfc" stroke="#fcfcfc" stroke-width="0.1" points="560.36,-51.72 459.36,-51.72 459.36,-29.72 560.36,-29.72 560.36,-51.72"/>
<text text-anchor="middle" x="509.86" y="-37.32" font-family="sans-serif" font-size="13.00" fill="#cc0000">文観</text>
</a>
</g>
</g>
<!-- monbun_kenshin&#45;&gt;godaigo_tenno -->
<g id="edge5" class="edge">
<title>monbun_kenshin&#45;&gt;godaigo_tenno</title>
<g id="a_edge5"><a xlink:title="真言密教による調伏・祈祷で後醍醐を精神的・謀略的に支援（討幕祈祷）">
<path fill="none" stroke="#ff4444" stroke-width="3.2" d="M494.08,-51.84C492.43,-53.34 490.87,-54.94 489.51,-56.61 428.76,-131.02 470.61,-193.12 393.32,-250.17 374.91,-263.76 362.5,-247.34 342.51,-258.49 268.87,-299.53 294.29,-365.71 218,-401.58 214.64,-403.16 153.86,-400.62 151.19,-403.2 149.33,-405.01 150.01,-418.78 148.87,-429.79"/>
<polygon fill="#ff4444" stroke="#ff4444" stroke-width="3.2" points="144.72,-429.04 145.77,-441.71 152.85,-431.15 144.72,-429.04"/>
</a>
</g>
</g>
<!-- gofushimi_in -->
<g id="node5" class="node">
<title>gofushimi_in</title>
<g id="a_node5"><a xlink:href="https://ja.wikipedia.org/wiki/後伏見天皇" xlink:title="持明院統の院。大覚寺統の動きを警戒。" target="_blank">
<polygon fill="#fcfcfc" stroke="#fcfcfc" stroke-width="0.1" points="306.54,-458.42 205.54,-458.42 205.54,-436.42 306.54,-436.42 306.54,-458.42"/>
<text text-anchor="middle" x="256.04" y="-443.72" font-family="sans-serif" font-size="14.00" fill="#0000cc">後伏見院</text>
</a>
</g>
</g>
<!-- gofushimi_in&#45;&gt;godaigo_tenno -->
<g id="edge7" class="edge">
<title>gofushimi_in&#45;&gt;godaigo_tenno</title>
<g id="a_edge7"><a xlink:title="皇位継承を巡り、大覚寺統の後醍醐天皇の動向を激しく警戒（持明院統による警戒）">
<path fill="none" stroke="#0000aa" stroke-width="3.2" d="M205.52,-449.56C200.1,-449.79 194.53,-450.03 188.98,-450.26"/>
<polygon fill="#0000aa" stroke="#0000aa" stroke-width="3.2" points="188.74,-446.07 176.93,-450.78 189.1,-454.46 188.74,-446.07"/>
</a>
</g>
</g>
<!-- hanazono_in -->
<g id="node6" class="node">
<title>hanazono_in</title>
<g id="a_node6"><a xlink:href="https://ja.wikipedia.org/wiki/花園天皇" xlink:title="持明院統の院。政情不安を深く憂慮。" target="_blank">
<polygon fill="#fcfcfc" stroke="#fcfcfc" stroke-width="0.1" points="255.39,-428.4 154.39,-428.4 154.39,-406.4 255.39,-406.4 255.39,-428.4"/>
<text text-anchor="middle" x="204.89" y="-413.7" font-family="sans-serif" font-size="14.00" fill="#0000cc">花園院</text>
</a>
</g>
</g>
<!-- hojo_takatoki -->
<g id="node7" class="node">
<title>hojo_takatoki</title>
<g id="a_node7"><a xlink:href="https://ja.wikipedia.org/wiki/北条高時" xlink:title="鎌倉幕府第14代執権。得宗。" target="_blank">
<polygon fill="#fcfcfc" stroke="#fcfcfc" stroke-width="0.1" points="455.43,-398.79 354.43,-398.79 354.43,-376.79 455.43,-376.79 455.43,-398.79"/>
<text text-anchor="middle" x="404.93" y="-384.29" font-family="sans-serif" font-size="15.00" fill="#004400">北条高時</text>
</a>
</g>
</g>
<!-- nagasaki_enki -->
<g id="node8" class="node">
<title>nagasaki_enki</title>
<g id="a_node8"><a xlink:href="https://ja.wikipedia.org/wiki/長崎円喜" xlink:title="得宗家内管領。実質的な幕政の最高権力者。" target="_blank">
<polygon fill="#fcfcfc" stroke="#fcfcfc" stroke-width="0.1" points="322.93,-216.97 221.93,-216.97 221.93,-194.97 322.93,-194.97 322.93,-216.97"/>
<text text-anchor="middle" x="272.43" y="-202.57" font-family="sans-serif" font-size="13.00" fill="#004400">長崎円喜</text>
</a>
</g>
</g>
<!-- nagasaki_enki&#45;&gt;hojo_takatoki -->
<g id="edge1" class="edge">
<title>nagasaki_enki&#45;&gt;hojo_takatoki</title>
<g id="a_edge1"><a xlink:title="内管領として得宗高時を圧倒的に主導（後見・主導）">
<path fill="none" stroke="#005500" stroke-width="4" d="M274.46,-217.01C276.47,-226.27 280.1,-239.63 285.92,-250.17 311.71,-296.86 355.27,-341.84 381.92,-367.05"/>
<polygon fill="#005500" stroke="#005500" stroke-width="4" points="378.62,-370.66 392.21,-376.58 385.28,-363.47 378.62,-370.66"/>
</a>
</g>
</g>
<!-- nagasaki_takasuke -->
<g id="node9" class="node">
<title>nagasaki_takasuke</title>
<g id="a_node9"><a xlink:href="https://ja.wikipedia.org/wiki/長崎高資" xlink:title="円喜の子。内管領として権勢を振るう。" target="_blank">
<polygon fill="#fcfcfc" stroke="#fcfcfc" stroke-width="0.1" points="390.12,-246.97 289.12,-246.97 289.12,-224.97 390.12,-224.97 390.12,-246.97"/>
<text text-anchor="middle" x="339.62" y="-232.57" font-family="sans-serif" font-size="13.00" fill="#004400">長崎高資</text>
</a>
</g>
</g>
<!-- nagasaki_takasuke&#45;&gt;nagasaki_enki -->
<g id="edge6" class="edge">
<title>nagasaki_takasuke&#45;&gt;nagasaki_enki</title>
<g id="a_edge6"><a xlink:title="父子で得宗家および幕府の実権を掌握（共同幕政）">
<path fill="none" stroke="#005500" stroke-width="3.2" d="M314.98,-224.97C312.79,-223.99 310.55,-222.99 308.29,-221.98"/>
<polygon fill="#005500" stroke="#005500" stroke-width="3.2" points="309.73,-218.02 297.06,-216.97 306.31,-225.69 309.73,-218.02"/>
</a>
</g>
</g>
<!-- madenokoji_nobufusa -->
<g id="node10" class="node">
<title>madenokoji_nobufusa</title>
<g id="a_node10"><a xlink:href="https://ja.wikipedia.org/wiki/万里小路宣房" xlink:title="後醍醐天皇の側近。実務派公卿。" target="_blank">
<polygon fill="#fcfcfc" stroke="#fcfcfc" stroke-width="0.1" points="214.8,-398.38 113.8,-398.38 113.8,-376.38 214.8,-376.38 214.8,-398.38"/>
<text text-anchor="middle" x="164.3" y="-384.28" font-family="sans-serif" font-size="12.00" fill="#000000">万里小路宣房</text>
</a>
</g>
</g>
<!-- madenokoji_nobufusa&#45;&gt;godaigo_tenno -->
<g id="edge4" class="edge">
<title>madenokoji_nobufusa&#45;&gt;godaigo_tenno</title>
<g id="a_edge4"><a xlink:title="側近（後醍醐の「後の三房」の一人）として実務面から朝政を支える（君臣・側近）">
<path fill="none" stroke="#ff4444" stroke-width="3.2" d="M153.64,-398.59C152.67,-400.06 151.81,-401.61 151.19,-403.2 149.23,-408.19 150.97,-419.88 149.54,-430.25"/>
<polygon fill="#ff4444" stroke="#ff4444" stroke-width="3.2" points="145.53,-429 145.77,-441.71 153.51,-431.63 145.53,-429"/>
</a>
</g>
</g>
<!-- ashikaga_takauji -->
<g id="node11" class="node">
<title>ashikaga_takauji</title>
<g id="a_node11"><a xlink:href="https://ja.wikipedia.org/wiki/足利尊氏" xlink:title="足利宗家嫡男。後の足利尊氏。動向を注視。" target="_blank">
<polygon fill="#fcfcfc" stroke="#fcfcfc" stroke-width="0.1" points="399.36,-186.94 298.36,-186.94 298.36,-164.94 399.36,-164.94 399.36,-186.94"/>
<text text-anchor="middle" x="348.86" y="-172.54" font-family="sans-serif" font-size="13.00" fill="#000000">足利高氏</text>
</a>
</g>
</g>
<!-- sasaki_doyo -->
<g id="node12" class="node">
<title>sasaki_doyo</title>
<g id="a_node12"><a xlink:href="https://ja.wikipedia.org/wiki/佐々木道誉" xlink:title="近江の有力御家人。ばさら大名の片鱗。" target="_blank">
<polygon fill="#fcfcfc" stroke="#fcfcfc" stroke-width="0.1" points="365.77,-80.7 264.77,-80.7 264.77,-58.7 365.77,-58.7 365.77,-80.7"/>
<text text-anchor="middle" x="315.27" y="-66.6" font-family="sans-serif" font-size="12.00" fill="#000000">佐々木道誉</text>
</a>
</g>
</g>
<!-- horikawa_tomochika -->
<g id="node13" class="node">
<title>horikawa_tomochika</title>
<g id="a_node13"><a xlink:href="https://ja.wikipedia.org/wiki/堀川具親" xlink:title="公卿。正中の変に関与し処分される。" target="_blank">
<polygon fill="#fcfcfc" stroke="#fcfcfc" stroke-width="0.1" points="105.75,-369.71 4.75,-369.71 4.75,-347.71 105.75,-347.71 105.75,-369.71"/>
<text text-anchor="middle" x="55.25" y="-355.61" font-family="sans-serif" font-size="12.00" fill="#444444">堀川具親</text>
</a>
</g>
</g>
<!-- toki_yorisada -->
<g id="node14" class="node">
<title>toki_yorisada</title>
<g id="a_node14"><a xlink:href="https://ja.wikipedia.org/wiki/土岐頼貞" xlink:title="美濃守護。一族が正中の変に関与。" target="_blank">
<polygon fill="#fcfcfc" stroke="#fcfcfc" stroke-width="0.1" points="446.71,-283.69 345.71,-283.69 345.71,-261.69 446.71,-261.69 446.71,-283.69"/>
<text text-anchor="middle" x="396.21" y="-269.59" font-family="sans-serif" font-size="12.00" fill="#444444">土岐頼貞</text>
</a>
</g>
</g>
<!-- shimazu_sadahisa -->
<g id="node15" class="node">
<title>shimazu_sadahisa</title>
<g id="a_node15"><a xlink:href="https://ja.wikipedia.org/wiki/島津貞久" xlink:title="薩摩の有力御家人。" target="_blank">
<polygon fill="#fcfcfc" stroke="#fcfcfc" stroke-width="0.1" points="117.81,-22 16.81,-22 16.81,0 117.81,0 117.81,-22"/>
<text text-anchor="middle" x="67.31" y="-8.2" font-family="sans-serif" font-size="11.00" fill="#444444">島津貞久</text>
</a>
</g>
</g>
<!-- ouchi_nagahiro -->
<g id="node16" class="node">
<title>ouchi_nagahiro</title>
<g id="a_node16"><a xlink:href="https://ja.wikipedia.org/wiki/大内長弘" xlink:title="周防の武士。" target="_blank">
<polygon fill="#fcfcfc" stroke="#fcfcfc" stroke-width="0.1" points="200.72,-130 99.72,-130 99.72,-108 200.72,-108 200.72,-130"/>
<text text-anchor="middle" x="150.22" y="-116.2" font-family="sans-serif" font-size="11.00" fill="#444444">大内長弘</text>
</a>
</g>
</g>
<!-- uesugi_shigefusa -->
<g id="node18" class="node">
<title>uesugi_shigefusa</title>
<g id="a_node18"><a xlink:href="https://ja.wikipedia.org/wiki/上杉重房" xlink:title="足利氏に仕える宿老。" target="_blank">
<polygon fill="#fcfcfc" stroke="#fcfcfc" stroke-width="0.1" points="564.54,-407.63 463.54,-407.63 463.54,-385.63 564.54,-385.63 564.54,-407.63"/>
<text text-anchor="middle" x="514.04" y="-393.83" font-family="sans-serif" font-size="11.00" fill="#444444">上杉重房</text>
</a>
</g>
</g>
<!-- uesugi_shigefusa&#45;&gt;ashikaga_takauji -->
<g id="edge9" class="edge">
<title>uesugi_shigefusa&#45;&gt;ashikaga_takauji</title>
<g id="a_edge9"><a xlink:title="足利宗家に仕え、一族を支える土台となる（内臣・宿老）">
<path fill="none" stroke="#555555" stroke-width="2.5" d="M510.71,-385.32C503.03,-360.47 482.18,-300.05 449.91,-258.49 429.03,-231.59 397.83,-207.83 375.63,-192.78"/>
<polygon fill="#555555" stroke="#555555" stroke-width="2.5" points="377.29,-189.68 367.02,-187.08 373.42,-195.52 377.29,-189.68"/>
</a>
</g>
</g>
</g>
</svg>
