<?xml version="1.0" encoding="UTF-8" standalone="no"?>
<!DOCTYPE svg PUBLIC "-//W3C//DTD SVG 1.1//EN"
 "http://www.w3.org/Graphics/SVG/1.1/DTD/svg11.dtd">
<!-- Generated by graphviz version 2.43.0 (0)
 -->
<!-- Title: timeline_1331_08 Pages: 1 -->
<svg width="857pt" height="664pt"
 viewBox="0.00 0.00 856.59 664.44" xmlns="http://www.w3.org/2000/svg" xmlns:xlink="http://www.w3.org/1999/xlink">
<g id="graph0" class="graph" transform="scale(1 1) rotate(0) translate(4 660.44)">
<title>timeline_1331_08</title>
<polygon fill="#ffffff" stroke="transparent" points="-4,4 -4,-660.44 852.59,-660.44 852.59,4 -4,4"/>
<!-- godaigo_tenno -->
<g id="node1" class="node">
<title>godaigo_tenno</title>
<g id="a_node1"><a xlink:href="https://ja.wikipedia.org/wiki/後醍醐天皇" xlink:title="大覚寺統。討幕を画策する。" target="_blank">
<polygon fill="#fcfcfc" stroke="#fcfcfc" stroke-width="0.1" points="246.53,-626.42 145.53,-626.42 145.53,-604.42 246.53,-604.42 246.53,-626.42"/>
<text text-anchor="middle" x="196.03" y="-611.72" font-family="sans-serif" font-size="14.00" fill="#cc0000">後醍醐天皇</text>
</a>
</g>
</g>
<!-- moriyoshi_shinnou -->
<g id="node2" class="node">
<title>moriyoshi_shinnou</title>
<g id="a_node2"><a xlink:href="https://ja.wikipedia.org/wiki/護良親王" xlink:title="後醍醐天皇の皇子。討幕の挙兵。" target="_blank">
<polygon fill="#fcfcfc" stroke="#fcfcfc" stroke-width="0.1" points="231.69,-566.34 130.69,-566.34 130.69,-544.34 231.69,-544.34 231.69,-566.34"/>
<text text-anchor="middle" x="181.19" y="-551.64" font-family="sans-serif" font-size="14.00" fill="#cc0000">護良親王</text>
</a>
</g>
</g>
<!-- godaigo_tenno&#45;&gt;moriyoshi_shinnou -->
<g id="edge1" class="edge">
<title>godaigo_tenno&#45;&gt;moriyoshi_shinnou</title>
<g id="a_edge1"><a xlink:title="討幕の挙兵。">
<path fill="none" stroke="#cc0000" stroke-width="2.8" d="M193.31,-604.4C191.39,-596.62 188.75,-585.95 186.43,-576.55"/>
<polygon fill="#cc0000" stroke="#cc0000" stroke-width="2.8" points="189.79,-575.57 184,-566.7 183,-577.24 189.79,-575.57"/>
</a>
</g>
</g>
<!-- tsuneyoshi_shinnou -->
<g id="node4" class="node">
<title>tsuneyoshi_shinnou</title>
<g id="a_node4"><a xlink:href="https://ja.wikipedia.org/wiki/恒良親王" xlink:title="後醍醐天皇の皇子。" target="_blank">
<polygon fill="#fcfcfc" stroke="#fcfcfc" stroke-width="0.1" points="300.6,-596.39 199.6,-596.39 199.6,-574.39 300.6,-574.39 300.6,-596.39"/>
<text text-anchor="middle" x="250.1" y="-581.69" font-family="sans-serif" font-size="14.00" fill="#cc0000">恒良親王</text>
</a>
</g>
</g>
<!-- godaigo_tenno&#45;&gt;tsuneyoshi_shinnou -->
<g id="edge2" class="edge">
<title>godaigo_tenno&#45;&gt;tsuneyoshi_shinnou</title>
<g id="a_edge2"><a xlink:title="討幕の挙兵。">
<path fill="none" stroke="#cc0000" stroke-width="2.8" d="M215.86,-604.41C217.62,-603.43 219.43,-602.43 221.24,-601.42"/>
<polygon fill="#cc0000" stroke="#cc0000" stroke-width="2.8" points="223.23,-604.32 230.27,-596.4 219.83,-598.2 223.23,-604.32"/>
</a>
</g>
</g>
<!-- hino_suketomo -->
<g id="node5" class="node">
<title>hino_suketomo</title>
<g id="a_node5"><a xlink:href="https://ja.wikipedia.org/wiki/日野資朝" xlink:title="討幕計画の主要人物。" target="_blank">
<polygon fill="#fcfcfc" stroke="#fcfcfc" stroke-width="0.1" points="120.01,-551.08 19.01,-551.08 19.01,-529.08 120.01,-529.08 120.01,-551.08"/>
<text text-anchor="middle" x="69.51" y="-536.38" font-family="sans-serif" font-size="14.00" fill="#cc0000">日野資朝</text>
</a>
</g>
</g>
<!-- godaigo_tenno&#45;&gt;hino_suketomo -->
<g id="edge4" class="edge">
<title>godaigo_tenno&#45;&gt;hino_suketomo</title>
<g id="a_edge4"><a xlink:title="討幕計画の指令。">
<path fill="none" stroke="#cc0000" stroke-width="2.8" d="M195.32,-604.25C194,-593.81 190.26,-578.72 179.77,-571.15 177.42,-569.45 130.31,-570.26 127.49,-569.54 116.39,-566.7 104.97,-561.48 95.23,-556.21"/>
<polygon fill="#cc0000" stroke="#cc0000" stroke-width="2.8" points="96.9,-553.13 86.48,-551.22 93.43,-559.21 96.9,-553.13"/>
</a>
</g>
</g>
<!-- hino_toshimoto -->
<g id="node6" class="node">
<title>hino_toshimoto</title>
<g id="a_node6"><a xlink:href="https://ja.wikipedia.org/wiki/日野俊基" xlink:title="討幕計画の主要人物。" target="_blank">
<polygon fill="#fcfcfc" stroke="#fcfcfc" stroke-width="0.1" points="176.57,-596.35 75.57,-596.35 75.57,-574.35 176.57,-574.35 176.57,-596.35"/>
<text text-anchor="middle" x="126.07" y="-581.65" font-family="sans-serif" font-size="14.00" fill="#cc0000">日野俊基</text>
</a>
</g>
</g>
<!-- godaigo_tenno&#45;&gt;hino_toshimoto -->
<g id="edge5" class="edge">
<title>godaigo_tenno&#45;&gt;hino_toshimoto</title>
<g id="a_edge5"><a xlink:title="討幕計画の指令。">
<path fill="none" stroke="#cc0000" stroke-width="2.8" d="M170.38,-604.39C167.34,-603.09 164.19,-601.73 161.05,-600.38"/>
<polygon fill="#cc0000" stroke="#cc0000" stroke-width="2.8" points="162.29,-597.11 151.72,-596.37 159.53,-603.54 162.29,-597.11"/>
</a>
</g>
</g>
<!-- madenokoji_nobufusa -->
<g id="node7" class="node">
<title>madenokoji_nobufusa</title>
<g id="a_node7"><a xlink:href="https://ja.wikipedia.org/wiki/万里小路宣房" xlink:title="後醍醐の側近。" target="_blank">
<polygon fill="#fcfcfc" stroke="#fcfcfc" stroke-width="0.1" points="353.49,-562.26 252.49,-562.26 252.49,-540.26 353.49,-540.26 353.49,-562.26"/>
<text text-anchor="middle" x="302.99" y="-547.56" font-family="sans-serif" font-size="14.00" fill="#000000">万里小路宣房</text>
</a>
</g>
</g>
<!-- godaigo_tenno&#45;&gt;madenokoji_nobufusa -->
<g id="edge6" class="edge">
<title>godaigo_tenno&#45;&gt;madenokoji_nobufusa</title>
<g id="a_edge6"><a xlink:title="後醍醐の側近。">
<path fill="none" stroke="#cc0000" stroke-width="2.8" d="M192.34,-604.39C189.76,-594.34 188.07,-579.81 196.4,-571.19 197.89,-569.65 232.78,-569.86 234.89,-569.54 242.38,-568.39 250.23,-566.72 257.82,-564.86"/>
<polygon fill="#cc0000" stroke="#cc0000" stroke-width="2.8" points="258.8,-568.23 267.61,-562.33 257.05,-561.45 258.8,-568.23"/>
</a>
</g>
</g>
<!-- kitabatake_chikafusa -->
<g id="node8" class="node">
<title>kitabatake_chikafusa</title>
<g id="a_node8"><a xlink:href="https://ja.wikipedia.org/wiki/北畠親房" xlink:title="後醍醐の側近。公卿。" target="_blank">
<polygon fill="#fcfcfc" stroke="#fcfcfc" stroke-width="0.1" points="316.73,-462.85 215.73,-462.85 215.73,-440.85 316.73,-440.85 316.73,-462.85"/>
<text text-anchor="middle" x="266.23" y="-448.15" font-family="sans-serif" font-size="14.00" fill="#000000">北畠親房</text>
</a>
</g>
</g>
<!-- godaigo_tenno&#45;&gt;kitabatake_chikafusa -->
<g id="edge7" class="edge">
<title>godaigo_tenno&#45;&gt;kitabatake_chikafusa</title>
<g id="a_edge7"><a xlink:title="後醍醐の側近。">
<path fill="none" stroke="#cc0000" stroke-width="2.8" d="M192.34,-604.39C189.76,-594.34 188.07,-579.81 196.4,-571.19 199.37,-568.11 231.36,-571.95 234.89,-569.54 247.94,-560.65 236.36,-546.12 249.29,-537.06 253.57,-534.05 269.22,-539.26 272.79,-535.44 288.29,-518.83 282.45,-491.4 275.53,-472.52"/>
<polygon fill="#cc0000" stroke="#cc0000" stroke-width="2.8" points="278.69,-471 271.7,-463.03 272.2,-473.62 278.69,-471"/>
</a>
</g>
</g>
<!-- kusunoki_masashige -->
<g id="node9" class="node">
<title>kusunoki_masashige</title>
<g id="a_node9"><a xlink:href="https://ja.wikipedia.org/wiki/楠木正成" xlink:title="河内の土豪。討幕の挙兵。" target="_blank">
<polygon fill="#fcfcfc" stroke="#fcfcfc" stroke-width="0.1" points="276.56,-238.48 175.56,-238.48 175.56,-216.48 276.56,-216.48 276.56,-238.48"/>
<text text-anchor="middle" x="226.06" y="-223.78" font-family="sans-serif" font-size="14.00" fill="#cc0000">楠木正成</text>
</a>
</g>
</g>
<!-- godaigo_tenno&#45;&gt;kusunoki_masashige -->
<g id="edge3" class="edge">
<title>godaigo_tenno&#45;&gt;kusunoki_masashige</title>
<g id="a_edge3"><a xlink:title="討幕の挙兵。">
<path fill="none" stroke="#cc0000" stroke-width="2.8" d="M195.32,-604.25C194,-593.81 190.26,-578.72 179.77,-571.15 175.06,-567.75 131.54,-573.71 127.49,-569.54 123.1,-565.01 124.93,-546.9 127.49,-541.14 136.71,-520.44 146.35,-519.32 165.39,-507.04 166.88,-506.07 167.93,-506.81 169.05,-505.43 231.83,-427.8 230.94,-298.88 227.84,-248.53"/>
<polygon fill="#cc0000" stroke="#cc0000" stroke-width="2.8" points="231.33,-248.24 227.13,-238.51 224.35,-248.74 231.33,-248.24"/>
</a>
</g>
</g>
<!-- chigusa_tadaaki -->
<g id="node13" class="node">
<title>chigusa_tadaaki</title>
<g id="a_node13"><a xlink:href="https://ja.wikipedia.org/wiki/千種忠顕" xlink:title="後醍醐の側近。" target="_blank">
<polygon fill="#fcfcfc" stroke="#fcfcfc" stroke-width="0.1" points="101,-472.22 0,-472.22 0,-450.22 101,-450.22 101,-472.22"/>
<text text-anchor="middle" x="50.5" y="-457.52" font-family="sans-serif" font-size="14.00" fill="#cc0000">千種忠顕</text>
</a>
</g>
</g>
<!-- godaigo_tenno&#45;&gt;chigusa_tadaaki -->
<g id="edge8" class="edge">
<title>godaigo_tenno&#45;&gt;chigusa_tadaaki</title>
<g id="a_edge8"><a xlink:title="後醍醐の側近。">
<path fill="none" stroke="#cc0000" stroke-width="2.8" d="M195.32,-604.25C194,-593.81 190.26,-578.72 179.77,-571.15 175.06,-567.75 131.74,-573.51 127.49,-569.54 120.37,-562.88 129.29,-533.5 123.21,-525.88 105.22,-503.36 81.27,-526.55 61.65,-505.43 55.88,-499.22 52.99,-490.47 51.57,-482.39"/>
<polygon fill="#cc0000" stroke="#cc0000" stroke-width="2.8" points="55.05,-481.97 50.45,-472.43 48.09,-482.76 55.05,-481.97"/>
</a>
</g>
</g>
<!-- kikuchi_taketoki -->
<g id="node14" class="node">
<title>kikuchi_taketoki</title>
<g id="a_node14"><a xlink:href="https://ja.wikipedia.org/wiki/菊池武時" xlink:title="九州の有力武士。討幕に呼応。" target="_blank">
<polygon fill="#fcfcfc" stroke="#fcfcfc" stroke-width="0.1" points="192.94,-87.63 91.94,-87.63 91.94,-65.63 192.94,-65.63 192.94,-87.63"/>
<text text-anchor="middle" x="142.44" y="-72.93" font-family="sans-serif" font-size="14.00" fill="#cc0000">菊池武時</text>
</a>
</g>
</g>
<!-- godaigo_tenno&#45;&gt;kikuchi_taketoki -->
<g id="edge9" class="edge">
<title>godaigo_tenno&#45;&gt;kikuchi_taketoki</title>
<g id="a_edge9"><a xlink:title="討幕の挙兵。">
<path fill="none" stroke="#cc0000" stroke-width="2.8" d="M195.32,-604.25C194,-593.81 190.26,-578.72 179.77,-571.15 175.06,-567.75 131.54,-573.71 127.49,-569.54 123.1,-565.01 124.93,-546.9 127.49,-541.14 136.71,-520.44 146.35,-519.32 165.39,-507.04 166.88,-506.07 168.08,-506.92 169.05,-505.43 175.96,-494.87 169.68,-489.64 169.05,-477.03 163.17,-358.64 148.58,-330.02 142.62,-211.64 140.6,-171.49 141.2,-124.54 141.82,-97.93"/>
<polygon fill="#cc0000" stroke="#cc0000" stroke-width="2.8" points="145.33,-97.93 142.08,-87.84 138.33,-97.75 145.33,-97.93"/>
</a>
</g>
</g>
<!-- munenaga_shinnou -->
<g id="node3" class="node">
<title>munenaga_shinnou</title>
<g id="a_node3"><a xlink:href="https://ja.wikipedia.org/wiki/宗良親王" xlink:title="後醍醐天皇の皇子。" target="_blank">
<polygon fill="#fcfcfc" stroke="#fcfcfc" stroke-width="0.1" points="299.8,-656.44 198.8,-656.44 198.8,-634.44 299.8,-634.44 299.8,-656.44"/>
<text text-anchor="middle" x="249.3" y="-641.74" font-family="sans-serif" font-size="14.00" fill="#cc0000">宗良親王</text>
</a>
</g>
</g>
<!-- munenaga_shinnou&#45;&gt;godaigo_tenno -->
<g id="edge25" class="edge">
<title>munenaga_shinnou&#45;&gt;godaigo_tenno</title>
<g id="a_edge25"><a xlink:title="皇子としての連帯。">
<path fill="none" stroke="#666666" stroke-width="1.5" d="M229.76,-634.43C226.87,-632.8 223.85,-631.1 220.87,-629.42"/>
<polygon fill="#666666" stroke="#666666" stroke-width="1.5" points="221.82,-627.54 215.56,-626.43 219.76,-631.2 221.82,-627.54"/>
</a>
</g>
</g>
<!-- kusunoki_masasue -->
<g id="node10" class="node">
<title>kusunoki_masasue</title>
<g id="a_node10"><a xlink:href="https://ja.wikipedia.org/wiki/楠木正季" xlink:title="正成の弟。挙兵に参加。" target="_blank">
<polygon fill="#fcfcfc" stroke="#fcfcfc" stroke-width="0.1" points="246.82,-208.44 145.82,-208.44 145.82,-186.44 246.82,-186.44 246.82,-208.44"/>
<text text-anchor="middle" x="196.32" y="-193.74" font-family="sans-serif" font-size="14.00" fill="#cc0000">楠木正季</text>
</a>
</g>
</g>
<!-- kusunoki_masashige&#45;&gt;kusunoki_masasue -->
<g id="edge24" class="edge">
<title>kusunoki_masashige&#45;&gt;kusunoki_masasue</title>
<g id="a_edge24"><a xlink:title="兄弟の協力。">
<path fill="none" stroke="#666666" stroke-width="1.5" d="M214.98,-216.29C213.89,-215.18 212.76,-214.04 211.63,-212.9"/>
<polygon fill="#666666" stroke="#666666" stroke-width="1.5" points="213.02,-211.32 207.3,-208.53 210.03,-214.27 213.02,-211.32"/>
</a>
</g>
</g>
<!-- horikawa_tomochika -->
<g id="node11" class="node">
<title>horikawa_tomochika</title>
<g id="a_node11"><a xlink:href="https://ja.wikipedia.org/wiki/堀川具親" xlink:title="公卿。" target="_blank">
<polygon fill="#fcfcfc" stroke="#fcfcfc" stroke-width="0.1" points="165.85,-502.23 64.85,-502.23 64.85,-480.23 165.85,-480.23 165.85,-502.23"/>
<text text-anchor="middle" x="115.35" y="-487.53" font-family="sans-serif" font-size="14.00" fill="#000000">堀川具親</text>
</a>
</g>
</g>
<!-- shijo_takadata -->
<g id="node12" class="node">
<title>shijo_takadata</title>
<g id="a_node12"><a xlink:href="https://ja.wikipedia.org/wiki/四条隆資" xlink:title="公卿。" target="_blank">
<polygon fill="#fcfcfc" stroke="#fcfcfc" stroke-width="0.1" points="269.59,-532.24 168.59,-532.24 168.59,-510.24 269.59,-510.24 269.59,-532.24"/>
<text text-anchor="middle" x="219.09" y="-517.54" font-family="sans-serif" font-size="14.00" fill="#000000">四条隆資</text>
</a>
</g>
</g>
<!-- horikawa_tomochika&#45;&gt;shijo_takadata -->
<g id="edge26" class="edge">
<title>horikawa_tomochika&#45;&gt;shijo_takadata</title>
<g id="a_edge26"><a xlink:title="宮中の公卿。">
<path fill="none" stroke="#666666" stroke-width="1.5" d="M153.39,-502.23C160.44,-504.27 167.85,-506.42 175.06,-508.5"/>
<polygon fill="#666666" stroke="#666666" stroke-width="1.5" points="174.71,-510.59 181.06,-510.23 175.88,-506.55 174.71,-510.59"/>
</a>
</g>
</g>
<!-- gofushimi_in -->
<g id="node15" class="node">
<title>gofushimi_in</title>
<g id="a_node15"><a xlink:href="https://ja.wikipedia.org/wiki/後伏見天皇" xlink:title="持明院統。幕府の支持を受ける。" target="_blank">
<polygon fill="#fcfcfc" stroke="#fcfcfc" stroke-width="0.1" points="463.9,-622.28 362.9,-622.28 362.9,-600.28 463.9,-600.28 463.9,-622.28"/>
<text text-anchor="middle" x="413.4" y="-607.58" font-family="sans-serif" font-size="14.00" fill="#0000cc">後伏見院</text>
</a>
</g>
</g>
<!-- hanazono_in -->
<g id="node16" class="node">
<title>hanazono_in</title>
<g id="a_node16"><a xlink:href="https://ja.wikipedia.org/wiki/花園天皇" xlink:title="持明院統。" target="_blank">
<polygon fill="#fcfcfc" stroke="#fcfcfc" stroke-width="0.1" points="409.68,-592.28 308.68,-592.28 308.68,-570.28 409.68,-570.28 409.68,-592.28"/>
<text text-anchor="middle" x="359.18" y="-577.58" font-family="sans-serif" font-size="14.00" fill="#0000cc">花園院</text>
</a>
</g>
</g>
<!-- gofushimi_in&#45;&gt;hanazono_in -->
<g id="edge21" class="edge">
<title>gofushimi_in&#45;&gt;hanazono_in</title>
<g id="a_edge21"><a xlink:title="持明院統の連携。">
<path fill="none" stroke="#0000aa" stroke-width="2" d="M393.52,-600.28C391.16,-598.97 388.72,-597.63 386.29,-596.28"/>
<polygon fill="#0000aa" stroke="#0000aa" stroke-width="2" points="387.41,-593.7 379.06,-592.28 384.7,-598.6 387.41,-593.7"/>
</a>
</g>
</g>
<!-- gofukakusa_in -->
<g id="node18" class="node">
<title>gofukakusa_in</title>
<g id="a_node18"><a xlink:href="https://ja.wikipedia.org/wiki/後深草天皇" xlink:title="持明院統。" target="_blank">
<polygon fill="#fcfcfc" stroke="#fcfcfc" stroke-width="0.1" points="518.73,-575.42 417.73,-575.42 417.73,-553.42 518.73,-553.42 518.73,-575.42"/>
<text text-anchor="middle" x="468.23" y="-560.72" font-family="sans-serif" font-size="14.00" fill="#aaaaaa">後深草院</text>
</a>
</g>
</g>
<!-- gofushimi_in&#45;&gt;gofukakusa_in -->
<g id="edge23" class="edge">
<title>gofushimi_in&#45;&gt;gofukakusa_in</title>
<g id="a_edge23"><a xlink:title="持明院統の先祖。">
<path fill="none" stroke="#0000aa" stroke-width="2" d="M426.39,-600.17C433.09,-594.46 441.38,-587.37 448.82,-581.01"/>
<polygon fill="#0000aa" stroke="#0000aa" stroke-width="2" points="451.07,-582.77 455.33,-575.44 447.43,-578.51 451.07,-582.77"/>
</a>
</g>
</g>
<!-- kogen_tenno -->
<g id="node17" class="node">
<title>kogen_tenno</title>
<g id="a_node17"><a xlink:href="https://ja.wikipedia.org/wiki/光厳天皇" xlink:title="持明院統。" target="_blank">
<polygon fill="#fcfcfc" stroke="#fcfcfc" stroke-width="0.1" points="481.51,-652.33 380.51,-652.33 380.51,-630.33 481.51,-630.33 481.51,-652.33"/>
<text text-anchor="middle" x="431.01" y="-637.63" font-family="sans-serif" font-size="14.00" fill="#0000cc">光厳天皇</text>
</a>
</g>
</g>
<!-- hanazono_in&#45;&gt;kogen_tenno -->
<g id="edge22" class="edge">
<title>hanazono_in&#45;&gt;kogen_tenno</title>
<g id="a_edge22"><a xlink:title="持明院統の即位。">
<path fill="none" stroke="#0000aa" stroke-width="2" d="M355.81,-592.37C353.57,-602.17 352.25,-616.3 359.7,-625.48 363.24,-629.85 367.7,-633.18 372.64,-635.7"/>
<polygon fill="#0000aa" stroke="#0000aa" stroke-width="2" points="371.73,-638.35 380.19,-638.84 373.88,-633.18 371.73,-638.35"/>
</a>
</g>
</g>
<!-- hojo_takatoki -->
<g id="node19" class="node">
<title>hojo_takatoki</title>
<g id="a_node19"><a xlink:href="https://ja.wikipedia.org/wiki/北条高時" xlink:title="鎌倉幕府得宗。" target="_blank">
<polygon fill="#fcfcfc" stroke="#fcfcfc" stroke-width="0.1" points="650.63,-543.51 549.63,-543.51 549.63,-521.51 650.63,-521.51 650.63,-543.51"/>
<text text-anchor="middle" x="600.13" y="-528.81" font-family="sans-serif" font-size="14.00" fill="#004400">北条高時</text>
</a>
</g>
</g>
<!-- hojo_moritoki -->
<g id="node20" class="node">
<title>hojo_moritoki</title>
<g id="a_node20"><a xlink:href="https://ja.wikipedia.org/wiki/北条守時" xlink:title="鎌倉幕府執権。" target="_blank">
<polygon fill="#fcfcfc" stroke="#fcfcfc" stroke-width="0.1" points="663.94,-513.13 562.94,-513.13 562.94,-491.13 663.94,-491.13 663.94,-513.13"/>
<text text-anchor="middle" x="613.44" y="-498.43" font-family="sans-serif" font-size="14.00" fill="#004400">北条守時</text>
</a>
</g>
</g>
<!-- hojo_takatoki&#45;&gt;hojo_moritoki -->
<g id="edge10" class="edge">
<title>hojo_takatoki&#45;&gt;hojo_moritoki</title>
<g id="a_edge10"><a xlink:title="幕府の支配体制。">
<path fill="none" stroke="#005500" stroke-width="2.8" d="M605.08,-521.2C605.15,-521.04 605.22,-520.88 605.3,-520.72"/>
<polygon fill="#005500" stroke="#005500" stroke-width="2.8" points="607.71,-523.92 608.52,-513.35 601.3,-521.11 607.71,-523.92"/>
</a>
</g>
</g>
<!-- hojo_nakatoki -->
<g id="node21" class="node">
<title>hojo_nakatoki</title>
<g id="a_node21"><a xlink:href="https://ja.wikipedia.org/wiki/北条仲時" xlink:title="六波羅探題北方。" target="_blank">
<polygon fill="#fcfcfc" stroke="#fcfcfc" stroke-width="0.1" points="636.07,-483.1 535.07,-483.1 535.07,-461.1 636.07,-461.1 636.07,-483.1"/>
<text text-anchor="middle" x="585.57" y="-468.4" font-family="sans-serif" font-size="14.00" fill="#004400">北条仲時</text>
</a>
</g>
</g>
<!-- hojo_takatoki&#45;&gt;hojo_nakatoki -->
<g id="edge11" class="edge">
<title>hojo_takatoki&#45;&gt;hojo_nakatoki</title>
<g id="a_edge11"><a xlink:title="幕府の支配体制。">
<path fill="none" stroke="#005500" stroke-width="2.8" d="M564.24,-521.33C562.54,-519.87 561.01,-518.21 559.74,-516.33 554.16,-508.08 553.55,-502.02 558.25,-492.21"/>
<polygon fill="#005500" stroke="#005500" stroke-width="2.8" points="561.35,-493.85 563.18,-483.42 555.24,-490.43 561.35,-493.85"/>
</a>
</g>
</g>
<!-- nagasaki_takasuke -->
<g id="node22" class="node">
<title>nagasaki_takasuke</title>
<g id="a_node22"><a xlink:href="https://ja.wikipedia.org/wiki/長崎高資" xlink:title="鎌倉幕府内管領。" target="_blank">
<polygon fill="#fcfcfc" stroke="#fcfcfc" stroke-width="0.1" points="556.48,-325.6 455.48,-325.6 455.48,-303.6 556.48,-303.6 556.48,-325.6"/>
<text text-anchor="middle" x="505.98" y="-310.9" font-family="sans-serif" font-size="14.00" fill="#004400">長崎高資</text>
</a>
</g>
</g>
<!-- hojo_takatoki&#45;&gt;nagasaki_takasuke -->
<g id="edge12" class="edge">
<title>hojo_takatoki&#45;&gt;nagasaki_takasuke</title>
<g id="a_edge12"><a xlink:title="幕府の支配体制。">
<path fill="none" stroke="#005500" stroke-width="2.8" d="M568.55,-521.47C565.47,-519.92 562.48,-518.21 559.74,-516.33 530.51,-496.25 473.99,-413.62 471.43,-405.95 463.02,-380.8 477.78,-352.28 490.54,-333.9"/>
<polygon fill="#005500" stroke="#005500" stroke-width="2.8" points="493.43,-335.88 496.53,-325.75 487.79,-331.74 493.43,-335.88"/>
</a>
</g>
</g>
<!-- nagasaki_enki -->
<g id="node23" class="node">
<title>nagasaki_enki</title>
<g id="a_node23"><a xlink:href="https://ja.wikipedia.org/wiki/長崎円喜" xlink:title="鎌倉幕府内管領。" target="_blank">
<polygon fill="#fcfcfc" stroke="#fcfcfc" stroke-width="0.1" points="489.41,-295.58 388.41,-295.58 388.41,-273.58 489.41,-273.58 489.41,-295.58"/>
<text text-anchor="middle" x="438.91" y="-280.88" font-family="sans-serif" font-size="14.00" fill="#004400">長崎円喜</text>
</a>
</g>
</g>
<!-- hojo_takatoki&#45;&gt;nagasaki_enki -->
<g id="edge13" class="edge">
<title>hojo_takatoki&#45;&gt;nagasaki_enki</title>
<g id="a_edge13"><a xlink:title="幕府の支配体制。">
<path fill="none" stroke="#005500" stroke-width="2.8" d="M568.55,-521.47C565.47,-519.92 562.48,-518.21 559.74,-516.33 531.23,-496.75 475.75,-414.83 471.43,-405.95 455.35,-372.95 446.36,-330.91 442.09,-305.96"/>
<polygon fill="#005500" stroke="#005500" stroke-width="2.8" points="445.5,-305.1 440.45,-295.79 438.59,-306.22 445.5,-305.1"/>
</a>
</g>
</g>
<!-- uesugi_shigefusa -->
<g id="node24" class="node">
<title>uesugi_shigefusa</title>
<g id="a_node24"><a xlink:href="https://ja.wikipedia.org/wiki/上杉重房" xlink:title="有力御家人。" target="_blank">
<polygon fill="#fcfcfc" stroke="#fcfcfc" stroke-width="0.1" points="802.61,-551.46 701.61,-551.46 701.61,-529.46 802.61,-529.46 802.61,-551.46"/>
<text text-anchor="middle" x="752.11" y="-536.76" font-family="sans-serif" font-size="14.00" fill="#444444">上杉重房</text>
</a>
</g>
</g>
<!-- hojo_takatoki&#45;&gt;uesugi_shigefusa -->
<g id="edge14" class="edge">
<title>hojo_takatoki&#45;&gt;uesugi_shigefusa</title>
<g id="a_edge14"><a xlink:title="鎌倉幕府の有力御家人。">
<path fill="none" stroke="#005500" stroke-width="2.8" d="M650.74,-535.16C663.74,-535.84 677.87,-536.58 691.33,-537.28"/>
<polygon fill="#005500" stroke="#005500" stroke-width="2.8" points="691.3,-540.79 701.47,-537.81 691.66,-533.8 691.3,-540.79"/>
</a>
</g>
</g>
<!-- ando_suehisa -->
<g id="node25" class="node">
<title>ando_suehisa</title>
<g id="a_node25"><a xlink:href="https://ja.wikipedia.org/wiki/安藤氏_(鎌倉時代)" xlink:title="安藤氏の乱で敗訴し、幕府から退場。" target="_blank">
<polygon fill="#fcfcfc" stroke="#fcfcfc" stroke-width="0.1" points="748.24,-415.92 647.24,-415.92 647.24,-393.92 748.24,-393.92 748.24,-415.92"/>
<text text-anchor="middle" x="697.74" y="-401.22" font-family="sans-serif" font-size="14.00" fill="#aaaaaa">安藤季長</text>
</a>
</g>
</g>
<!-- ando_suesada -->
<g id="node26" class="node">
<title>ando_suesada</title>
<g id="a_node26"><a xlink:href="https://ja.wikipedia.org/wiki/安藤氏_(鎌倉時代)" xlink:title="安藤氏の乱で敗訴し、幕府から退場。" target="_blank">
<polygon fill="#fcfcfc" stroke="#fcfcfc" stroke-width="0.1" points="771.56,-385.88 670.56,-385.88 670.56,-363.88 771.56,-363.88 771.56,-385.88"/>
<text text-anchor="middle" x="721.06" y="-371.18" font-family="sans-serif" font-size="14.00" fill="#aaaaaa">安藤季貞</text>
</a>
</g>
</g>
<!-- ashikaga_takauji -->
<g id="node27" class="node">
<title>ashikaga_takauji</title>
<g id="a_node27"><a xlink:href="https://ja.wikipedia.org/wiki/足利尊氏" xlink:title="鎌倉幕府の有力御家人。" target="_blank">
<polygon fill="#fcfcfc" stroke="#fcfcfc" stroke-width="0.1" points="571.42,-258.11 470.42,-258.11 470.42,-236.11 571.42,-236.11 571.42,-258.11"/>
<text text-anchor="middle" x="520.92" y="-243.41" font-family="sans-serif" font-size="14.00" fill="#000000">足利高氏</text>
</a>
</g>
</g>
<!-- ashikaga_takauji&#45;&gt;hojo_takatoki -->
<g id="edge15" class="edge">
<title>ashikaga_takauji&#45;&gt;hojo_takatoki</title>
<g id="a_edge15"><a xlink:title="将軍への忠誠。">
<path fill="none" stroke="#555555" stroke-width="2" d="M518.24,-258.46C514.66,-270.76 507.04,-289.83 492.61,-298.78 488.8,-301.14 455.38,-297.17 452.28,-300.4 435.25,-318.14 452.34,-365.83 471.43,-405.95 498.42,-462.68 507.95,-480.76 559.74,-516.33 560.34,-516.74 560.95,-517.14 561.57,-517.54"/>
<polygon fill="#555555" stroke="#555555" stroke-width="2" points="560.2,-519.98 568.55,-521.47 562.95,-515.1 560.2,-519.98"/>
</a>
</g>
</g>
<!-- ashikaga_tadayoshi -->
<g id="node28" class="node">
<title>ashikaga_tadayoshi</title>
<g id="a_node28"><a xlink:href="https://ja.wikipedia.org/wiki/足利直義" xlink:title="足利高氏の弟。" target="_blank">
<polygon fill="#fcfcfc" stroke="#fcfcfc" stroke-width="0.1" points="597.29,-228.11 496.29,-228.11 496.29,-206.11 597.29,-206.11 597.29,-228.11"/>
<text text-anchor="middle" x="546.79" y="-213.41" font-family="sans-serif" font-size="14.00" fill="#000000">足利直義</text>
</a>
</g>
</g>
<!-- ashikaga_takauji&#45;&gt;ashikaga_tadayoshi -->
<g id="edge16" class="edge">
<title>ashikaga_takauji&#45;&gt;ashikaga_tadayoshi</title>
<g id="a_edge16"><a xlink:title="一門の連携。">
<path fill="none" stroke="#555555" stroke-width="2" d="M530.55,-235.94C530.96,-235.47 531.38,-234.98 531.79,-234.5"/>
<polygon fill="#555555" stroke="#555555" stroke-width="2" points="534.13,-236.08 537.24,-228.19 529.89,-232.42 534.13,-236.08"/>
</a>
</g>
</g>
<!-- kira_sadamitsu -->
<g id="node30" class="node">
<title>kira_sadamitsu</title>
<g id="a_node30"><a xlink:href="https://ja.wikipedia.org/wiki/吉良貞義" xlink:title="足利一門の有力者。" target="_blank">
<polygon fill="#fcfcfc" stroke="#fcfcfc" stroke-width="0.1" points="575.63,-402.75 474.63,-402.75 474.63,-380.75 575.63,-380.75 575.63,-402.75"/>
<text text-anchor="middle" x="525.13" y="-388.05" font-family="sans-serif" font-size="14.00" fill="#000000">吉良貞義</text>
</a>
</g>
</g>
<!-- ashikaga_takauji&#45;&gt;kira_sadamitsu -->
<g id="edge18" class="edge">
<title>ashikaga_takauji&#45;&gt;kira_sadamitsu</title>
<g id="a_edge18"><a xlink:title="足利一門の連携。">
<path fill="none" stroke="#555555" stroke-width="2" d="M532.25,-258.16C541.65,-268.18 554.3,-283.87 559.68,-300.4 563.58,-312.41 565.55,-317.63 559.68,-328.8 552.84,-341.8 540.34,-335.14 532.46,-347.52 527.75,-354.93 525.77,-364.4 525.02,-372.67"/>
<polygon fill="#555555" stroke="#555555" stroke-width="2" points="522.22,-372.6 524.63,-380.72 527.82,-372.87 522.22,-372.6"/>
</a>
</g>
</g>
<!-- ko_no_moronao -->
<g id="node29" class="node">
<title>ko_no_moronao</title>
<g id="a_node29"><a xlink:href="https://ja.wikipedia.org/wiki/高師直" xlink:title="足利氏の執事。" target="_blank">
<polygon fill="#fcfcfc" stroke="#fcfcfc" stroke-width="0.1" points="624.54,-197.76 523.54,-197.76 523.54,-175.76 624.54,-175.76 624.54,-197.76"/>
<text text-anchor="middle" x="574.04" y="-183.06" font-family="sans-serif" font-size="14.00" fill="#000000">高師直</text>
</a>
</g>
</g>
<!-- ashikaga_tadayoshi&#45;&gt;ko_no_moronao -->
<g id="edge17" class="edge">
<title>ashikaga_tadayoshi&#45;&gt;ko_no_moronao</title>
<g id="a_edge17"><a xlink:title="足利氏の執事。">
<path fill="none" stroke="#555555" stroke-width="2" d="M556.94,-205.81C557.37,-205.33 557.8,-204.84 558.24,-204.35"/>
<polygon fill="#555555" stroke="#555555" stroke-width="2" points="560.71,-205.79 563.98,-197.97 556.55,-202.05 560.71,-205.79"/>
</a>
</g>
</g>
<!-- sasaki_doyo -->
<g id="node31" class="node">
<title>sasaki_doyo</title>
<g id="a_node31"><a xlink:href="https://ja.wikipedia.org/wiki/佐々木道誉" xlink:title="幕府の有力御家人。" target="_blank">
<polygon fill="#fcfcfc" stroke="#fcfcfc" stroke-width="0.1" points="553.85,-104.56 452.85,-104.56 452.85,-82.56 553.85,-82.56 553.85,-104.56"/>
<text text-anchor="middle" x="503.35" y="-89.86" font-family="sans-serif" font-size="14.00" fill="#000000">佐々木道誉</text>
</a>
</g>
</g>
<!-- sasaki_doyo&#45;&gt;hojo_takatoki -->
<g id="edge19" class="edge">
<title>sasaki_doyo&#45;&gt;hojo_takatoki</title>
<g id="a_edge19"><a xlink:title="幕府御家人としての関係。">
<path fill="none" stroke="#555555" stroke-width="2" d="M499.47,-104.57C491.48,-127.88 473.45,-184.07 467.22,-232.91 465.63,-245.43 459.95,-250.99 467.22,-261.31 474.13,-271.1 485.71,-260.58 492.61,-270.38 499.88,-280.69 501.35,-289.67 492.61,-298.78 489.5,-302.01 455.38,-297.17 452.28,-300.4 435.25,-318.14 452.34,-365.83 471.43,-405.95 498.42,-462.68 507.95,-480.76 559.74,-516.33 560.34,-516.74 560.95,-517.14 561.57,-517.54"/>
<polygon fill="#555555" stroke="#555555" stroke-width="2" points="560.2,-519.98 568.55,-521.47 562.95,-515.1 560.2,-519.98"/>
</a>
</g>
</g>
<!-- toki_yorisada -->
<g id="node32" class="node">
<title>toki_yorisada</title>
<g id="a_node32"><a xlink:href="https://ja.wikipedia.org/wiki/土岐頼貞" xlink:title="有力武士。" target="_blank">
<polygon fill="#fcfcfc" stroke="#fcfcfc" stroke-width="0.1" points="636.66,-372.72 535.66,-372.72 535.66,-350.72 636.66,-350.72 636.66,-372.72"/>
<text text-anchor="middle" x="586.16" y="-358.02" font-family="sans-serif" font-size="14.00" fill="#444444">土岐頼貞</text>
</a>
</g>
</g>
<!-- toki_yorisada&#45;&gt;hojo_takatoki -->
<g id="edge20" class="edge">
<title>toki_yorisada&#45;&gt;hojo_takatoki</title>
<g id="a_edge20"><a xlink:title="有力武士。">
<path fill="none" stroke="#555555" stroke-width="2" d="M586.04,-372.78C585.55,-382.06 583.9,-395.43 578.83,-405.95 565.3,-433.98 543.05,-428.85 531.87,-457.9 527.33,-469.68 527.25,-474.55 531.87,-486.3 538.52,-503.25 544.73,-506.02 559.74,-516.33 560.34,-516.74 560.95,-517.14 561.57,-517.54"/>
<polygon fill="#555555" stroke="#555555" stroke-width="2" points="560.2,-519.98 568.55,-521.47 562.95,-515.1 560.2,-519.98"/>
</a>
</g>
</g>
<!-- shimazu_sadahisa -->
<g id="node33" class="node">
<title>shimazu_sadahisa</title>
<g id="a_node33"><a xlink:href="https://ja.wikipedia.org/wiki/島津貞久" xlink:title="有力武士。" target="_blank">
<polygon fill="#fcfcfc" stroke="#fcfcfc" stroke-width="0.1" points="217.45,-22 116.45,-22 116.45,0 217.45,0 217.45,-22"/>
<text text-anchor="middle" x="166.95" y="-7.3" font-family="sans-serif" font-size="14.00" fill="#444444">島津貞久</text>
</a>
</g>
</g>
<!-- ouchi_nagahiro -->
<g id="node34" class="node">
<title>ouchi_nagahiro</title>
<g id="a_node34"><a xlink:href="https://ja.wikipedia.org/wiki/大内長弘" xlink:title="有力武士。" target="_blank">
<polygon fill="#fcfcfc" stroke="#fcfcfc" stroke-width="0.1" points="343.06,-177.78 242.06,-177.78 242.06,-155.78 343.06,-155.78 343.06,-177.78"/>
<text text-anchor="middle" x="292.56" y="-163.08" font-family="sans-serif" font-size="14.00" fill="#444444">大内長弘</text>
</a>
</g>
</g>
<!-- shimazu_sadahisa&#45;&gt;ouchi_nagahiro -->
<g id="edge28" class="edge">
<title>shimazu_sadahisa&#45;&gt;ouchi_nagahiro</title>
<g id="a_edge28"><a xlink:title="諸国の有力武士。">
<path fill="none" stroke="#666666" stroke-width="1.5" d="M175.99,-22.2C197.98,-49.49 254.39,-119.44 279.81,-150.97"/>
<polygon fill="#666666" stroke="#666666" stroke-width="1.5" points="278.21,-152.33 283.61,-155.68 281.48,-149.69 278.21,-152.33"/>
</a>
</g>
</g>
<!-- muso_soseki -->
<g id="node35" class="node">
<title>muso_soseki</title>
<g id="a_node35"><a xlink:href="https://ja.wikipedia.org/wiki/夢窓疎石" xlink:title="禅僧。" target="_blank">
<polygon fill="#fcfcfc" stroke="#fcfcfc" stroke-width="0.1" points="848.59,-95.49 747.59,-95.49 747.59,-73.49 848.59,-73.49 848.59,-95.49"/>
<text text-anchor="middle" x="798.09" y="-80.79" font-family="sans-serif" font-size="14.00" fill="#444444">夢窓疎石</text>
</a>
</g>
</g>
<!-- monbun_kenshin -->
<g id="node36" class="node">
<title>monbun_kenshin</title>
<g id="a_node36"><a xlink:href="https://ja.wikipedia.org/wiki/聞文謙信" xlink:title="僧侶。" target="_blank">
<polygon fill="#fcfcfc" stroke="#fcfcfc" stroke-width="0.1" points="815.49,-65.46 714.49,-65.46 714.49,-43.46 815.49,-43.46 815.49,-65.46"/>
<text text-anchor="middle" x="764.99" y="-50.76" font-family="sans-serif" font-size="14.00" fill="#444444">聞文謙信</text>
</a>
</g>
</g>
<!-- muso_soseki&#45;&gt;monbun_kenshin -->
<g id="edge27" class="edge">
<title>muso_soseki&#45;&gt;monbun_kenshin</title>
<g id="a_edge27"><a xlink:title="禅僧と僧侶。">
<path fill="none" stroke="#666666" stroke-width="1.5" d="M785.76,-73.3C784.45,-72.12 783.1,-70.89 781.76,-69.67"/>
<polygon fill="#666666" stroke="#666666" stroke-width="1.5" points="783.07,-68.02 777.21,-65.55 780.25,-71.14 783.07,-68.02"/>
</a>
</g>
</g>
</g>
</svg>
