<?xml version="1.0" encoding="UTF-8" standalone="no"?>
<!DOCTYPE svg PUBLIC "-//W3C//DTD SVG 1.1//EN"
 "http://www.w3.org/Graphics/SVG/1.1/DTD/svg11.dtd">
<!-- Generated by graphviz version 2.43.0 (0)
 -->
<!-- Title: timeline_1331_10 Pages: 1 -->
<svg width="845pt" height="672pt"
 viewBox="0.00 0.00 844.94 671.89" xmlns="http://www.w3.org/2000/svg" xmlns:xlink="http://www.w3.org/1999/xlink">
<g id="graph0" class="graph" transform="scale(1 1) rotate(0) translate(4 667.89)">
<title>timeline_1331_10</title>
<polygon fill="#ffffff" stroke="transparent" points="-4,4 -4,-667.89 840.94,-667.89 840.94,4 -4,4"/>
<!-- godaigo_tenno -->
<g id="node1" class="node">
<title>godaigo_tenno</title>
<g id="a_node1"><a xlink:href="https://ja.wikipedia.org/wiki/後醍醐天皇" xlink:title="大覚寺統。笠置山にて挙兵し討幕を画策する。" target="_blank">
<polygon fill="#fcfcfc" stroke="#fcfcfc" stroke-width="0.1" points="232.59,-633.86 131.59,-633.86 131.59,-611.86 232.59,-611.86 232.59,-633.86"/>
<text text-anchor="middle" x="182.09" y="-619.16" font-family="sans-serif" font-size="14.00" fill="#cc0000">後醍醐天皇</text>
</a>
</g>
</g>
<!-- moriyoshi_shinnou -->
<g id="node2" class="node">
<title>moriyoshi_shinnou</title>
<g id="a_node2"><a xlink:href="https://ja.wikipedia.org/wiki/護良親王" xlink:title="後醍醐天皇の皇子。吉野で挙兵し討幕を指揮。" target="_blank">
<polygon fill="#fcfcfc" stroke="#fcfcfc" stroke-width="0.1" points="221.86,-572.13 120.86,-572.13 120.86,-550.13 221.86,-550.13 221.86,-572.13"/>
<text text-anchor="middle" x="171.36" y="-557.43" font-family="sans-serif" font-size="14.00" fill="#cc0000">護良親王</text>
</a>
</g>
</g>
<!-- godaigo_tenno&#45;&gt;moriyoshi_shinnou -->
<g id="edge1" class="edge">
<title>godaigo_tenno&#45;&gt;moriyoshi_shinnou</title>
<g id="a_edge1"><a xlink:title="討幕の挙兵。">
<path fill="none" stroke="#cc0000" stroke-width="2.8" d="M180.17,-611.82C178.76,-603.67 176.78,-592.33 175.06,-582.43"/>
<polygon fill="#cc0000" stroke="#cc0000" stroke-width="2.8" points="178.5,-581.74 173.33,-572.49 171.6,-582.94 178.5,-581.74"/>
</a>
</g>
</g>
<!-- tsuneyoshi_shinnou -->
<g id="node4" class="node">
<title>tsuneyoshi_shinnou</title>
<g id="a_node4"><a xlink:href="https://ja.wikipedia.org/wiki/恒良親王" xlink:title="後醍醐天皇の皇子。" target="_blank">
<polygon fill="#fcfcfc" stroke="#fcfcfc" stroke-width="0.1" points="290.08,-603.85 189.08,-603.85 189.08,-581.85 290.08,-581.85 290.08,-603.85"/>
<text text-anchor="middle" x="239.58" y="-589.15" font-family="sans-serif" font-size="14.00" fill="#cc0000">恒良親王</text>
</a>
</g>
</g>
<!-- godaigo_tenno&#45;&gt;tsuneyoshi_shinnou -->
<g id="edge2" class="edge">
<title>godaigo_tenno&#45;&gt;tsuneyoshi_shinnou</title>
<g id="a_edge2"><a xlink:title="討幕の挙兵。">
<path fill="none" stroke="#cc0000" stroke-width="2.8" d="M203.17,-611.86C205.2,-610.8 207.29,-609.71 209.39,-608.61"/>
<polygon fill="#cc0000" stroke="#cc0000" stroke-width="2.8" points="211.26,-611.58 218.5,-603.86 208.02,-605.38 211.26,-611.58"/>
</a>
</g>
</g>
<!-- hino_suketomo -->
<g id="node5" class="node">
<title>hino_suketomo</title>
<g id="a_node5"><a xlink:href="https://ja.wikipedia.org/wiki/日野資朝" xlink:title="討幕計画の主要人物。" target="_blank">
<polygon fill="#fcfcfc" stroke="#fcfcfc" stroke-width="0.1" points="102.74,-553.52 1.74,-553.52 1.74,-531.52 102.74,-531.52 102.74,-553.52"/>
<text text-anchor="middle" x="52.24" y="-538.82" font-family="sans-serif" font-size="14.00" fill="#cc0000">日野資朝</text>
</a>
</g>
</g>
<!-- godaigo_tenno&#45;&gt;hino_suketomo -->
<g id="edge4" class="edge">
<title>godaigo_tenno&#45;&gt;hino_suketomo</title>
<g id="a_edge4"><a xlink:title="討幕計画の指令。">
<path fill="none" stroke="#cc0000" stroke-width="2.8" d="M180.82,-611.65C178.93,-600.79 174.28,-584.82 162.92,-576.96 158.78,-574.09 122.54,-576.58 117.66,-575.33 103.87,-571.8 89.61,-565.08 77.95,-558.63"/>
<polygon fill="#cc0000" stroke="#cc0000" stroke-width="2.8" points="79.61,-555.55 69.2,-553.58 76.11,-561.61 79.61,-555.55"/>
</a>
</g>
</g>
<!-- hino_toshimoto -->
<g id="node6" class="node">
<title>hino_toshimoto</title>
<g id="a_node6"><a xlink:href="https://ja.wikipedia.org/wiki/日野俊基" xlink:title="討幕計画の主要人物。" target="_blank">
<polygon fill="#fcfcfc" stroke="#fcfcfc" stroke-width="0.1" points="159.72,-602.16 58.72,-602.16 58.72,-580.16 159.72,-580.16 159.72,-602.16"/>
<text text-anchor="middle" x="109.22" y="-587.46" font-family="sans-serif" font-size="14.00" fill="#cc0000">日野俊基</text>
</a>
</g>
</g>
<!-- godaigo_tenno&#45;&gt;hino_toshimoto -->
<g id="edge5" class="edge">
<title>godaigo_tenno&#45;&gt;hino_toshimoto</title>
<g id="a_edge5"><a xlink:title="討幕計画の指令。">
<path fill="none" stroke="#cc0000" stroke-width="2.8" d="M156.6,-611.77C152.52,-610 148.24,-608.13 143.99,-606.28"/>
<polygon fill="#cc0000" stroke="#cc0000" stroke-width="2.8" points="145.38,-603.07 134.82,-602.29 142.59,-609.49 145.38,-603.07"/>
</a>
</g>
</g>
<!-- madenokoji_nobufusa -->
<g id="node7" class="node">
<title>madenokoji_nobufusa</title>
<g id="a_node7"><a xlink:href="https://ja.wikipedia.org/wiki/万里小路宣房" xlink:title="後醍醐の側近。" target="_blank">
<polygon fill="#fcfcfc" stroke="#fcfcfc" stroke-width="0.1" points="352.28,-571.66 251.28,-571.66 251.28,-549.66 352.28,-549.66 352.28,-571.66"/>
<text text-anchor="middle" x="301.78" y="-556.96" font-family="sans-serif" font-size="14.00" fill="#000000">万里小路宣房</text>
</a>
</g>
</g>
<!-- godaigo_tenno&#45;&gt;madenokoji_nobufusa -->
<g id="edge6" class="edge">
<title>godaigo_tenno&#45;&gt;madenokoji_nobufusa</title>
<g id="a_edge6"><a xlink:title="後醍醐の側近。">
<path fill="none" stroke="#cc0000" stroke-width="2.8" d="M232.6,-628.78C254.34,-628.39 278.18,-623.49 293.28,-607.05 294.92,-605.27 294.71,-592.24 295.24,-582.02"/>
<polygon fill="#cc0000" stroke="#cc0000" stroke-width="2.8" points="298.74,-582.24 296.41,-571.9 291.78,-581.43 298.74,-582.24"/>
</a>
</g>
</g>
<!-- kitabatake_chikafusa -->
<g id="node8" class="node">
<title>kitabatake_chikafusa</title>
<g id="a_node8"><a xlink:href="https://ja.wikipedia.org/wiki/北畠親房" xlink:title="後醍醐の側近。公卿。" target="_blank">
<polygon fill="#fcfcfc" stroke="#fcfcfc" stroke-width="0.1" points="311.67,-469.81 210.67,-469.81 210.67,-447.81 311.67,-447.81 311.67,-469.81"/>
<text text-anchor="middle" x="261.17" y="-455.11" font-family="sans-serif" font-size="14.00" fill="#000000">北畠親房</text>
</a>
</g>
</g>
<!-- godaigo_tenno&#45;&gt;kitabatake_chikafusa -->
<g id="edge7" class="edge">
<title>godaigo_tenno&#45;&gt;kitabatake_chikafusa</title>
<g id="a_edge7"><a xlink:title="後醍醐の側近。">
<path fill="none" stroke="#cc0000" stroke-width="2.8" d="M179.48,-611.78C177.83,-601.7 177.38,-587.15 185.88,-578.65 192.06,-572.48 217.35,-579.45 225.06,-575.33 239.53,-567.59 233.55,-554.08 248.08,-546.46 252.85,-543.97 268.55,-548.76 272.23,-544.83 288.51,-527.41 280.41,-498.62 271.87,-479.19"/>
<polygon fill="#cc0000" stroke="#cc0000" stroke-width="2.8" points="274.95,-477.52 267.49,-470 268.63,-480.53 274.95,-477.52"/>
</a>
</g>
</g>
<!-- kusunoki_masashige -->
<g id="node9" class="node">
<title>kusunoki_masashige</title>
<g id="a_node9"><a xlink:href="https://ja.wikipedia.org/wiki/楠木正成" xlink:title="河内の土豪。笠置山に呼応して挙兵。" target="_blank">
<polygon fill="#fcfcfc" stroke="#fcfcfc" stroke-width="0.1" points="259.73,-238.83 158.73,-238.83 158.73,-216.83 259.73,-216.83 259.73,-238.83"/>
<text text-anchor="middle" x="209.23" y="-224.13" font-family="sans-serif" font-size="14.00" fill="#cc0000">楠木正成</text>
</a>
</g>
</g>
<!-- godaigo_tenno&#45;&gt;kusunoki_masashige -->
<g id="edge3" class="edge">
<title>godaigo_tenno&#45;&gt;kusunoki_masashige</title>
<g id="a_edge3"><a xlink:title="討幕の挙兵。">
<path fill="none" stroke="#cc0000" stroke-width="2.8" d="M180.82,-611.65C178.93,-600.79 174.28,-584.82 162.92,-576.96 158.78,-574.09 121.15,-578.95 117.66,-575.33 108.9,-566.25 111.63,-558.02 117.66,-546.93 129.59,-525 142.1,-526.76 164.83,-516.43 167.19,-515.36 168.75,-516.79 170.45,-514.82 204.83,-475.08 208.92,-308.9 209.27,-249.25"/>
<polygon fill="#cc0000" stroke="#cc0000" stroke-width="2.8" points="212.77,-249.12 209.3,-239.11 205.77,-249.1 212.77,-249.12"/>
</a>
</g>
</g>
<!-- chigusa_tadaaki -->
<g id="node13" class="node">
<title>chigusa_tadaaki</title>
<g id="a_node13"><a xlink:href="https://ja.wikipedia.org/wiki/千種忠顕" xlink:title="後醍醐の側近。" target="_blank">
<polygon fill="#fcfcfc" stroke="#fcfcfc" stroke-width="0.1" points="101,-481.62 0,-481.62 0,-459.62 101,-459.62 101,-481.62"/>
<text text-anchor="middle" x="50.5" y="-466.92" font-family="sans-serif" font-size="14.00" fill="#cc0000">千種忠顕</text>
</a>
</g>
</g>
<!-- godaigo_tenno&#45;&gt;chigusa_tadaaki -->
<g id="edge8" class="edge">
<title>godaigo_tenno&#45;&gt;chigusa_tadaaki</title>
<g id="a_edge8"><a xlink:title="後醍醐の側近。">
<path fill="none" stroke="#cc0000" stroke-width="2.8" d="M180.82,-611.65C178.93,-600.79 174.28,-584.82 162.92,-576.96 158.78,-574.09 121.57,-578.5 117.66,-575.33 100.93,-561.77 120.7,-544 105.94,-528.32 92.24,-513.77 76.98,-529.15 63.05,-514.82 57.1,-508.7 53.93,-499.96 52.25,-491.87"/>
<polygon fill="#cc0000" stroke="#cc0000" stroke-width="2.8" points="55.71,-491.28 50.81,-481.88 48.78,-492.28 55.71,-491.28"/>
</a>
</g>
</g>
<!-- kikuchi_taketoki -->
<g id="node14" class="node">
<title>kikuchi_taketoki</title>
<g id="a_node14"><a xlink:href="https://ja.wikipedia.org/wiki/菊池武時" xlink:title="九州の有力武士。討幕に呼応。" target="_blank">
<polygon fill="#fcfcfc" stroke="#fcfcfc" stroke-width="0.1" points="180.76,-88.61 79.76,-88.61 79.76,-66.61 180.76,-66.61 180.76,-88.61"/>
<text text-anchor="middle" x="130.26" y="-73.91" font-family="sans-serif" font-size="14.00" fill="#cc0000">菊池武時</text>
</a>
</g>
</g>
<!-- godaigo_tenno&#45;&gt;kikuchi_taketoki -->
<g id="edge9" class="edge">
<title>godaigo_tenno&#45;&gt;kikuchi_taketoki</title>
<g id="a_edge9"><a xlink:title="討幕の挙兵。">
<path fill="none" stroke="#cc0000" stroke-width="2.8" d="M180.82,-611.65C178.93,-600.79 174.28,-584.82 162.92,-576.96 158.78,-574.09 121.15,-578.95 117.66,-575.33 108.9,-566.25 111.63,-558.02 117.66,-546.93 129.59,-525 142.1,-526.76 164.83,-516.43 167.19,-515.36 168.88,-516.9 170.45,-514.82 178.05,-504.74 171.49,-499 170.45,-486.42 160.21,-363.19 134.78,-335.24 124.54,-212 121.22,-172.09 124.92,-125.34 127.72,-98.83"/>
<polygon fill="#cc0000" stroke="#cc0000" stroke-width="2.8" points="131.21,-99.11 128.84,-88.78 124.25,-98.33 131.21,-99.11"/>
</a>
</g>
</g>
<!-- munenaga_shinnou -->
<g id="node3" class="node">
<title>munenaga_shinnou</title>
<g id="a_node3"><a xlink:href="https://ja.wikipedia.org/wiki/宗良親王" xlink:title="後醍醐天皇の皇子。" target="_blank">
<polygon fill="#fcfcfc" stroke="#fcfcfc" stroke-width="0.1" points="286.89,-663.89 185.89,-663.89 185.89,-641.89 286.89,-641.89 286.89,-663.89"/>
<text text-anchor="middle" x="236.39" y="-649.19" font-family="sans-serif" font-size="14.00" fill="#cc0000">宗良親王</text>
</a>
</g>
</g>
<!-- munenaga_shinnou&#45;&gt;godaigo_tenno -->
<g id="edge26" class="edge">
<title>munenaga_shinnou&#45;&gt;godaigo_tenno</title>
<g id="a_edge26"><a xlink:title="皇子としての連帯。">
<path fill="none" stroke="#666666" stroke-width="1.5" d="M216.48,-641.88C213.53,-640.24 210.46,-638.54 207.41,-636.86"/>
<polygon fill="#666666" stroke="#666666" stroke-width="1.5" points="208.27,-634.93 202,-633.87 206.23,-638.61 208.27,-634.93"/>
</a>
</g>
</g>
<!-- kusunoki_masasue -->
<g id="node10" class="node">
<title>kusunoki_masasue</title>
<g id="a_node10"><a xlink:href="https://ja.wikipedia.org/wiki/楠木正季" xlink:title="正成の弟。挙兵に参加。" target="_blank">
<polygon fill="#fcfcfc" stroke="#fcfcfc" stroke-width="0.1" points="228.74,-208.8 127.74,-208.8 127.74,-186.8 228.74,-186.8 228.74,-208.8"/>
<text text-anchor="middle" x="178.24" y="-194.1" font-family="sans-serif" font-size="14.00" fill="#cc0000">楠木正季</text>
</a>
</g>
</g>
<!-- kusunoki_masashige&#45;&gt;kusunoki_masasue -->
<g id="edge25" class="edge">
<title>kusunoki_masashige&#45;&gt;kusunoki_masasue</title>
<g id="a_edge25"><a xlink:title="兄弟の協力。">
<path fill="none" stroke="#666666" stroke-width="1.5" d="M197.69,-216.65C196.55,-215.54 195.37,-214.4 194.19,-213.26"/>
<polygon fill="#666666" stroke="#666666" stroke-width="1.5" points="195.46,-211.56 189.69,-208.89 192.53,-214.57 195.46,-211.56"/>
</a>
</g>
</g>
<!-- horikawa_tomochika -->
<g id="node11" class="node">
<title>horikawa_tomochika</title>
<g id="a_node11"><a xlink:href="https://ja.wikipedia.org/wiki/堀川具親" xlink:title="公卿。" target="_blank">
<polygon fill="#fcfcfc" stroke="#fcfcfc" stroke-width="0.1" points="167.25,-511.62 66.25,-511.62 66.25,-489.62 167.25,-489.62 167.25,-511.62"/>
<text text-anchor="middle" x="116.75" y="-496.92" font-family="sans-serif" font-size="14.00" fill="#000000">堀川具親</text>
</a>
</g>
</g>
<!-- shijo_takadata -->
<g id="node12" class="node">
<title>shijo_takadata</title>
<g id="a_node12"><a xlink:href="https://ja.wikipedia.org/wiki/四条隆資" xlink:title="公卿。" target="_blank">
<polygon fill="#fcfcfc" stroke="#fcfcfc" stroke-width="0.1" points="269.03,-541.63 168.03,-541.63 168.03,-519.63 269.03,-519.63 269.03,-541.63"/>
<text text-anchor="middle" x="218.53" y="-526.93" font-family="sans-serif" font-size="14.00" fill="#000000">四条隆資</text>
</a>
</g>
</g>
<!-- horikawa_tomochika&#45;&gt;shijo_takadata -->
<g id="edge27" class="edge">
<title>horikawa_tomochika&#45;&gt;shijo_takadata</title>
<g id="a_edge27"><a xlink:title="宮中の公卿。">
<path fill="none" stroke="#666666" stroke-width="1.5" d="M154.07,-511.63C160.98,-513.67 168.26,-515.81 175.33,-517.9"/>
<polygon fill="#666666" stroke="#666666" stroke-width="1.5" points="174.86,-519.95 181.21,-519.63 176.05,-515.92 174.86,-519.95"/>
</a>
</g>
</g>
<!-- gofushimi_in -->
<g id="node15" class="node">
<title>gofushimi_in</title>
<g id="a_node15"><a xlink:href="https://ja.wikipedia.org/wiki/後伏見天皇" xlink:title="持明院統。幕府の支持を受ける。" target="_blank">
<polygon fill="#fcfcfc" stroke="#fcfcfc" stroke-width="0.1" points="448.07,-631.67 347.07,-631.67 347.07,-609.67 448.07,-609.67 448.07,-631.67"/>
<text text-anchor="middle" x="397.57" y="-616.97" font-family="sans-serif" font-size="14.00" fill="#0000cc">後伏見院</text>
</a>
</g>
</g>
<!-- hanazono_in -->
<g id="node16" class="node">
<title>hanazono_in</title>
<g id="a_node16"><a xlink:href="https://ja.wikipedia.org/wiki/花園天皇" xlink:title="持明院統。" target="_blank">
<polygon fill="#fcfcfc" stroke="#fcfcfc" stroke-width="0.1" points="399.21,-601.67 298.21,-601.67 298.21,-579.67 399.21,-579.67 399.21,-601.67"/>
<text text-anchor="middle" x="348.71" y="-586.97" font-family="sans-serif" font-size="14.00" fill="#0000cc">花園院</text>
</a>
</g>
</g>
<!-- gofushimi_in&#45;&gt;hanazono_in -->
<g id="edge22" class="edge">
<title>gofushimi_in&#45;&gt;hanazono_in</title>
<g id="a_edge22"><a xlink:title="持明院統の連携。">
<path fill="none" stroke="#0000aa" stroke-width="2" d="M379.66,-609.67C377.67,-608.45 375.61,-607.19 373.55,-605.92"/>
<polygon fill="#0000aa" stroke="#0000aa" stroke-width="2" points="374.91,-603.47 366.63,-601.67 371.98,-608.24 374.91,-603.47"/>
</a>
</g>
</g>
<!-- gofukakusa_in -->
<g id="node18" class="node">
<title>gofukakusa_in</title>
<g id="a_node18"><a xlink:href="https://ja.wikipedia.org/wiki/後深草天皇" xlink:title="持明院統。" target="_blank">
<polygon fill="#fcfcfc" stroke="#fcfcfc" stroke-width="0.1" points="508.3,-584.79 407.3,-584.79 407.3,-562.79 508.3,-562.79 508.3,-584.79"/>
<text text-anchor="middle" x="457.8" y="-570.09" font-family="sans-serif" font-size="14.00" fill="#aaaaaa">後深草院</text>
</a>
</g>
</g>
<!-- gofushimi_in&#45;&gt;gofukakusa_in -->
<g id="edge24" class="edge">
<title>gofushimi_in&#45;&gt;gofukakusa_in</title>
<g id="a_edge24"><a xlink:title="持明院統の先祖。">
<path fill="none" stroke="#0000aa" stroke-width="2" d="M411.85,-609.56C419.35,-603.72 428.68,-596.46 436.98,-590"/>
<polygon fill="#0000aa" stroke="#0000aa" stroke-width="2" points="439.04,-591.95 443.63,-584.82 435.6,-587.53 439.04,-591.95"/>
</a>
</g>
</g>
<!-- kogen_tenno -->
<g id="node17" class="node">
<title>kogen_tenno</title>
<g id="a_node17"><a xlink:href="https://ja.wikipedia.org/wiki/光厳天皇" xlink:title="持明院統。幕府の意向により即位。" target="_blank">
<polygon fill="#fcfcfc" stroke="#fcfcfc" stroke-width="0.1" points="464.07,-661.69 363.07,-661.69 363.07,-639.69 464.07,-639.69 464.07,-661.69"/>
<text text-anchor="middle" x="413.57" y="-646.99" font-family="sans-serif" font-size="14.00" fill="#0000cc">光厳天皇</text>
</a>
</g>
</g>
<!-- hanazono_in&#45;&gt;kogen_tenno -->
<g id="edge23" class="edge">
<title>hanazono_in&#45;&gt;kogen_tenno</title>
<g id="a_edge23"><a xlink:title="持明院統の即位。">
<path fill="none" stroke="#0000aa" stroke-width="2" d="M343.49,-601.71C339.71,-611.47 336.46,-625.58 343.87,-634.87 347,-638.79 350.87,-641.86 355.18,-644.26"/>
<polygon fill="#0000aa" stroke="#0000aa" stroke-width="2" points="354.33,-646.95 362.78,-647.69 356.64,-641.85 354.33,-646.95"/>
</a>
</g>
</g>
<!-- hojo_takatoki -->
<g id="node19" class="node">
<title>hojo_takatoki</title>
<g id="a_node19"><a xlink:href="https://ja.wikipedia.org/wiki/北条高時" xlink:title="鎌倉幕府得宗。討幕軍への追討を指令。" target="_blank">
<polygon fill="#fcfcfc" stroke="#fcfcfc" stroke-width="0.1" points="628.77,-547.33 527.77,-547.33 527.77,-525.33 628.77,-525.33 628.77,-547.33"/>
<text text-anchor="middle" x="578.27" y="-532.63" font-family="sans-serif" font-size="14.00" fill="#004400">北条高時</text>
</a>
</g>
</g>
<!-- hojo_moritoki -->
<g id="node20" class="node">
<title>hojo_moritoki</title>
<g id="a_node20"><a xlink:href="https://ja.wikipedia.org/wiki/北条守時" xlink:title="鎌倉幕府執権。" target="_blank">
<polygon fill="#fcfcfc" stroke="#fcfcfc" stroke-width="0.1" points="643.22,-517.09 542.22,-517.09 542.22,-495.09 643.22,-495.09 643.22,-517.09"/>
<text text-anchor="middle" x="592.72" y="-502.39" font-family="sans-serif" font-size="14.00" fill="#004400">北条守時</text>
</a>
</g>
</g>
<!-- hojo_takatoki&#45;&gt;hojo_moritoki -->
<g id="edge10" class="edge">
<title>hojo_takatoki&#45;&gt;hojo_moritoki</title>
<g id="a_edge10"><a xlink:title="幕府の支配体制。">
<path fill="none" stroke="#005500" stroke-width="2.8" d="M583.65,-525.07C583.73,-524.91 583.8,-524.75 583.88,-524.59"/>
<polygon fill="#005500" stroke="#005500" stroke-width="2.8" points="586.23,-527.79 587.38,-517.26 579.91,-524.77 586.23,-527.79"/>
</a>
</g>
</g>
<!-- hojo_nakatoki -->
<g id="node21" class="node">
<title>hojo_nakatoki</title>
<g id="a_node21"><a xlink:href="https://ja.wikipedia.org/wiki/北条仲時" xlink:title="六波羅探題北方。笠置討幕軍を追討。" target="_blank">
<polygon fill="#fcfcfc" stroke="#fcfcfc" stroke-width="0.1" points="615.59,-487.08 514.59,-487.08 514.59,-465.08 615.59,-465.08 615.59,-487.08"/>
<text text-anchor="middle" x="565.09" y="-472.38" font-family="sans-serif" font-size="14.00" fill="#004400">北条仲時</text>
</a>
</g>
</g>
<!-- hojo_takatoki&#45;&gt;hojo_nakatoki -->
<g id="edge11" class="edge">
<title>hojo_takatoki&#45;&gt;hojo_nakatoki</title>
<g id="a_edge11"><a xlink:title="幕府の支配体制。">
<path fill="none" stroke="#005500" stroke-width="2.8" d="M543.39,-525.18C541.74,-523.74 540.25,-522.12 539.02,-520.29 533.47,-512.02 532.82,-505.96 537.55,-496.15"/>
<polygon fill="#005500" stroke="#005500" stroke-width="2.8" points="540.64,-497.79 542.5,-487.36 534.54,-494.36 540.64,-497.79"/>
</a>
</g>
</g>
<!-- nagasaki_takasuke -->
<g id="node22" class="node">
<title>nagasaki_takasuke</title>
<g id="a_node22"><a xlink:href="https://ja.wikipedia.org/wiki/長崎高資" xlink:title="鎌倉幕府内管領。" target="_blank">
<polygon fill="#fcfcfc" stroke="#fcfcfc" stroke-width="0.1" points="541.06,-326.21 440.06,-326.21 440.06,-304.21 541.06,-304.21 541.06,-326.21"/>
<text text-anchor="middle" x="490.56" y="-311.51" font-family="sans-serif" font-size="14.00" fill="#004400">長崎高資</text>
</a>
</g>
</g>
<!-- hojo_takatoki&#45;&gt;nagasaki_takasuke -->
<g id="edge12" class="edge">
<title>hojo_takatoki&#45;&gt;nagasaki_takasuke</title>
<g id="a_edge12"><a xlink:title="幕府の支配体制。">
<path fill="none" stroke="#005500" stroke-width="2.8" d="M547.17,-525.14C544.32,-523.67 541.56,-522.05 539.02,-520.29 487.97,-484.81 474.36,-466.92 456.42,-407.39 448.71,-381.83 463.17,-353.1 475.58,-334.61"/>
<polygon fill="#005500" stroke="#005500" stroke-width="2.8" points="478.47,-336.59 481.41,-326.41 472.76,-332.53 478.47,-336.59"/>
</a>
</g>
</g>
<!-- nagasaki_enki -->
<g id="node23" class="node">
<title>nagasaki_enki</title>
<g id="a_node23"><a xlink:href="https://ja.wikipedia.org/wiki/長崎円喜" xlink:title="鎌倉幕府内管領。" target="_blank">
<polygon fill="#fcfcfc" stroke="#fcfcfc" stroke-width="0.1" points="473.11,-296.08 372.11,-296.08 372.11,-274.08 473.11,-274.08 473.11,-296.08"/>
<text text-anchor="middle" x="422.61" y="-281.38" font-family="sans-serif" font-size="14.00" fill="#004400">長崎円喜</text>
</a>
</g>
</g>
<!-- hojo_takatoki&#45;&gt;nagasaki_enki -->
<g id="edge13" class="edge">
<title>hojo_takatoki&#45;&gt;nagasaki_enki</title>
<g id="a_edge13"><a xlink:title="幕府の支配体制。">
<path fill="none" stroke="#005500" stroke-width="2.8" d="M547.17,-525.14C544.32,-523.67 541.56,-522.05 539.02,-520.29 524.14,-509.94 522.58,-504.55 511.39,-490.28 484.11,-455.49 474.75,-447.62 456.42,-407.39 440.98,-373.51 431.19,-331.07 426.32,-306.13"/>
<polygon fill="#005500" stroke="#005500" stroke-width="2.8" points="429.76,-305.47 424.48,-296.29 422.88,-306.76 429.76,-305.47"/>
</a>
</g>
</g>
<!-- uesugi_shigefusa -->
<g id="node24" class="node">
<title>uesugi_shigefusa</title>
<g id="a_node24"><a xlink:href="https://ja.wikipedia.org/wiki/上杉重房" xlink:title="有力御家人。" target="_blank">
<polygon fill="#fcfcfc" stroke="#fcfcfc" stroke-width="0.1" points="790.83,-556.99 689.83,-556.99 689.83,-534.99 790.83,-534.99 790.83,-556.99"/>
<text text-anchor="middle" x="740.33" y="-542.29" font-family="sans-serif" font-size="14.00" fill="#444444">上杉重房</text>
</a>
</g>
</g>
<!-- hojo_takatoki&#45;&gt;uesugi_shigefusa -->
<g id="edge14" class="edge">
<title>hojo_takatoki&#45;&gt;uesugi_shigefusa</title>
<g id="a_edge14"><a xlink:title="鎌倉幕府の有力御家人。">
<path fill="none" stroke="#005500" stroke-width="2.8" d="M629.1,-539.36C645.09,-540.31 662.91,-541.37 679.52,-542.36"/>
<polygon fill="#005500" stroke="#005500" stroke-width="2.8" points="679.49,-545.87 689.68,-542.97 679.9,-538.88 679.49,-545.87"/>
</a>
</g>
</g>
<!-- ashikaga_takauji -->
<g id="node25" class="node">
<title>ashikaga_takauji</title>
<g id="a_node25"><a xlink:href="https://ja.wikipedia.org/wiki/足利尊氏" xlink:title="鎌倉幕府の有力御家人。討幕軍追討に向かう。" target="_blank">
<polygon fill="#fcfcfc" stroke="#fcfcfc" stroke-width="0.1" points="555.43,-256.94 454.43,-256.94 454.43,-234.94 555.43,-234.94 555.43,-256.94"/>
<text text-anchor="middle" x="504.93" y="-242.24" font-family="sans-serif" font-size="14.00" fill="#000000">足利高氏</text>
</a>
</g>
</g>
<!-- hojo_nakatoki&#45;&gt;ashikaga_takauji -->
<g id="edge15" class="edge">
<title>hojo_nakatoki&#45;&gt;ashikaga_takauji</title>
<g id="a_edge15"><a xlink:title="討幕軍への追討指令。">
<path fill="none" stroke="#005500" stroke-width="2.8" d="M577.03,-464.86C599.09,-442.71 642.28,-391.79 622.83,-348.98 604.98,-309.67 563.91,-279.48 535.29,-262.22"/>
<polygon fill="#005500" stroke="#005500" stroke-width="2.8" points="536.88,-259.1 526.48,-257.08 533.35,-265.14 536.88,-259.1"/>
</a>
</g>
</g>
<!-- ashikaga_takauji&#45;&gt;hojo_takatoki -->
<g id="edge16" class="edge">
<title>ashikaga_takauji&#45;&gt;hojo_takatoki</title>
<g id="a_edge16"><a xlink:title="将軍への忠誠。">
<path fill="none" stroke="#555555" stroke-width="2" d="M502.41,-257.19C498.92,-269.85 491.26,-289.89 476.31,-299.28 472.6,-301.62 439.9,-297.84 436.86,-301.01 419.99,-318.64 437.78,-365.18 456.42,-407.39 481.52,-464.27 487.97,-484.81 539.02,-520.29 539.34,-520.51 539.66,-520.72 539.99,-520.94"/>
<polygon fill="#555555" stroke="#555555" stroke-width="2" points="538.85,-523.52 547.17,-525.14 541.67,-518.68 538.85,-523.52"/>
</a>
</g>
</g>
<!-- ashikaga_tadayoshi -->
<g id="node26" class="node">
<title>ashikaga_tadayoshi</title>
<g id="a_node26"><a xlink:href="https://ja.wikipedia.org/wiki/足利直義" xlink:title="足利高氏の弟。軍に従軍。" target="_blank">
<polygon fill="#fcfcfc" stroke="#fcfcfc" stroke-width="0.1" points="580.6,-226.92 479.6,-226.92 479.6,-204.92 580.6,-204.92 580.6,-226.92"/>
<text text-anchor="middle" x="530.1" y="-212.22" font-family="sans-serif" font-size="14.00" fill="#000000">足利直義</text>
</a>
</g>
</g>
<!-- ashikaga_takauji&#45;&gt;ashikaga_tadayoshi -->
<g id="edge17" class="edge">
<title>ashikaga_takauji&#45;&gt;ashikaga_tadayoshi</title>
<g id="a_edge17"><a xlink:title="一門の連携。">
<path fill="none" stroke="#555555" stroke-width="2" d="M514.3,-234.76C514.7,-234.29 515.11,-233.81 515.51,-233.32"/>
<polygon fill="#555555" stroke="#555555" stroke-width="2" points="517.81,-234.94 520.81,-227.01 513.52,-231.34 517.81,-234.94"/>
</a>
</g>
</g>
<!-- kira_sadamitsu -->
<g id="node28" class="node">
<title>kira_sadamitsu</title>
<g id="a_node28"><a xlink:href="https://ja.wikipedia.org/wiki/吉良貞義" xlink:title="足利一門の有力者。" target="_blank">
<polygon fill="#fcfcfc" stroke="#fcfcfc" stroke-width="0.1" points="560.62,-404.19 459.62,-404.19 459.62,-382.19 560.62,-382.19 560.62,-404.19"/>
<text text-anchor="middle" x="510.12" y="-389.49" font-family="sans-serif" font-size="14.00" fill="#000000">吉良貞義</text>
</a>
</g>
</g>
<!-- ashikaga_takauji&#45;&gt;kira_sadamitsu -->
<g id="edge19" class="edge">
<title>ashikaga_takauji&#45;&gt;kira_sadamitsu</title>
<g id="a_edge19"><a xlink:title="足利一門の連携。">
<path fill="none" stroke="#555555" stroke-width="2" d="M516.06,-257C525.63,-267.35 538.74,-283.78 544.26,-301.01 548.11,-313.03 550.17,-318.26 544.26,-329.41 537.01,-343.09 523.49,-335.75 515.43,-348.98 511,-356.25 509.4,-365.45 509.01,-373.57"/>
<polygon fill="#555555" stroke="#555555" stroke-width="2" points="506.21,-373.81 508.99,-381.82 511.81,-373.83 506.21,-373.81"/>
</a>
</g>
</g>
<!-- ko_no_moronao -->
<g id="node27" class="node">
<title>ko_no_moronao</title>
<g id="a_node27"><a xlink:href="https://ja.wikipedia.org/wiki/高師直" xlink:title="足利氏の執事。" target="_blank">
<polygon fill="#fcfcfc" stroke="#fcfcfc" stroke-width="0.1" points="607.17,-196.9 506.17,-196.9 506.17,-174.9 607.17,-174.9 607.17,-196.9"/>
<text text-anchor="middle" x="556.67" y="-182.2" font-family="sans-serif" font-size="14.00" fill="#000000">高師直</text>
</a>
</g>
</g>
<!-- ashikaga_tadayoshi&#45;&gt;ko_no_moronao -->
<g id="edge18" class="edge">
<title>ashikaga_tadayoshi&#45;&gt;ko_no_moronao</title>
<g id="a_edge18"><a xlink:title="足利氏の執事。">
<path fill="none" stroke="#555555" stroke-width="2" d="M539.99,-204.74C540.41,-204.27 540.84,-203.79 541.27,-203.3"/>
<polygon fill="#555555" stroke="#555555" stroke-width="2" points="543.65,-204.83 546.86,-196.99 539.46,-201.12 543.65,-204.83"/>
</a>
</g>
</g>
<!-- sasaki_doyo -->
<g id="node29" class="node">
<title>sasaki_doyo</title>
<g id="a_node29"><a xlink:href="https://ja.wikipedia.org/wiki/佐々木道誉" xlink:title="幕府の有力御家人。追討軍に参加。" target="_blank">
<polygon fill="#fcfcfc" stroke="#fcfcfc" stroke-width="0.1" points="537.98,-102.33 436.98,-102.33 436.98,-80.33 537.98,-80.33 537.98,-102.33"/>
<text text-anchor="middle" x="487.48" y="-87.63" font-family="sans-serif" font-size="14.00" fill="#000000">佐々木道誉</text>
</a>
</g>
</g>
<!-- sasaki_doyo&#45;&gt;hojo_takatoki -->
<g id="edge20" class="edge">
<title>sasaki_doyo&#45;&gt;hojo_takatoki</title>
<g id="a_edge20"><a xlink:title="幕府御家人としての関係。">
<path fill="none" stroke="#555555" stroke-width="2" d="M483.58,-102.43C475.58,-125.91 457.48,-182.54 451.23,-231.74 449.64,-244.26 444.28,-249.6 451.23,-260.14 457.91,-270.26 469.64,-260.76 476.31,-270.88 483.26,-281.42 485.04,-290.17 476.31,-299.28 473.28,-302.45 439.9,-297.84 436.86,-301.01 419.99,-318.64 437.78,-365.18 456.42,-407.39 481.52,-464.27 487.97,-484.81 539.02,-520.29 539.34,-520.51 539.66,-520.72 539.99,-520.94"/>
<polygon fill="#555555" stroke="#555555" stroke-width="2" points="538.85,-523.52 547.17,-525.14 541.67,-518.68 538.85,-523.52"/>
</a>
</g>
</g>
<!-- toki_yorisada -->
<g id="node30" class="node">
<title>toki_yorisada</title>
<g id="a_node30"><a xlink:href="https://ja.wikipedia.org/wiki/土岐頼貞" xlink:title="有力武士。" target="_blank">
<polygon fill="#fcfcfc" stroke="#fcfcfc" stroke-width="0.1" points="619.63,-374.18 518.63,-374.18 518.63,-352.18 619.63,-352.18 619.63,-374.18"/>
<text text-anchor="middle" x="569.13" y="-359.48" font-family="sans-serif" font-size="14.00" fill="#444444">土岐頼貞</text>
</a>
</g>
</g>
<!-- toki_yorisada&#45;&gt;hojo_takatoki -->
<g id="edge21" class="edge">
<title>toki_yorisada&#45;&gt;hojo_takatoki</title>
<g id="a_edge21"><a xlink:title="有力武士。">
<path fill="none" stroke="#555555" stroke-width="2" d="M569.71,-374.25C569.76,-383.54 568.79,-396.91 563.82,-407.39 549.41,-437.75 523.95,-430.71 511.39,-461.88 506.67,-473.59 506.8,-478.52 511.39,-490.28 517.98,-507.17 524.14,-509.94 539.02,-520.29 539.34,-520.51 539.66,-520.72 539.99,-520.94"/>
<polygon fill="#555555" stroke="#555555" stroke-width="2" points="538.85,-523.52 547.17,-525.14 541.67,-518.68 538.85,-523.52"/>
</a>
</g>
</g>
<!-- shimazu_sadahisa -->
<g id="node31" class="node">
<title>shimazu_sadahisa</title>
<g id="a_node31"><a xlink:href="https://ja.wikipedia.org/wiki/島津貞久" xlink:title="有力武士。" target="_blank">
<polygon fill="#fcfcfc" stroke="#fcfcfc" stroke-width="0.1" points="196.05,-22 95.05,-22 95.05,0 196.05,0 196.05,-22"/>
<text text-anchor="middle" x="145.55" y="-7.3" font-family="sans-serif" font-size="14.00" fill="#444444">島津貞久</text>
</a>
</g>
</g>
<!-- ouchi_nagahiro -->
<g id="node32" class="node">
<title>ouchi_nagahiro</title>
<g id="a_node32"><a xlink:href="https://ja.wikipedia.org/wiki/大内長弘" xlink:title="有力武士。" target="_blank">
<polygon fill="#fcfcfc" stroke="#fcfcfc" stroke-width="0.1" points="328.29,-178.79 227.29,-178.79 227.29,-156.79 328.29,-156.79 328.29,-178.79"/>
<text text-anchor="middle" x="277.79" y="-164.09" font-family="sans-serif" font-size="14.00" fill="#444444">大内長弘</text>
</a>
</g>
</g>
<!-- shimazu_sadahisa&#45;&gt;ouchi_nagahiro -->
<g id="edge29" class="edge">
<title>shimazu_sadahisa&#45;&gt;ouchi_nagahiro</title>
<g id="a_edge29"><a xlink:title="諸国の有力武士。">
<path fill="none" stroke="#666666" stroke-width="1.5" d="M155.06,-22.28C178.22,-49.74 237.6,-120.14 264.36,-151.87"/>
<polygon fill="#666666" stroke="#666666" stroke-width="1.5" points="262.89,-153.38 268.37,-156.62 266.1,-150.68 262.89,-153.38"/>
</a>
</g>
</g>
<!-- muso_soseki -->
<g id="node33" class="node">
<title>muso_soseki</title>
<g id="a_node33"><a xlink:href="https://ja.wikipedia.org/wiki/夢窓疎石" xlink:title="禅僧。" target="_blank">
<polygon fill="#fcfcfc" stroke="#fcfcfc" stroke-width="0.1" points="836.94,-92.72 735.94,-92.72 735.94,-70.72 836.94,-70.72 836.94,-92.72"/>
<text text-anchor="middle" x="786.44" y="-78.02" font-family="sans-serif" font-size="14.00" fill="#444444">夢窓疎石</text>
</a>
</g>
</g>
<!-- monbun_kenshin -->
<g id="node34" class="node">
<title>monbun_kenshin</title>
<g id="a_node34"><a xlink:href="https://ja.wikipedia.org/wiki/聞文謙信" xlink:title="僧侶。" target="_blank">
<polygon fill="#fcfcfc" stroke="#fcfcfc" stroke-width="0.1" points="803.6,-62.65 702.6,-62.65 702.6,-40.65 803.6,-40.65 803.6,-62.65"/>
<text text-anchor="middle" x="753.1" y="-47.95" font-family="sans-serif" font-size="14.00" fill="#444444">聞文謙信</text>
</a>
</g>
</g>
<!-- muso_soseki&#45;&gt;monbun_kenshin -->
<g id="edge28" class="edge">
<title>muso_soseki&#45;&gt;monbun_kenshin</title>
<g id="a_edge28"><a xlink:title="禅僧と僧侶。">
<path fill="none" stroke="#666666" stroke-width="1.5" d="M774.03,-70.52C772.71,-69.33 771.35,-68.11 769.99,-66.88"/>
<polygon fill="#666666" stroke="#666666" stroke-width="1.5" points="771.28,-65.21 765.42,-62.75 768.47,-68.33 771.28,-65.21"/>
</a>
</g>
</g>
</g>
</svg>
