<svg xmlns="http://www.w3.org/2000/svg" xmlns:xlink="http://www.w3.org/1999/xlink" viewBox="-53.28415367489822 -104.84521359837969 911.8736109470588 836.7591821603421">
<a xlink:title="討幕の挙兵を命じる。" >
<g class="edge" stroke="#cc0000" fill="#cc0000"><line x1="165.10" y1="-13.97" x2="171.10" y2="74.50" stroke="#cc0000" stroke-width="2.8"/><polygon points="171.10,74.50 164.69,66.83 176.42,66.03" fill="inherit" stroke="none"/></g>
</a>
<a xlink:title="皇子として討幕に関与。" >
<g class="edge" stroke="#cc0000" fill="#cc0000"><line x1="202.74" y1="-35.97" x2="230.21" y2="-43.85" stroke="#cc0000" stroke-width="2.8"/><polygon points="230.21,-43.85 224.06,-35.97 220.82,-47.27" fill="inherit" stroke="none"/></g>
</a>
<a xlink:title="皇子として討幕に関与。" >
<g class="edge" stroke="#cc0000" fill="#cc0000"><line x1="159.73" y1="-13.97" x2="100.25" y2="127.55" stroke="#cc0000" stroke-width="2.8"/><polygon points="100.25,127.55 97.97,117.81 108.80,122.37" fill="inherit" stroke="none"/></g>
</a>
<a xlink:title="皇子として討幕に関与。" >
<g class="edge" stroke="#cc0000" fill="#cc0000"><line x1="175.91" y1="-13.97" x2="231.50" y2="38.94" stroke="#cc0000" stroke-width="2.8"/><polygon points="231.50,38.94 221.59,37.62 229.69,29.11" fill="inherit" stroke="none"/></g>
</a>
<a xlink:title="討幕の挙兵を命じる。" >
<g class="edge" stroke="#cc0000" fill="#cc0000"><line x1="166.05" y1="-13.97" x2="228.81" y2="393.16" stroke="#cc0000" stroke-width="2.8"/><polygon points="228.81,393.16 221.77,386.06 233.39,384.27" fill="inherit" stroke="none"/></g>
</a>
<a xlink:title="隠岐脱出を支援。" >
<g class="edge" stroke="#cc0000" fill="#cc0000"><line x1="168.43" y1="-13.97" x2="355.37" y2="490.97" stroke="#cc0000" stroke-width="2.8"/><polygon points="355.37,490.97 347.05,485.42 358.08,481.34" fill="inherit" stroke="none"/></g>
</a>
<a xlink:title="持明院統の連携。" >
<g class="edge" stroke="#0000aa" fill="#0000aa"><line x1="363.47" y1="2.62" x2="330.77" y2="29.63" stroke="#0000aa" stroke-width="2"/><polygon points="330.77,29.63 333.26,19.95 340.75,29.01" fill="inherit" stroke="none"/></g>
</a>
<a xlink:title="皇位継承に関与。" >
<g class="edge" stroke="#0000aa" fill="#0000aa"><line x1="427.29" y1="-17.53" x2="429.95" y2="-18.01" stroke="#0000aa" stroke-width="2"/><polygon points="429.95,-18.01 423.04,-10.79 420.94,-22.35" fill="inherit" stroke="none"/></g>
</a>
<a xlink:title="幕府体制の維持。" >
<g class="edge" stroke="#005500" fill="#005500"><line x1="568.68" y1="63.24" x2="623.91" y2="122.62" stroke="#005500" stroke-width="2.8"/><polygon points="623.91,122.62 614.10,120.70 622.70,112.69" fill="inherit" stroke="none"/></g>
</a>
<a xlink:title="幕府の支配体制。" >
<g class="edge" stroke="#005500" fill="#005500"><line x1="555.70" y1="63.24" x2="490.18" y2="324.99" stroke="#005500" stroke-width="2.8"/><polygon points="490.18,324.99 486.44,315.72 497.85,318.57" fill="inherit" stroke="none"/></g>
</a>
<a xlink:title="幕府の支配体制。" >
<g class="edge" stroke="#005500" fill="#005500"><line x1="551.00" y1="63.24" x2="387.73" y2="304.07" stroke="#005500" stroke-width="2.8"/><polygon points="387.73,304.07 387.40,294.08 397.13,300.67" fill="inherit" stroke="none"/></g>
</a>
<a xlink:title="六波羅探題への指示。" >
<g class="edge" stroke="#005500" fill="#005500"><line x1="626.04" y1="144.62" x2="584.43" y2="201.13" stroke="#005500" stroke-width="2.8"/><polygon points="584.43,201.13 584.50,191.13 593.96,198.10" fill="inherit" stroke="none"/></g>
</a>
<a xlink:title="側近として補佐。" >
<g class="edge" stroke="#666666" fill="#666666"><line x1="261.46" y1="129.81" x2="171.25" y2="-13.97" stroke="#666666" stroke-width="1.5"/><polygon points="171.25,-13.97 180.53,-10.24 170.57,-4.00" fill="inherit" stroke="none"/></g>
</a>
<a xlink:title="後醍醐天皇を補佐。" >
<g class="edge" stroke="#666666" fill="#666666"><line x1="253.36" y1="255.02" x2="167.85" y2="-13.97" stroke="#666666" stroke-width="1.5"/><polygon points="167.85,-13.97 175.90,-8.04 164.70,-4.48" fill="inherit" stroke="none"/></g>
</a>
<a xlink:title="親子の連携。" >
<g class="edge" stroke="#666666" fill="#666666"><line x1="275.61" y1="255.02" x2="331.39" y2="222.30" stroke="#666666" stroke-width="1.5"/><polygon points="331.39,222.30 327.39,231.46 321.44,221.32" fill="inherit" stroke="none"/></g>
</a>
<a xlink:title="兄弟の協力関係。" >
<g class="edge" stroke="#555555" fill="#555555"><line x1="220.00" y1="415.16" x2="164.85" y2="472.88" stroke="#555555" stroke-width="2"/><polygon points="164.85,472.88 166.19,462.97 174.68,471.09" fill="inherit" stroke="none"/></g>
</a>
<a xlink:title="討幕の綸旨を受け挙兵。" >
<g class="edge" stroke="#cc0000" fill="#cc0000"><line x1="721.09" y1="301.92" x2="183.09" y2="-13.97" stroke="#cc0000" stroke-width="2.8"/><polygon points="183.09,-13.97 193.04,-14.95 187.09,-4.81" fill="inherit" stroke="none"/></g>
</a>
<a xlink:title="親子・兄弟の連携。" >
<g class="edge" stroke="#555555" fill="#555555"><line x1="749.48" y1="323.92" x2="798.94" y2="380.28" stroke="#555555" stroke-width="2"/><polygon points="798.94,380.28 789.18,378.08 798.02,370.32" fill="inherit" stroke="none"/></g>
</a>
<a xlink:title="親子・兄弟の連携。" >
<g class="edge" stroke="#555555" fill="#555555"><line x1="725.26" y1="323.92" x2="674.97" y2="361.91" stroke="#555555" stroke-width="2"/><polygon points="674.97,361.91 677.88,352.34 684.97,361.72" fill="inherit" stroke="none"/></g>
</a>
<a xlink:title="宮方の公卿。" >
<g class="edge" stroke="#666666" fill="#666666"><line x1="123.60" y1="223.94" x2="162.55" y2="-13.97" stroke="#666666" stroke-width="1.5"/><polygon points="162.55,-13.97 167.05,-5.04 155.44,-6.94" fill="inherit" stroke="none"/></g>
</a>
<a xlink:title="側近として補佐。" >
<g class="edge" stroke="#666666" fill="#666666"><line x1="200.36" y1="162.74" x2="166.46" y2="-13.97" stroke="#666666" stroke-width="1.5"/><polygon points="166.46,-13.97 173.76,-7.14 162.21,-4.92" fill="inherit" stroke="none"/></g>
</a>
<a xlink:title="挙兵への協力。" >
<g class="edge" stroke="#cc0000" fill="#cc0000"><line x1="324.20" y1="490.97" x2="125.80" y2="429.05" stroke="#cc0000" stroke-width="2.8"/><polygon points="125.80,429.05 135.27,425.85 131.77,437.07" fill="inherit" stroke="none"/></g>
</a>
<a xlink:title="挙兵への協力。" >
<g class="edge" stroke="#cc0000" fill="#cc0000"><line x1="346.36" y1="490.97" x2="178.13" y2="349.51" stroke="#cc0000" stroke-width="2.8"/><polygon points="178.13,349.51 188.10,350.22 180.54,359.21" fill="inherit" stroke="none"/></g>
</a>
<a xlink:title="側近として補佐。" >
<g class="edge" stroke="#666666" fill="#666666"><line x1="20.45" y1="202.25" x2="157.39" y2="-13.97" stroke="#666666" stroke-width="1.5"/><polygon points="157.39,-13.97 158.02,-3.99 148.09,-10.28" fill="inherit" stroke="none"/></g>
</a>
<a xlink:title="討幕軍への協力。" >
<g class="edge" stroke="#666666" fill="#666666"><line x1="796.32" y1="253.13" x2="750.22" y2="301.92" stroke="#666666" stroke-width="1.5"/><polygon points="750.22,301.92 751.50,292.00 760.05,300.08" fill="inherit" stroke="none"/></g>
</a>
<a xlink:title="九州での武士団連携。" >
<g class="edge" stroke="#666666" fill="#666666"><line x1="193.90" y1="591.32" x2="228.60" y2="670.91" stroke="#666666" stroke-width="1.5"/><polygon points="228.60,670.91 219.98,665.85 230.76,661.15" fill="inherit" stroke="none"/></g>
</a>
<a xlink:title="朝廷実務の補佐。" >
<g class="edge" stroke="#666666" fill="#666666"><line x1="331.53" y1="394.57" x2="168.74" y2="-13.97" stroke="#666666" stroke-width="1.5"/><polygon points="168.74,-13.97 177.19,-8.63 166.27,-4.28" fill="inherit" stroke="none"/></g>
</a>
<a xlink:title="将軍への忠誠。" >
<g class="edge" stroke="#555555" fill="#555555"><line x1="451.67" y1="393.93" x2="555.02" y2="63.24" stroke="#555555" stroke-width="2"/><polygon points="555.02,63.24 558.21,72.72 546.99,69.21" fill="inherit" stroke="none"/></g>
</a>
<a xlink:title="兄弟の連携。" >
<g class="edge" stroke="#555555" fill="#555555"><line x1="498.73" y1="411.92" x2="509.73" y2="413.44" stroke="#555555" stroke-width="2"/><polygon points="509.73,413.44 500.91,418.15 502.52,406.51" fill="inherit" stroke="none"/></g>
</a>
<a xlink:title="足利家臣団。" >
<g class="edge" stroke="#555555" fill="#555555"><line x1="451.27" y1="415.93" x2="466.04" y2="469.41" stroke="#555555" stroke-width="2"/><polygon points="466.04,469.41 458.22,463.18 469.55,460.05" fill="inherit" stroke="none"/></g>
</a>
<a xlink:title="足利一門。" >
<g class="edge" stroke="#555555" fill="#555555"><line x1="457.66" y1="415.93" x2="608.12" y2="591.58" stroke="#555555" stroke-width="2"/><polygon points="608.12,591.58 598.39,589.26 607.32,581.61" fill="inherit" stroke="none"/></g>
</a>
<a xlink:title="足利家の家臣団。" >
<g class="edge" stroke="#555555" fill="#555555"><line x1="575.91" y1="431.43" x2="634.24" y2="472.35" stroke="#555555" stroke-width="2"/><polygon points="634.24,472.35 624.24,472.52 630.99,462.90" fill="inherit" stroke="none"/></g>
</a>
<a xlink:title="足利一門。" >
<g class="edge" stroke="#666666" fill="#666666"><line x1="471.15" y1="262.25" x2="450.00" y2="393.93" stroke="#666666" stroke-width="1.5"/><polygon points="450.00,393.93 445.48,385.01 457.09,386.87" fill="inherit" stroke="none"/></g>
</a>
<a xlink:title="細川一門。" >
<g class="edge" stroke="#555555" fill="#555555"><line x1="471.91" y1="491.41" x2="503.03" y2="612.10" stroke="#555555" stroke-width="2"/><polygon points="503.03,612.10 495.32,605.73 506.70,602.79" fill="inherit" stroke="none"/></g>
</a>
<a xlink:title="細川一門。" >
<g class="edge" stroke="#555555" fill="#555555"><line x1="490.71" y1="491.41" x2="543.92" y2="518.47" stroke="#555555" stroke-width="2"/><polygon points="543.92,518.47 534.04,520.04 539.37,509.56" fill="inherit" stroke="none"/></g>
</a>
<a xlink:title="討幕に呼応。" >
<g class="edge" stroke="#cc0000" fill="#cc0000"><line x1="300.32" y1="582.59" x2="166.82" y2="-13.97" stroke="#cc0000" stroke-width="2.8"/><polygon points="166.82,-13.97 174.32,-7.36 162.85,-4.79" fill="inherit" stroke="none"/></g>
</a>
<a xlink:title="一門の連携。" >
<g class="edge" stroke="#cc0000" fill="#cc0000"><line x1="353.28" y1="600.52" x2="343.91" y2="599.23" stroke="#cc0000" stroke-width="2.8"/><polygon points="343.91,599.23 352.72,594.51 351.12,606.16" fill="inherit" stroke="none"/></g>
</a>
<a xlink:title="幕府御家人。" >
<g class="edge" stroke="#555555" fill="#555555"><line x1="460.42" y1="542.22" x2="556.25" y2="63.24" stroke="#555555" stroke-width="2"/><polygon points="556.25,63.24 560.43,72.33 548.90,70.02" fill="inherit" stroke="none"/></g>
</a>
<a xlink:title="有力武士。" >
<g class="edge" stroke="#555555" fill="#555555"><line x1="569.90" y1="297.69" x2="558.97" y2="63.24" stroke="#555555" stroke-width="2"/><polygon points="558.97,63.24 565.21,71.05 553.47,71.60" fill="inherit" stroke="none"/></g>
</a>
<a xlink:title="諸国の有力武士の連携。" >
<g class="edge" stroke="#005500" fill="#005500"><line x1="132.42" y1="656.60" x2="250.45" y2="502.78" stroke="#005500" stroke-width="2.8"/><polygon points="250.45,502.78 250.19,512.78 240.86,505.62" fill="inherit" stroke="none"/></g>
</a>
<a xlink:title="禅僧と僧侶。" >
<g class="edge" stroke="#666666" fill="#666666"><line x1="767.04" y1="530.92" x2="730.78" y2="610.24" stroke="#666666" stroke-width="1.5"/><polygon points="730.78,610.24 728.80,600.43 739.49,605.32" fill="inherit" stroke="none"/></g>
</a>
<a xlink:title="北条氏を支える重臣。" >
<g class="edge" stroke="#005500" fill="#005500"><line x1="694.80" y1="86.17" x2="602.66" y2="63.24" stroke="#005500" stroke-width="2.8"/><polygon points="602.66,63.24 611.93,59.49 609.09,70.90" fill="inherit" stroke="none"/></g>
</a>
<g class="node" transform="translate(164.35, -24.97)"><a xlink:href="https://ja.wikipedia.org/wiki/後醍醐天皇" xlink:title="元弘の変で敗北し、隠岐へ配流される。" target="_blank" ><polygon points="-50.50,-11.00 50.50,-11.00 50.50,11.00 -50.50,11.00 -50.50,-11.00" fill="#fcfcfc" stroke="#fcfcfc" stroke-width="0.1"/><text x="0" y="5" text-anchor="middle" font-family="sans-serif" font-size="14.00" fill="#cc0000">後醍醐天皇</text></a></g>
<g class="node" transform="translate(171.85, 85.50)"><a xlink:href="https://ja.wikipedia.org/wiki/護良親王" xlink:title="後醍醐天皇の皇子。討幕運動を推進。" target="_blank" ><polygon points="-50.50,-11.00 50.50,-11.00 50.50,11.00 -50.50,11.00 -50.50,-11.00" fill="#fcfcfc" stroke="#fcfcfc" stroke-width="0.1"/><text x="0" y="5" text-anchor="middle" font-family="sans-serif" font-size="14.00" fill="#cc0000">護良親王</text></a></g>
<g class="node" transform="translate(268.60, -54.85)"><a xlink:href="https://ja.wikipedia.org/wiki/宗良親王" xlink:title="後醍醐天皇の皇子。討幕運動に関与。" target="_blank" ><polygon points="-50.50,-11.00 50.50,-11.00 50.50,11.00 -50.50,11.00 -50.50,-11.00" fill="#fcfcfc" stroke="#fcfcfc" stroke-width="0.1"/><text x="0" y="5" text-anchor="middle" font-family="sans-serif" font-size="14.00" fill="#cc0000">宗良親王</text></a></g>
<g class="node" transform="translate(95.63, 138.55)"><a xlink:href="https://ja.wikipedia.org/wiki/成良親王" xlink:title="後醍醐天皇の皇子。" target="_blank" ><polygon points="-50.50,-11.00 50.50,-11.00 50.50,11.00 -50.50,11.00 -50.50,-11.00" fill="#fcfcfc" stroke="#fcfcfc" stroke-width="0.1"/><text x="0" y="5" text-anchor="middle" font-family="sans-serif" font-size="14.00" fill="#cc0000">成良親王</text></a></g>
<g class="node" transform="translate(243.06, 49.94)"><a xlink:href="https://ja.wikipedia.org/wiki/恒良親王" xlink:title="後醍醐天皇の皇子。" target="_blank" ><polygon points="-50.50,-11.00 50.50,-11.00 50.50,11.00 -50.50,11.00 -50.50,-11.00" fill="#fcfcfc" stroke="#fcfcfc" stroke-width="0.1"/><text x="0" y="5" text-anchor="middle" font-family="sans-serif" font-size="14.00" fill="#cc0000">恒良親王</text></a></g>
<g class="node" transform="translate(230.51, 404.16)"><a xlink:href="https://ja.wikipedia.org/wiki/楠木正成" xlink:title="河内の悪党。挙兵する。" target="_blank" ><polygon points="-50.50,-11.00 50.50,-11.00 50.50,11.00 -50.50,11.00 -50.50,-11.00" fill="#fcfcfc" stroke="#fcfcfc" stroke-width="0.1"/><text x="0" y="5" text-anchor="middle" font-family="sans-serif" font-size="14.00" fill="#cc0000">楠木正成</text></a></g>
<g class="node" transform="translate(359.45, 501.97)"><a xlink:href="https://ja.wikipedia.org/wiki/名和長年" xlink:title="伯耆の豪族。後醍醐天皇を支援。" target="_blank" ><polygon points="-50.50,-11.00 50.50,-11.00 50.50,11.00 -50.50,11.00 -50.50,-11.00" fill="#fcfcfc" stroke="#fcfcfc" stroke-width="0.1"/><text x="0" y="5" text-anchor="middle" font-family="sans-serif" font-size="14.00" fill="#cc0000">名和長年</text></a></g>
<g class="node" transform="translate(376.79, -8.38)"><a xlink:href="https://ja.wikipedia.org/wiki/後伏見天皇" xlink:title="持明院統。幕府の支持を受ける。" target="_blank" ><polygon points="-50.50,-11.00 50.50,-11.00 50.50,11.00 -50.50,11.00 -50.50,-11.00" fill="#fcfcfc" stroke="#fcfcfc" stroke-width="0.1"/><text x="0" y="5" text-anchor="middle" font-family="sans-serif" font-size="14.00" fill="#0000cc">後伏見院</text></a></g>
<g class="node" transform="translate(317.45, 40.63)"><a xlink:href="https://ja.wikipedia.org/wiki/花園天皇" xlink:title="持明院統。" target="_blank" ><polygon points="-50.50,-11.00 50.50,-11.00 50.50,11.00 -50.50,11.00 -50.50,-11.00" fill="#fcfcfc" stroke="#fcfcfc" stroke-width="0.1"/><text x="0" y="5" text-anchor="middle" font-family="sans-serif" font-size="14.00" fill="#0000cc">花園院</text></a></g>
<g class="node" transform="translate(480.45, -27.16)"><a xlink:href="https://ja.wikipedia.org/wiki/光厳天皇" xlink:title="持明院統。皇位継承者。" target="_blank" ><polygon points="-50.50,-11.00 50.50,-11.00 50.50,11.00 -50.50,11.00 -50.50,-11.00" fill="#fcfcfc" stroke="#fcfcfc" stroke-width="0.1"/><text x="0" y="5" text-anchor="middle" font-family="sans-serif" font-size="14.00" fill="#0000cc">光厳天皇</text></a></g>
<g class="node" transform="translate(558.45, 52.24)"><a xlink:href="https://ja.wikipedia.org/wiki/北条高時" xlink:title="鎌倉幕府得宗。" target="_blank" ><polygon points="-50.50,-11.00 50.50,-11.00 50.50,11.00 -50.50,11.00 -50.50,-11.00" fill="#fcfcfc" stroke="#fcfcfc" stroke-width="0.1"/><text x="0" y="5" text-anchor="middle" font-family="sans-serif" font-size="14.00" fill="#004400">北条高時</text></a></g>
<g class="node" transform="translate(634.14, 133.62)"><a xlink:href="https://ja.wikipedia.org/wiki/北条守時" xlink:title="鎌倉幕府執権。" target="_blank" ><polygon points="-50.50,-11.00 50.50,-11.00 50.50,11.00 -50.50,11.00 -50.50,-11.00" fill="#fcfcfc" stroke="#fcfcfc" stroke-width="0.1"/><text x="0" y="5" text-anchor="middle" font-family="sans-serif" font-size="14.00" fill="#004400">北条守時</text></a></g>
<g class="node" transform="translate(487.43, 335.99)"><a xlink:href="https://ja.wikipedia.org/wiki/長崎高資" xlink:title="鎌倉幕府内管領。" target="_blank" ><polygon points="-50.50,-11.00 50.50,-11.00 50.50,11.00 -50.50,11.00 -50.50,-11.00" fill="#fcfcfc" stroke="#fcfcfc" stroke-width="0.1"/><text x="0" y="5" text-anchor="middle" font-family="sans-serif" font-size="14.00" fill="#004400">長崎高資</text></a></g>
<g class="node" transform="translate(380.27, 315.07)"><a xlink:href="https://ja.wikipedia.org/wiki/長崎円喜" xlink:title="鎌倉幕府内管領。" target="_blank" ><polygon points="-50.50,-11.00 50.50,-11.00 50.50,11.00 -50.50,11.00 -50.50,-11.00" fill="#fcfcfc" stroke="#fcfcfc" stroke-width="0.1"/><text x="0" y="5" text-anchor="middle" font-family="sans-serif" font-size="14.00" fill="#004400">長崎円喜</text></a></g>
<g class="node" transform="translate(576.33, 212.13)"><a xlink:href="https://ja.wikipedia.org/wiki/北条仲時" xlink:title="六波羅探題北方。" target="_blank" ><polygon points="-50.50,-11.00 50.50,-11.00 50.50,11.00 -50.50,11.00 -50.50,-11.00" fill="#fcfcfc" stroke="#fcfcfc" stroke-width="0.1"/><text x="0" y="5" text-anchor="middle" font-family="sans-serif" font-size="14.00" fill="#004400">北条仲時</text></a></g>
<g class="node" transform="translate(268.36, 140.81)"><a xlink:href="https://ja.wikipedia.org/wiki/万里小路宣房" xlink:title="後醍醐の側近。" target="_blank" ><polygon points="-50.50,-11.00 50.50,-11.00 50.50,11.00 -50.50,11.00 -50.50,-11.00" fill="#fcfcfc" stroke="#fcfcfc" stroke-width="0.1"/><text x="0" y="5" text-anchor="middle" font-family="sans-serif" font-size="14.00" fill="#000000">万里小路宣房</text></a></g>
<g class="node" transform="translate(256.85, 266.02)"><a xlink:href="https://ja.wikipedia.org/wiki/北畠親房" xlink:title="公卿。後醍醐を補佐する。" target="_blank" ><polygon points="-50.50,-11.00 50.50,-11.00 50.50,11.00 -50.50,11.00 -50.50,-11.00" fill="#fcfcfc" stroke="#fcfcfc" stroke-width="0.1"/><text x="0" y="5" text-anchor="middle" font-family="sans-serif" font-size="14.00" fill="#000000">北畠親房</text></a></g>
<g class="node" transform="translate(350.14, 211.30)"><a xlink:href="https://ja.wikipedia.org/wiki/北畠顕家" xlink:title="親房の子。討幕軍を統率。" target="_blank" ><polygon points="-50.50,-11.00 50.50,-11.00 50.50,11.00 -50.50,11.00 -50.50,-11.00" fill="#fcfcfc" stroke="#fcfcfc" stroke-width="0.1"/><text x="0" y="5" text-anchor="middle" font-family="sans-serif" font-size="14.00" fill="#000000">北畠顕家</text></a></g>
<g class="node" transform="translate(154.33, 483.88)"><a xlink:href="https://ja.wikipedia.org/wiki/楠木正季" xlink:title="正成の弟。" target="_blank" ><polygon points="-50.50,-11.00 50.50,-11.00 50.50,11.00 -50.50,11.00 -50.50,-11.00" fill="#fcfcfc" stroke="#fcfcfc" stroke-width="0.1"/><text x="0" y="5" text-anchor="middle" font-family="sans-serif" font-size="14.00" fill="#cc0000">楠木正季</text></a></g>
<g class="node" transform="translate(739.82, 312.92)"><a xlink:href="https://ja.wikipedia.org/wiki/新田義貞" xlink:title="上野で挙兵。" target="_blank" ><polygon points="-50.50,-11.00 50.50,-11.00 50.50,11.00 -50.50,11.00 -50.50,-11.00" fill="#fcfcfc" stroke="#fcfcfc" stroke-width="0.1"/><text x="0" y="5" text-anchor="middle" font-family="sans-serif" font-size="14.00" fill="#000000">新田義貞</text></a></g>
<g class="node" transform="translate(808.59, 391.28)"><a xlink:href="https://ja.wikipedia.org/wiki/新田義顕" xlink:title="義貞の子。" target="_blank" ><polygon points="-50.50,-11.00 50.50,-11.00 50.50,11.00 -50.50,11.00 -50.50,-11.00" fill="#fcfcfc" stroke="#fcfcfc" stroke-width="0.1"/><text x="0" y="5" text-anchor="middle" font-family="sans-serif" font-size="14.00" fill="#000000">新田義顕</text></a></g>
<g class="node" transform="translate(660.41, 372.91)"><a xlink:href="https://ja.wikipedia.org/wiki/脇屋義助" xlink:title="義貞の弟。" target="_blank" ><polygon points="-50.50,-11.00 50.50,-11.00 50.50,11.00 -50.50,11.00 -50.50,-11.00" fill="#fcfcfc" stroke="#fcfcfc" stroke-width="0.1"/><text x="0" y="5" text-anchor="middle" font-family="sans-serif" font-size="14.00" fill="#000000">脇屋義助</text></a></g>
<g class="node" transform="translate(121.80, 234.94)"><a xlink:href="https://ja.wikipedia.org/wiki/堀川具親" xlink:title="公卿。" target="_blank" ><polygon points="-50.50,-11.00 50.50,-11.00 50.50,11.00 -50.50,11.00 -50.50,-11.00" fill="#fcfcfc" stroke="#fcfcfc" stroke-width="0.1"/><text x="0" y="5" text-anchor="middle" font-family="sans-serif" font-size="14.00" fill="#000000">堀川具親</text></a></g>
<g class="node" transform="translate(202.47, 173.74)"><a xlink:href="https://ja.wikipedia.org/wiki/四条隆資" xlink:title="後醍醐天皇の側近。討幕運動に関与。" target="_blank" ><polygon points="-50.50,-11.00 50.50,-11.00 50.50,11.00 -50.50,11.00 -50.50,-11.00" fill="#fcfcfc" stroke="#fcfcfc" stroke-width="0.1"/><text x="0" y="5" text-anchor="middle" font-family="sans-serif" font-size="14.00" fill="#000000">四条隆資</text></a></g>
<g class="node" transform="translate(90.55, 418.05)"><a xlink:href="https://ja.wikipedia.org/wiki/土居通遠" xlink:title="伊予の武士。討幕に呼応。" target="_blank" ><polygon points="-50.50,-11.00 50.50,-11.00 50.50,11.00 -50.50,11.00 -50.50,-11.00" fill="#fcfcfc" stroke="#fcfcfc" stroke-width="0.1"/><text x="0" y="5" text-anchor="middle" font-family="sans-serif" font-size="14.00" fill="#000000">土居通遠</text></a></g>
<g class="node" transform="translate(165.05, 338.51)"><a xlink:href="https://ja.wikipedia.org/wiki/徳能通時" xlink:title="名和氏配下の武将。" target="_blank" ><polygon points="-50.50,-11.00 50.50,-11.00 50.50,11.00 -50.50,11.00 -50.50,-11.00" fill="#fcfcfc" stroke="#fcfcfc" stroke-width="0.1"/><text x="0" y="5" text-anchor="middle" font-family="sans-serif" font-size="14.00" fill="#000000">徳能通時</text></a></g>
<g class="node" transform="translate(13.49, 213.25)"><a xlink:href="https://ja.wikipedia.org/wiki/千種忠顕" xlink:title="公卿。討幕運動に関与。" target="_blank" ><polygon points="-50.50,-11.00 50.50,-11.00 50.50,11.00 -50.50,11.00 -50.50,-11.00" fill="#fcfcfc" stroke="#fcfcfc" stroke-width="0.1"/><text x="0" y="5" text-anchor="middle" font-family="sans-serif" font-size="14.00" fill="#000000">千種忠顕</text></a></g>
<g class="node" transform="translate(806.72, 242.13)"><a xlink:href="https://ja.wikipedia.org/wiki/結城宗広" xlink:title="東国の豪族。討幕に呼応。" target="_blank" ><polygon points="-50.50,-11.00 50.50,-11.00 50.50,11.00 -50.50,11.00 -50.50,-11.00" fill="#fcfcfc" stroke="#fcfcfc" stroke-width="0.1"/><text x="0" y="5" text-anchor="middle" font-family="sans-serif" font-size="14.00" fill="#000000">結城宗広</text></a></g>
<g class="node" transform="translate(81.79, 566.35)"><a xlink:href="https://ja.wikipedia.org/wiki/菊池武時" xlink:title="博多で戦死。" target="_blank" ><polygon points="-50.50,-11.00 50.50,-11.00 50.50,11.00 -50.50,11.00 -50.50,-11.00" fill="#fcfcfc" stroke="#fcfcfc" stroke-width="0.1"/><text x="0" y="5" text-anchor="middle" font-family="sans-serif" font-size="14.00" fill="#aaaaaa">菊池武時</text></a></g>
<g class="node" transform="translate(189.11, 580.32)"><a xlink:href="https://ja.wikipedia.org/wiki/阿蘇惟直" xlink:title="九州の有力武士。" target="_blank" ><polygon points="-50.50,-11.00 50.50,-11.00 50.50,11.00 -50.50,11.00 -50.50,-11.00" fill="#fcfcfc" stroke="#fcfcfc" stroke-width="0.1"/><text x="0" y="5" text-anchor="middle" font-family="sans-serif" font-size="14.00" fill="#444444">阿蘇惟直</text></a></g>
<g class="node" transform="translate(233.40, 681.91)"><a xlink:href="https://ja.wikipedia.org/wiki/少弐頼尚" xlink:title="九州の有力武士。" target="_blank" ><polygon points="-50.50,-11.00 50.50,-11.00 50.50,11.00 -50.50,11.00 -50.50,-11.00" fill="#fcfcfc" stroke="#fcfcfc" stroke-width="0.1"/><text x="0" y="5" text-anchor="middle" font-family="sans-serif" font-size="14.00" fill="#444444">少弐頼尚</text></a></g>
<g class="node" transform="translate(335.91, 405.57)"><a xlink:href="https://ja.wikipedia.org/wiki/物部永房" xlink:title="朝廷側の実務官僚。" target="_blank" ><polygon points="-50.50,-11.00 50.50,-11.00 50.50,11.00 -50.50,11.00 -50.50,-11.00" fill="#fcfcfc" stroke="#fcfcfc" stroke-width="0.1"/><text x="0" y="5" text-anchor="middle" font-family="sans-serif" font-size="14.00" fill="#000000">物部永房</text></a></g>
<g class="node" transform="translate(448.23, 404.93)"><a xlink:href="https://ja.wikipedia.org/wiki/足利尊氏" xlink:title="鎌倉幕府の有力御家人。後の尊氏。" target="_blank" ><polygon points="-50.50,-11.00 50.50,-11.00 50.50,11.00 -50.50,11.00 -50.50,-11.00" fill="#fcfcfc" stroke="#fcfcfc" stroke-width="0.1"/><text x="0" y="5" text-anchor="middle" font-family="sans-serif" font-size="14.00" fill="#000000">足利高氏</text></a></g>
<g class="node" transform="translate(560.23, 420.43)"><a xlink:href="https://ja.wikipedia.org/wiki/足利直義" xlink:title="高氏の弟。後の直義。" target="_blank" ><polygon points="-50.50,-11.00 50.50,-11.00 50.50,11.00 -50.50,11.00 -50.50,-11.00" fill="#fcfcfc" stroke="#fcfcfc" stroke-width="0.1"/><text x="0" y="5" text-anchor="middle" font-family="sans-serif" font-size="14.00" fill="#000000">足利忠義</text></a></g>
<g class="node" transform="translate(469.08, 480.41)"><a xlink:href="https://ja.wikipedia.org/wiki/細川和氏" xlink:title="足利氏重臣。" target="_blank" ><polygon points="-50.50,-11.00 50.50,-11.00 50.50,11.00 -50.50,11.00 -50.50,-11.00" fill="#fcfcfc" stroke="#fcfcfc" stroke-width="0.1"/><text x="0" y="5" text-anchor="middle" font-family="sans-serif" font-size="14.00" fill="#000000">細川和氏</text></a></g>
<g class="node" transform="translate(617.54, 602.58)"><a xlink:href="https://ja.wikipedia.org/wiki/斯波高経" xlink:title="足利一門。" target="_blank" ><polygon points="-50.50,-11.00 50.50,-11.00 50.50,11.00 -50.50,11.00 -50.50,-11.00" fill="#fcfcfc" stroke="#fcfcfc" stroke-width="0.1"/><text x="0" y="5" text-anchor="middle" font-family="sans-serif" font-size="14.00" fill="#000000">斯波高経</text></a></g>
<g class="node" transform="translate(649.92, 483.35)"><a xlink:href="https://ja.wikipedia.org/wiki/高師直" xlink:title="高氏の家臣。" target="_blank" ><polygon points="-50.50,-11.00 50.50,-11.00 50.50,11.00 -50.50,11.00 -50.50,-11.00" fill="#fcfcfc" stroke="#fcfcfc" stroke-width="0.1"/><text x="0" y="5" text-anchor="middle" font-family="sans-serif" font-size="14.00" fill="#000000">高師直</text></a></g>
<g class="node" transform="translate(472.91, 251.25)"><a xlink:href="https://ja.wikipedia.org/wiki/吉良貞義" xlink:title="足利一門。" target="_blank" ><polygon points="-50.50,-11.00 50.50,-11.00 50.50,11.00 -50.50,11.00 -50.50,-11.00" fill="#fcfcfc" stroke="#fcfcfc" stroke-width="0.1"/><text x="0" y="5" text-anchor="middle" font-family="sans-serif" font-size="14.00" fill="#000000">吉良貞義</text></a></g>
<g class="node" transform="translate(505.86, 623.10)"><a xlink:href="https://ja.wikipedia.org/wiki/細川頼春" xlink:title="細川氏の一族。" target="_blank" ><polygon points="-50.50,-11.00 50.50,-11.00 50.50,11.00 -50.50,11.00 -50.50,-11.00" fill="#fcfcfc" stroke="#fcfcfc" stroke-width="0.1"/><text x="0" y="5" text-anchor="middle" font-family="sans-serif" font-size="14.00" fill="#000000">細川頼春</text></a></g>
<g class="node" transform="translate(565.55, 529.47)"><a xlink:href="https://ja.wikipedia.org/wiki/細川顕氏" xlink:title="細川氏の一族。" target="_blank" ><polygon points="-50.50,-11.00 50.50,-11.00 50.50,11.00 -50.50,11.00 -50.50,-11.00" fill="#fcfcfc" stroke="#fcfcfc" stroke-width="0.1"/><text x="0" y="5" text-anchor="middle" font-family="sans-serif" font-size="14.00" fill="#000000">細川顕氏</text></a></g>
<g class="node" transform="translate(302.78, 593.59)"><a xlink:href="https://ja.wikipedia.org/wiki/赤松円心" xlink:title="播磨の武士。討幕に呼応。" target="_blank" ><polygon points="-50.50,-11.00 50.50,-11.00 50.50,11.00 -50.50,11.00 -50.50,-11.00" fill="#fcfcfc" stroke="#fcfcfc" stroke-width="0.1"/><text x="0" y="5" text-anchor="middle" font-family="sans-serif" font-size="14.00" fill="#cc0000">赤松円心</text></a></g>
<g class="node" transform="translate(394.41, 606.16)"><a xlink:href="https://ja.wikipedia.org/wiki/赤松貞範" xlink:title="円心の子。討幕に呼応。" target="_blank" ><polygon points="-50.50,-11.00 50.50,-11.00 50.50,11.00 -50.50,11.00 -50.50,-11.00" fill="#fcfcfc" stroke="#fcfcfc" stroke-width="0.1"/><text x="0" y="5" text-anchor="middle" font-family="sans-serif" font-size="14.00" fill="#cc0000">赤松貞範</text></a></g>
<g class="node" transform="translate(458.22, 553.22)"><a xlink:href="https://ja.wikipedia.org/wiki/佐々木道誉" xlink:title="幕府の有力御家人。" target="_blank" ><polygon points="-50.50,-11.00 50.50,-11.00 50.50,11.00 -50.50,11.00 -50.50,-11.00" fill="#fcfcfc" stroke="#fcfcfc" stroke-width="0.1"/><text x="0" y="5" text-anchor="middle" font-family="sans-serif" font-size="14.00" fill="#000000">佐々木道誉</text></a></g>
<g class="node" transform="translate(570.41, 308.69)"><a xlink:href="https://ja.wikipedia.org/wiki/土岐頼貞" xlink:title="有力武士。" target="_blank" ><polygon points="-50.50,-11.00 50.50,-11.00 50.50,11.00 -50.50,11.00 -50.50,-11.00" fill="#fcfcfc" stroke="#fcfcfc" stroke-width="0.1"/><text x="0" y="5" text-anchor="middle" font-family="sans-serif" font-size="14.00" fill="#444444">土岐頼貞</text></a></g>
<g class="node" transform="translate(123.98, 667.60)"><a xlink:href="https://ja.wikipedia.org/wiki/島津貞久" xlink:title="有力武士。" target="_blank" ><polygon points="-50.50,-11.00 50.50,-11.00 50.50,11.00 -50.50,11.00 -50.50,-11.00" fill="#fcfcfc" stroke="#fcfcfc" stroke-width="0.1"/><text x="0" y="5" text-anchor="middle" font-family="sans-serif" font-size="14.00" fill="#444444">島津貞久</text></a></g>
<g class="node" transform="translate(258.89, 491.78)"><a xlink:href="https://ja.wikipedia.org/wiki/大内長弘" xlink:title="有力武士。" target="_blank" ><polygon points="-50.50,-11.00 50.50,-11.00 50.50,11.00 -50.50,11.00 -50.50,-11.00" fill="#fcfcfc" stroke="#fcfcfc" stroke-width="0.1"/><text x="0" y="5" text-anchor="middle" font-family="sans-serif" font-size="14.00" fill="#444444">大内長弘</text></a></g>
<g class="node" transform="translate(772.07, 519.92)"><a xlink:href="https://ja.wikipedia.org/wiki/夢窓疎石" xlink:title="禅僧。" target="_blank" ><polygon points="-50.50,-11.00 50.50,-11.00 50.50,11.00 -50.50,11.00 -50.50,-11.00" fill="#fcfcfc" stroke="#fcfcfc" stroke-width="0.1"/><text x="0" y="5" text-anchor="middle" font-family="sans-serif" font-size="14.00" fill="#444444">夢窓疎石</text></a></g>
<g class="node" transform="translate(725.75, 621.24)"><a xlink:href="https://ja.wikipedia.org/wiki/聞文謙信" xlink:title="僧侶。" target="_blank" ><polygon points="-50.50,-11.00 50.50,-11.00 50.50,11.00 -50.50,11.00 -50.50,-11.00" fill="#fcfcfc" stroke="#fcfcfc" stroke-width="0.1"/><text x="0" y="5" text-anchor="middle" font-family="sans-serif" font-size="14.00" fill="#444444">聞文謙信</text></a></g>
<g class="node" transform="translate(739.01, 97.17)"><a xlink:href="https://ja.wikipedia.org/wiki/上杉重房" xlink:title="有力御家人。幕府の重臣。" target="_blank" ><polygon points="-50.50,-11.00 50.50,-11.00 50.50,11.00 -50.50,11.00 -50.50,-11.00" fill="#fcfcfc" stroke="#fcfcfc" stroke-width="0.1"/><text x="0" y="5" text-anchor="middle" font-family="sans-serif" font-size="14.00" fill="#444444">上杉重房</text></a></g>
</svg>