<?xml version="1.0" encoding="UTF-8" standalone="no"?>
<!DOCTYPE svg PUBLIC "-//W3C//DTD SVG 1.1//EN"
 "http://www.w3.org/Graphics/SVG/1.1/DTD/svg11.dtd">
<!-- Generated by graphviz version 2.43.0 (0)
 -->
<!-- Title: timeline_1333_02 Pages: 1 -->
<svg width="899pt" height="714pt"
 viewBox="0.00 0.00 899.09 713.51" xmlns="http://www.w3.org/2000/svg" xmlns:xlink="http://www.w3.org/1999/xlink">
<g id="graph0" class="graph" transform="scale(1 1) rotate(0) translate(4 709.51)">
<title>timeline_1333_02</title>
<polygon fill="#ffffff" stroke="transparent" points="-4,4 -4,-709.51 895.09,-709.51 895.09,4 -4,4"/>
<!-- godaigo_tenno -->
<g id="node1" class="node">
<title>godaigo_tenno</title>
<g id="a_node1"><a xlink:href="https://ja.wikipedia.org/wiki/後醍醐天皇" xlink:title="元弘の変で敗北し、隠岐へ配流される。" target="_blank">
<polygon fill="#fcfcfc" stroke="#fcfcfc" stroke-width="0.1" points="226.87,-674.72 125.87,-674.72 125.87,-652.72 226.87,-652.72 226.87,-674.72"/>
<text text-anchor="middle" x="176.37" y="-660.02" font-family="sans-serif" font-size="14.00" fill="#cc0000">後醍醐天皇</text>
</a>
</g>
</g>
<!-- moriyoshi_shinnou -->
<g id="node2" class="node">
<title>moriyoshi_shinnou</title>
<g id="a_node2"><a xlink:href="https://ja.wikipedia.org/wiki/護良親王" xlink:title="後醍醐天皇の皇子。討幕運動を推進。" target="_blank">
<polygon fill="#fcfcfc" stroke="#fcfcfc" stroke-width="0.1" points="235.97,-614.56 134.97,-614.56 134.97,-592.56 235.97,-592.56 235.97,-614.56"/>
<text text-anchor="middle" x="185.47" y="-599.86" font-family="sans-serif" font-size="14.00" fill="#cc0000">護良親王</text>
</a>
</g>
</g>
<!-- godaigo_tenno&#45;&gt;moriyoshi_shinnou -->
<g id="edge1" class="edge">
<title>godaigo_tenno&#45;&gt;moriyoshi_shinnou</title>
<g id="a_edge1"><a xlink:title="討幕の挙兵を命じる。">
<path fill="none" stroke="#cc0000" stroke-width="2.8" d="M180.65,-652.7C181.16,-651.09 181.62,-649.42 181.96,-647.82 183.53,-640.41 184.41,-632.16 184.9,-624.82"/>
<polygon fill="#cc0000" stroke="#cc0000" stroke-width="2.8" points="188.41,-624.74 185.38,-614.59 181.41,-624.41 188.41,-624.74"/>
</a>
</g>
</g>
<!-- munenaga_shinnou -->
<g id="node3" class="node">
<title>munenaga_shinnou</title>
<g id="a_node3"><a xlink:href="https://ja.wikipedia.org/wiki/宗良親王" xlink:title="後醍醐天皇の皇子。討幕運動に関与。" target="_blank">
<polygon fill="#fcfcfc" stroke="#fcfcfc" stroke-width="0.1" points="277.37,-705.51 176.37,-705.51 176.37,-683.51 277.37,-683.51 277.37,-705.51"/>
<text text-anchor="middle" x="226.87" y="-690.81" font-family="sans-serif" font-size="14.00" fill="#cc0000">宗良親王</text>
</a>
</g>
</g>
<!-- godaigo_tenno&#45;&gt;munenaga_shinnou -->
<g id="edge5" class="edge">
<title>godaigo_tenno&#45;&gt;munenaga_shinnou</title>
<g id="a_edge5"><a xlink:title="皇子として討幕に関与。">
<path fill="none" stroke="#cc0000" stroke-width="2.8" d="M194.6,-674.84C196.3,-675.87 198.04,-676.93 199.79,-678"/>
<polygon fill="#cc0000" stroke="#cc0000" stroke-width="2.8" points="198.14,-681.09 208.5,-683.31 201.78,-675.11 198.14,-681.09"/>
</a>
</g>
</g>
<!-- tsuneyoshi_shinnou -->
<g id="node4" class="node">
<title>tsuneyoshi_shinnou</title>
<g id="a_node4"><a xlink:href="https://ja.wikipedia.org/wiki/恒良親王" xlink:title="後醍醐天皇の皇子。" target="_blank">
<polygon fill="#fcfcfc" stroke="#fcfcfc" stroke-width="0.1" points="299.81,-644.69 198.81,-644.69 198.81,-622.69 299.81,-622.69 299.81,-644.69"/>
<text text-anchor="middle" x="249.31" y="-629.99" font-family="sans-serif" font-size="14.00" fill="#cc0000">恒良親王</text>
</a>
</g>
</g>
<!-- godaigo_tenno&#45;&gt;tsuneyoshi_shinnou -->
<g id="edge4" class="edge">
<title>godaigo_tenno&#45;&gt;tsuneyoshi_shinnou</title>
<g id="a_edge4"><a xlink:title="皇子として討幕に関与。">
<path fill="none" stroke="#cc0000" stroke-width="2.8" d="M203.12,-652.71C206.39,-651.36 209.77,-649.97 213.15,-648.58"/>
<polygon fill="#cc0000" stroke="#cc0000" stroke-width="2.8" points="214.66,-651.74 222.57,-644.7 211.99,-645.27 214.66,-651.74"/>
</a>
</g>
</g>
<!-- kusunoki_masashige -->
<g id="node12" class="node">
<title>kusunoki_masashige</title>
<g id="a_node12"><a xlink:href="https://ja.wikipedia.org/wiki/楠木正成" xlink:title="河内の悪党。挙兵する。" target="_blank">
<polygon fill="#fcfcfc" stroke="#fcfcfc" stroke-width="0.1" points="274.61,-245.24 173.61,-245.24 173.61,-223.24 274.61,-223.24 274.61,-245.24"/>
<text text-anchor="middle" x="224.11" y="-230.54" font-family="sans-serif" font-size="14.00" fill="#cc0000">楠木正成</text>
</a>
</g>
</g>
<!-- godaigo_tenno&#45;&gt;kusunoki_masashige -->
<g id="edge2" class="edge">
<title>godaigo_tenno&#45;&gt;kusunoki_masashige</title>
<g id="a_edge2"><a xlink:title="討幕の挙兵を命じる。">
<path fill="none" stroke="#cc0000" stroke-width="2.8" d="M182.11,-652.7C186.45,-642.66 190.37,-628.11 181.96,-619.42 178.08,-615.41 135.65,-621.77 131.77,-617.76 122.99,-608.69 127.06,-601.07 131.77,-589.36 136.15,-578.46 162.6,-561.45 168.35,-551.2 222.93,-453.89 218.05,-419.12 232.4,-308.48 234.71,-290.64 232.09,-270.35 229.2,-255.49"/>
<polygon fill="#cc0000" stroke="#cc0000" stroke-width="2.8" points="232.53,-254.36 227.01,-245.32 225.69,-255.83 232.53,-254.36"/>
</a>
</g>
</g>
<!-- nawa_nagatoshi -->
<g id="node14" class="node">
<title>nawa_nagatoshi</title>
<g id="a_node14"><a xlink:href="https://ja.wikipedia.org/wiki/名和長年" xlink:title="伯耆の豪族。後醍醐天皇を支援。" target="_blank">
<polygon fill="#fcfcfc" stroke="#fcfcfc" stroke-width="0.1" points="384.4,-223.76 283.4,-223.76 283.4,-201.76 384.4,-201.76 384.4,-223.76"/>
<text text-anchor="middle" x="333.9" y="-209.06" font-family="sans-serif" font-size="14.00" fill="#cc0000">名和長年</text>
</a>
</g>
</g>
<!-- godaigo_tenno&#45;&gt;nawa_nagatoshi -->
<g id="edge3" class="edge">
<title>godaigo_tenno&#45;&gt;nawa_nagatoshi</title>
<g id="a_edge3"><a xlink:title="隠岐脱出を支援。">
<path fill="none" stroke="#cc0000" stroke-width="2.8" d="M180.6,-652.34C185.33,-639.9 192.71,-621.48 195.61,-619.49 199.61,-616.75 235.25,-620.6 239.17,-617.76 252.57,-608.04 238.88,-592.76 252.13,-582.83 256.16,-579.81 270.43,-583.83 274.73,-581.21 308.16,-560.91 309.31,-543.61 320.79,-506.21 350.83,-408.29 341.81,-283.38 336.52,-234.11"/>
<polygon fill="#cc0000" stroke="#cc0000" stroke-width="2.8" points="339.98,-233.56 335.38,-224.02 333.03,-234.35 339.98,-233.56"/>
</a>
</g>
</g>
<!-- hino_suketomo -->
<g id="node5" class="node">
<title>hino_suketomo</title>
<g id="a_node5"><a xlink:href="https://ja.wikipedia.org/wiki/日野資朝" xlink:title="討幕計画により処刑。" target="_blank">
<polygon fill="#fcfcfc" stroke="#fcfcfc" stroke-width="0.1" points="122.39,-602.1 21.39,-602.1 21.39,-580.1 122.39,-580.1 122.39,-602.1"/>
<text text-anchor="middle" x="71.89" y="-587.4" font-family="sans-serif" font-size="14.00" fill="#aaaaaa">日野資朝</text>
</a>
</g>
</g>
<!-- hino_toshimoto -->
<g id="node6" class="node">
<title>hino_toshimoto</title>
<g id="a_node6"><a xlink:href="https://ja.wikipedia.org/wiki/日野俊基" xlink:title="討幕計画により処刑。" target="_blank">
<polygon fill="#fcfcfc" stroke="#fcfcfc" stroke-width="0.1" points="178.76,-644.62 77.76,-644.62 77.76,-622.62 178.76,-622.62 178.76,-644.62"/>
<text text-anchor="middle" x="128.26" y="-629.92" font-family="sans-serif" font-size="14.00" fill="#aaaaaa">日野俊基</text>
</a>
</g>
</g>
<!-- madenokoji_nobufusa -->
<g id="node7" class="node">
<title>madenokoji_nobufusa</title>
<g id="a_node7"><a xlink:href="https://ja.wikipedia.org/wiki/万里小路宣房" xlink:title="後醍醐の側近。" target="_blank">
<polygon fill="#fcfcfc" stroke="#fcfcfc" stroke-width="0.1" points="356.33,-608.03 255.33,-608.03 255.33,-586.03 356.33,-586.03 356.33,-608.03"/>
<text text-anchor="middle" x="305.83" y="-593.33" font-family="sans-serif" font-size="14.00" fill="#000000">万里小路宣房</text>
</a>
</g>
</g>
<!-- madenokoji_nobufusa&#45;&gt;godaigo_tenno -->
<g id="edge30" class="edge">
<title>madenokoji_nobufusa&#45;&gt;godaigo_tenno</title>
<g id="a_edge30"><a xlink:title="側近として補佐。">
<path fill="none" stroke="#666666" stroke-width="1.5" d="M276.04,-608.12C264.66,-611.87 251.47,-615.64 239.17,-617.76 234.39,-618.58 199.61,-616.75 195.61,-619.49 193.14,-621.18 187.42,-634.8 182.86,-646.48"/>
<polygon fill="#666666" stroke="#666666" stroke-width="1.5" points="180.8,-645.99 180.6,-652.34 184.72,-647.5 180.8,-645.99"/>
</a>
</g>
</g>
<!-- horikawa_tomochika -->
<g id="node8" class="node">
<title>horikawa_tomochika</title>
<g id="a_node8"><a xlink:href="https://ja.wikipedia.org/wiki/堀川具親" xlink:title="公卿。" target="_blank">
<polygon fill="#fcfcfc" stroke="#fcfcfc" stroke-width="0.1" points="165.15,-548 64.15,-548 64.15,-526 165.15,-526 165.15,-548"/>
<text text-anchor="middle" x="114.65" y="-533.3" font-family="sans-serif" font-size="14.00" fill="#000000">堀川具親</text>
</a>
</g>
</g>
<!-- horikawa_tomochika&#45;&gt;godaigo_tenno -->
<g id="edge31" class="edge">
<title>horikawa_tomochika&#45;&gt;godaigo_tenno</title>
<g id="a_edge31"><a xlink:title="宮方の公卿。">
<path fill="none" stroke="#666666" stroke-width="1.5" d="M118.07,-548.1C120.43,-556.05 123.5,-567.06 125.59,-576.9 127.49,-585.88 124.9,-611.66 131.77,-617.76 135.94,-621.47 178.08,-615.41 181.96,-619.42 188.86,-626.55 187.46,-637.62 184.34,-646.91"/>
<polygon fill="#666666" stroke="#666666" stroke-width="1.5" points="182.31,-646.35 182.11,-652.7 186.23,-647.86 182.31,-646.35"/>
</a>
</g>
</g>
<!-- shijo_takadata -->
<g id="node9" class="node">
<title>shijo_takadata</title>
<g id="a_node9"><a xlink:href="https://ja.wikipedia.org/wiki/四条隆資" xlink:title="後醍醐天皇の側近。討幕運動に関与。" target="_blank">
<polygon fill="#fcfcfc" stroke="#fcfcfc" stroke-width="0.1" points="271.53,-578.01 170.53,-578.01 170.53,-556.01 271.53,-556.01 271.53,-578.01"/>
<text text-anchor="middle" x="221.03" y="-563.31" font-family="sans-serif" font-size="14.00" fill="#000000">四条隆資</text>
</a>
</g>
</g>
<!-- shijo_takadata&#45;&gt;godaigo_tenno -->
<g id="edge28" class="edge">
<title>shijo_takadata&#45;&gt;godaigo_tenno</title>
<g id="a_edge28"><a xlink:title="側近として補佐。">
<path fill="none" stroke="#666666" stroke-width="1.5" d="M232.69,-578.36C235.33,-581.64 237.76,-585.4 239.17,-589.36 243.39,-601.25 247.91,-608.66 239.17,-617.76 235.81,-621.25 199.61,-616.75 195.61,-619.49 193.14,-621.18 187.42,-634.8 182.86,-646.48"/>
<polygon fill="#666666" stroke="#666666" stroke-width="1.5" points="180.8,-645.99 180.6,-652.34 184.72,-647.5 180.8,-645.99"/>
</a>
</g>
</g>
<!-- chigusa_tadaaki -->
<g id="node10" class="node">
<title>chigusa_tadaaki</title>
<g id="a_node10"><a xlink:href="https://ja.wikipedia.org/wiki/千種忠顕" xlink:title="公卿。討幕運動に関与。" target="_blank">
<polygon fill="#fcfcfc" stroke="#fcfcfc" stroke-width="0.1" points="101,-517.99 0,-517.99 0,-495.99 101,-495.99 101,-517.99"/>
<text text-anchor="middle" x="50.5" y="-503.29" font-family="sans-serif" font-size="14.00" fill="#000000">千種忠顕</text>
</a>
</g>
</g>
<!-- chigusa_tadaaki&#45;&gt;godaigo_tenno -->
<g id="edge29" class="edge">
<title>chigusa_tadaaki&#45;&gt;godaigo_tenno</title>
<g id="a_edge29"><a xlink:title="側近として補佐。">
<path fill="none" stroke="#666666" stroke-width="1.5" d="M50.37,-518.07C50.84,-527.88 53.01,-542.01 60.95,-551.2 81.15,-574.6 106.36,-552.69 125.59,-576.9 137.01,-591.28 118.04,-605.55 131.77,-617.76 135.94,-621.47 178.08,-615.41 181.96,-619.42 188.86,-626.55 187.46,-637.62 184.34,-646.91"/>
<polygon fill="#666666" stroke="#666666" stroke-width="1.5" points="182.31,-646.35 182.11,-652.7 186.23,-647.86 182.31,-646.35"/>
</a>
</g>
</g>
<!-- kitabatake_chikafusa -->
<g id="node11" class="node">
<title>kitabatake_chikafusa</title>
<g id="a_node11"><a xlink:href="https://ja.wikipedia.org/wiki/北畠親房" xlink:title="公卿。後醍醐を補佐する。" target="_blank">
<polygon fill="#fcfcfc" stroke="#fcfcfc" stroke-width="0.1" points="317.59,-503.01 216.59,-503.01 216.59,-481.01 317.59,-481.01 317.59,-503.01"/>
<text text-anchor="middle" x="267.09" y="-488.31" font-family="sans-serif" font-size="14.00" fill="#000000">北畠親房</text>
</a>
</g>
</g>
<!-- kitabatake_chikafusa&#45;&gt;godaigo_tenno -->
<g id="edge26" class="edge">
<title>kitabatake_chikafusa&#45;&gt;godaigo_tenno</title>
<g id="a_edge26"><a xlink:title="後醍醐天皇を補佐。">
<path fill="none" stroke="#666666" stroke-width="1.5" d="M272.63,-503.02C281.19,-521.75 294.64,-559.83 274.73,-581.21 271.3,-584.9 256.16,-579.81 252.13,-582.83 238.88,-592.76 252.57,-608.04 239.17,-617.76 235.25,-620.6 199.61,-616.75 195.61,-619.49 193.14,-621.18 187.42,-634.8 182.86,-646.48"/>
<polygon fill="#666666" stroke="#666666" stroke-width="1.5" points="180.8,-645.99 180.6,-652.34 184.72,-647.5 180.8,-645.99"/>
</a>
</g>
</g>
<!-- kusunoki_masasue -->
<g id="node13" class="node">
<title>kusunoki_masasue</title>
<g id="a_node13"><a xlink:href="https://ja.wikipedia.org/wiki/楠木正季" xlink:title="正成の弟。" target="_blank">
<polygon fill="#fcfcfc" stroke="#fcfcfc" stroke-width="0.1" points="241.07,-215.22 140.07,-215.22 140.07,-193.22 241.07,-193.22 241.07,-215.22"/>
<text text-anchor="middle" x="190.57" y="-200.52" font-family="sans-serif" font-size="14.00" fill="#cc0000">楠木正季</text>
</a>
</g>
</g>
<!-- kusunoki_masashige&#45;&gt;kusunoki_masasue -->
<g id="edge20" class="edge">
<title>kusunoki_masashige&#45;&gt;kusunoki_masasue</title>
<g id="a_edge20"><a xlink:title="兄弟の協力関係。">
<path fill="none" stroke="#555555" stroke-width="2" d="M211.62,-223.06C210.74,-222.27 209.83,-221.46 208.93,-220.65"/>
<polygon fill="#555555" stroke="#555555" stroke-width="2" points="210.79,-218.56 202.96,-215.31 207.05,-222.73 210.79,-218.56"/>
</a>
</g>
</g>
<!-- doi_michitsura -->
<g id="node16" class="node">
<title>doi_michitsura</title>
<g id="a_node16"><a xlink:href="https://ja.wikipedia.org/wiki/土居通遠" xlink:title="伊予の武士。討幕に呼応。" target="_blank">
<polygon fill="#fcfcfc" stroke="#fcfcfc" stroke-width="0.1" points="204.47,-275.25 103.47,-275.25 103.47,-253.25 204.47,-253.25 204.47,-275.25"/>
<text text-anchor="middle" x="153.97" y="-260.55" font-family="sans-serif" font-size="14.00" fill="#000000">土居通遠</text>
</a>
</g>
</g>
<!-- nawa_nagatoshi&#45;&gt;doi_michitsura -->
<g id="edge6" class="edge">
<title>nawa_nagatoshi&#45;&gt;doi_michitsura</title>
<g id="a_edge6"><a xlink:title="挙兵への協力。">
<path fill="none" stroke="#cc0000" stroke-width="2.8" d="M320.06,-224.03C309.24,-232.21 293.44,-242.79 277.81,-248.44 257.93,-255.62 235.23,-259.63 214.73,-261.84"/>
<polygon fill="#cc0000" stroke="#cc0000" stroke-width="2.8" points="214.18,-258.37 204.56,-262.81 214.85,-265.34 214.18,-258.37"/>
</a>
</g>
</g>
<!-- tokunou_michitoki -->
<g id="node17" class="node">
<title>tokunou_michitoki</title>
<g id="a_node17"><a xlink:href="https://ja.wikipedia.org/wiki/徳能通時" xlink:title="名和氏配下の武将。" target="_blank">
<polygon fill="#fcfcfc" stroke="#fcfcfc" stroke-width="0.1" points="229.2,-305.28 128.2,-305.28 128.2,-283.28 229.2,-283.28 229.2,-305.28"/>
<text text-anchor="middle" x="178.7" y="-290.58" font-family="sans-serif" font-size="14.00" fill="#000000">徳能通時</text>
</a>
</g>
</g>
<!-- nawa_nagatoshi&#45;&gt;tokunou_michitoki -->
<g id="edge7" class="edge">
<title>nawa_nagatoshi&#45;&gt;tokunou_michitoki</title>
<g id="a_edge7"><a xlink:title="挙兵への協力。">
<path fill="none" stroke="#cc0000" stroke-width="2.8" d="M317.56,-223.97C306.56,-231.32 291.59,-240.92 277.81,-248.44 257.31,-259.63 233.59,-270.67 214.5,-279.1"/>
<polygon fill="#cc0000" stroke="#cc0000" stroke-width="2.8" points="213.01,-275.93 205.25,-283.15 215.82,-282.35 213.01,-275.93"/>
</a>
</g>
</g>
<!-- kikuchi_taketoki -->
<g id="node15" class="node">
<title>kikuchi_taketoki</title>
<g id="a_node15"><a xlink:href="https://ja.wikipedia.org/wiki/菊池武時" xlink:title="九州の有力武士。討幕に呼応。" target="_blank">
<polygon fill="#fcfcfc" stroke="#fcfcfc" stroke-width="0.1" points="182.58,-94.4 81.58,-94.4 81.58,-72.4 182.58,-72.4 182.58,-94.4"/>
<text text-anchor="middle" x="132.08" y="-79.7" font-family="sans-serif" font-size="14.00" fill="#444444">菊池武時</text>
</a>
</g>
</g>
<!-- kikuchi_taketoki&#45;&gt;godaigo_tenno -->
<g id="edge8" class="edge">
<title>kikuchi_taketoki&#45;&gt;godaigo_tenno</title>
<g id="a_edge8"><a xlink:title="討幕の綸旨を受け呼応。">
<path fill="none" stroke="#cc0000" stroke-width="2.8" d="M129.18,-94.61C122.44,-121.3 105.87,-190.82 100.27,-250.05 89.66,-362.29 167.71,-518.09 168.35,-522.8 170.06,-535.31 173.06,-539.49 168.35,-551.2 166.16,-556.65 133.96,-583.91 131.77,-589.36 127.06,-601.07 122.99,-608.69 131.77,-617.76 135.65,-621.77 178.08,-615.41 181.96,-619.42 187.94,-625.6 187.69,-634.74 185.48,-643.11"/>
<polygon fill="#cc0000" stroke="#cc0000" stroke-width="2.8" points="182.13,-642.11 182.11,-652.7 188.73,-644.43 182.13,-642.11"/>
</a>
</g>
</g>
<!-- gofushimi_in -->
<g id="node18" class="node">
<title>gofushimi_in</title>
<g id="a_node18"><a xlink:href="https://ja.wikipedia.org/wiki/後伏見天皇" xlink:title="持明院統。幕府の支持を受ける。" target="_blank">
<polygon fill="#fcfcfc" stroke="#fcfcfc" stroke-width="0.1" points="452.16,-668.06 351.16,-668.06 351.16,-646.06 452.16,-646.06 452.16,-668.06"/>
<text text-anchor="middle" x="401.66" y="-653.36" font-family="sans-serif" font-size="14.00" fill="#0000cc">後伏見院</text>
</a>
</g>
</g>
<!-- hanazono_in -->
<g id="node19" class="node">
<title>hanazono_in</title>
<g id="a_node19"><a xlink:href="https://ja.wikipedia.org/wiki/花園天皇" xlink:title="持明院統。" target="_blank">
<polygon fill="#fcfcfc" stroke="#fcfcfc" stroke-width="0.1" points="408.99,-638.05 307.99,-638.05 307.99,-616.05 408.99,-616.05 408.99,-638.05"/>
<text text-anchor="middle" x="358.49" y="-623.35" font-family="sans-serif" font-size="14.00" fill="#0000cc">花園院</text>
</a>
</g>
</g>
<!-- gofushimi_in&#45;&gt;hanazono_in -->
<g id="edge23" class="edge">
<title>gofushimi_in&#45;&gt;hanazono_in</title>
<g id="a_edge23"><a xlink:title="持明院統の連携。">
<path fill="none" stroke="#0000aa" stroke-width="2" d="M385.59,-645.88C384.11,-644.86 382.59,-643.8 381.06,-642.74"/>
<polygon fill="#0000aa" stroke="#0000aa" stroke-width="2" points="382.6,-640.4 374.43,-638.13 379.41,-645 382.6,-640.4"/>
</a>
</g>
</g>
<!-- kogen_tenno -->
<g id="node20" class="node">
<title>kogen_tenno</title>
<g id="a_node20"><a xlink:href="https://ja.wikipedia.org/wiki/光厳天皇" xlink:title="持明院統。皇位継承者。" target="_blank">
<polygon fill="#fcfcfc" stroke="#fcfcfc" stroke-width="0.1" points="470.4,-698.12 369.4,-698.12 369.4,-676.12 470.4,-676.12 470.4,-698.12"/>
<text text-anchor="middle" x="419.9" y="-683.42" font-family="sans-serif" font-size="14.00" fill="#0000cc">光厳天皇</text>
</a>
</g>
</g>
<!-- gofushimi_in&#45;&gt;kogen_tenno -->
<g id="edge24" class="edge">
<title>gofushimi_in&#45;&gt;kogen_tenno</title>
<g id="a_edge24"><a xlink:title="皇位継承に関与。">
<path fill="none" stroke="#0000aa" stroke-width="2" d="M408.45,-668.25C408.55,-668.41 408.65,-668.57 408.74,-668.73"/>
<polygon fill="#0000aa" stroke="#0000aa" stroke-width="2" points="406.62,-670.63 413.17,-676.01 411.41,-667.72 406.62,-670.63"/>
</a>
</g>
</g>
<!-- hojo_takatoki -->
<g id="node21" class="node">
<title>hojo_takatoki</title>
<g id="a_node21"><a xlink:href="https://ja.wikipedia.org/wiki/北条高時" xlink:title="鎌倉幕府得宗。" target="_blank">
<polygon fill="#fcfcfc" stroke="#fcfcfc" stroke-width="0.1" points="663.92,-584.81 562.92,-584.81 562.92,-562.81 663.92,-562.81 663.92,-584.81"/>
<text text-anchor="middle" x="613.42" y="-570.11" font-family="sans-serif" font-size="14.00" fill="#004400">北条高時</text>
</a>
</g>
</g>
<!-- hojo_moritoki -->
<g id="node22" class="node">
<title>hojo_moritoki</title>
<g id="a_node22"><a xlink:href="https://ja.wikipedia.org/wiki/北条守時" xlink:title="鎌倉幕府執権。" target="_blank">
<polygon fill="#fcfcfc" stroke="#fcfcfc" stroke-width="0.1" points="678.5,-554.73 577.5,-554.73 577.5,-532.73 678.5,-532.73 678.5,-554.73"/>
<text text-anchor="middle" x="628" y="-540.03" font-family="sans-serif" font-size="14.00" fill="#004400">北条守時</text>
</a>
</g>
</g>
<!-- hojo_takatoki&#45;&gt;hojo_moritoki -->
<g id="edge13" class="edge">
<title>hojo_takatoki&#45;&gt;hojo_moritoki</title>
<g id="a_edge13"><a xlink:title="幕府体制の維持。">
<path fill="none" stroke="#005500" stroke-width="2.8" d="M618.85,-562.61C618.93,-562.45 619,-562.29 619.08,-562.13"/>
<polygon fill="#005500" stroke="#005500" stroke-width="2.8" points="621.4,-565.37 622.61,-554.84 615.1,-562.32 621.4,-565.37"/>
</a>
</g>
</g>
<!-- nagasaki_takasuke -->
<g id="node24" class="node">
<title>nagasaki_takasuke</title>
<g id="a_node24"><a xlink:href="https://ja.wikipedia.org/wiki/長崎高資" xlink:title="鎌倉幕府内管領。" target="_blank">
<polygon fill="#fcfcfc" stroke="#fcfcfc" stroke-width="0.1" points="568.24,-349.06 467.24,-349.06 467.24,-327.06 568.24,-327.06 568.24,-349.06"/>
<text text-anchor="middle" x="517.74" y="-334.36" font-family="sans-serif" font-size="14.00" fill="#004400">長崎高資</text>
</a>
</g>
</g>
<!-- hojo_takatoki&#45;&gt;nagasaki_takasuke -->
<g id="edge11" class="edge">
<title>hojo_takatoki&#45;&gt;nagasaki_takasuke</title>
<g id="a_edge11"><a xlink:title="幕府の支配体制。">
<path fill="none" stroke="#005500" stroke-width="2.8" d="M582.41,-562.76C579.58,-561.3 576.83,-559.69 574.3,-557.93 519.81,-520.09 507.14,-499.34 488.79,-435.59 481.02,-408.61 494.06,-377.52 505.07,-357.84"/>
<polygon fill="#005500" stroke="#005500" stroke-width="2.8" points="508.12,-359.55 510.21,-349.16 502.1,-355.98 508.12,-359.55"/>
</a>
</g>
</g>
<!-- nagasaki_enki -->
<g id="node25" class="node">
<title>nagasaki_enki</title>
<g id="a_node25"><a xlink:href="https://ja.wikipedia.org/wiki/長崎円喜" xlink:title="鎌倉幕府内管領。" target="_blank">
<polygon fill="#fcfcfc" stroke="#fcfcfc" stroke-width="0.1" points="501.78,-318.92 400.78,-318.92 400.78,-296.92 501.78,-296.92 501.78,-318.92"/>
<text text-anchor="middle" x="451.28" y="-304.22" font-family="sans-serif" font-size="14.00" fill="#004400">長崎円喜</text>
</a>
</g>
</g>
<!-- hojo_takatoki&#45;&gt;nagasaki_enki -->
<g id="edge12" class="edge">
<title>hojo_takatoki&#45;&gt;nagasaki_enki</title>
<g id="a_edge12"><a xlink:title="幕府の支配体制。">
<path fill="none" stroke="#005500" stroke-width="2.8" d="M582.41,-562.76C579.58,-561.3 576.83,-559.69 574.3,-557.93 559.43,-547.6 557.74,-542.31 546.76,-527.92 517.38,-489.39 508.75,-479.74 488.79,-435.59 472.87,-400.39 474.88,-389.34 464.04,-352.26 461.81,-344.63 459.39,-336.25 457.26,-328.85"/>
<polygon fill="#005500" stroke="#005500" stroke-width="2.8" points="460.62,-327.87 454.5,-319.22 453.89,-329.8 460.62,-327.87"/>
</a>
</g>
</g>
<!-- hojo_nakatoki -->
<g id="node23" class="node">
<title>hojo_nakatoki</title>
<g id="a_node23"><a xlink:href="https://ja.wikipedia.org/wiki/北条仲時" xlink:title="六波羅探題北方。" target="_blank">
<polygon fill="#fcfcfc" stroke="#fcfcfc" stroke-width="0.1" points="650.96,-524.72 549.96,-524.72 549.96,-502.72 650.96,-502.72 650.96,-524.72"/>
<text text-anchor="middle" x="600.46" y="-510.02" font-family="sans-serif" font-size="14.00" fill="#004400">北条仲時</text>
</a>
</g>
</g>
<!-- hojo_moritoki&#45;&gt;hojo_nakatoki -->
<g id="edge14" class="edge">
<title>hojo_moritoki&#45;&gt;hojo_nakatoki</title>
<g id="a_edge14"><a xlink:title="六波羅探題への指示。">
<path fill="none" stroke="#005500" stroke-width="2.8" d="M617.74,-532.55C617.6,-532.4 617.45,-532.24 617.31,-532.08"/>
<polygon fill="#005500" stroke="#005500" stroke-width="2.8" points="619.97,-529.8 610.63,-524.8 614.81,-534.54 619.97,-529.8"/>
</a>
</g>
</g>
<!-- uesugi_shigefusa -->
<g id="node26" class="node">
<title>uesugi_shigefusa</title>
<g id="a_node26"><a xlink:href="https://ja.wikipedia.org/wiki/上杉重房" xlink:title="有力御家人。幕府の重臣。" target="_blank">
<polygon fill="#fcfcfc" stroke="#fcfcfc" stroke-width="0.1" points="835.83,-595.66 734.83,-595.66 734.83,-573.66 835.83,-573.66 835.83,-595.66"/>
<text text-anchor="middle" x="785.33" y="-580.96" font-family="sans-serif" font-size="14.00" fill="#444444">上杉重房</text>
</a>
</g>
</g>
<!-- uesugi_shigefusa&#45;&gt;hojo_takatoki -->
<g id="edge15" class="edge">
<title>uesugi_shigefusa&#45;&gt;hojo_takatoki</title>
<g id="a_edge15"><a xlink:title="北条氏を支える重臣。">
<path fill="none" stroke="#005500" stroke-width="2.8" d="M734.68,-581.47C715.7,-580.27 693.95,-578.9 674.15,-577.65"/>
<polygon fill="#005500" stroke="#005500" stroke-width="2.8" points="674.2,-574.14 664,-577.01 673.76,-581.13 674.2,-574.14"/>
</a>
</g>
</g>
<!-- ashikaga_takauji -->
<g id="node27" class="node">
<title>ashikaga_takauji</title>
<g id="a_node27"><a xlink:href="https://ja.wikipedia.org/wiki/足利尊氏" xlink:title="鎌倉幕府の有力御家人。後の尊氏" target="_blank">
<polygon fill="#fcfcfc" stroke="#fcfcfc" stroke-width="0.1" points="591.55,-275.03 490.55,-275.03 490.55,-253.03 591.55,-253.03 591.55,-275.03"/>
<text text-anchor="middle" x="541.05" y="-260.33" font-family="sans-serif" font-size="14.00" fill="#000000">足利高氏</text>
</a>
</g>
</g>
<!-- ashikaga_takauji&#45;&gt;hojo_takatoki -->
<g id="edge17" class="edge">
<title>ashikaga_takauji&#45;&gt;hojo_takatoki</title>
<g id="a_edge17"><a xlink:title="将軍への忠誠。">
<path fill="none" stroke="#555555" stroke-width="2" d="M557.97,-275.3C583.73,-293.44 632.28,-331.72 655.95,-377.15 693.45,-449.13 732.16,-494.37 681.7,-557.93 678.86,-561.51 675.39,-564.37 671.53,-566.66"/>
<polygon fill="#555555" stroke="#555555" stroke-width="2" points="670.2,-564.19 664.22,-570.2 672.64,-569.24 670.2,-564.19"/>
</a>
</g>
</g>
<!-- ashikaga_tadayoshi -->
<g id="node28" class="node">
<title>ashikaga_tadayoshi</title>
<g id="a_node28"><a xlink:href="https://ja.wikipedia.org/wiki/足利直義" xlink:title="高氏の弟。後の直義。" target="_blank">
<polygon fill="#fcfcfc" stroke="#fcfcfc" stroke-width="0.1" points="617.61,-244.96 516.61,-244.96 516.61,-222.96 617.61,-222.96 617.61,-244.96"/>
<text text-anchor="middle" x="567.11" y="-230.26" font-family="sans-serif" font-size="14.00" fill="#000000">足利忠義</text>
</a>
</g>
</g>
<!-- ashikaga_takauji&#45;&gt;ashikaga_tadayoshi -->
<g id="edge21" class="edge">
<title>ashikaga_takauji&#45;&gt;ashikaga_tadayoshi</title>
<g id="a_edge21"><a xlink:title="兄弟の連携。">
<path fill="none" stroke="#555555" stroke-width="2" d="M550.75,-252.83C551.16,-252.36 551.58,-251.87 552,-251.39"/>
<polygon fill="#555555" stroke="#555555" stroke-width="2" points="554.36,-252.94 557.48,-245.07 550.13,-249.28 554.36,-252.94"/>
</a>
</g>
</g>
<!-- ko_no_moronao -->
<g id="node29" class="node">
<title>ko_no_moronao</title>
<g id="a_node29"><a xlink:href="https://ja.wikipedia.org/wiki/高師直" xlink:title="高氏の家臣。" target="_blank">
<polygon fill="#fcfcfc" stroke="#fcfcfc" stroke-width="0.1" points="644.27,-214.78 543.27,-214.78 543.27,-192.78 644.27,-192.78 644.27,-214.78"/>
<text text-anchor="middle" x="593.77" y="-200.08" font-family="sans-serif" font-size="14.00" fill="#000000">高師直</text>
</a>
</g>
</g>
<!-- ashikaga_tadayoshi&#45;&gt;ko_no_moronao -->
<g id="edge22" class="edge">
<title>ashikaga_tadayoshi&#45;&gt;ko_no_moronao</title>
<g id="a_edge22"><a xlink:title="足利家の家臣団。">
<path fill="none" stroke="#555555" stroke-width="2" d="M577.04,-222.72C577.46,-222.25 577.89,-221.76 578.32,-221.28"/>
<polygon fill="#555555" stroke="#555555" stroke-width="2" points="580.72,-222.78 583.92,-214.93 576.53,-219.07 580.72,-222.78"/>
</a>
</g>
</g>
<!-- kira_sadamitsu -->
<g id="node30" class="node">
<title>kira_sadamitsu</title>
<g id="a_node30"><a xlink:href="https://ja.wikipedia.org/wiki/吉良貞義" xlink:title="足利一門。" target="_blank">
<polygon fill="#fcfcfc" stroke="#fcfcfc" stroke-width="0.1" points="592.99,-432.39 491.99,-432.39 491.99,-410.39 592.99,-410.39 592.99,-432.39"/>
<text text-anchor="middle" x="542.49" y="-417.69" font-family="sans-serif" font-size="14.00" fill="#000000">吉良貞義</text>
</a>
</g>
</g>
<!-- kira_sadamitsu&#45;&gt;ashikaga_takauji -->
<g id="edge27" class="edge">
<title>kira_sadamitsu&#45;&gt;ashikaga_takauji</title>
<g id="a_edge27"><a xlink:title="足利一門。">
<path fill="none" stroke="#666666" stroke-width="1.5" d="M542.2,-410.33C542.37,-401.05 543.6,-387.67 548.55,-377.15 554.95,-363.55 565.98,-366.26 571.44,-352.26 576.03,-340.5 574.38,-336.14 571.44,-323.86 567.71,-308.28 559.22,-292.18 552.16,-280.61"/>
<polygon fill="#666666" stroke="#666666" stroke-width="1.5" points="553.8,-279.28 548.83,-275.31 550.24,-281.51 553.8,-279.28"/>
</a>
</g>
</g>
<!-- akamatsu_enshin -->
<g id="node31" class="node">
<title>akamatsu_enshin</title>
<g id="a_node31"><a xlink:href="https://ja.wikipedia.org/wiki/赤松円心" xlink:title="播磨の武士。討幕に呼応。" target="_blank">
<polygon fill="#fcfcfc" stroke="#fcfcfc" stroke-width="0.1" points="396.25,-140.1 295.25,-140.1 295.25,-118.1 396.25,-118.1 396.25,-140.1"/>
<text text-anchor="middle" x="345.75" y="-125.4" font-family="sans-serif" font-size="14.00" fill="#cc0000">赤松円心</text>
</a>
</g>
</g>
<!-- akamatsu_enshin&#45;&gt;godaigo_tenno -->
<g id="edge10" class="edge">
<title>akamatsu_enshin&#45;&gt;godaigo_tenno</title>
<g id="a_edge10"><a xlink:title="討幕に呼応。">
<path fill="none" stroke="#cc0000" stroke-width="2.8" d="M347.67,-140.19C349.84,-152.35 353.3,-170.52 355.05,-173.31 364.76,-188.83 379.55,-182.11 387.6,-198.56 393.16,-209.89 389.08,-214.42 387.6,-226.96 372.65,-353.7 369.63,-388.31 320.79,-506.21 305.81,-542.35 308.16,-560.91 274.73,-581.21 270.43,-583.83 256.16,-579.81 252.13,-582.83 238.88,-592.76 252.57,-608.04 239.17,-617.76 235.25,-620.6 199.61,-616.75 195.61,-619.49 193.39,-621.01 188.54,-632.17 184.27,-642.9"/>
<polygon fill="#cc0000" stroke="#cc0000" stroke-width="2.8" points="180.96,-641.75 180.6,-652.34 187.49,-644.29 180.96,-641.75"/>
</a>
</g>
</g>
<!-- akamatsu_sadanori -->
<g id="node32" class="node">
<title>akamatsu_sadanori</title>
<g id="a_node32"><a xlink:href="https://ja.wikipedia.org/wiki/赤松貞範" xlink:title="円心の子。討幕に呼応。" target="_blank">
<polygon fill="#fcfcfc" stroke="#fcfcfc" stroke-width="0.1" points="459.25,-170.11 358.25,-170.11 358.25,-148.11 459.25,-148.11 459.25,-170.11"/>
<text text-anchor="middle" x="408.75" y="-155.41" font-family="sans-serif" font-size="14.00" fill="#cc0000">赤松貞範</text>
</a>
</g>
</g>
<!-- akamatsu_enshin&#45;&gt;akamatsu_sadanori -->
<g id="edge9" class="edge">
<title>akamatsu_enshin&#45;&gt;akamatsu_sadanori</title>
<g id="a_edge9"><a xlink:title="一門の連携。">
<path fill="none" stroke="#cc0000" stroke-width="2.8" d="M368.85,-140.11C371.33,-141.29 373.89,-142.51 376.46,-143.73"/>
<polygon fill="#cc0000" stroke="#cc0000" stroke-width="2.8" points="375.12,-146.97 385.65,-148.11 378.13,-140.65 375.12,-146.97"/>
</a>
</g>
</g>
<!-- sasaki_doyo -->
<g id="node33" class="node">
<title>sasaki_doyo</title>
<g id="a_node33"><a xlink:href="https://ja.wikipedia.org/wiki/佐々木道誉" xlink:title="幕府の有力御家人。" target="_blank">
<polygon fill="#fcfcfc" stroke="#fcfcfc" stroke-width="0.1" points="575,-111.09 474,-111.09 474,-89.09 575,-89.09 575,-111.09"/>
<text text-anchor="middle" x="524.5" y="-96.39" font-family="sans-serif" font-size="14.00" fill="#000000">佐々木道誉</text>
</a>
</g>
</g>
<!-- sasaki_doyo&#45;&gt;hojo_takatoki -->
<g id="edge18" class="edge">
<title>sasaki_doyo&#45;&gt;hojo_takatoki</title>
<g id="a_edge18"><a xlink:title="幕府御家人。">
<path fill="none" stroke="#555555" stroke-width="2" d="M520.76,-111.18C512.68,-135.78 493.81,-196.92 487.35,-249.83 485.82,-262.36 482.14,-266.73 487.35,-278.23 491.65,-287.73 500.68,-284.21 504.98,-293.72 510.18,-305.22 513.71,-313 504.98,-322.12 501.83,-325.4 467.19,-320.57 464.04,-323.86 455.31,-332.97 462.22,-339.77 464.04,-352.26 476.45,-437.66 494.44,-459.3 546.76,-527.92 557.74,-542.31 559.43,-547.6 574.3,-557.93 574.61,-558.15 574.93,-558.37 575.26,-558.58"/>
<polygon fill="#555555" stroke="#555555" stroke-width="2" points="574.09,-561.15 582.41,-562.76 576.91,-556.31 574.09,-561.15"/>
</a>
</g>
</g>
<!-- toki_yorisada -->
<g id="node34" class="node">
<title>toki_yorisada</title>
<g id="a_node34"><a xlink:href="https://ja.wikipedia.org/wiki/土岐頼貞" xlink:title="有力武士。" target="_blank">
<polygon fill="#fcfcfc" stroke="#fcfcfc" stroke-width="0.1" points="652.75,-402.35 551.75,-402.35 551.75,-380.35 652.75,-380.35 652.75,-402.35"/>
<text text-anchor="middle" x="602.25" y="-387.65" font-family="sans-serif" font-size="14.00" fill="#444444">土岐頼貞</text>
</a>
</g>
</g>
<!-- toki_yorisada&#45;&gt;hojo_takatoki -->
<g id="edge19" class="edge">
<title>toki_yorisada&#45;&gt;hojo_takatoki</title>
<g id="a_edge19"><a xlink:title="有力武士。">
<path fill="none" stroke="#555555" stroke-width="2" d="M602.29,-402.68C601.96,-411.88 600.62,-425.01 596.19,-435.59 578.18,-478.51 529.88,-484.54 546.76,-527.92 553.33,-544.79 559.43,-547.6 574.3,-557.93 574.61,-558.15 574.93,-558.37 575.26,-558.58"/>
<polygon fill="#555555" stroke="#555555" stroke-width="2" points="574.09,-561.15 582.41,-562.76 576.91,-556.31 574.09,-561.15"/>
</a>
</g>
</g>
<!-- shimazu_sadahisa -->
<g id="node35" class="node">
<title>shimazu_sadahisa</title>
<g id="a_node35"><a xlink:href="https://ja.wikipedia.org/wiki/島津貞久" xlink:title="有力武士。" target="_blank">
<polygon fill="#fcfcfc" stroke="#fcfcfc" stroke-width="0.1" points="208.7,-22 107.7,-22 107.7,0 208.7,0 208.7,-22"/>
<text text-anchor="middle" x="158.2" y="-7.3" font-family="sans-serif" font-size="14.00" fill="#444444">島津貞久</text>
</a>
</g>
</g>
<!-- ouchi_nagahiro -->
<g id="node36" class="node">
<title>ouchi_nagahiro</title>
<g id="a_node36"><a xlink:href="https://ja.wikipedia.org/wiki/大内長弘" xlink:title="有力武士。" target="_blank">
<polygon fill="#fcfcfc" stroke="#fcfcfc" stroke-width="0.1" points="350.14,-193.72 249.14,-193.72 249.14,-171.72 350.14,-171.72 350.14,-193.72"/>
<text text-anchor="middle" x="299.64" y="-179.02" font-family="sans-serif" font-size="14.00" fill="#444444">大内長弘</text>
</a>
</g>
</g>
<!-- shimazu_sadahisa&#45;&gt;ouchi_nagahiro -->
<g id="edge16" class="edge">
<title>shimazu_sadahisa&#45;&gt;ouchi_nagahiro</title>
<g id="a_edge16"><a xlink:title="諸国の有力武士の連携。">
<path fill="none" stroke="#005500" stroke-width="2.8" d="M167.27,-22C190.86,-50.65 254.41,-127.8 284.03,-163.78"/>
<polygon fill="#005500" stroke="#005500" stroke-width="2.8" points="281.41,-166.09 290.47,-171.59 286.81,-161.64 281.41,-166.09"/>
</a>
</g>
</g>
<!-- muso_soseki -->
<g id="node37" class="node">
<title>muso_soseki</title>
<g id="a_node37"><a xlink:href="https://ja.wikipedia.org/wiki/夢窓疎石" xlink:title="禅僧。" target="_blank">
<polygon fill="#fcfcfc" stroke="#fcfcfc" stroke-width="0.1" points="891.09,-97.99 790.09,-97.99 790.09,-75.99 891.09,-75.99 891.09,-97.99"/>
<text text-anchor="middle" x="840.59" y="-83.29" font-family="sans-serif" font-size="14.00" fill="#444444">夢窓疎石</text>
</a>
</g>
</g>
<!-- monbun_kenshin -->
<g id="node38" class="node">
<title>monbun_kenshin</title>
<g id="a_node38"><a xlink:href="https://ja.wikipedia.org/wiki/聞文謙信" xlink:title="僧侶。" target="_blank">
<polygon fill="#fcfcfc" stroke="#fcfcfc" stroke-width="0.1" points="856.25,-66.53 755.25,-66.53 755.25,-44.53 856.25,-44.53 856.25,-66.53"/>
<text text-anchor="middle" x="805.75" y="-51.83" font-family="sans-serif" font-size="14.00" fill="#444444">聞文謙信</text>
</a>
</g>
</g>
<!-- muso_soseki&#45;&gt;monbun_kenshin -->
<g id="edge25" class="edge">
<title>muso_soseki&#45;&gt;monbun_kenshin</title>
<g id="a_edge25"><a xlink:title="禅僧と僧侶。">
<path fill="none" stroke="#666666" stroke-width="1.5" d="M828.4,-75.99C826.65,-74.41 824.82,-72.76 823,-71.11"/>
<polygon fill="#666666" stroke="#666666" stroke-width="1.5" points="824.08,-69.26 818.22,-66.79 821.27,-72.37 824.08,-69.26"/>
</a>
</g>
</g>
</g>
</svg>
