<?xml version="1.0" encoding="UTF-8" standalone="no"?>
<!DOCTYPE svg PUBLIC "-//W3C//DTD SVG 1.1//EN"
 "http://www.w3.org/Graphics/SVG/1.1/DTD/svg11.dtd">
<!-- Generated by graphviz version 2.43.0 (0)
 -->
<!-- Title: timeline_1331_08 Pages: 1 -->
<svg width="568pt" height="575pt"
 viewBox="0.00 0.00 568.21 574.98" xmlns="http://www.w3.org/2000/svg" xmlns:xlink="http://www.w3.org/1999/xlink">
<g id="graph0" class="graph" transform="scale(1 1) rotate(0) translate(4 570.98)">
<title>timeline_1331_08</title>
<polygon fill="#ffffff" stroke="transparent" points="-4,4 -4,-570.98 564.21,-570.98 564.21,4 -4,4"/>
<!-- godaigo_tenno -->
<g id="node1" class="node">
<title>godaigo_tenno</title>
<g id="a_node1"><a xlink:href="https://ja.wikipedia.org/wiki/後醍醐天皇" xlink:title="大覚寺統。討幕を画策する。" target="_blank">
<polygon fill="#fcfcfc" stroke="#fcfcfc" stroke-width="0.1" points="179.44,-566.98 78.44,-566.98 78.44,-544.98 179.44,-544.98 179.44,-566.98"/>
<text text-anchor="middle" x="128.94" y="-552.28" font-family="sans-serif" font-size="14.00" fill="#cc0000">後醍醐天皇</text>
</a>
</g>
</g>
<!-- hino_suketomo -->
<g id="node2" class="node">
<title>hino_suketomo</title>
<g id="a_node2"><a xlink:href="https://ja.wikipedia.org/wiki/日野資朝" xlink:title="討幕計画の主要人物。" target="_blank">
<polygon fill="#fcfcfc" stroke="#fcfcfc" stroke-width="0.1" points="101.62,-506.97 0.62,-506.97 0.62,-484.97 101.62,-484.97 101.62,-506.97"/>
<text text-anchor="middle" x="51.12" y="-492.27" font-family="sans-serif" font-size="14.00" fill="#cc0000">日野資朝</text>
</a>
</g>
</g>
<!-- godaigo_tenno&#45;&gt;hino_suketomo -->
<g id="edge1" class="edge">
<title>godaigo_tenno&#45;&gt;hino_suketomo</title>
<g id="a_edge1"><a xlink:title="討幕計画の指令。">
<path fill="none" stroke="#cc0000" stroke-width="2.8" d="M78.17,-558.31C64.08,-556.24 50.15,-551.12 40.99,-540.18 34.67,-532.61 36.06,-526.92 39.61,-516.74"/>
<polygon fill="#cc0000" stroke="#cc0000" stroke-width="2.8" points="43.02,-517.58 42.98,-506.99 36.41,-515.29 43.02,-517.58"/>
</a>
</g>
</g>
<!-- hino_toshimoto -->
<g id="node3" class="node">
<title>hino_toshimoto</title>
<g id="a_node3"><a xlink:href="https://ja.wikipedia.org/wiki/日野俊基" xlink:title="討幕計画の主要人物。" target="_blank">
<polygon fill="#fcfcfc" stroke="#fcfcfc" stroke-width="0.1" points="145.19,-536.98 44.19,-536.98 44.19,-514.98 145.19,-514.98 145.19,-536.98"/>
<text text-anchor="middle" x="94.69" y="-522.28" font-family="sans-serif" font-size="14.00" fill="#cc0000">日野俊基</text>
</a>
</g>
</g>
<!-- godaigo_tenno&#45;&gt;hino_toshimoto -->
<g id="edge2" class="edge">
<title>godaigo_tenno&#45;&gt;hino_toshimoto</title>
<g id="a_edge2"><a xlink:title="討幕計画の指令。">
<path fill="none" stroke="#cc0000" stroke-width="2.8" d="M116.18,-544.81C115.82,-544.49 115.46,-544.17 115.09,-543.85"/>
<polygon fill="#cc0000" stroke="#cc0000" stroke-width="2.8" points="117.17,-541.02 107.34,-537.06 112.55,-546.28 117.17,-541.02"/>
</a>
</g>
</g>
<!-- madenokoji_nobufusa -->
<g id="node4" class="node">
<title>madenokoji_nobufusa</title>
<g id="a_node4"><a xlink:href="https://ja.wikipedia.org/wiki/万里小路宣房" xlink:title="後醍醐の側近。" target="_blank">
<polygon fill="#fcfcfc" stroke="#fcfcfc" stroke-width="0.1" points="217.92,-487.26 116.92,-487.26 116.92,-465.26 217.92,-465.26 217.92,-487.26"/>
<text text-anchor="middle" x="167.42" y="-472.56" font-family="sans-serif" font-size="14.00" fill="#000000">万里小路宣房</text>
</a>
</g>
</g>
<!-- godaigo_tenno&#45;&gt;madenokoji_nobufusa -->
<g id="edge3" class="edge">
<title>godaigo_tenno&#45;&gt;madenokoji_nobufusa</title>
<g id="a_edge3"><a xlink:title="後醍醐の側近。">
<path fill="none" stroke="#cc0000" stroke-width="2.8" d="M144.68,-544.69C146.06,-543.28 147.33,-541.77 148.39,-540.18 156.93,-527.39 161.73,-510.67 164.38,-497.53"/>
<polygon fill="#cc0000" stroke="#cc0000" stroke-width="2.8" points="167.85,-497.96 166.12,-487.51 160.96,-496.76 167.85,-497.96"/>
</a>
</g>
</g>
<!-- hojo_takatoki -->
<g id="node5" class="node">
<title>hojo_takatoki</title>
<g id="a_node5"><a xlink:href="https://ja.wikipedia.org/wiki/北条高時" xlink:title="鎌倉幕府得宗。" target="_blank">
<polygon fill="#fcfcfc" stroke="#fcfcfc" stroke-width="0.1" points="560.21,-482.82 459.21,-482.82 459.21,-460.82 560.21,-460.82 560.21,-482.82"/>
<text text-anchor="middle" x="509.71" y="-468.12" font-family="sans-serif" font-size="14.00" fill="#004400">北条高時</text>
</a>
</g>
</g>
<!-- nagasaki_enki -->
<g id="node6" class="node">
<title>nagasaki_enki</title>
<g id="a_node6"><a xlink:href="https://ja.wikipedia.org/wiki/長崎円喜" xlink:title="鎌倉幕府内管領。" target="_blank">
<polygon fill="#fcfcfc" stroke="#fcfcfc" stroke-width="0.1" points="392.15,-229.11 291.15,-229.11 291.15,-207.11 392.15,-207.11 392.15,-229.11"/>
<text text-anchor="middle" x="341.65" y="-214.41" font-family="sans-serif" font-size="14.00" fill="#004400">長崎円喜</text>
</a>
</g>
</g>
<!-- hojo_takatoki&#45;&gt;nagasaki_enki -->
<g id="edge6" class="edge">
<title>hojo_takatoki&#45;&gt;nagasaki_enki</title>
<g id="a_edge6"><a xlink:title="幕府の支配体制。">
<path fill="none" stroke="#005500" stroke-width="2.8" d="M499.18,-460.46C471.82,-430.38 397.67,-345.27 355.57,-262.32 351.9,-255.1 348.97,-246.73 346.76,-239.22"/>
<polygon fill="#005500" stroke="#005500" stroke-width="2.8" points="350.09,-238.15 344.11,-229.4 343.33,-239.97 350.09,-238.15"/>
</a>
</g>
</g>
<!-- nagasaki_takasuke -->
<g id="node8" class="node">
<title>nagasaki_takasuke</title>
<g id="a_node8"><a xlink:href="https://ja.wikipedia.org/wiki/長崎高資" xlink:title="鎌倉幕府内管領。" target="_blank">
<polygon fill="#fcfcfc" stroke="#fcfcfc" stroke-width="0.1" points="459.77,-259.12 358.77,-259.12 358.77,-237.12 459.77,-237.12 459.77,-259.12"/>
<text text-anchor="middle" x="409.27" y="-244.42" font-family="sans-serif" font-size="14.00" fill="#004400">長崎高資</text>
</a>
</g>
</g>
<!-- hojo_takatoki&#45;&gt;nagasaki_takasuke -->
<g id="edge5" class="edge">
<title>hojo_takatoki&#45;&gt;nagasaki_takasuke</title>
<g id="a_edge5"><a xlink:title="幕府の支配体制。">
<path fill="none" stroke="#005500" stroke-width="2.8" d="M504.73,-460.73C488.83,-425.32 439.14,-314.64 418.45,-268.57"/>
<polygon fill="#005500" stroke="#005500" stroke-width="2.8" points="421.57,-266.97 414.28,-259.28 415.18,-269.84 421.57,-266.97"/>
</a>
</g>
</g>
<!-- kikuchi_taketoki -->
<g id="node7" class="node">
<title>kikuchi_taketoki</title>
<g id="a_node7"><a xlink:href="https://ja.wikipedia.org/wiki/菊池武時" xlink:title="九州の有力武士。討幕に呼応。" target="_blank">
<polygon fill="#fcfcfc" stroke="#fcfcfc" stroke-width="0.1" points="101,-22 0,-22 0,0 101,0 101,-22"/>
<text text-anchor="middle" x="50.5" y="-7.3" font-family="sans-serif" font-size="14.00" fill="#444444">菊池武時</text>
</a>
</g>
</g>
<!-- kikuchi_taketoki&#45;&gt;godaigo_tenno -->
<g id="edge4" class="edge">
<title>kikuchi_taketoki&#45;&gt;godaigo_tenno</title>
<g id="a_edge4"><a xlink:title="討幕の綸旨を受け呼応。">
<path fill="none" stroke="#cc0000" stroke-width="2.8" d="M48.7,-22.28C40.38,-78.36 10.25,-330.9 113.72,-490.46 123.56,-505.64 139.56,-495.99 148.39,-511.78 153.25,-520.47 153.82,-526.03 149.6,-535.94"/>
<polygon fill="#cc0000" stroke="#cc0000" stroke-width="2.8" points="146.43,-534.45 145.17,-544.97 152.72,-537.53 146.43,-534.45"/>
</a>
</g>
</g>
</g>
</svg>
